solid OpenSCAD_Model
  facet normal 0.994522 0.104529 0
    outer loop
      vertex 75 0 0.5
      vertex 73.3611 15.5934 0
      vertex 73.3611 15.5934 0.5
    endloop
  endfacet
  facet normal 0.994522 0.104529 0
    outer loop
      vertex 73.3611 15.5934 0
      vertex 75 0 0.5
      vertex 75 0 0
    endloop
  endfacet
  facet normal 0.951057 0.309017 0
    outer loop
      vertex 73.3611 15.5934 0.5
      vertex 68.5159 30.5052 0
      vertex 68.5159 30.5052 0.5
    endloop
  endfacet
  facet normal 0.951057 0.309017 0
    outer loop
      vertex 68.5159 30.5052 0
      vertex 73.3611 15.5934 0.5
      vertex 73.3611 15.5934 0
    endloop
  endfacet
  facet normal 0.866025 0.5 0
    outer loop
      vertex 68.5159 30.5052 0.5
      vertex 60.6763 44.0839 0
      vertex 60.6763 44.0839 0.5
    endloop
  endfacet
  facet normal 0.866025 0.5 0
    outer loop
      vertex 60.6763 44.0839 0
      vertex 68.5159 30.5052 0.5
      vertex 68.5159 30.5052 0
    endloop
  endfacet
  facet normal 0.743145 0.669131 0
    outer loop
      vertex 60.6763 44.0839 0.5
      vertex 50.1848 55.7359 0
      vertex 50.1848 55.7359 0.5
    endloop
  endfacet
  facet normal 0.743145 0.669131 0
    outer loop
      vertex 50.1848 55.7359 0
      vertex 60.6763 44.0839 0.5
      vertex 60.6763 44.0839 0
    endloop
  endfacet
  facet normal 0.587785 0.809017 -0
    outer loop
      vertex 50.1848 55.7359 0
      vertex 37.5 64.9519 0.5
      vertex 50.1848 55.7359 0.5
    endloop
  endfacet
  facet normal 0.587785 0.809017 0
    outer loop
      vertex 37.5 64.9519 0.5
      vertex 50.1848 55.7359 0
      vertex 37.5 64.9519 0
    endloop
  endfacet
  facet normal 0.406737 0.913545 -0
    outer loop
      vertex 37.5 64.9519 0
      vertex 23.1763 71.3292 0.5
      vertex 37.5 64.9519 0.5
    endloop
  endfacet
  facet normal 0.406737 0.913545 0
    outer loop
      vertex 23.1763 71.3292 0.5
      vertex 37.5 64.9519 0
      vertex 23.1763 71.3292 0
    endloop
  endfacet
  facet normal 0.207912 0.978148 -0
    outer loop
      vertex 23.1763 71.3292 0
      vertex 7.83963 74.5891 0.5
      vertex 23.1763 71.3292 0.5
    endloop
  endfacet
  facet normal 0.207912 0.978148 0
    outer loop
      vertex 7.83963 74.5891 0.5
      vertex 23.1763 71.3292 0
      vertex 7.83963 74.5891 0
    endloop
  endfacet
  facet normal 0 1 -0
    outer loop
      vertex 7.83963 74.5891 0
      vertex -7.83963 74.5891 0.5
      vertex 7.83963 74.5891 0.5
    endloop
  endfacet
  facet normal 0 1 0
    outer loop
      vertex -7.83963 74.5891 0.5
      vertex 7.83963 74.5891 0
      vertex -7.83963 74.5891 0
    endloop
  endfacet
  facet normal -0.207912 0.978148 0
    outer loop
      vertex -7.83963 74.5891 0
      vertex -23.1763 71.3292 0.5
      vertex -7.83963 74.5891 0.5
    endloop
  endfacet
  facet normal -0.207912 0.978148 0
    outer loop
      vertex -23.1763 71.3292 0.5
      vertex -7.83963 74.5891 0
      vertex -23.1763 71.3292 0
    endloop
  endfacet
  facet normal -0.406737 0.913545 0
    outer loop
      vertex -23.1763 71.3292 0
      vertex -37.5 64.9519 0.5
      vertex -23.1763 71.3292 0.5
    endloop
  endfacet
  facet normal -0.406737 0.913545 0
    outer loop
      vertex -37.5 64.9519 0.5
      vertex -23.1763 71.3292 0
      vertex -37.5 64.9519 0
    endloop
  endfacet
  facet normal -0.587785 0.809017 0
    outer loop
      vertex -37.5 64.9519 0
      vertex -50.1848 55.7359 0.5
      vertex -37.5 64.9519 0.5
    endloop
  endfacet
  facet normal -0.587785 0.809017 0
    outer loop
      vertex -50.1848 55.7359 0.5
      vertex -37.5 64.9519 0
      vertex -50.1848 55.7359 0
    endloop
  endfacet
  facet normal -0.743145 0.669131 0
    outer loop
      vertex -60.6763 44.0839 0
      vertex -50.1848 55.7359 0.5
      vertex -50.1848 55.7359 0
    endloop
  endfacet
  facet normal -0.743145 0.669131 0
    outer loop
      vertex -50.1848 55.7359 0.5
      vertex -60.6763 44.0839 0
      vertex -60.6763 44.0839 0.5
    endloop
  endfacet
  facet normal -0.866025 0.5 0
    outer loop
      vertex -68.5159 30.5052 0
      vertex -60.6763 44.0839 0.5
      vertex -60.6763 44.0839 0
    endloop
  endfacet
  facet normal -0.866025 0.5 0
    outer loop
      vertex -60.6763 44.0839 0.5
      vertex -68.5159 30.5052 0
      vertex -68.5159 30.5052 0.5
    endloop
  endfacet
  facet normal -0.951057 0.309017 0
    outer loop
      vertex -73.3611 15.5934 0
      vertex -68.5159 30.5052 0.5
      vertex -68.5159 30.5052 0
    endloop
  endfacet
  facet normal -0.951057 0.309017 0
    outer loop
      vertex -68.5159 30.5052 0.5
      vertex -73.3611 15.5934 0
      vertex -73.3611 15.5934 0.5
    endloop
  endfacet
  facet normal -0.994522 0.104529 0
    outer loop
      vertex -75 4.24912e-014 0
      vertex -73.3611 15.5934 0.5
      vertex -73.3611 15.5934 0
    endloop
  endfacet
  facet normal -0.994522 0.104529 0
    outer loop
      vertex -73.3611 15.5934 0.5
      vertex -75 4.24912e-014 0
      vertex -75 4.24912e-014 0.5
    endloop
  endfacet
  facet normal -0.994522 -0.104529 0
    outer loop
      vertex -73.3611 -15.5934 0
      vertex -75 4.24912e-014 0.5
      vertex -75 4.24912e-014 0
    endloop
  endfacet
  facet normal -0.994522 -0.104529 0
    outer loop
      vertex -75 4.24912e-014 0.5
      vertex -73.3611 -15.5934 0
      vertex -73.3611 -15.5934 0.5
    endloop
  endfacet
  facet normal -0.951057 -0.309017 0
    outer loop
      vertex -68.5159 -30.5052 0
      vertex -73.3611 -15.5934 0.5
      vertex -73.3611 -15.5934 0
    endloop
  endfacet
  facet normal -0.951057 -0.309017 0
    outer loop
      vertex -73.3611 -15.5934 0.5
      vertex -68.5159 -30.5052 0
      vertex -68.5159 -30.5052 0.5
    endloop
  endfacet
  facet normal -0.866025 -0.5 0
    outer loop
      vertex -60.6763 -44.0839 0
      vertex -68.5159 -30.5052 0.5
      vertex -68.5159 -30.5052 0
    endloop
  endfacet
  facet normal -0.866025 -0.5 0
    outer loop
      vertex -68.5159 -30.5052 0.5
      vertex -60.6763 -44.0839 0
      vertex -60.6763 -44.0839 0.5
    endloop
  endfacet
  facet normal -0.743145 -0.669131 0
    outer loop
      vertex -50.1848 -55.7359 0
      vertex -60.6763 -44.0839 0.5
      vertex -60.6763 -44.0839 0
    endloop
  endfacet
  facet normal -0.743145 -0.669131 0
    outer loop
      vertex -60.6763 -44.0839 0.5
      vertex -50.1848 -55.7359 0
      vertex -50.1848 -55.7359 0.5
    endloop
  endfacet
  facet normal -0.587785 -0.809017 0
    outer loop
      vertex -50.1848 -55.7359 0
      vertex -37.5 -64.9519 0.5
      vertex -50.1848 -55.7359 0.5
    endloop
  endfacet
  facet normal -0.587785 -0.809017 -0
    outer loop
      vertex -37.5 -64.9519 0.5
      vertex -50.1848 -55.7359 0
      vertex -37.5 -64.9519 0
    endloop
  endfacet
  facet normal -0.406737 -0.913545 0
    outer loop
      vertex -37.5 -64.9519 0
      vertex -23.1763 -71.3292 0.5
      vertex -37.5 -64.9519 0.5
    endloop
  endfacet
  facet normal -0.406737 -0.913545 -0
    outer loop
      vertex -23.1763 -71.3292 0.5
      vertex -37.5 -64.9519 0
      vertex -23.1763 -71.3292 0
    endloop
  endfacet
  facet normal -0.207912 -0.978148 0
    outer loop
      vertex -23.1763 -71.3292 0
      vertex -7.83963 -74.5891 0.5
      vertex -23.1763 -71.3292 0.5
    endloop
  endfacet
  facet normal -0.207912 -0.978148 -0
    outer loop
      vertex -7.83963 -74.5891 0.5
      vertex -23.1763 -71.3292 0
      vertex -7.83963 -74.5891 0
    endloop
  endfacet
  facet normal 0 -1 0
    outer loop
      vertex -7.83963 -74.5891 0
      vertex 7.83963 -74.5891 0.5
      vertex -7.83963 -74.5891 0.5
    endloop
  endfacet
  facet normal 0 -1 -0
    outer loop
      vertex 7.83963 -74.5891 0.5
      vertex -7.83963 -74.5891 0
      vertex 7.83963 -74.5891 0
    endloop
  endfacet
  facet normal 0.207912 -0.978148 0
    outer loop
      vertex 7.83963 -74.5891 0
      vertex 23.1763 -71.3292 0.5
      vertex 7.83963 -74.5891 0.5
    endloop
  endfacet
  facet normal 0.207912 -0.978148 0
    outer loop
      vertex 23.1763 -71.3292 0.5
      vertex 7.83963 -74.5891 0
      vertex 23.1763 -71.3292 0
    endloop
  endfacet
  facet normal 0.406737 -0.913545 0
    outer loop
      vertex 23.1763 -71.3292 0
      vertex 37.5 -64.9519 0.5
      vertex 23.1763 -71.3292 0.5
    endloop
  endfacet
  facet normal 0.406737 -0.913545 0
    outer loop
      vertex 37.5 -64.9519 0.5
      vertex 23.1763 -71.3292 0
      vertex 37.5 -64.9519 0
    endloop
  endfacet
  facet normal 0.587785 -0.809017 0
    outer loop
      vertex 37.5 -64.9519 0
      vertex 50.1848 -55.7359 0.5
      vertex 37.5 -64.9519 0.5
    endloop
  endfacet
  facet normal 0.587785 -0.809017 0
    outer loop
      vertex 50.1848 -55.7359 0.5
      vertex 37.5 -64.9519 0
      vertex 50.1848 -55.7359 0
    endloop
  endfacet
  facet normal 0.743145 -0.669131 0
    outer loop
      vertex 50.1848 -55.7359 0.5
      vertex 60.6763 -44.0839 0
      vertex 60.6763 -44.0839 0.5
    endloop
  endfacet
  facet normal 0.743145 -0.669131 0
    outer loop
      vertex 60.6763 -44.0839 0
      vertex 50.1848 -55.7359 0.5
      vertex 50.1848 -55.7359 0
    endloop
  endfacet
  facet normal 0.866025 -0.5 0
    outer loop
      vertex 60.6763 -44.0839 0.5
      vertex 68.5159 -30.5052 0
      vertex 68.5159 -30.5052 0.5
    endloop
  endfacet
  facet normal 0.866025 -0.5 0
    outer loop
      vertex 68.5159 -30.5052 0
      vertex 60.6763 -44.0839 0.5
      vertex 60.6763 -44.0839 0
    endloop
  endfacet
  facet normal 0.951057 -0.309017 0
    outer loop
      vertex 68.5159 -30.5052 0.5
      vertex 73.3611 -15.5934 0
      vertex 73.3611 -15.5934 0.5
    endloop
  endfacet
  facet normal 0.951057 -0.309017 0
    outer loop
      vertex 73.3611 -15.5934 0
      vertex 68.5159 -30.5052 0.5
      vertex 68.5159 -30.5052 0
    endloop
  endfacet
  facet normal 0.994522 -0.104529 0
    outer loop
      vertex 73.3611 -15.5934 0.5
      vertex 75 0 0
      vertex 75 0 0.5
    endloop
  endfacet
  facet normal 0.994522 -0.104529 0
    outer loop
      vertex 75 0 0
      vertex 73.3611 -15.5934 0.5
      vertex 73.3611 -15.5934 0
    endloop
  endfacet
  facet normal 0 0 -1
    outer loop
      vertex 73.3611 -15.5934 0
      vertex 73.3611 15.5934 0
      vertex 75 0 0
    endloop
  endfacet
  facet normal 0 0 -1
    outer loop
      vertex 68.5159 -30.5052 0
      vertex 73.3611 15.5934 0
      vertex 73.3611 -15.5934 0
    endloop
  endfacet
  facet normal 0 0 -1
    outer loop
      vertex 68.5159 -30.5052 0
      vertex 68.5159 30.5052 0
      vertex 73.3611 15.5934 0
    endloop
  endfacet
  facet normal 0 0 -1
    outer loop
      vertex 60.6763 -44.0839 0
      vertex 68.5159 30.5052 0
      vertex 68.5159 -30.5052 0
    endloop
  endfacet
  facet normal 0 0 -1
    outer loop
      vertex 60.6763 -44.0839 0
      vertex 60.6763 44.0839 0
      vertex 68.5159 30.5052 0
    endloop
  endfacet
  facet normal 0 0 -1
    outer loop
      vertex 50.1848 -55.7359 0
      vertex 60.6763 44.0839 0
      vertex 60.6763 -44.0839 0
    endloop
  endfacet
  facet normal 0 0 -1
    outer loop
      vertex 50.1848 -55.7359 0
      vertex 50.1848 55.7359 0
      vertex 60.6763 44.0839 0
    endloop
  endfacet
  facet normal 0 0 -1
    outer loop
      vertex 37.5 -64.9519 0
      vertex 50.1848 55.7359 0
      vertex 50.1848 -55.7359 0
    endloop
  endfacet
  facet normal 0 0 -1
    outer loop
      vertex 37.5 -64.9519 0
      vertex 37.5 64.9519 0
      vertex 50.1848 55.7359 0
    endloop
  endfacet
  facet normal 0 0 -1
    outer loop
      vertex 23.1763 -71.3292 0
      vertex 37.5 64.9519 0
      vertex 37.5 -64.9519 0
    endloop
  endfacet
  facet normal 0 0 -1
    outer loop
      vertex 23.1763 -71.3292 0
      vertex 23.1763 71.3292 0
      vertex 37.5 64.9519 0
    endloop
  endfacet
  facet normal 0 0 -1
    outer loop
      vertex 7.83963 -74.5891 0
      vertex 23.1763 71.3292 0
      vertex 23.1763 -71.3292 0
    endloop
  endfacet
  facet normal 0 0 -1
    outer loop
      vertex 7.83963 -74.5891 0
      vertex 7.83963 74.5891 0
      vertex 23.1763 71.3292 0
    endloop
  endfacet
  facet normal 0 0 -1
    outer loop
      vertex -7.83963 -74.5891 0
      vertex 7.83963 74.5891 0
      vertex 7.83963 -74.5891 0
    endloop
  endfacet
  facet normal 0 0 -1
    outer loop
      vertex -7.83963 -74.5891 0
      vertex -7.83963 74.5891 0
      vertex 7.83963 74.5891 0
    endloop
  endfacet
  facet normal 0 0 -1
    outer loop
      vertex -23.1763 -71.3292 0
      vertex -7.83963 74.5891 0
      vertex -7.83963 -74.5891 0
    endloop
  endfacet
  facet normal 0 0 -1
    outer loop
      vertex -23.1763 -71.3292 0
      vertex -23.1763 71.3292 0
      vertex -7.83963 74.5891 0
    endloop
  endfacet
  facet normal 0 0 -1
    outer loop
      vertex -37.5 -64.9519 0
      vertex -23.1763 71.3292 0
      vertex -23.1763 -71.3292 0
    endloop
  endfacet
  facet normal 0 0 -1
    outer loop
      vertex -37.5 -64.9519 0
      vertex -37.5 64.9519 0
      vertex -23.1763 71.3292 0
    endloop
  endfacet
  facet normal 0 0 -1
    outer loop
      vertex -50.1848 -55.7359 0
      vertex -37.5 64.9519 0
      vertex -37.5 -64.9519 0
    endloop
  endfacet
  facet normal 0 0 -1
    outer loop
      vertex -50.1848 -55.7359 0
      vertex -50.1848 55.7359 0
      vertex -37.5 64.9519 0
    endloop
  endfacet
  facet normal 0 0 -1
    outer loop
      vertex -60.6763 -44.0839 0
      vertex -50.1848 55.7359 0
      vertex -50.1848 -55.7359 0
    endloop
  endfacet
  facet normal 0 0 -1
    outer loop
      vertex -60.6763 -44.0839 0
      vertex -60.6763 44.0839 0
      vertex -50.1848 55.7359 0
    endloop
  endfacet
  facet normal 0 0 -1
    outer loop
      vertex -68.5159 -30.5052 0
      vertex -60.6763 44.0839 0
      vertex -60.6763 -44.0839 0
    endloop
  endfacet
  facet normal 0 0 -1
    outer loop
      vertex -68.5159 -30.5052 0
      vertex -68.5159 30.5052 0
      vertex -60.6763 44.0839 0
    endloop
  endfacet
  facet normal 0 0 -1
    outer loop
      vertex -73.3611 -15.5934 0
      vertex -68.5159 30.5052 0
      vertex -68.5159 -30.5052 0
    endloop
  endfacet
  facet normal 0 0 -1
    outer loop
      vertex -73.3611 -15.5934 0
      vertex -73.3611 15.5934 0
      vertex -68.5159 30.5052 0
    endloop
  endfacet
  facet normal 0 -0 -1
    outer loop
      vertex -73.3611 15.5934 0
      vertex -73.3611 -15.5934 0
      vertex -75 4.24912e-014 0
    endloop
  endfacet
  facet normal 0 0 1
    outer loop
      vertex 73.3611 15.5934 0.5
      vertex 73.3611 -15.5934 0.5
      vertex 75 0 0.5
    endloop
  endfacet
  facet normal 0 0 1
    outer loop
      vertex 68.5159 30.5052 0.5
      vertex 73.3611 -15.5934 0.5
      vertex 73.3611 15.5934 0.5
    endloop
  endfacet
  facet normal 0 0 1
    outer loop
      vertex 68.5159 30.5052 0.5
      vertex 68.5159 -30.5052 0.5
      vertex 73.3611 -15.5934 0.5
    endloop
  endfacet
  facet normal 0 0 1
    outer loop
      vertex 60.6763 44.0839 0.5
      vertex 68.5159 -30.5052 0.5
      vertex 68.5159 30.5052 0.5
    endloop
  endfacet
  facet normal 0 0 1
    outer loop
      vertex 60.6763 44.0839 0.5
      vertex 60.6763 -44.0839 0.5
      vertex 68.5159 -30.5052 0.5
    endloop
  endfacet
  facet normal 0 0 1
    outer loop
      vertex 50.1848 55.7359 0.5
      vertex 60.6763 -44.0839 0.5
      vertex 60.6763 44.0839 0.5
    endloop
  endfacet
  facet normal 0 0 1
    outer loop
      vertex 50.1848 55.7359 0.5
      vertex 50.1848 -55.7359 0.5
      vertex 60.6763 -44.0839 0.5
    endloop
  endfacet
  facet normal 0 0 1
    outer loop
      vertex 37.5 64.9519 0.5
      vertex 50.1848 -55.7359 0.5
      vertex 50.1848 55.7359 0.5
    endloop
  endfacet
  facet normal 0 0 1
    outer loop
      vertex 37.5 64.9519 0.5
      vertex 37.5 -64.9519 0.5
      vertex 50.1848 -55.7359 0.5
    endloop
  endfacet
  facet normal 0 0 1
    outer loop
      vertex 23.1763 71.3292 0.5
      vertex 37.5 -64.9519 0.5
      vertex 37.5 64.9519 0.5
    endloop
  endfacet
  facet normal 0 0 1
    outer loop
      vertex 23.1763 71.3292 0.5
      vertex 23.1763 -71.3292 0.5
      vertex 37.5 -64.9519 0.5
    endloop
  endfacet
  facet normal 0 0 1
    outer loop
      vertex 7.83963 74.5891 0.5
      vertex 23.1763 -71.3292 0.5
      vertex 23.1763 71.3292 0.5
    endloop
  endfacet
  facet normal 0 0 1
    outer loop
      vertex 7.83963 74.5891 0.5
      vertex 7.83963 -74.5891 0.5
      vertex 23.1763 -71.3292 0.5
    endloop
  endfacet
  facet normal -0 0 1
    outer loop
      vertex -7.83963 74.5891 0.5
      vertex 7.83963 -74.5891 0.5
      vertex 7.83963 74.5891 0.5
    endloop
  endfacet
  facet normal 0 0 1
    outer loop
      vertex -7.83963 74.5891 0.5
      vertex -7.83963 -74.5891 0.5
      vertex 7.83963 -74.5891 0.5
    endloop
  endfacet
  facet normal -0 0 1
    outer loop
      vertex -23.1763 71.3292 0.5
      vertex -7.83963 -74.5891 0.5
      vertex -7.83963 74.5891 0.5
    endloop
  endfacet
  facet normal 0 0 1
    outer loop
      vertex -23.1763 71.3292 0.5
      vertex -23.1763 -71.3292 0.5
      vertex -7.83963 -74.5891 0.5
    endloop
  endfacet
  facet normal -0 0 1
    outer loop
      vertex -37.5 64.9519 0.5
      vertex -23.1763 -71.3292 0.5
      vertex -23.1763 71.3292 0.5
    endloop
  endfacet
  facet normal 0 0 1
    outer loop
      vertex -37.5 64.9519 0.5
      vertex -37.5 -64.9519 0.5
      vertex -23.1763 -71.3292 0.5
    endloop
  endfacet
  facet normal -0 0 1
    outer loop
      vertex -50.1848 55.7359 0.5
      vertex -37.5 -64.9519 0.5
      vertex -37.5 64.9519 0.5
    endloop
  endfacet
  facet normal 0 0 1
    outer loop
      vertex -50.1848 55.7359 0.5
      vertex -50.1848 -55.7359 0.5
      vertex -37.5 -64.9519 0.5
    endloop
  endfacet
  facet normal -0 0 1
    outer loop
      vertex -60.6763 44.0839 0.5
      vertex -50.1848 -55.7359 0.5
      vertex -50.1848 55.7359 0.5
    endloop
  endfacet
  facet normal 0 0 1
    outer loop
      vertex -60.6763 44.0839 0.5
      vertex -60.6763 -44.0839 0.5
      vertex -50.1848 -55.7359 0.5
    endloop
  endfacet
  facet normal -0 0 1
    outer loop
      vertex -68.5159 30.5052 0.5
      vertex -60.6763 -44.0839 0.5
      vertex -60.6763 44.0839 0.5
    endloop
  endfacet
  facet normal 0 0 1
    outer loop
      vertex -68.5159 30.5052 0.5
      vertex -68.5159 -30.5052 0.5
      vertex -60.6763 -44.0839 0.5
    endloop
  endfacet
  facet normal -0 0 1
    outer loop
      vertex -73.3611 15.5934 0.5
      vertex -68.5159 -30.5052 0.5
      vertex -68.5159 30.5052 0.5
    endloop
  endfacet
  facet normal 0 0 1
    outer loop
      vertex -73.3611 15.5934 0.5
      vertex -73.3611 -15.5934 0.5
      vertex -68.5159 -30.5052 0.5
    endloop
  endfacet
  facet normal 0 -0 1
    outer loop
      vertex -73.3611 -15.5934 0.5
      vertex -73.3611 15.5934 0.5
      vertex -75 4.24912e-014 0.5
    endloop
  endfacet
endsolid OpenSCAD_Model
