  0
SECTION
  2
HEADER
  9
$ACADVER
  1
AC1014
  9
$HANDSEED
  5
FFFF
  9
$MEASUREMENT
 70
     1
  0
ENDSEC
  0
SECTION
  2
TABLES
  0
TABLE
  2
VPORT
  5
8
330
0
100
AcDbSymbolTable
 70
     4
  0
VPORT
  5
2E
330
8
100
AcDbSymbolTableRecord
100
AcDbViewportTableRecord
  2
*ACTIVE
 70
     0
 10
0.0
 20
0.0
 11
1.0
 21
1.0
 12
210.0
 22
148.5
 13
0.0
 23
0.0
 14
10.0
 24
10.0
 15
10.0
 25
10.0
 16
0.0
 26
0.0
 36
1.0
 17
0.0
 27
0.0
 37
0.0
 40
341.0
 41
1.24
 42
50.0
 43
0.0
 44
0.0
 50
0.0
 51
0.0
 71
     0
 72
   100
 73
     1
 74
     3
 75
     0
 76
     0
 77
     0
 78
     0
  0
ENDTAB
  0
TABLE
  2
LTYPE
  5
5
330
0
100
AcDbSymbolTable
 70
     1
  0
LTYPE
  5
14
330
5
100
AcDbSymbolTableRecord
100
AcDbLinetypeTableRecord
  2
BYBLOCK
 70
     0
  3

 72
    65
 73
     0
 40
0.0
  0
LTYPE
  5
15
330
5
100
AcDbSymbolTableRecord
100
AcDbLinetypeTableRecord
  2
BYLAYER
 70
     0
  3

 72
    65
 73
     0
 40
0.0
  0
LTYPE
  5
16
330
5
100
AcDbSymbolTableRecord
100
AcDbLinetypeTableRecord
  2
CONTINUOUS
 70
     0
  3
Solid line
 72
    65
 73
     0
 40
0.0
  0
ENDTAB
  0
TABLE
  2
LAYER
  5
2
100
AcDbSymbolTable
 70
2
  0
LAYER
  5
50
100
AcDbSymbolTableRecord
100
AcDbLayerTableRecord
  2
0
 70
0
  6
CONTINUOUS
  0
LAYER
  5
51
100
AcDbSymbolTableRecord
100
AcDbLayerTableRecord
  2
background
 70
0
  6
CONTINUOUS
  0
ENDTAB
  0
TABLE
  2
STYLE
  5
3
330
0
100
AcDbSymbolTable
 70
     1
  0
STYLE
  5
11
330
3
100
AcDbSymbolTableRecord
100
AcDbTextStyleTableRecord
  2
STANDARD
 70
     0
 40
0.0
 41
1.0
 50
0.0
 71
     0
 42
2.5
  3
txt
  4

  0
ENDTAB
  0
TABLE
  2
VIEW
  5
6
330
0
100
AcDbSymbolTable
 70
     0
  0
ENDTAB
  0
TABLE
  2
UCS
  5
7
330
0
100
AcDbSymbolTable
 70
     0
  0
ENDTAB
  0
TABLE
  2
APPID
  5
9
330
0
100
AcDbSymbolTable
 70
     2
  0
APPID
  5
12
330
9
100
AcDbSymbolTableRecord
100
AcDbRegAppTableRecord
  2
ACAD
 70
     0
  0
ENDTAB
  0
TABLE
  2
DIMSTYLE
  5
A
330
0
100
AcDbSymbolTable
 70
     1
  0
DIMSTYLE
105
27
330
A
100
AcDbSymbolTableRecord
100
AcDbDimStyleTableRecord
  2
ISO-25
 70
     0
  3

  4

  5

  6

  7

 40
1.0
 41
2.5
 42
0.625
 43
3.75
 44
1.25
 45
0.0
 46
0.0
 47
0.0
 48
0.0
140
2.5
141
2.5
142
0.0
143
0.03937007874016
144
1.0
145
0.0
146
1.0
147
0.625
 71
     0
 72
     0
 73
     0
 74
     0
 75
     0
 76
     0
 77
     1
 78
     8
170
     0
171
     3
172
     1
173
     0
174
     0
175
     0
176
     0
177
     0
178
     0
270
     2
271
     2
272
     2
273
     2
274
     3
340
11
275
     0
280
     0
281
     0
282
     0
283
     0
284
     8
285
     0
286
     0
287
     3
288
     0
  0
ENDTAB
  0
TABLE
  2
BLOCK_RECORD
  5
1
330
0
100
AcDbSymbolTable
 70
     1
  0
BLOCK_RECORD
  5
1F
330
1
100
AcDbSymbolTableRecord
100
AcDbBlockTableRecord
  2
*MODEL_SPACE
  0
BLOCK_RECORD
  5
1B
330
1
100
AcDbSymbolTableRecord
100
AcDbBlockTableRecord
  2
*PAPER_SPACE
  0
ENDTAB
  0
ENDSEC
  0
SECTION
  2
BLOCKS
  0
BLOCK
  5
20
330
1F
100
AcDbEntity
  8
0
100
AcDbBlockBegin
  2
*MODEL_SPACE
 70
     0
 10
0.0
 20
0.0
 30
0.0
  3
*MODEL_SPACE
  1

  0
ENDBLK
  5
21
330
1F
100
AcDbEntity
  8
0
100
AcDbBlockEnd
  0
BLOCK
  5
1C
330
1B
100
AcDbEntity
 67
     1
  8
0
100
AcDbBlockBegin
  2
*PAPER_SPACE
  1

  0
ENDBLK
  5
1D
330
1B
100
AcDbEntity
 67
     1
  8
0
100
AcDbBlockEnd
  0
ENDSEC
  0
SECTION
  2
ENTITIES
  0
LWPOLYLINE
  5
100
100
AcDbEntity
  8
background
 62
7
100
AcDbPolyline
 90
388
 70
0
 10
92.326979
 20
6.672483
 30
0.0
 10
95.431424
 20
6.672483
 30
0.0
 10
95.431424
 20
11.188039
 30
0.0
 10
82.731421
 20
9.776928
 30
0.0
 10
82.731421
 20
20.783597
 30
0.0
 10
79.909199
 20
20.783597
 30
0.0
 10
79.909199
 20
23.888042
 30
0.0
 10
73.418088
 20
30.096930
 30
0.0
 10
61.000310
 20
30.096930
 30
0.0
 10
61.000310
 20
33.201375
 30
0.0
 10
62.693643
 20
36.305819
 30
0.0
 10
57.895865
 20
36.305819
 30
0.0
 10
57.895865
 20
34.894708
 30
0.0
 10
52.004474
 20
32.883875
 30
0.0
 10
45.478085
 20
34.048042
 30
0.0
 10
49.429196
 20
36.305819
 30
0.0
 10
49.993640
 20
35.741375
 30
0.0
 10
56.202529
 20
37.152486
 30
0.0
 10
57.049196
 20
37.999153
 30
0.0
 10
57.895865
 20
38.563597
 30
0.0
 10
58.742532
 20
39.410264
 30
0.0
 10
62.693643
 20
44.208042
 30
0.0
 10
73.418088
 20
41.950264
 30
0.0
 10
74.264754
 20
42.514708
 30
0.0
 10
75.111421
 20
43.361375
 30
0.0
 10
75.958088
 20
44.208042
 30
0.0
 10
79.909199
 20
44.208042
 30
0.0
 10
79.909199
 20
41.103597
 30
0.0
 10
82.731421
 20
41.950264
 30
0.0
 10
83.578088
 20
42.514708
 30
0.0
 10
85.271421
 20
55.214708
 30
0.0
 10
84.424754
 20
55.779153
 30
0.0
 10
82.731421
 20
59.730264
 30
0.0
 10
86.118088
 20
59.730264
 30
0.0
 10
83.295865
 20
77.510264
 30
0.0
 10
86.118088
 20
78.639164
 30
0.0
 10
86.118088
 20
87.105831
 30
0.0
 10
86.682532
 20
87.952497
 30
0.0
 10
85.271421
 20
98.959164
 30
0.0
 10
84.424754
 20
99.805831
 30
0.0
 10
83.578088
 20
100.370275
 30
0.0
 10
82.731421
 20
101.216942
 30
0.0
 10
80.473643
 20
116.174720
 30
0.0
 10
79.909199
 20
117.021386
 30
0.0
 10
75.958088
 20
128.592497
 30
0.0
 10
81.320310
 20
135.648053
 30
0.0
 10
82.166976
 20
136.494720
 30
0.0
 10
87.529199
 20
135.648053
 30
0.0
 10
88.375865
 20
136.494720
 30
0.0
 10
98.535868
 20
142.703617
 30
0.0
 10
98.712257
 20
152.828339
 30
0.0
 10
95.713646
 20
161.894731
 30
0.0
 10
99.946979
 20
163.023620
 30
0.0
 10
99.946979
 20
159.919175
 30
0.0
 10
103.333646
 20
160.765842
 30
0.0
 10
103.898090
 20
161.612509
 30
0.0
 10
104.744760
 20
162.176953
 30
0.0
 10
105.591427
 20
163.023620
 30
0.0
 10
109.542538
 20
163.023620
 30
0.0
 10
109.542538
 20
165.281398
 30
0.0
 10
110.106982
 20
166.128064
 30
0.0
 10
110.953649
 20
170.925842
 30
0.0
 10
107.849204
 20
170.925842
 30
0.0
 10
110.106982
 20
180.239175
 30
0.0
 10
109.542538
 20
181.085845
 30
0.0
 10
110.106982
 20
188.141400
 30
0.0
 10
109.542538
 20
188.988067
 30
0.0
 10
110.106982
 20
189.552511
 30
0.0
 10
105.415036
 20
199.888901
 30
0.0
 10
95.431424
 20
205.356959
 30
0.0
 10
94.584757
 20
217.774736
 30
0.0
 10
86.118088
 20
229.628073
 30
0.0
 10
86.682532
 20
230.192517
 30
0.0
 10
86.682532
 20
233.579184
 30
0.0
 10
86.118088
 20
234.143628
 30
0.0
 10
84.706976
 20
243.174739
 30
0.0
 10
87.529199
 20
244.303628
 30
0.0
 10
86.118088
 20
252.205853
 30
0.0
 10
82.731421
 20
253.052520
 30
0.0
 10
83.578088
 20
253.616964
 30
0.0
 10
82.731421
 20
264.623631
 30
0.0
 10
78.215865
 20
264.623631
 30
0.0
 10
76.804754
 20
258.414742
 30
0.0
 10
70.313643
 20
256.721409
 30
0.0
 10
69.184754
 20
266.599187
 30
0.0
 10
64.386976
 20
269.139187
 30
0.0
 10
64.951421
 20
275.630301
 30
0.0
 10
62.693643
 20
277.888079
 30
0.0
 10
63.258088
 20
278.734746
 30
0.0
 10
64.104754
 20
283.532524
 30
0.0
 10
61.846976
 20
283.532524
 30
0.0
 10
61.000310
 20
284.096968
 30
0.0
 10
56.202529
 20
284.943635
 30
0.0
 10
54.791418
 20
281.839190
 30
0.0
 10
54.791418
 20
284.943635
 30
0.0
 10
51.686974
 20
284.096968
 30
0.0
 10
50.840307
 20
283.532524
 30
0.0
 10
49.993640
 20
280.992524
 30
0.0
 10
49.429196
 20
280.145857
 30
0.0
 10
49.993640
 20
292.845857
 30
0.0
 10
42.091418
 20
291.999190
 30
0.0
 10
41.526974
 20
291.434746
 30
0.0
 10
40.115860
 20
290.305857
 30
0.0
 10
38.986971
 20
292.845857
 30
0.0
 10
33.624749
 20
291.434746
 30
0.0
 10
32.778082
 20
291.999190
 30
0.0
 10
31.366971
 20
291.999190
 30
0.0
 10
30.520304
 20
291.434746
 30
0.0
 10
26.569190
 20
290.588079
 30
0.0
 10
25.722523
 20
289.741412
 30
0.0
 10
23.464745
 20
289.741412
 30
0.0
 10
24.981690
 20
284.414468
 30
0.0
 10
29.673637
 20
282.685857
 30
0.0
 10
30.520304
 20
283.532524
 30
0.0
 10
31.366971
 20
282.685857
 30
0.0
 10
29.673637
 20
277.323635
 30
0.0
 10
21.489190
 20
276.194746
 30
0.0
 10
17.255856
 20
268.574742
 30
0.0
 10
16.409190
 20
267.728075
 30
0.0
 10
7.942520
 20
267.728075
 30
0.0
 10
7.942520
 20
270.832521
 30
0.0
 10
4.838076
 20
271.679187
 30
0.0
 10
9.776965
 20
284.837801
 30
0.0
 10
7.942520
 20
299.054746
 30
0.0
 10
4.838076
 20
299.054746
 30
0.0
 10
3.991409
 20
303.852526
 30
0.0
 10
3.144742
 20
304.699193
 30
0.0
 10
3.991409
 20
319.374749
 30
0.0
 10
3.144742
 20
320.221415
 30
0.0
 10
3.144742
 20
322.479193
 30
0.0
 10
0.322520
 20
323.608085
 30
0.0
 10
1.451409
 20
328.688084
 30
0.0
 10
4.838076
 20
329.534751
 30
0.0
 10
5.402520
 20
330.381417
 30
0.0
 10
8.224742
 20
331.510306
 30
0.0
 10
9.353631
 20
327.276973
 30
0.0
 10
14.151409
 20
327.276973
 30
0.0
 10
18.102523
 20
333.485862
 30
0.0
 10
18.666967
 20
332.639195
 30
0.0
 10
28.262524
 20
332.074751
 30
0.0
 10
28.826971
 20
328.688084
 30
0.0
 10
29.673637
 20
328.123639
 30
0.0
 10
29.673637
 20
325.583639
 30
0.0
 10
38.986971
 20
327.276973
 30
0.0
 10
38.986971
 20
332.639195
 30
0.0
 10
39.833637
 20
333.485862
 30
0.0
 10
39.833637
 20
336.590306
 30
0.0
 10
38.986971
 20
337.436973
 30
0.0
 10
38.986971
 20
342.799195
 30
0.0
 10
48.582529
 20
341.388084
 30
0.0
 10
49.993640
 20
347.596976
 30
0.0
 10
53.098085
 20
348.161420
 30
0.0
 10
53.944751
 20
349.008087
 30
0.0
 10
57.895865
 20
350.701420
 30
0.0
 10
58.742532
 20
366.223642
 30
0.0
 10
70.313643
 20
363.119198
 30
0.0
 10
70.313643
 20
365.376976
 30
0.0
 10
71.160310
 20
366.223642
 30
0.0
 10
73.418088
 20
367.070309
 30
0.0
 10
74.264754
 20
367.916976
 30
0.0
 10
75.111421
 20
368.763642
 30
0.0
 10
75.958088
 20
369.328087
 30
0.0
 10
82.731421
 20
381.181423
 30
0.0
 10
83.578088
 20
382.028090
 30
0.0
 10
84.424754
 20
378.923645
 30
0.0
 10
89.504757
 20
380.052534
 30
0.0
 10
97.265868
 20
373.984756
 30
0.0
 10
101.640313
 20
366.223642
 30
0.0
 10
104.744760
 20
366.223642
 30
0.0
 10
104.744760
 20
363.119198
 30
0.0
 10
109.542538
 20
363.119198
 30
0.0
 10
118.855871
 20
355.499198
 30
0.0
 10
120.549207
 20
341.388084
 30
0.0
 10
125.911429
 20
342.799195
 30
0.0
 10
126.758096
 20
341.952528
 30
0.0
 10
129.862543
 20
341.388084
 30
0.0
 10
129.862543
 20
344.492528
 30
0.0
 10
139.175879
 20
344.492528
 30
0.0
 10
138.329213
 20
349.008087
 30
0.0
 10
137.482546
 20
349.854753
 30
0.0
 10
132.120321
 20
353.805865
 30
0.0
 10
131.273654
 20
354.652531
 30
0.0
 10
134.448656
 20
360.050031
 30
0.0
 10
141.433657
 20
363.119198
 30
0.0
 10
142.280324
 20
362.272531
 30
0.0
 10
156.391438
 20
357.756976
 30
0.0
 10
157.238105
 20
358.603642
 30
0.0
 10
158.649216
 20
360.014753
 30
0.0
 10
159.495882
 20
359.168087
 30
0.0
 10
160.624771
 20
350.419198
 30
0.0
 10
164.293660
 20
349.854753
 30
0.0
 10
165.140327
 20
350.701420
 30
0.0
 10
165.704771
 20
349.854753
 30
0.0
 10
166.551438
 20
349.008087
 30
0.0
 10
167.398105
 20
348.161420
 30
0.0
 10
170.502552
 20
347.596976
 30
0.0
 10
170.502552
 20
357.756976
 30
0.0
 10
171.349218
 20
358.603642
 30
0.0
 10
169.091441
 20
371.585867
 30
0.0
 10
173.606996
 20
372.714756
 30
0.0
 10
173.606996
 20
375.819201
 30
0.0
 10
179.815885
 20
377.230312
 30
0.0
 10
180.662552
 20
369.328087
 30
0.0
 10
181.226996
 20
368.763642
 30
0.0
 10
181.226996
 20
366.223642
 30
0.0
 10
184.613666
 20
366.223642
 30
0.0
 10
184.613666
 20
363.119198
 30
0.0
 10
208.320335
 20
365.941420
 30
0.0
 10
209.449224
 20
363.119198
 30
0.0
 10
215.940338
 20
365.376976
 30
0.0
 10
216.504782
 20
366.223642
 30
0.0
 10
219.044782
 20
366.223642
 30
0.0
 10
219.044782
 20
363.119198
 30
0.0
 10
221.867005
 20
363.119198
 30
0.0
 10
233.155896
 20
353.805865
 30
0.0
 10
234.567008
 20
352.112531
 30
0.0
 10
233.155896
 20
349.008087
 30
0.0
 10
231.462563
 20
345.903639
 30
0.0
 10
234.567008
 20
345.903639
 30
0.0
 10
240.775896
 20
336.590306
 30
0.0
 10
240.493674
 20
330.099195
 30
0.0
 10
248.678121
 20
325.583639
 30
0.0
 10
248.678121
 20
322.479193
 30
0.0
 10
256.580344
 20
319.374749
 30
0.0
 10
256.580344
 20
316.270304
 30
0.0
 10
261.095899
 20
316.270304
 30
0.0
 10
262.224788
 20
311.190304
 30
0.0
 10
265.893680
 20
310.061415
 30
0.0
 10
265.893680
 20
306.956971
 30
0.0
 10
264.200346
 20
303.852526
 30
0.0
 10
257.991455
 20
292.845857
 30
0.0
 10
257.991455
 20
284.943635
 30
0.0
 10
262.789235
 20
284.943635
 30
0.0
 10
262.789235
 20
281.839190
 30
0.0
 10
265.893680
 20
281.839190
 30
0.0
 10
265.893680
 20
275.630301
 30
0.0
 10
268.998124
 20
275.630301
 30
0.0
 10
268.998124
 20
267.728075
 30
0.0
 10
270.409235
 20
267.728075
 30
0.0
 10
275.207013
 20
264.623631
 30
0.0
 10
275.207013
 20
256.721409
 30
0.0
 10
276.900346
 20
256.721409
 30
0.0
 10
278.311460
 20
253.616964
 30
0.0
 10
284.520330
 20
250.512517
 30
0.0
 10
287.624774
 20
244.303628
 30
0.0
 10
303.429218
 20
242.892517
 30
0.0
 10
306.533663
 20
236.401406
 30
0.0
 10
312.742552
 20
230.192517
 30
0.0
 10
314.435885
 20
227.088070
 30
0.0
 10
318.951441
 20
220.879181
 30
0.0
 10
322.055885
 20
219.468070
 30
0.0
 10
328.264774
 20
217.774736
 30
0.0
 10
331.651441
 20
216.081403
 30
0.0
 10
337.860358
 20
200.559178
 30
0.0
 10
345.480358
 20
198.865845
 30
0.0
 10
345.480358
 20
202.252511
 30
0.0
 10
350.278136
 20
202.252511
 30
0.0
 10
350.278136
 20
198.865845
 30
0.0
 10
353.382580
 20
198.865845
 30
0.0
 10
355.075913
 20
195.761400
 30
0.0
 10
356.487024
 20
191.245845
 30
0.0
 10
361.567024
 20
192.374734
 30
0.0
 10
364.389247
 20
189.552511
 30
0.0
 10
365.800358
 20
185.036956
 30
0.0
 10
368.904802
 20
185.036956
 30
0.0
 10
368.904802
 20
183.343623
 30
0.0
 10
370.598136
 20
174.030286
 30
0.0
 10
370.598136
 20
170.925842
 30
0.0
 10
367.493691
 20
156.814728
 30
0.0
 10
364.389247
 20
152.016950
 30
0.0
 10
358.180358
 20
152.016950
 30
0.0
 10
358.180358
 20
155.121395
 30
0.0
 10
355.075913
 20
155.121395
 30
0.0
 10
355.075913
 20
156.814728
 30
0.0
 10
350.278136
 20
155.121395
 30
0.0
 10
348.584802
 20
156.814728
 30
0.0
 10
340.964802
 20
155.121395
 30
0.0
 10
340.964802
 20
150.605839
 30
0.0
 10
342.375913
 20
150.605839
 30
0.0
 10
342.375913
 20
147.501395
 30
0.0
 10
340.964802
 20
133.390275
 30
0.0
 10
337.860358
 20
133.390275
 30
0.0
 10
337.860358
 20
130.285831
 30
0.0
 10
334.473691
 20
128.592497
 30
0.0
 10
333.062552
 20
125.488053
 30
0.0
 10
331.651441
 20
123.794720
 30
0.0
 10
320.644774
 20
122.383608
 30
0.0
 10
312.742552
 20
119.279164
 30
0.0
 10
311.049218
 20
117.585831
 30
0.0
 10
309.638107
 20
116.174720
 30
0.0
 10
307.944774
 20
114.481386
 30
0.0
 10
306.533663
 20
113.070275
 30
0.0
 10
303.429218
 20
111.376942
 30
0.0
 10
297.220330
 20
111.376942
 30
0.0
 10
297.220330
 20
105.168053
 30
0.0
 10
293.833663
 20
103.756942
 30
0.0
 10
289.318107
 20
102.063608
 30
0.0
 10
289.318107
 20
97.265831
 30
0.0
 10
291.011441
 20
97.265831
 30
0.0
 10
292.422552
 20
94.161386
 30
0.0
 10
293.833663
 20
92.750275
 30
0.0
 10
297.220330
 20
91.056942
 30
0.0
 10
300.324774
 20
86.541386
 30
0.0
 10
300.324774
 20
81.743608
 30
0.0
 10
303.429218
 20
81.743608
 30
0.0
 10
306.533663
 20
76.945819
 30
0.0
 10
307.944774
 20
75.534708
 30
0.0
 10
309.638107
 20
73.841375
 30
0.0
 10
307.944774
 20
64.528042
 30
0.0
 10
303.429218
 20
53.521375
 30
0.0
 10
315.846996
 20
52.110264
 30
0.0
 10
318.951441
 20
44.208042
 30
0.0
 10
317.540330
 20
42.514708
 30
0.0
 10
315.846996
 20
34.894708
 30
0.0
 10
314.435885
 20
26.992486
 30
0.0
 10
306.533663
 20
26.992486
 30
0.0
 10
303.429218
 20
31.790264
 30
0.0
 10
297.220330
 20
34.894708
 30
0.0
 10
295.526996
 20
36.305819
 30
0.0
 10
295.526996
 20
41.103597
 30
0.0
 10
297.220330
 20
41.103597
 30
0.0
 10
297.220330
 20
45.901375
 30
0.0
 10
293.833663
 20
45.901375
 30
0.0
 10
292.704774
 20
49.288042
 30
0.0
 10
278.311460
 20
49.005819
 30
0.0
 10
278.311460
 20
44.208042
 30
0.0
 10
275.207013
 20
42.514708
 30
0.0
 10
272.102569
 20
44.208042
 30
0.0
 10
268.998124
 20
47.312486
 30
0.0
 10
268.998124
 20
52.110264
 30
0.0
 10
264.200346
 20
52.110264
 30
0.0
 10
264.200346
 20
49.005819
 30
0.0
 10
261.095899
 20
49.005819
 30
0.0
 10
261.095899
 20
52.110264
 30
0.0
 10
257.991455
 20
50.416930
 30
0.0
 10
256.580344
 20
49.005819
 30
0.0
 10
253.193677
 20
50.416930
 30
0.0
 10
254.887010
 20
50.416930
 30
0.0
 10
254.887010
 20
55.214708
 30
0.0
 10
251.782566
 20
53.521375
 30
0.0
 10
250.089233
 20
52.110264
 30
0.0
 10
245.573674
 20
52.110264
 30
0.0
 10
245.573674
 20
47.312486
 30
0.0
 10
246.984788
 20
47.312486
 30
0.0
 10
248.678121
 20
44.208042
 30
0.0
 10
246.984788
 20
39.410264
 30
0.0
 10
245.573674
 20
39.410264
 30
0.0
 10
235.978119
 20
41.103597
 30
0.0
 10
233.155896
 20
42.514708
 30
0.0
 10
233.155896
 20
41.103597
 30
0.0
 10
228.358116
 20
39.410264
 30
0.0
 10
220.455894
 20
39.410264
 30
0.0
 10
220.455894
 20
36.305819
 30
0.0
 10
201.829224
 20
36.305819
 30
0.0
 10
200.135891
 20
26.992486
 30
0.0
 10
187.718110
 20
26.992486
 30
0.0
 10
187.718110
 20
25.299153
 30
0.0
 10
186.024777
 20
23.888042
 30
0.0
 10
179.815885
 20
17.679153
 30
0.0
 10
178.404774
 20
15.985819
 30
0.0
 10
173.606996
 20
14.574705
 30
0.0
 10
173.606996
 20
17.679153
 30
0.0
 10
168.809218
 20
17.679153
 30
0.0
 10
168.809218
 20
15.985819
 30
0.0
 10
153.286993
 20
12.881372
 30
0.0
 10
154.698105
 20
17.679153
 30
0.0
 10
153.286993
 20
17.679153
 30
0.0
 10
151.593657
 20
19.090264
 30
0.0
 10
150.182546
 20
23.888042
 30
0.0
 10
145.666991
 20
25.016930
 30
0.0
 10
145.384768
 20
28.685819
 30
0.0
 10
142.280324
 20
30.096930
 30
0.0
 10
142.280324
 20
28.685819
 30
0.0
 10
136.071432
 20
26.992486
 30
0.0
 10
136.071432
 20
30.096930
 30
0.0
 10
110.953649
 20
30.096930
 30
0.0
 10
110.953649
 20
28.685819
 30
0.0
 10
109.542538
 20
28.685819
 30
0.0
 10
110.953649
 20
14.574705
 30
0.0
 10
109.542538
 20
11.188039
 30
0.0
 10
106.438093
 20
11.188039
 30
0.0
 10
106.438093
 20
8.365817
 30
0.0
 10
104.744760
 20
6.672483
 30
0.0
 10
101.640313
 20
1.874705
 30
0.0
 10
98.535868
 20
0.463594
 30
0.0
 10
91.198090
 20
0.181372
 30
0.0
 10
92.326979
 20
6.672483
 30
0.0
 10
92.326979
 20
6.672483
 30
0.0
  0
ENDSEC
  0
SECTION
  2
OBJECTS
  0
DICTIONARY
  5
C
330
0
100
AcDbDictionary
  3
ACAD_GROUP
350
D
  3
ACAD_MLINESTYLE
350
17
  0
DICTIONARY
  5
D
330
C
100
AcDbDictionary
  0
DICTIONARY
  5
1A
330
C
100
AcDbDictionary
  0
DICTIONARY
  5
17
330
C
100
AcDbDictionary
  3
STANDARD
350
18
  0
DICTIONARY
  5
19
330
C
100
AcDbDictionary
  0
ENDSEC
  0
EOF
