<?xml version="1.0" encoding="UTF-8" standalone="no"?>
<!-- Creator: CorelDRAW -->

<svg
   xmlns:dc="http://purl.org/dc/elements/1.1/"
   xmlns:cc="http://creativecommons.org/ns#"
   xmlns:rdf="http://www.w3.org/1999/02/22-rdf-syntax-ns#"
   xmlns:svg="http://www.w3.org/2000/svg"
   xmlns="http://www.w3.org/2000/svg"
   xmlns:sodipodi="http://sodipodi.sourceforge.net/DTD/sodipodi-0.dtd"
   xmlns:inkscape="http://www.inkscape.org/namespaces/inkscape"
   xml:space="preserve"
   width="2480px"
   height="3325px"
   style="shape-rendering:geometricPrecision; text-rendering:geometricPrecision; image-rendering:optimizeQuality; fill-rule:evenodd"
   viewBox="0 0 2480 3324"
   id="svg15099"
   version="1.1"
   inkscape:version="0.91 r13725"
   sodipodi:docname="bg.svg"><sodipodi:namedview
     pagecolor="#ffffff"
     bordercolor="#666666"
     borderopacity="1"
     objecttolerance="10"
     gridtolerance="10"
     guidetolerance="10"
     inkscape:pageopacity="0"
     inkscape:pageshadow="2"
     inkscape:window-width="1280"
     inkscape:window-height="657"
     id="namedview15212"
     showgrid="false"
     inkscape:zoom="0.14142136"
     inkscape:cx="1964.8077"
     inkscape:cy="1560.9687"
     inkscape:window-x="-8"
     inkscape:window-y="-8"
     inkscape:window-maximized="1"
     inkscape:current-layer="Ebene 1" /><metadata
     id="metadata15214"><rdf:RDF><cc:Work
         rdf:about=""><dc:format>image/svg+xml</dc:format><dc:type
           rdf:resource="http://purl.org/dc/dcmitype/StillImage" /><dc:title></dc:title></cc:Work></rdf:RDF></metadata><defs
     id="defs15101"><style
       id="style15103"
       type="text/css">
   
    .str0 {stroke:#131516;stroke-width:8;stroke-linejoin:round}
    .fil0 {fill:#458B00}<!-- keine Informationen -->
    .fil1 {fill:#008B45}<!-- Betrieb seit 2010 -->
    .fil2 {fill:#00CD66}<!-- Betrieb seit 2011 -->
    .fil3 {fill:#00FF7F}<!-- Betrieb seit 2012 -->
    .fil4 {fill:#FFFF00}<!-- Betrieb 2012/13 geplant -->
    .fil5 {fill:#FF7F24}<!-- Betrieb 2013/14 geplant -->
    .fil6 {fill:#2626CD}<!-- Betrieb je nach Katasteramt  -->
    .fil9 {fill:#FF0000}
   
  </style></defs><g
     id="Ebene 1"
     style="display:inline"
     inkscape:label="background"><g
       id="g15106"
       style="display:none"><g
         inkscape:groupmode="layer"
         id="layer1"
         inkscape:label="sffy"
         style="display:none" /><g
         id="g15108"><g
           id="g15110"><path
             id="path15112"
             d="m 1189,3234 c 4,0 7,0 11,0 0,-6 0,-11 0,-16 -15,1 -30,3 -45,5 0,-13 0,-26 0,-39 -3,0 -7,0 -10,0 0,-4 0,-8 0,-11 -14,-8 -17,-8 -23,-22 -14,0 -29,0 -44,0 0,-4 0,-8 0,-11 6,0 6,0 6,-11 -6,0 -12,0 -17,0 0,1 0,3 0,5 -15,12 -26,6 -44,3 4,-3 9,-6 14,-8 0,0 1,1 2,2 8,-2 15,-4 22,-5 1,-1 2,-2 3,-3 1,-1 2,-2 3,-2 1,-2 1,-2 3,-3 9,-5 9,-5 14,-17 22,8 22,8 38,8 1,-1 2,-2 3,-2 1,-2 2,-2 3,-3 1,-1 2,-2 3,-3 4,0 9,0 14,0 0,4 0,7 0,11 3,-1 7,-2 10,-3 1,-1 2,-2 3,-2 4,-5 4,-5 6,-45 -1,-1 -2,-2 -3,-2 -2,-5 -4,-10 -6,-14 4,0 8,0 12,0 -4,-22 -7,-42 -10,-63 3,-2 6,-3 10,-4 0,-10 0,-20 0,-30 0,-2 1,-2 2,-3 0,-28 0,-28 -5,-39 -1,-1 -2,-2 -3,-3 -1,-1 -2,-2 -3,-2 -1,-2 -2,-2 -3,-3 -2,-18 -5,-35 -8,-53 -1,-1 -2,-2 -2,-3 -9,-14 -9,-14 -14,-41 6,-9 12,-17 19,-25 1,-1 1,-2 3,-3 6,1 12,2 19,3 1,-1 2,-2 3,-3 25,-19 25,-19 36,-22 1,-30 4,-43 -10,-68 5,-2 10,-3 15,-4 0,3 0,7 0,11 4,-1 8,-2 12,-3 0,-1 1,-2 2,-3 1,-1 2,-2 3,-2 1,-2 2,-2 3,-3 4,0 9,0 14,0 0,-3 0,-6 0,-8 0,-1 1,-2 2,-3 1,-6 2,-11 3,-17 -3,0 -7,0 -11,0 3,-11 6,-22 8,-33 -1,-1 -2,-2 -2,-3 0,-8 1,-16 2,-25 -1,-1 -2,-2 -2,-3 0,-1 1,-2 2,-2 0,-31 -27,-48 -52,-56 -1,-15 -2,-29 -3,-44 -20,-15 -25,-18 -30,-42 0,-1 1,-2 2,-2 0,-4 0,-8 0,-12 -1,-1 -2,-2 -2,-2 -2,-11 -4,-22 -5,-32 3,-2 7,-3 10,-4 -2,-9 -4,-19 -5,-28 -4,-1 -8,-2 -12,-3 1,-1 2,-2 3,-2 -1,-13 -2,-26 -3,-39 -5,0 -11,0 -16,0 -2,7 -4,14 -5,22 -8,2 -16,4 -23,6 -1,-12 -3,-24 -4,-35 -6,-3 -11,-6 -17,-9 1,-8 1,-16 2,-23 -3,-3 -6,-6 -8,-8 0,-1 1,-2 2,-3 1,-5 2,-11 3,-17 -3,0 -5,0 -8,0 -1,-1 -2,-2 -3,-2 -6,-2 -11,-2 -17,-3 0,11 0,11 -5,11 0,-4 0,-8 0,-11 -4,1 -7,1 -11,3 -1,0 -2,1 -3,2 -1,3 -2,6 -3,9 -1,1 -2,1 -2,3 0,-15 1,-30 2,-45 -9,1 -18,2 -28,3 -1,1 -2,2 -2,2 -2,2 -4,3 -5,4 -1,-3 -3,-6 -4,-9 -6,2 -12,3 -19,5 -1,0 -2,-1 -3,-2 -2,0 -4,0 -5,0 -1,1 -2,2 -3,2 -5,1 -10,2 -14,3 -1,1 -2,2 -3,3 -3,0 -5,0 -8,0 3,20 4,22 22,25 1,-1 2,-2 3,-3 1,1 2,2 3,3 -2,7 -4,13 -6,19 -10,2 -19,3 -29,4 -5,9 -10,18 -15,27 -1,1 -2,2 -3,3 -10,0 -20,0 -30,0 0,-4 0,-8 0,-11 -4,-2 -8,-2 -11,-3 25,-26 18,-66 11,-97 -4,0 -8,0 -11,0 -2,-6 -2,-11 -3,-17 -1,-1 -2,-2 -3,-3 1,-17 2,-35 3,-52 -1,-1 -2,-2 -3,-3 0,-2 0,-5 0,-8 -4,-2 -7,-3 -10,-4 1,-6 3,-12 4,-18 4,-2 8,-2 12,-3 0,-1 1,-2 2,-3 4,-2 7,-3 10,-4 1,5 3,10 4,15 6,0 11,0 17,0 4,-7 9,-15 14,-22 0,1 1,1 2,3 11,0 22,1 34,2 0,4 1,8 2,12 1,0 2,1 3,2 0,3 0,6 0,9 11,-2 22,-4 33,-6 0,-7 0,-13 0,-19 1,-2 2,-2 3,-3 0,-4 0,-7 0,-11 -1,-1 -2,-2 -3,-3 0,-6 0,-13 0,-19 11,1 23,3 34,5 1,-7 3,-15 5,-22 4,-1 8,-2 11,-2 1,-2 2,-2 3,-3 4,-2 9,-4 14,-6 1,-19 1,-37 3,-55 6,7 6,7 41,11 0,-3 0,-6 0,-8 1,-2 2,-2 3,-3 3,-1 6,-2 8,-3 1,-1 2,-2 3,-3 1,-1 2,-2 3,-3 1,-1 2,-2 3,-2 9,-10 16,-34 24,-42 1,-1 2,-2 3,-3 1,4 2,8 3,11 6,-1 12,-3 18,-4 24,21 35,20 43,49 4,0 7,0 11,0 0,3 0,7 0,11 5,0 11,0 17,0 10,18 14,19 33,27 2,17 4,34 6,50 6,-2 12,-4 19,-5 1,1 1,1 3,3 3,0 7,1 11,2 0,-4 0,-7 0,-11 11,0 22,0 33,0 -1,-5 -2,-11 -3,-16 -1,-1 -2,-2 -3,-3 -6,-5 -12,-10 -19,-14 -1,-1 -2,-2 -3,-3 -8,-16 26,-25 36,-30 1,1 2,2 3,3 20,11 27,16 50,16 1,-1 2,-2 3,-3 1,-2 3,-4 5,-5 1,1 2,1 3,3 1,10 2,21 4,31 4,1 8,1 13,2 1,-1 1,-2 3,-3 0,1 1,2 2,3 1,1 2,2 3,3 1,1 1,1 3,3 3,0 7,1 11,2 0,-12 0,-24 0,-36 1,-1 1,-2 3,-3 -3,-15 -5,-30 -8,-46 6,-1 11,-2 16,-4 0,-4 0,-7 0,-11 7,-2 14,-3 22,-5 1,9 1,18 3,28 0,0 1,1 2,2 0,3 0,6 0,9 4,0 8,0 12,0 0,3 0,7 0,11 29,2 57,1 84,-10 1,3 3,6 4,10 7,-3 15,-6 23,-8 0,-2 1,-2 2,-3 3,0 6,0 9,0 0,3 0,7 0,11 3,0 7,0 10,0 11,19 20,23 40,33 1,2 3,4 5,6 -2,3 -4,7 -5,11 -6,0 -6,0 -6,11 4,0 7,0 11,0 7,11 15,22 22,33 -1,8 -1,15 -1,23 9,5 19,11 29,16 0,3 0,7 0,11 9,4 18,7 28,11 0,3 0,7 0,11 5,0 11,0 16,0 1,6 3,12 4,18 4,1 8,3 13,4 0,4 0,7 0,11 -2,4 -4,8 -6,11 -7,4 -13,28 -22,39 0,9 0,19 0,28 6,0 11,0 17,0 0,3 0,7 0,11 3,0 7,0 11,0 0,7 0,14 0,22 3,0 7,0 11,0 0,9 0,18 0,28 1,0 3,0 5,0 4,7 4,7 17,11 0,9 0,18 0,28 2,0 4,0 6,0 1,3 3,7 5,11 7,3 15,7 22,11 3,16 3,16 11,22 19,1 37,3 56,5 3,8 7,15 11,23 7,13 8,16 22,22 2,3 4,7 6,11 5,7 11,14 16,22 4,1 8,3 11,5 7,2 15,4 22,6 4,2 8,4 12,6 7,18 14,36 22,55 9,2 18,4 27,6 0,-4 0,-8 0,-12 6,0 11,0 17,0 0,4 0,8 0,12 3,0 7,0 11,0 0,11 0,11 6,11 1,5 3,10 5,16 6,-2 12,-3 18,-4 3,3 7,6 10,10 1,5 3,11 5,16 4,0 7,0 11,0 0,2 0,4 0,6 -2,11 -2,11 6,33 0,4 0,7 0,11 -4,17 -8,33 -11,50 -7,4 -7,4 -11,17 -8,0 -15,0 -22,0 0,-4 0,-8 0,-11 -4,0 -8,0 -11,0 0,-2 0,-4 0,-6 -6,2 -12,4 -17,6 -2,-2 -4,-4 -6,-6 -11,-3 -11,-3 -27,6 0,5 0,10 0,16 1,0 3,0 5,0 0,4 0,7 0,11 -2,17 -4,33 -5,50 -4,0 -8,0 -11,0 0,4 0,7 0,11 -4,2 -8,4 -12,6 -2,3 -3,7 -5,11 -2,2 -4,4 -5,6 -14,1 -27,3 -39,5 -10,3 -19,7 -28,11 -2,2 -4,4 -6,6 -2,1 -4,3 -5,5 -2,2 -4,4 -6,6 -2,1 -4,3 -5,5 -4,2 -8,4 -11,6 -8,0 -15,0 -22,0 0,7 0,14 0,22 -4,1 -8,3 -12,5 -5,2 -11,4 -16,6 0,6 0,11 0,17 2,0 4,0 6,0 1,3 3,7 5,11 1,1 3,3 5,5 4,2 8,4 12,6 2,11 2,11 11,16 0,6 0,12 0,17 3,0 7,0 11,0 3,11 3,11 11,17 1,1 3,3 5,5 2,2 4,4 6,6 -2,10 -4,22 -6,33 -8,11 -8,11 -16,39 15,2 29,3 44,5 4,9 7,18 11,28 -2,2 -4,4 -5,6 -2,9 -4,18 -6,27 -2,9 -4,18 -5,28 -10,0 -19,0 -28,0 -3,-11 -3,-11 -11,-17 -4,-7 -4,-7 -22,-11 -2,-2 -4,-4 -6,-5 0,-6 0,-12 0,-17 2,0 4,0 6,0 0,-5 0,-11 0,-17 -4,0 -8,0 -12,0 -1,-4 -3,-8 -4,-12 -17,0 -34,0 -51,1 0,6 0,11 0,17 -11,0 -11,0 -11,6 -4,-2 -7,-4 -11,-6 -4,-4 -8,-8 -11,-11 0,-6 0,-11 0,-17 -6,0 -11,0 -17,0 0,4 0,7 0,11 -4,0 -7,0 -11,0 0,-4 0,-7 0,-11 -11,0 -11,0 -11,6 -2,1 -4,3 -5,5 -4,-2 -8,-4 -12,-5 2,0 4,0 6,0 0,-6 0,-11 0,-17 -11,0 -11,0 -11,6 -2,2 -4,3 -6,5 -5,0 -11,0 -16,0 0,6 0,11 0,17 1,0 3,0 5,0 2,3 4,7 6,11 -2,6 -4,11 -6,17 -2,0 -4,0 -5,0 -11,-2 -22,-4 -34,-6 0,-5 0,-5 -10,-5 0,1 0,3 0,5 -6,2 -12,4 -17,6 -9,0 -19,0 -28,0 0,3 0,7 0,11 -22,0 -44,0 -66,0 -2,11 -4,22 -6,33 -15,0 -29,0 -44,0 0,2 0,4 0,6 -2,1 -4,3 -6,5 -4,0 -19,17 -22,22 -2,2 -4,4 -5,6 -6,1 -11,3 -17,5 0,-4 0,-7 0,-11 -6,0 -11,0 -17,0 0,2 0,4 0,6 -19,3 -37,7 -55,11 1,-6 3,-11 5,-17 -2,0 -4,0 -5,0 -2,-2 -4,-4 -6,-5 -2,-6 -3,-12 -5,-17 -5,-2 -10,-3 -16,-4 0,-5 0,-9 -1,-13 0,-5 0,-5 -11,-5 0,1 0,3 0,5 -8,2 -15,4 -22,6 0,-4 0,-8 0,-11 -38,-6 -52,-3 -89,0 0,1 0,3 0,5 -2,0 -4,0 -5,0 2,21 8,29 5,50 -5,0 -5,0 -5,12 -4,0 -8,0 -11,0 0,3 0,7 0,10 -2,2 -4,4 -6,6 -7,4 -7,4 -11,17 -4,1 -8,3 -11,5 -9,1 -18,1 -26,1 1,-8 2,-16 4,-23 z"
             class="fil4 str0"
             inkscape:connector-curvature="0"
             style="fill:#ffff00;stroke:#131516;stroke-width:8;stroke-linejoin:round" /><!-- Bayern --><path
             id="path15114"
             d="m 474,3140 c -2,-2 -4,-4 -5,-6 -2,-2 -4,-4 -6,-5 -2,-4 -4,-8 -6,-11 0,-6 0,-11 0,-17 -3,0 -7,0 -10,0 -2,-2 -4,-4 -6,-6 0,-9 0,-18 0,-27 2,-11 4,-22 6,-34 2,-4 5,-7 8,-11 -2,-3 -2,-7 -3,-11 0,-4 0,-7 0,-11 1,-2 3,-4 5,-5 2,-8 4,-15 6,-23 2,-2 4,-3 6,-5 5,0 5,0 5,-11 -2,0 -4,0 -5,0 0,-6 0,-11 0,-17 -12,0 -12,0 -12,-5 0,-2 0,-4 0,-6 0,-3 0,-7 0,-11 6,-13 12,-26 17,-39 6,0 6,0 6,-11 3,0 7,0 11,0 0,-9 0,-18 0,-27 1,-4 3,-8 5,-12 6,-2 11,-4 17,-5 0,-6 0,-11 0,-17 -2,0 -4,0 -6,0 0,-4 0,-7 0,-11 2,-9 4,-18 6,-27 1,-4 3,-8 5,-11 2,-4 4,-8 6,-12 2,-2 4,-4 6,-5 0,-2 0,-4 0,-6 0,-4 0,-7 0,-11 0,-2 0,-4 0,-5 0,-4 0,-8 0,-11 5,-8 11,-15 16,-23 2,-2 4,-4 6,-5 1,-2 3,-4 5,-6 2,-2 4,-3 6,-5 1,-2 3,-4 5,-6 2,-2 4,-4 6,-5 5,0 5,0 5,-11 4,0 8,0 12,0 0,-4 0,-8 0,-11 10,-3 10,-3 16,-12 2,-2 4,-3 6,-5 1,-5 3,-11 5,-17 2,-5 4,-11 6,-16 1,-2 3,-4 5,-6 2,-4 4,-7 6,-11 1,-2 3,-4 5,-5 4,-3 8,-6 11,-9 1,-1 2,-2 3,-2 3,-2 6,-2 8,-3 1,-1 2,-2 3,-3 1,-7 2,-13 3,-20 1,-1 2,-2 3,-2 1,-1 1,-2 3,-3 0,-1 1,-2 2,-3 3,-4 6,-9 9,-14 1,-1 1,-2 3,-2 4,-21 8,-41 13,-61 4,0 7,0 11,0 0,-3 0,-6 0,-9 1,-1 2,-2 3,-3 1,-1 2,-2 3,-2 1,-2 1,-2 3,-3 0,-2 0,-4 0,-5 -2,-1 -2,-2 -3,-3 -2,-2 -4,-4 -6,-6 1,-1 2,-2 3,-2 1,-2 2,-2 3,-3 1,-1 1,-2 3,-3 2,-15 5,-30 8,-44 -6,-2 -11,-2 -17,-3 1,-1 2,-2 3,-3 0,-4 0,-7 0,-11 -1,-1 -2,-2 -3,-3 -1,-3 -2,-5 -3,-8 -1,-1 -2,-2 -2,-3 1,-8 3,-15 5,-22 1,-1 2,-2 3,-3 6,6 11,11 17,17 1,1 1,2 3,3 4,11 9,10 22,13 0,-14 0,-29 0,-44 5,0 11,0 16,0 1,9 2,18 3,28 1,1 2,2 3,3 10,6 20,13 30,19 1,1 2,2 3,3 0,12 0,24 0,36 7,0 15,0 22,0 0,-4 0,-8 0,-11 4,0 8,0 11,0 2,-11 4,-21 6,-31 0,-1 1,-2 2,-3 2,0 4,0 6,0 1,1 2,2 3,3 3,0 7,0 11,0 12,-13 12,-13 17,-25 11,-1 22,-2 33,-2 1,-2 1,-2 3,-3 6,-8 12,-16 18,-24 9,-2 19,-3 29,-4 1,-9 1,-18 3,-28 -2,-1 -2,-2 -3,-2 -2,0 -4,0 -6,0 -1,0 -2,1 -3,2 -8,-8 -8,-8 -8,-19 1,-1 2,-2 3,-3 4,-1 9,-2 14,-3 1,-1 1,-2 3,-3 0,1 1,2 2,3 4,-1 8,-1 13,-1 1,3 2,6 4,10 5,0 11,0 16,0 0,-3 0,-6 0,-9 1,-1 2,-2 3,-3 6,2 12,3 18,4 -1,14 -3,28 -4,41 4,-1 7,-2 11,-3 1,-1 2,-2 3,-2 1,-3 2,-6 3,-9 1,-1 2,-2 3,-3 1,4 1,8 2,12 6,0 11,0 17,0 0,-4 0,-8 0,-12 3,0 5,0 8,0 1,1 2,2 3,3 2,4 4,7 6,11 -2,1 -2,2 -3,3 0,11 5,16 3,44 5,2 11,3 17,4 1,12 3,24 5,35 11,-2 22,-4 33,-5 2,-8 5,-16 8,-23 3,10 6,21 8,31 -1,1 -2,1 -2,3 -2,3 -2,7 -3,11 3,0 7,0 11,0 1,4 2,8 4,12 -3,1 -6,3 -10,4 3,15 6,30 9,44 1,1 1,2 3,3 0,2 0,4 0,6 -2,1 -2,1 -3,3 0,9 0,18 0,28 31,22 29,29 31,66 31,10 36,19 55,47 -1,1 -2,1 -3,3 0,1 0,3 0,5 1,1 2,2 3,3 -1,8 -2,17 -3,25 1,1 2,2 3,3 -8,14 -8,14 -11,36 3,0 7,0 11,0 0,3 0,5 0,8 -1,1 -2,2 -3,3 -5,2 -9,5 -14,8 -1,1 -2,2 -3,3 -1,1 -2,1 -2,3 -2,0 -2,1 -3,2 -1,-4 -2,-7 -3,-11 -9,0 -18,0 -27,0 9,28 13,43 10,72 -11,9 -22,17 -33,26 -1,0 -2,1 -3,2 -6,-1 -13,-2 -19,-2 -1,0 -2,1 -3,2 -34,21 -23,43 -5,72 1,1 1,2 3,3 2,17 5,35 8,53 0,0 1,1 2,2 1,1 2,2 3,3 1,1 2,2 3,3 2,11 4,22 6,33 -2,1 -2,2 -3,3 -1,9 -2,18 -3,27 -4,0 -8,0 -11,0 3,21 6,42 9,63 -3,1 -6,2 -9,4 0,7 0,15 0,22 3,0 5,0 8,0 1,1 2,2 3,3 -2,13 -4,26 -6,39 -1,1 -2,1 -2,3 -2,-4 -2,-8 -3,-12 -8,1 -15,2 -22,3 -1,1 -2,2 -3,3 -1,1 -2,2 -3,3 -1,1 -2,1 -2,3 -20,-9 -20,-9 -42,-12 -3,12 -3,12 -11,20 -1,1 -2,2 -3,3 -1,1 -2,1 -3,3 -1,0 -2,1 -2,2 -6,2 -12,4 -17,6 -1,-2 -2,-2 -3,-3 -13,1 -26,1 -39,3 -1,-6 -3,-12 -4,-18 -8,-2 -16,-3 -23,-4 -2,-3 -3,-5 -5,-8 -4,1 -8,1 -12,2 -4,0 -7,0 -11,0 -5,-4 -11,-8 -17,-11 -2,-2 -4,-4 -5,-6 -4,-5 -8,-11 -11,-16 -8,-4 -15,-8 -22,-11 -2,-2 -4,-4 -6,-6 -4,-2 -7,-4 -11,-5 0,-6 0,-6 -11,-6 0,6 0,11 0,17 3,0 7,0 11,0 4,1 7,3 11,5 2,2 4,4 6,6 1,2 3,3 5,5 2,4 4,7 6,11 0,4 0,7 0,11 -8,-2 -15,-4 -22,-5 -14,-18 -24,-20 -45,-22 2,4 4,7 6,11 3,1 7,3 11,5 0,2 0,4 0,6 -2,1 -4,3 -6,5 -3,2 -7,4 -11,6 -7,-2 -15,-4 -22,-6 0,-5 0,-11 0,-16 -6,-2 -11,-4 -16,-6 -2,0 -4,0 -6,0 -3,4 -6,7 -8,11 -3,-5 -6,-11 -9,-16 6,0 6,0 6,-11 -4,0 -8,0 -11,0 0,-4 0,-8 0,-11 -6,0 -11,0 -17,0 -2,3 -4,7 -5,11 0,-6 0,-11 0,-17 -17,3 -17,3 -23,11 -7,0 -15,0 -22,0 0,4 0,7 0,11 -3,6 -7,11 -11,17 -2,0 -4,0 -5,0 0,7 0,14 0,22 7,4 14,9 22,14 -4,1 -8,2 -11,3 0,7 0,14 0,22 -4,-2 -8,-4 -11,-6 -2,0 -4,0 -6,0 -5,0 -11,0 -17,0 -2,-5 -4,-11 -5,-16 -8,0 -15,0 -22,0 0,-6 0,-6 -11,-6 0,2 0,4 0,6 -17,6 -28,22 -33,22 -2,0 -4,0 -6,0 -13,0 -26,0 -39,0 0,-6 0,-11 0,-17 -11,2 -22,4 -33,6 0,3 0,7 0,11 -13,0 -26,0 -39,0 z"
             class="fil4 str0"
             inkscape:connector-curvature="0"
             style="fill:#ffff00;stroke:#131516;stroke-width:8;stroke-linejoin:round" /><!-- Baden-W&#252;rttemberg --><g
             id="g15116"><!-- Bodensee --><g
               id="g15120" /></g><path
             id="path15148"
             d="m 574,2519 c 0,-5 0,-5 -11,-5 0,1 0,3 0,5 -8,0 -15,0 -22,0 0,-2 0,-4 0,-5 -6,0 -11,0 -17,0 0,1 0,3 0,5 -4,0 -8,0 -11,0 0,-2 0,-4 0,-5 -8,0 -15,0 -22,0 -2,-5 -3,-9 -5,-13 -9,-3 -19,-6 -29,-9 0,-10 0,-19 0,-28 -13,0 -26,0 -38,0 -6,0 -6,0 -6,-11 -4,0 -7,0 -11,0 3,-17 3,-17 17,-36 0,-1 1,-2 2,-3 4,-4 4,-4 4,-35 -6,-3 -13,-6 -19,-8 -2,-6 -3,-12 -4,-18 -11,0 -11,0 -11,-5 5,0 11,0 16,0 -1,-7 -3,-13 -4,-19 3,-1 6,-3 10,-4 -1,-3 -2,-7 -3,-11 -1,-1 -2,-2 -3,-2 -7,-20 -16,-12 -30,-26 -1,-1 -2,-2 -3,-2 -15,0 -18,-4 -30,-14 -1,-1 -2,-2 -3,-3 -26,5 -50,7 -72,22 -1,1 -2,2 -3,3 -16,5 -32,10 -48,15 -2,-3 -3,-6 -4,-9 -20,2 -20,2 -56,-6 0,-4 0,-8 0,-11 4,0 7,0 11,0 0,-4 0,-7 0,-11 2,-2 4,-4 6,-5 2,-8 4,-16 6,-23 1,-2 3,-4 5,-5 4,-2 7,-4 11,-6 2,-15 3,-29 5,-44 -9,0 -18,0 -27,0 -4,-4 -8,-8 -11,-11 -2,0 -4,0 -6,0 -5,-6 -11,-12 -16,-17 -9,-11 -9,-11 -17,-38 -4,0 -8,0 -11,0 -12,-32 -8,-53 0,-84 3,0 7,0 11,0 0,-9 0,-18 0,-27 7,-4 15,-8 22,-12 2,-4 4,-7 6,-11 39,-8 39,-8 61,-19 0,-1 1,-2 2,-3 9,-1 17,-2 26,-2 12,12 27,8 44,8 -2,-7 -4,-13 -6,-20 1,-1 2,-2 3,-2 0,-9 1,-18 1,-27 3,1 7,3 10,4 1,1 2,2 3,3 4,0 7,0 11,0 1,-1 1,-2 3,-3 2,0 5,0 8,0 -1,-5 -2,-11 -3,-16 -1,-1 -2,-2 -3,-3 4,-1 8,-2 12,-3 0,-4 0,-9 0,-14 0,-1 1,-2 2,-2 20,-3 20,-3 33,-12 1,1 2,2 3,3 2,0 4,0 6,0 1,-1 1,-2 3,-3 21,-5 42,-11 63,-16 0,-3 0,-6 0,-8 1,-2 2,-2 3,-3 20,-40 73,-15 86,-58 1,-2 2,-2 3,-3 18,-12 19,-21 25,-42 0,-1 1,-2 2,-2 2,0 4,0 6,0 1,0 1,1 3,2 0,9 0,17 0,25 4,2 9,4 14,6 0,0 1,1 2,2 6,1 12,2 17,3 1,11 2,23 3,34 1,1 2,1 2,3 3,2 6,5 9,8 1,0 1,1 3,2 0,5 0,10 0,14 5,0 11,0 16,0 3,23 9,28 11,53 -1,1 -2,2 -2,3 -11,0 -21,0 -31,0 0,3 0,7 0,11 -4,0 -7,0 -11,0 1,9 2,18 3,27 1,1 2,2 2,3 -1,9 -2,17 -2,25 5,4 11,8 16,11 1,1 2,2 3,3 8,25 8,25 7,40 -21,1 -21,1 -24,5 0,0 -1,1 -2,2 -5,2 -10,4 -14,6 0,2 0,5 0,8 -1,1 -2,2 -3,3 -7,1 -13,3 -19,5 0,4 1,8 2,11 1,1 2,2 3,3 2,5 4,9 6,14 -8,0 -15,0 -22,0 -8,17 -8,17 -11,39 3,0 5,0 8,0 1,1 2,2 3,3 2,4 5,9 8,13 1,1 1,2 3,3 0,3 0,6 0,8 14,-2 29,-5 44,-8 1,-1 2,-2 3,-3 3,-1 5,-2 8,-2 1,-2 2,-2 3,-3 3,-1 5,-2 8,-3 1,-1 2,-2 3,-2 4,-2 9,-2 14,-3 1,-1 2,-2 3,-3 1,2 3,4 5,6 1,0 2,1 3,2 3,1 5,2 8,3 1,1 2,1 3,3 3,4 6,9 8,13 1,1 2,2 3,3 3,14 6,28 9,42 0,1 1,1 2,3 3,8 6,16 9,25 0,0 1,1 2,2 7,12 9,15 6,28 -2,1 -2,2 -3,3 -3,1 -6,1 -8,3 -1,0 -2,1 -3,2 -3,0 -5,0 -8,0 3,11 5,22 8,33 1,1 2,2 3,3 1,3 2,6 3,9 0,0 1,1 2,2 1,10 2,20 3,31 1,1 1,1 3,3 0,2 1,5 2,8 1,1 2,2 3,3 0,1 0,3 0,5 -1,1 -2,2 -3,3 -1,4 -2,7 -2,11 5,0 11,0 16,0 -2,12 -4,24 -5,36 -1,1 -2,2 -3,3 -1,1 -2,2 -3,3 -1,1 -2,1 -3,3 -1,3 -2,7 -2,11 2,0 5,0 8,0 1,1 2,1 3,2 -1,1 -2,2 -3,3 -1,1 -2,1 -3,3 -1,0 -2,1 -3,2 -4,2 -9,4 -13,6 -8,28 -8,28 -11,64 -1,1 -2,1 -3,3 -3,4 -6,9 -8,14 -2,0 -2,1 -3,2 -1,1 -2,2 -3,3 -1,1 -2,2 -3,3 -1,6 -2,12 -3,19 -1,1 -2,2 -2,3 -3,1 -6,2 -9,3 -1,1 -1,1 -2,3 -42,-14 -42,-14 -75,-34 z"
             class="fil1 str0"
             inkscape:connector-curvature="0"
             style="fill:#008b45;stroke:#131516;stroke-width:8;stroke-linejoin:round" /><!-- Rheinland-Pfalz --><path
             id="path15150"
             d="m 330,2475 c -3,-22 -5,-23 -22,-36 -4,1 -7,1 -11,3 -4,0 -8,0 -11,0 -2,0 -4,0 -6,0 -2,0 -4,0 -5,0 0,7 0,14 0,22 -4,0 -8,0 -12,0 -1,0 -3,0 -5,0 -15,-7 -18,-40 -22,-55 -4,0 -8,0 -11,0 0,-4 0,-8 0,-12 -4,0 -8,0 -11,0 -2,-4 -4,-7 -6,-11 0,-4 0,-7 0,-11 3,-11 -3,-16 -6,-33 -3,0 -7,0 -10,0 -2,-2 -4,-4 -6,-6 -4,-2 -7,-4 -11,-5 -4,-1 -9,-1 -13,-2 -1,-9 -3,-17 -4,-26 15,1 31,1 46,1 1,4 2,7 4,10 20,-6 41,-13 61,-19 1,-1 2,-2 3,-3 22,-8 44,-15 66,-22 1,1 2,2 3,3 3,5 6,9 9,15 7,-1 14,-1 22,-2 0,1 1,2 2,3 5,13 10,11 23,14 0,4 0,7 0,11 2,0 5,0 8,0 1,1 1,2 2,3 -3,1 -7,2 -10,3 1,6 2,12 3,18 -5,1 -10,2 -14,4 0,6 0,11 0,17 3,0 7,0 11,0 1,5 2,11 3,17 7,3 13,6 20,9 -1,8 -1,17 -1,26 -2,1 -2,2 -3,3 -3,0 -6,0 -9,0 -8,16 -8,16 -10,44 3,0 7,0 10,0 0,6 0,11 0,17 -10,0 -10,0 -10,5 -4,0 -8,0 -11,0 -12,-3 -23,-7 -34,-10 0,-6 0,-6 -11,-6 0,5 0,11 0,16 -4,-2 -7,-4 -11,-5 z"
             class="fil4 str0"
             inkscape:connector-curvature="0"
             style="fill:#ffff00;stroke:#131516;stroke-width:8;stroke-linejoin:round" /><!-- Saarland --><path
             id="path15152"
             d="m 815,2342 c -1,-1 -2,-2 -3,-3 0,-3 0,-5 0,-8 -16,-3 -16,-3 -30,-11 -2,-1 -2,-2 -3,-3 0,-10 0,-21 0,-31 -10,0 -19,0 -28,0 3,31 3,31 -3,45 -3,-4 -7,-7 -11,-11 -1,-1 -2,-2 -2,-3 -4,-5 -7,-10 -10,-15 -5,-1 -9,-1 -13,-2 -1,1 -2,2 -3,3 -2,-2 -4,-4 -5,-5 -1,-2 -2,-2 -3,-3 -1,-3 -2,-6 -2,-9 -1,-1 -2,-2 -3,-2 0,-9 0,-19 0,-28 1,-1 2,-2 3,-3 2,-1 5,-2 8,-2 0,-2 1,-2 2,-3 3,0 6,0 9,0 -2,-17 -2,-23 -14,-33 -1,-2 -2,-2 -3,-3 0,-8 0,-17 0,-25 -3,0 -5,0 -8,0 -1,-1 -2,-2 -3,-3 0,-14 0,-28 0,-42 -2,0 -5,0 -8,0 -1,-1 -2,-2 -3,-2 -3,-5 -5,-10 -8,-14 -1,-1 -2,-2 -3,-3 -3,-1 -6,-2 -8,-2 -2,-2 -2,-2 -3,-3 0,-3 0,-6 0,-9 -4,1 -7,2 -11,3 -1,1 -2,2 -3,3 -5,1 -9,2 -14,3 -1,1 -2,1 -3,3 -2,0 -5,1 -8,2 -1,1 -2,2 -3,3 -2,1 -5,1 -8,3 -1,0 -2,1 -3,2 -13,0 -26,0 -39,0 -1,-1 -2,-2 -2,-2 -3,-5 -6,-10 -9,-14 -1,-1 -2,-2 -2,-3 -3,-15 -2,-17 5,-31 7,0 15,0 22,0 0,-7 0,-14 0,-22 -2,0 -5,0 -8,0 -1,-1 -2,-1 -3,-2 6,-4 11,-8 17,-11 1,-2 2,-2 3,-3 4,-2 9,-4 13,-6 0,-3 0,-5 0,-8 1,-1 2,-2 3,-3 10,0 21,0 31,0 -3,-28 -3,-28 -14,-50 -1,-1 -2,-1 -3,-2 -14,-14 -14,-16 -14,-37 -1,-1 -2,-2 -3,-2 0,-7 0,-13 0,-20 4,0 8,0 12,0 1,-3 2,-6 4,-9 8,-2 15,-3 23,-4 1,-2 2,-2 3,-3 0,-33 -5,-39 -8,-56 3,0 7,0 11,0 0,-4 0,-9 0,-14 1,-1 2,-2 3,-2 1,-11 1,-21 2,-31 1,-1 2,-2 3,-3 3,-2 6,-5 8,-8 1,-1 2,-2 3,-3 1,-1 2,-2 3,-3 1,-1 2,-2 3,-2 1,-1 1,-2 3,-3 0,-1 1,-2 2,-3 11,1 21,1 32,2 4,-16 15,-13 21,-27 1,-1 2,-2 3,-2 5,-17 16,-28 17,-39 -2,-1 -2,-2 -3,-3 0,-7 0,-13 0,-19 15,0 29,0 44,0 0,-7 0,-13 0,-20 1,-1 2,-2 3,-2 2,-2 5,-2 8,-3 1,-1 1,-2 3,-3 -2,-17 -2,-33 -3,-50 -9,3 -19,6 -28,9 -1,0 -2,1 -2,2 -3,-4 -6,-9 -9,-14 1,-1 2,-2 3,-2 1,-3 2,-6 3,-9 1,-1 1,-2 3,-3 0,-1 1,-2 2,-2 1,-2 2,-2 3,-3 3,0 6,0 8,0 2,-5 4,-9 6,-14 1,-1 2,-2 3,-3 4,1 9,2 13,3 1,-1 2,-2 3,-3 10,-1 21,-2 31,-2 1,-2 2,-2 3,-3 4,0 8,0 13,0 0,-3 0,-6 0,-9 1,-1 2,-2 3,-2 -2,-6 -4,-11 -6,-17 -1,-1 -2,-2 -2,-3 -1,-1 -2,-2 -3,-3 -1,0 -2,-1 -3,-2 1,-1 2,-2 3,-3 16,-1 31,-2 47,-3 -1,1 -2,2 -2,3 0,4 0,7 0,11 0,1 1,2 2,3 13,-1 26,-2 39,-3 0,-6 0,-11 0,-16 7,-2 14,-4 22,-6 2,-7 4,-13 6,-20 0,-1 1,-2 2,-2 1,-8 2,-15 3,-22 6,-1 11,-2 17,-3 1,-1 2,-2 3,-3 1,-1 1,-2 2,-3 1,-1 2,-2 3,-2 1,3 2,7 3,11 6,-2 13,-4 19,-6 1,1 2,2 3,3 6,3 13,6 20,8 0,1 1,2 2,3 0,4 0,9 0,14 -4,0 -7,0 -11,0 -1,7 -2,14 -3,22 1,1 2,2 3,3 2,5 4,11 6,16 -1,1 -2,2 -3,3 0,4 0,7 0,11 1,1 2,2 3,3 -1,1 -2,2 -3,3 -5,2 -10,5 -14,8 -1,1 -2,2 -3,3 -1,7 -2,14 -3,22 17,8 17,8 37,11 1,1 1,2 2,3 1,1 2,1 3,3 1,0 2,1 3,2 1,0 3,0 5,0 1,-1 2,-2 3,-2 0,-6 0,-12 0,-17 -3,-3 -5,-6 -8,-8 1,-1 1,-2 3,-3 2,-1 5,-2 8,-3 1,-1 1,-2 3,-3 2,0 5,0 8,0 1,-4 2,-7 3,-11 1,1 1,2 3,3 0,4 0,9 0,14 3,-1 7,-2 11,-3 1,-1 1,-2 3,-3 2,-11 2,-11 8,-11 0,7 1,15 2,22 1,1 2,2 3,3 2,8 4,17 6,25 23,5 33,24 58,33 1,1 2,2 3,3 1,1 1,2 3,3 0,1 1,1 2,3 -2,21 -16,36 -22,58 6,0 11,0 17,0 0,5 0,11 0,17 -5,0 -10,0 -14,0 -1,-2 -2,-2 -3,-3 -9,-1 -18,-2 -27,-3 1,8 2,15 3,23 -5,1 -10,3 -15,5 0,5 0,11 0,16 6,0 12,0 17,0 -2,9 -4,19 -5,28 -6,0 -12,0 -17,0 0,4 0,9 0,14 -1,1 -2,1 -3,3 -1,10 -2,20 -3,30 -1,1 -2,2 -3,3 -1,4 -2,9 -2,14 -2,0 -2,1 -3,2 -3,0 -6,0 -8,0 0,8 0,15 0,22 9,2 18,4 27,6 2,-6 4,-13 6,-19 1,-1 2,-2 3,-3 3,0 7,0 11,0 1,1 1,2 3,3 1,3 2,6 3,9 -3,2 -6,3 -9,4 2,27 2,47 -11,70 -1,1 -2,1 -3,3 -1,0 -2,1 -3,2 -1,1 -2,2 -2,3 -3,1 -6,2 -9,3 -1,1 -2,2 -3,3 -21,2 -26,-3 -47,-6 0,19 0,37 0,56 -4,0 -7,0 -11,0 0,2 0,5 0,8 -1,1 -1,2 -2,3 -5,0 -10,0 -14,0 -4,7 -7,13 -10,20 -10,-1 -19,-3 -29,-4 1,9 2,19 3,28 1,1 1,2 2,3 0,1 0,3 0,5 -1,1 -1,2 -2,3 -1,5 -2,11 -3,17 -8,0 -17,0 -25,0 -1,-2 -2,-2 -3,-3 0,-5 0,-10 0,-14 -12,0 -24,0 -36,0 -1,-1 -2,-2 -3,-3 -21,0 -16,20 -27,20 0,-6 0,-12 0,-17 -8,3 -15,5 -22,8 -2,1 -2,2 -3,3 -5,0 -10,0 -14,0 -2,11 -4,22 -6,34 5,1 9,3 14,5 1,1 2,1 3,3 -1,17 -2,35 -3,52 1,1 2,2 3,3 0,6 0,13 0,20 4,0 7,0 11,0 9,45 -2,58 -11,99 4,0 7,0 11,0 -2,17 -7,21 -19,33 -2,-1 -2,-2 -3,-2 -4,0 -8,0 -11,0 -1,0 -2,1 -3,2 -3,10 -5,19 -8,28 -4,0 -8,0 -11,0 0,4 0,7 0,11 -4,0 -8,0 -11,0 -2,-11 -2,-22 -3,-33 z"
             class="fil1 str0"
             inkscape:connector-curvature="0"
             style="fill:#008b45;stroke:#131516;stroke-width:8;stroke-linejoin:round" /><!-- Hessen --><path
             id="path15154"
             d="m 169,1960 c 4,-13 8,-26 12,-39 -4,0 -8,0 -12,0 -1,-6 -3,-12 -4,-18 -10,-2 -19,-3 -29,-4 -2,-8 -4,-15 -5,-23 5,-2 11,-3 16,-5 0,-4 0,-7 0,-11 6,0 6,0 6,-11 -4,0 -8,0 -11,0 -2,0 -4,0 -6,0 -5,-13 -11,-26 -17,-39 -21,-3 -21,-11 -33,-28 2,-7 4,-14 6,-22 6,-1 12,-3 18,-4 -1,-4 -1,-8 -2,-12 0,-2 0,-4 0,-6 2,0 4,0 6,0 0,-6 0,-11 0,-16 -6,0 -11,0 -16,0 0,-8 0,-16 0,-23 -10,0 -19,0 -28,0 -4,-9 -8,-18 -12,-27 6,1 12,3 17,5 0,6 0,6 11,6 7,-30 26,-40 56,-45 0,-5 0,-11 0,-16 0,-2 0,-4 0,-6 -2,0 -4,0 -6,0 -2,2 -4,4 -5,6 -6,0 -12,0 -17,0 2,-10 3,-19 5,-28 2,-4 4,-8 6,-11 4,0 7,0 11,0 2,-8 4,-15 6,-22 1,-2 3,-4 5,-6 2,-2 4,-4 6,-5 0,-25 1,-49 2,-73 -2,-1 -5,-3 -8,-5 -2,-4 -4,-7 -5,-11 -2,-2 -4,-4 -6,-5 -2,-2 -4,-4 -5,-6 1,-9 3,-18 5,-28 -5,0 -11,0 -17,0 -2,-2 -3,-4 -5,-5 2,-8 3,-15 5,-22 -2,0 -3,0 -5,0 0,-2 0,-4 0,-6 -6,0 -11,0 -16,0 0,-2 0,-4 0,-6 3,0 7,0 10,0 -3,-11 -7,-22 -10,-33 3,0 7,0 10,0 2,0 4,0 6,0 13,0 25,0 39,0 0,-11 0,-11 -6,-11 1,-4 2,-8 3,-11 7,7 7,7 36,11 0,4 0,7 0,11 4,0 7,0 11,0 0,4 0,7 0,11 5,0 11,0 17,0 0,-7 0,-15 0,-22 1,0 3,0 5,0 0,4 0,7 0,11 19,-2 28,-6 44,-17 4,-2 8,-3 12,-5 5,2 11,3 16,5 2,0 4,0 6,0 5,-2 11,-3 16,-5 0,-6 0,-11 0,-16 4,0 8,0 12,0 0,-8 0,-16 0,-23 -2,0 -4,0 -6,0 -2,-2 -4,-4 -6,-5 -4,-2 -7,-4 -11,-6 -3,-2 -7,-4 -11,-5 0,-4 0,-8 0,-11 6,0 11,0 17,0 1,-5 2,-9 4,-13 8,-3 17,-6 25,-8 1,-5 3,-9 4,-13 5,-3 11,-7 17,-11 3,0 7,0 11,0 0,-4 0,-7 0,-11 5,0 11,0 17,0 0,-2 0,-4 0,-5 16,-9 16,-9 52,-12 1,1 2,2 3,3 4,1 7,2 11,3 0,-3 0,-6 0,-8 1,-1 1,-2 3,-3 4,0 9,0 14,0 0,-4 0,-7 0,-11 5,0 11,0 16,0 0,-4 0,-7 0,-11 4,0 7,0 11,0 0,-3 0,-6 0,-8 1,-2 2,-2 3,-3 8,0 17,0 25,0 0,-5 0,-10 0,-14 1,-1 2,-2 3,-3 0,-4 0,-7 0,-11 -1,-1 -2,-2 -3,-3 0,-4 0,-7 0,-11 1,-1 2,-2 3,-2 7,3 15,7 22,11 1,0 2,1 3,2 0,7 0,13 0,20 4,0 9,0 13,0 1,0 2,1 3,2 1,1 2,2 3,3 1,1 2,2 3,3 10,1 20,2 30,3 1,1 2,1 3,3 3,19 3,19 -6,55 0,1 -1,2 -2,3 -1,5 -2,11 -3,16 7,2 15,4 22,6 -3,17 -3,17 -11,25 -1,1 -2,1 -3,3 -3,0 -5,0 -8,0 0,7 0,14 0,22 5,0 9,0 14,0 1,0 1,1 3,2 12,-2 25,-4 38,-5 1,-1 2,-2 3,-3 6,-1 13,-2 20,-2 0,-2 1,-2 2,-3 1,-4 2,-8 3,-11 4,0 7,0 11,0 2,-4 3,-7 4,-10 13,7 13,7 35,10 4,-15 10,-16 22,-25 1,-2 2,-2 3,-3 1,-4 1,-7 3,-11 -5,0 -10,0 -14,0 -1,-1 -2,-2 -3,-3 0,-2 0,-4 0,-5 1,-2 2,-2 3,-3 0,-15 0,-30 0,-44 -1,-2 -2,-2 -3,-3 -1,-3 -2,-6 -3,-9 -1,-1 -2,-2 -2,-2 -2,-2 -2,-2 -3,-3 -1,-1 -2,-2 -3,-3 -3,-1 -6,-2 -8,-3 -2,-1 -2,-2 -3,-3 -2,-6 -4,-12 -6,-19 9,-1 19,-2 28,-3 1,-1 2,-2 3,-2 2,-7 5,-13 8,-20 1,-1 2,-2 3,-3 1,1 1,2 3,3 0,1 1,2 2,3 1,1 2,2 3,3 2,0 4,0 6,0 1,-1 1,-2 3,-3 2,-1 5,-2 8,-3 1,-1 1,-2 3,-3 2,-1 5,-2 8,-2 1,-2 2,-2 3,-3 1,1 1,1 3,3 2,4 5,9 8,14 0,0 1,1 2,2 0,2 0,4 0,6 -1,1 -2,1 -2,3 0,9 0,19 1,28 4,1 8,1 13,2 0,-1 1,-2 2,-3 4,0 8,0 12,0 0,1 1,2 2,3 9,-2 19,-4 28,-6 1,-1 1,-2 3,-2 0,-2 1,-2 2,-3 1,-1 2,-2 3,-3 3,0 6,0 9,0 3,-9 7,-18 11,-27 7,2 14,5 22,8 -1,1 -2,1 -3,3 -3,12 -6,24 -8,36 -1,0 -2,1 -3,2 -8,4 -17,8 -25,12 0,6 0,12 0,19 -1,0 -2,1 -3,2 1,4 1,8 1,13 4,1 9,3 13,4 -3,17 -8,22 -8,39 1,1 1,2 3,3 0,3 0,5 0,8 3,-1 7,-2 11,-3 1,-1 1,-2 3,-2 6,2 12,5 19,8 -1,1 -2,1 -3,3 -1,3 -2,7 -3,11 4,0 7,0 11,0 1,9 2,18 3,27 1,1 2,2 3,3 0,2 0,4 0,6 -1,1 -2,1 -3,3 -1,5 -2,10 -3,16 6,-2 12,-3 18,-4 9,16 9,16 18,21 1,0 2,1 3,2 2,7 4,13 6,20 7,2 14,4 22,6 0,8 0,16 0,24 -1,1 -2,2 -3,3 -3,1 -7,3 -10,4 -1,40 -1,40 -9,82 -2,1 -2,1 -3,3 -3,0 -6,0 -9,0 0,5 0,11 0,16 -7,2 -14,4 -22,6 0,5 0,11 0,16 -10,2 -20,4 -30,6 -1,-1 -2,-2 -3,-3 0,-2 0,-3 0,-5 1,-1 2,-2 3,-3 1,-4 2,-7 3,-11 -53,5 -53,5 -56,8 -1,1 -2,2 -2,3 0,2 0,3 0,5 0,1 1,2 2,3 1,1 2,2 3,3 1,1 2,2 3,3 1,3 3,7 5,11 -1,1 -2,2 -3,3 -4,2 -9,5 -13,8 -1,1 -2,2 -3,3 -10,-2 -21,-4 -31,-6 0,3 0,6 0,9 -1,0 -2,1 -2,2 -5,-1 -10,-2 -14,-2 -1,0 -2,1 -3,2 -3,0 -5,0 -8,0 -2,5 -4,9 -6,14 -1,1 -2,2 -2,3 -2,1 -2,1 -3,3 -1,0 -2,1 -3,2 -1,3 -2,6 -3,9 -1,1 -2,1 -3,3 1,6 1,12 2,18 4,0 8,0 12,1 1,-1 2,-2 3,-3 5,-1 10,-3 15,-4 7,15 7,15 10,40 -1,1 -2,2 -3,3 -2,1 -5,2 -8,3 -1,1 -2,1 -3,3 -1,5 -2,10 -3,16 -14,0 -29,0 -44,0 1,9 2,18 3,28 1,1 2,1 3,3 -13,13 -14,15 -17,33 -1,1 -2,1 -3,3 -11,11 -18,7 -24,23 -9,1 -19,1 -28,2 -2,0 -2,1 -3,2 -1,1 -2,2 -3,3 -1,1 -2,2 -3,3 -1,0 -2,1 -3,2 -1,1 -2,2 -2,3 -3,0 -6,0 -9,0 0,3 0,6 0,9 -1,0 -1,1 -2,2 -5,4 -5,4 -3,31 -1,1 -2,2 -3,3 -1,3 -2,7 -3,11 -7,0 -15,0 -22,0 -1,-4 -2,-8 -3,-11 -1,-1 -2,-2 -2,-3 0,-3 0,-5 0,-8 -3,0 -6,0 -9,0 -1,-1 -2,-2 -3,-3 0,-12 0,-24 0,-36 -6,0 -12,0 -19,0 -1,-1 -2,-2 -3,-3 0,-3 0,-5 0,-8 -4,0 -7,0 -11,0 -1,-8 -2,-15 -3,-22 -1,-2 -2,-2 -2,-3 -4,0 -8,0 -11,0 -1,1 -2,1 -3,3 -3,0 -5,0 -8,0 -2,21 -2,26 -17,41 -1,1 -2,2 -3,3 -15,30 -51,31 -80,39 -2,6 -4,12 -6,19 -1,1 -2,2 -2,3 -22,8 -43,17 -64,25 -1,1 -2,2 -3,2 -1,0 -2,-1 -3,-2 -16,0 -16,0 -38,11 -2,1 -2,1 -3,3 -1,3 -2,7 -3,11 -4,0 -8,0 -11,0 1,3 1,7 3,11 0,1 1,2 2,3 -2,3 -4,7 -5,11 -1,1 -2,1 -3,2 -2,0 -4,0 -5,0 -1,-1 -2,-1 -3,-2 -8,-3 -15,-6 -22,-9 1,10 3,20 5,31 -1,1 -2,1 -3,3 1,4 1,8 2,12 -6,2 -12,5 -18,7 -12,-9 -36,-21 -47,-5 -2,0 -2,1 -3,2 -9,3 -18,6 -26,10 -6,-6 -11,-10 -16,-15 z"
             class="fil6 str0"
             inkscape:connector-curvature="0"
             style="fill:#2626cd;stroke:#131516;stroke-width:8;stroke-linejoin:round" /><!-- Nordrhein-Westfalen --><path
             id="path15156"
             d="m 1629,1699 c -1,-1 -2,-2 -2,-3 -5,-4 -5,-4 -50,-8 -2,-4 -4,-9 -5,-13 -21,-6 -36,-5 -59,-3 -1,-1 -2,-2 -3,-3 0,-12 0,-24 0,-36 -3,0 -6,0 -8,0 -2,-2 -2,-2 -3,-3 -11,-3 -11,-3 -11,-8 4,0 7,0 11,0 0,-3 0,-6 0,-8 1,-2 1,-2 3,-3 0,-1 1,-2 2,-3 1,-1 2,-2 3,-3 -2,-7 -4,-15 -5,-22 -2,-1 -2,-2 -3,-3 -4,-8 -7,-17 -11,-25 -12,-2 -24,-4 -36,-5 -1,-1 -2,-2 -3,-3 -22,-3 -44,-6 -66,-8 -3,-10 -6,-19 -9,-28 -1,-1 -2,-2 -2,-3 -2,-5 -2,-9 -3,-14 -1,-1 -2,-2 -3,-3 -3,-8 -6,-16 -8,-24 -2,-1 -2,-2 -3,-3 -11,-6 -11,-6 -44,-8 -5,-14 -10,-26 -14,-39 -1,-1 -2,-2 -3,-3 -1,-3 -2,-6 -3,-8 -1,-2 -2,-2 -2,-3 -3,-5 -6,-10 -9,-14 -1,-1 -2,-2 -2,-3 3,-7 7,-15 11,-22 0,-1 1,-2 2,-3 1,-1 2,-2 3,-2 1,-2 2,-2 3,-3 0,-4 0,-8 0,-11 -1,-2 -2,-2 -3,-3 -2,-2 -4,-4 -5,-6 0,-1 1,-2 2,-3 0,-3 0,-7 0,-10 -1,-1 -2,-2 -2,-3 -2,-1 -2,-2 -3,-3 -1,-1 -2,-2 -3,-3 -1,-1 -2,-2 -3,-2 -1,-2 -2,-2 -2,-3 5,-2 11,-4 16,-6 1,-1 2,-2 3,-3 21,-4 42,-9 63,-14 1,-1 2,-2 3,-2 5,0 9,0 14,0 -1,-4 -2,-8 -3,-11 -1,-1 -2,-2 -2,-3 1,-2 3,-4 5,-6 1,-1 2,-2 3,-2 6,-2 13,-4 19,-6 0,-7 0,-15 0,-22 -3,0 -5,0 -8,0 -1,-1 -2,-2 -3,-3 2,-4 4,-7 6,-11 1,-1 2,-2 3,-3 2,0 5,0 8,0 -3,-16 -14,-28 -19,-44 -2,-1 -2,-2 -3,-3 5,-1 11,-2 16,-2 0,-8 0,-16 0,-23 -3,0 -7,0 -11,0 0,-4 0,-7 0,-11 -2,0 -5,0 -8,0 -1,-1 -2,-2 -3,-3 -2,-8 -4,-17 -5,-24 3,0 7,0 11,0 -1,-4 -2,-8 -3,-12 -1,-1 -2,-2 -3,-2 -1,-2 -2,-2 -3,-3 -1,-1 -2,-2 -2,-3 -2,-1 -2,-2 -3,-3 -1,-1 -2,-2 -3,-3 -1,-10 -2,-20 -3,-30 -1,-1 -2,-2 -3,-3 -2,-5 -5,-9 -8,-14 -1,-1 -2,-2 -3,-2 0,-2 -1,-2 -2,-3 -1,-1 -2,-2 -3,-3 0,-4 0,-9 0,-14 -4,0 -7,0 -11,0 -3,-7 -6,-15 -8,-22 -2,-1 -2,-2 -3,-3 0,-8 0,-17 0,-24 15,-3 29,-6 44,-9 1,-1 2,-2 3,-3 3,0 5,0 8,0 0,-5 0,-11 0,-16 14,-3 22,2 83,8 1,-1 2,-2 3,-3 6,-3 13,-5 20,-8 0,-1 1,-2 2,-3 10,-10 10,-10 14,-25 1,-1 1,-2 3,-3 4,-2 9,-5 14,-8 0,-1 1,-2 2,-3 1,-1 2,-2 3,-2 1,-2 2,-2 3,-3 2,0 4,0 6,0 0,1 1,1 2,3 5,2 10,5 14,8 1,1 2,1 3,3 4,0 9,1 14,2 1,1 1,2 3,3 5,3 11,6 16,9 0,5 0,10 0,16 5,2 9,4 14,6 1,0 2,1 3,2 18,1 36,2 55,3 0,4 0,7 0,11 6,-1 11,-2 17,-2 1,-2 1,-2 3,-3 3,3 7,7 11,11 1,1 1,2 3,3 -10,28 -8,50 -6,80 -4,0 -8,0 -11,0 0,10 0,20 0,31 -1,0 -2,1 -3,2 1,8 2,15 3,22 35,9 40,7 30,39 1,1 2,2 3,3 -2,15 -4,29 -6,44 0,1 -1,2 -2,3 1,8 2,17 2,25 0,1 -1,2 -2,3 -1,4 -2,9 -3,14 -1,1 -2,1 -3,2 0,2 0,4 0,6 1,1 2,1 3,3 4,8 7,16 11,25 4,0 7,0 11,0 3,5 6,10 8,16 1,1 2,2 3,3 3,1 6,1 9,3 0,0 1,1 2,2 0,3 0,6 0,9 6,0 11,0 17,0 1,-4 1,-8 3,-11 0,0 1,1 2,2 0,3 0,6 0,9 3,0 6,0 9,0 1,1 1,1 3,3 0,2 0,5 0,8 10,0 21,0 33,0 0,-4 0,-8 0,-11 4,1 9,3 14,5 0,1 1,2 2,3 5,3 10,6 14,9 1,0 2,1 3,2 2,0 4,0 6,0 1,-1 1,-2 3,-2 1,1 3,3 5,5 1,1 1,2 3,3 6,6 54,27 66,27 1,-1 2,-2 3,-2 6,28 6,28 14,36 -1,0 -2,1 -3,2 0,4 0,8 0,12 1,0 2,1 3,2 0,7 0,15 0,23 -1,0 -2,1 -3,2 -3,1 -5,2 -8,3 -1,1 -2,2 -3,3 -3,0 -6,1 -8,2 -2,1 -2,2 -3,3 -2,0 -4,0 -6,0 -1,-1 -2,-2 -3,-3 -3,0 -7,0 -10,0 -2,1 -2,2 -3,3 -9,0 -17,0 -25,0 0,-3 0,-7 0,-11 -4,1 -8,2 -11,3 -2,1 -2,2 -3,3 -3,2 -6,5 -8,8 -1,1 -2,2 -3,3 -8,-2 -17,-4 -25,-6 0,3 0,6 0,9 -1,0 -2,1 -3,2 -1,1 -2,2 -3,3 -1,1 -2,2 -3,3 -17,4 -35,9 -52,14 -1,1 -2,2 -3,3 -8,0 -17,0 -25,0 0,3 0,5 0,8 -1,1 -2,2 -3,2 -31,5 -27,14 -35,42 -2,1 -2,2 -3,3 -1,5 -2,11 -3,17 3,1 6,2 10,4 0,11 0,23 1,34 -4,0 -7,0 -11,0 3,9 6,19 8,28 1,1 2,2 3,3 2,13 3,25 5,39 0,0 -1,1 -2,2 -1,4 -2,8 -3,12 4,0 7,0 11,0 0,3 0,7 0,11 4,0 7,0 11,0 2,12 4,24 6,36 -2,0 -2,1 -3,2 -4,6 -8,11 -11,17 -1,-1 -2,-2 -3,-3 -16,0 -31,1 -46,1 -5,-9 -10,-17 -15,-26 -4,0 -9,0 -14,0 z"
             class="fil5 str0"
             inkscape:connector-curvature="0"
             style="fill:#ff7f24;stroke:#131516;stroke-width:8;stroke-linejoin:round" /><!-- Sachsen-Anhalt --><path
             style="fill:#00cd66;stroke:#131516;stroke-width:8;stroke-linejoin:round"
             inkscape:connector-curvature="0"
             id="path15158"
             d="m 789.45898,532.92383 c -9.40071,21.0738 -15.55341,43.95241 -29.5023,62.70152 -4.76735,9.20346 -1.94061,19.88077 0.55504,29.30863 0.98847,3.10301 0.5471,7.15472 3.1173,9.44709 5.69783,3.58888 13.60029,4.66594 16.9507,11.17952 5.68099,4.97132 14.33589,7.36083 17.0972,15.05878 0.86426,5.35532 -0.13418,10.7959 0.23707,16.18237 -0.19464,6.49021 -2.24657,14.36234 -8.9271,16.95381 -5.14808,1.79373 -9.97744,-1.57462 -13.97156,-4.41499 -1.68923,-0.98325 -4.56491,-2.49375 -6.06194,-0.78212 -6.76336,14.29768 -5.1966,30.50298 -7.06655,45.79732 -0.36845,5.86827 -0.44126,12.05584 -3.34778,17.34541 -6.01451,-6.40806 -5.49175,-15.77771 -7.41786,-23.79624 -1.72029,-20.80976 5.49948,-41.34523 16.10146,-58.97524 -13.68127,-5.36214 -27.90138,-9.77625 -40.42969,-17.64258 0.33463,-8.3606 -9.95029,-13.72751 -17.13477,-10.37109 -7.27404,2.46799 -10.95159,10.23908 -11.69352,17.42458 -0.78404,4.84855 -1.70503,9.87954 -1.61363,14.71916 3.99579,4.05789 10.01687,1.65335 14.92629,1.45196 3.7913,-0.48202 8.17236,2.61272 6.62531,6.75496 -1.1681,14.0172 -4.58339,27.86726 -10.28937,40.73332 2.30427,5.29867 -4.27459,10.73063 -9.29492,8.61523 -4.19755,-0.56316 -9.40181,1.34161 -12.62286,-2.35703 -1.95851,-2.72359 0.24871,-6.24915 -1.59784,-9.07265 -3.34184,-6.73652 -11.51441,-8.50045 -18.3572,-9.07039 -4.3456,-0.57521 -9.26836,-0.46381 -12.93544,-3.09722 -3.58032,-4.31373 -0.82696,-10.21473 -1.97145,-15.20785 -0.6854,-4.73333 -0.27095,-10.92407 4.73196,-13.16941 4.08075,-1.64177 8.62884,-0.96118 12.88574,-1.83641 3.86326,-0.3967 9.03101,-1.26139 10.45107,-5.44099 0.62065,-4.69588 -1.16231,-9.31703 -2.46093,-13.75586 -5.15963,-14.05985 -16.37978,-24.54229 -27.05274,-34.51953 -4.52106,-5.87837 0.0342,-14.6931 -5.41406,-20.11719 -3.24713,-2.21954 -7.43321,-0.92714 -11.0815,-1.75946 -23.41119,-1.90012 -46.8812,-4.5594 -70.40288,-3.29913 -3.01366,6.67902 -11.41547,8.15051 -17.95952,7.04387 -12.40134,-1.16119 -24.88472,-1.02375 -37.28415,-2.24909 -18.37127,-1.21147 -37.69804,-1.58723 -54.85099,6.09231 -7.08209,3.83913 -11.83053,10.61636 -17.56745,16.0758 -2.91636,3.19854 -6.42342,5.98717 -8.95455,9.45559 -4.37854,10.25978 -0.77971,21.48858 -1.62189,32.18019 0.41439,3.47766 -0.60903,8.72039 -4.97131,8.81478 -3.45868,0.35777 -5.91603,-2.61153 -7.57529,-5.17517 -3.83491,-2.28649 -7.57165,1.83454 -9.30012,4.94132 -5.30224,8.75653 -5.00416,19.39092 -5.53318,29.2661 -0.11015,11.4889 0.25516,23.0162 0.67252,34.47306 1.31858,3.72238 5.82852,3.18404 8.96482,3.39358 26.77348,2.92329 54.40054,3.4757 79.77796,13.46997 2.00322,0.63424 3.80187,1.86698 3.91765,4.13849 2.38765,9.35543 -0.1454,19.04054 0.77924,28.50579 -0.88039,3.85505 -7.68488,2.08542 -6.23609,-1.761 -0.0396,-7.83584 2.69624,-16.61274 -2.15165,-23.60917 -2.90581,-4.12619 -8.35949,-3.43345 -12.52201,-5.199 -5.70556,-2.0632 -11.86881,-5.54506 -18.03321,-3.61696 -1.1038,2.11048 -0.48244,4.71679 -1.07845,7.01506 -1.654,15.28127 -2.68437,30.6238 -4.43912,45.89487 -4.19247,-1.26113 -10.36839,-0.71478 -11.9961,4.08008 0.2816,4.12429 1.1934,8.20614 0.72071,12.35848 -0.15703,13.09919 -1.95771,26.54689 1.82812,39.33097 4.58275,1.14816 4.84434,6.92661 3.9774,10.71826 -0.62251,2.83928 0.26904,5.95546 -0.24652,8.65561 -3.48107,3.88879 -9.34926,6.77362 -9.37152,12.71048 -3.56477,15.69512 -13.38726,28.96542 -23.61848,40.99316 -9.63583,21.24697 -8.51226,45.05593 -10.27959,67.79366 -1.21386,9.1747 0.26256,18.5564 -1.46163,27.6597 -0.23272,2.1999 -2.42654,2.2442 -4.12153,1.9206 -26.34073,-0.7717 -52.57435,-4.1718 -78.9543,-3.7601 -1.38251,11.3719 2.30746,22.8564 -0.16797,34.1582 -7.25312,-0.023 -13.77253,7.9183 -11.03026,14.9573 -0.60001,3.9164 -0.76276,9.2213 3.51268,11.1326 1.91089,1.2029 4.36406,-0.06 6.16602,0.8789 3.24887,2.7714 0.0922,8.7374 4.40625,10.7461 4.01416,0.8629 8.18917,0.048 12.2314,0.9041 8.35938,0.9985 16.30649,4.2502 23.36098,8.7457 3.82296,1.5817 9.74063,1.8619 11.78431,-2.5062 0.46283,-2.4985 -0.93622,-6.4982 2.43803,-7.4115 4.23351,-1.6253 9.16779,-0.4784 13.05673,1.4225 3.77474,4.2368 -0.30686,10.1078 1.50733,14.9345 1.81316,4.5195 4.34473,8.7223 6.36757,13.1573 1.65228,3.053 3.25884,6.5071 5.77382,8.812 4.40932,-0.3385 6.69182,5.5927 4.0307,8.7864 -1.20332,2.6279 -4.41584,3.3068 -6.14462,5.2489 -3.00432,6.0821 -3.05792,13.6881 -8.23263,18.5966 -3.09409,4.8044 -4.13136,12.1944 0.51388,16.3995 4.47362,1.6716 9.13585,-0.6423 13.72494,-0.3028 16.48705,-1.087 33.02928,-0.5259 49.52311,-1.4511 3.5146,-6.5143 12.96283,-5.2045 16.76171,-11.416 -0.44727,-3.5481 1.61778,-8.6795 5.95774,-7.8025 3.17277,0.6961 6.8994,2.2711 9.68875,-0.3147 2.36554,-1.7502 2.59603,-5.0606 1.68615,-7.5854 0.97917,-5.5178 7.17712,-7.311 11.82476,-8.6739 3.77434,-0.9555 7.17788,-3.1187 10.92854,-3.9868 5.538,-0.5892 12.43595,-0.022 16.18706,-4.9847 1.53983,-3.8513 3.28858,-7.6917 4.28239,-11.7112 0.75455,-4.2183 -0.85214,-8.3657 -2.64183,-12.0507 -0.86211,-5.2203 0.19061,-12.1941 5.70303,-14.3979 4.71627,-0.5711 9.10187,1.8663 13.49453,3.1726 9.16386,3.9637 16.86019,12.8922 16.79509,23.2393 1.6609,5.2141 7.91499,5.8098 12.22482,7.7775 3.27213,1.2126 5.4202,4.0986 8.06038,6.1211 9.5329,4.9668 21.48106,-0.6648 30.51563,5.8028 4.42081,3.9966 3.962,10.4914 4.91681,15.8862 1.5139,18.1022 -4.2481,35.8234 -11.30939,52.2271 -0.72345,4.4637 4.15577,7.0813 7.99609,7.1875 4.44179,0.5646 10.20933,-0.2214 13.10684,3.9575 2.05263,4.6417 -0.56726,9.6022 -0.39395,14.4018 -0.66469,6.8168 -3.08193,14.6622 -9.95873,17.5486 -5.36396,3.1443 -9.56626,9.2982 -9.00029,15.663 0.93363,2.7713 4.39318,1.9948 6.43121,3.4348 3.5733,1.7274 8.20422,3.1669 11.61688,0.2836 9.89936,-5.5135 21.60972,-2.3961 32.27972,-4.4763 4.78888,-1.0481 9.70978,-1.5687 14.42223,-2.8853 4.28519,-1.3917 8.62025,-5.8106 6.71906,-10.6125 -1.02604,-2.5688 -0.0829,-6.0304 3.10731,-6.1901 2.46279,-0.5559 6.07136,0.1376 7.4403,-2.4476 -0.98995,-3.8471 1.62644,-10.0923 6.38448,-7.4125 7.08634,2.0443 14.04973,4.4637 21.11457,6.575 3.70002,0.9942 7.53001,1.621 11.371,1.4646 0.69492,-8.3161 7.24552,-16.303 15.86423,-16.9314 3.56316,-1.0779 8.4506,-2.0001 9.69672,-6.0154 -0.93123,-2.6632 -4.58134,-1.9387 -6.31782,-3.8625 -4.86181,-2.9391 -8.83189,-9.6047 -5.55173,-15.0598 4.12991,-8.3676 1.97382,-17.9439 1.95582,-26.8704 0.17669,-6.8442 -0.49412,-13.7787 -3.199,-20.1359 -2.72514,-7.2108 -8.23913,-13.5921 -15.73271,-15.9914 -4.29478,-1.8666 -9.22168,-2.6991 -13.01451,-5.4696 -3.87584,-6.1018 0.6579,-13.4236 -1.60335,-19.9097 -0.60924,-4.5079 3.38285,-8.901 7.9792,-8.3902 7.39425,-0.6074 15.54907,2.8531 22.3051,-1.5236 7.85187,-5.9421 5.58063,-18.3817 13.92463,-23.9161 3.41437,-2.2389 7.76913,-0.9199 10.57026,1.6609 3.04041,2.1615 7.72426,4.1085 10.81264,0.953 5.01261,-3.4962 10.35628,-6.5639 15.80347,-9.3141 4.8485,-2.1764 11.34356,-1.8977 14.71406,2.7005 5.32953,6.0267 8.0433,13.7635 11.80687,20.7488 1.80143,5.7755 -1.79412,11.5175 -1.15775,17.3813 0.16415,3.2259 1.99083,5.975 2.4538,9.1475 0.60164,2.9223 3.53447,5.606 6.56507,4.0911 7.35899,-0.8217 14.6918,1.7271 22.07061,0.6507 7.838,-0.8346 15.74521,-4.6273 19.73075,-11.7055 5.71196,-9.0883 7.9414,-20.201 15.15748,-28.3528 4.01227,-4.8584 11.03907,-5.782 16.72124,-3.6935 7.53328,1.1765 16.37448,0 22.36316,5.6932 5.7289,5.9976 4.70024,15.3164 1.86528,22.426 -2.21795,5.1883 -3.51462,10.7145 -3.92424,16.3257 -1.57635,8.5386 -6.17745,16.122 -9.14796,24.1253 0.0468,7.3874 -8.38491,12.0264 -15.05148,10.5006 -5.60418,-0.1268 -12.06355,4.3746 -11.07974,10.536 -0.49831,2.7808 -3.1483,6.6242 0.25729,8.6232 2.86755,1.5484 6.6386,1.3676 8.74731,4.2429 3.94717,3.8986 4.61048,10.2101 2.32865,15.1066 -1.2271,11.1929 -7.05651,21.2516 -9.80697,31.9521 2.42143,4.7162 8.67583,4.397 13.04189,3.128 5.83782,-0.6762 11.59859,1.1056 17.39784,1.4385 3.533,0.5701 7.17286,4.2401 5.09451,7.9034 -0.84416,2.0854 -3.04506,4.5655 -1.79581,6.7739 2.78634,0.5706 5.87205,1.3991 7.04456,4.327 3.93279,6.9844 0.10813,14.9413 0.59004,22.3458 0.33797,5.8456 3.42921,11.2654 3.34561,17.1239 -0.61606,3.6819 -3.96331,7.734 -1.20002,11.3122 3.1339,3.5373 8.31929,1.6685 11.89151,-0.095 2.75973,-1.3772 7.69325,-1.8379 8.64801,1.9445 0.74728,8.0666 4.08289,16.2453 10.60619,21.3466 2.72844,2.3415 6.25493,3.4047 9.59406,4.3397 1.27168,1.8592 0.28157,4.4045 0.82839,6.5395 0.21705,4.5806 2.06022,10.6889 7.45063,11.1671 4.33272,0.3626 9.74059,-0.6174 12.66993,3.469 3.01373,3.4428 2.31396,8.3233 1.48321,12.4051 0.12352,11.1559 -1.6256,23.2251 -9.29521,31.8562 -6.49539,15.6551 -7.10829,33.1549 -4.5193,49.7329 6.7438,0.8367 11.25215,-5.2048 16.2903,-8.567 2.93426,-2.0868 8.11126,-2.8794 10.34132,0.516 0.6404,5.5133 7.6679,7.8985 12.199,5.5529 5.5957,0.7074 11.0413,2.5548 16.7506,2.3286 2.2555,0.2627 4.9872,-0.4293 6.9285,0.6382 3.4011,4.4289 3.1384,10.4114 5.5816,15.2781 1.1391,5.2193 2.3985,10.7164 0.9341,16.0051 -8.3473,-1.2042 -16.7963,7.7533 -13.6961,15.9972 2.0118,8.498 7.7896,16.7089 5.5484,25.7553 -2.7485,5.764 3.7784,12.1536 -0.1772,17.6337 -1.5565,1.7036 0.1984,4.1808 -1.4833,5.9282 -2.2083,3.2705 -6.5895,3.4573 -10.0646,2.578 -5.2048,-0.4902 -7.9212,5.5843 -7.2833,10.0096 0.5442,5.6848 5.4136,10.8231 11.2828,10.7854 9.7805,2.3413 18.3761,7.9253 26.7444,13.2842 1.5423,0.9151 3.4965,2.5327 4.8884,2.8361 0.5765,-8.3284 -8.4052,-14.3608 -6.533,-22.8487 1.9794,-6.92 10.1508,-8.1426 14.6289,-12.834 2.6489,-3.5014 1.0627,-9.7462 5.9844,-11.5253 5.6565,-2.4839 12.145,1.6008 14.0996,7.0742 1.3252,2.4544 2.4005,5.9847 5.334,6.7617 3.0545,-1.1794 1.9142,-5.1936 2.2206,-7.75 -0.4333,-3.6737 1.7931,-8.092 6.0961,-7.1428 3.5723,-0.5257 7.8152,-0.2561 9.9627,3.1002 2.2677,2.7534 2.0626,6.5532 1.5722,9.777 0.8321,2.4519 5.3693,1.3669 4.1139,-1.3202 -0.7953,-2.6694 0.5623,-6.2068 3.7768,-6.0475 2.6647,-0.2981 7.1746,-0.029 7.4173,-3.6805 -0.076,-3.3992 0.734,-8.6317 5.0879,-8.6473 4.8267,0.3027 9.5833,-0.3585 14.3645,-0.8846 3.6114,-0.3047 7.2611,-0.4214 10.8646,0.041 -0.3685,-6.2094 6.597,-11.1228 12.4004,-9.416 1.959,-3.8984 0.7005,-9.6244 5.0078,-12.1348 5.9434,-0.281 11.7942,-1.2785 17.7346,-1.6133 3.8366,-0.4654 8.1831,-1.3803 10.8858,-4.2179 -0.2477,-3.3969 0.089,-7.063 2.755,-9.5154 3.0835,-3.4253 7.8234,-4.5231 12.0805,-5.4754 5.1714,-5.2521 3.4006,-14.7118 10.0989,-18.7829 4.9851,-1.4613 9.893,1.2989 14.8904,1.3618 11.8801,1.8747 24.781,4.4727 36.1624,-0.879 10.3468,-5.5005 16.684,-16.4891 19.4486,-27.5565 1.5552,-7.3932 -0.283,-14.933 -2.8816,-21.8511 -2.4766,-9.0289 -4.8153,-18.7068 -11.4969,-25.6714 -3.9541,0.8991 -9.3283,-2.7601 -7.5594,-7.1435 1.0888,-7.2154 -4.546,-13.9002 -2.2755,-21.1399 1.8675,-8.4825 8.5723,-14.4462 14.1395,-20.6203 1.9963,-2.5332 4.66,-5.5346 4.2865,-8.9151 -1.563,-3.9109 -6.6127,-3.058 -9.5657,-4.8375 -1.4646,-2.6841 1.1585,-5.3986 1.5835,-8.0675 1.7247,-4.6537 3.3029,-11.0755 -1.0713,-14.782 -3.2679,-2.4676 -7.0031,-4.5614 -8.9848,-8.3158 -2.3931,-3.2668 -4.4307,-8.583 -1.2102,-11.9307 3.363,-1.7134 7.101,0.474 10.6574,-0.041 3.6895,0.1946 8.4124,-1.8711 8.043,-6.2129 0.1998,-3.54 3.2853,-5.9213 6.6293,-6.2481 5.3877,-0.8996 10.9293,0.2642 16.2766,-1.054 14.1524,-1.4451 28.6512,-0.7465 42.4456,-4.7311 2.83,-3.7445 9.4549,-2.6732 11.1734,-7.4519 -0.3946,-3.8029 -5.006,-7.2938 -2.3042,-11.2053 2.1412,-3.1334 6.554,-1.9747 9.3393,-4.1711 5.4955,-2.7682 10.8772,-5.8043 15.8501,-9.4412 -0.6515,-7.7928 -7.9295,-14.0835 -6.1504,-22.2325 2.9344,-6.119 7.3659,-12.1707 6.5348,-19.3351 -0.3726,-5.9384 -4.3638,-10.6905 -5.7577,-16.3423 -3.257,-9.3111 -6.7143,-18.5593 -9.5114,-28.0237 2.9372,-3.8784 8.1737,-1.5459 12.1762,-1.692 5.8173,-0.4543 6.3159,-10.4251 0.4703,-11.3529 -2.9315,-0.4116 -6.6305,0.1412 -8.3629,-2.9112 -4.5837,-5.7968 -5.5742,-13.7618 -10.8269,-19.0946 -3.004,-8.8774 -4.2642,-18.2747 -4.3259,-27.6251 2.9214,-0.8981 7.5454,-1.7437 7.7208,-5.4846 -1.8221,-3.1546 -6.0962,-3.7647 -7.7618,-7.115 -6.5046,-8.4654 -6.099,-19.7133 -6.1736,-29.8325 -0.1677,-4.022 -3.4168,-7.9423 -7.6819,-7.5777 -3.7103,-0.3876 -4.5119,-4.4993 -4.4121,-7.5644 0.1059,-4.0646 0.4352,-9.5297 -3.9883,-11.5274 -4.0963,-2.778 -5.28,-7.935 -6.2363,-12.414 -3.2051,-3.1843 -8.7892,-0.4066 -11.9121,-3.9292 -2.4821,-2.5344 -1.1231,-6.3117 -2.1524,-9.4144 -1.9655,-10.39984 -6.2287,-20.32765 -6.8641,-30.97925 -0.98,-6.18795 -2.0244,-12.80571 0.4482,-18.79047 15.4537,-3.30675 32.2603,-0.86642 46.6738,-8.42578 4.1758,-2.94966 3.2182,-8.73861 5.0146,-12.99041 1.1854,-4.08187 4.8754,-7.92383 9.4386,-7.20442 13.6828,-0.78684 27.2966,1.40006 40.5781,4.50849 12.8519,2.74255 25.8363,6.05755 39.0159,6.06599 9.002,-5.25004 20.5175,-7.16209 26.9704,-16.05543 2.3027,-4.38767 3.7557,-9.21242 6.7157,-13.24213 3.362,-5.99655 6.2821,-12.28765 8.1104,-18.9317 7.0138,0.57512 15.629,-0.61351 19.482,-7.28463 2.1349,-4.36336 -1.4345,-9.73694 -6.1206,-10.14855 -5.9651,-1.55022 -13.4193,0.17538 -18.0004,-4.88847 -3.5641,-5.37985 -11.3731,-5.07519 -16.3909,-2.04986 -5.6896,2.5838 -11.9165,6.99718 -18.4069,4.60546 -5.8135,-3.13609 -10.2393,-8.26082 -14.6099,-13.09474 -4.8184,-5.95104 -7.8543,-13.21276 -9.7701,-20.50645 -4.9671,-3.97244 -12.5432,-5.73953 -14.6988,-12.42378 0.1369,-3.22661 -1.5014,-6.35582 -4.5427,-7.63241 -7.0239,-4.38647 -16.8432,-3.87973 -22.1858,-10.93399 -2.4413,-4.99469 -3.8382,-10.61914 -7.7971,-14.73316 -4.1502,-5.41226 -7.889,-11.37774 -9.2492,-18.13782 -3.6218,-8.04725 -9.1171,-16.75292 -18.3697,-18.75402 -1.8785,-0.62522 -4.488,0.007 -4.5391,2.34754 -2.7788,6.54095 -10.5426,9.86887 -17.2971,8.50543 -8.4174,1.82673 -16.8362,-2.53927 -22.6083,-8.41062 -11.0166,-7.00506 -24.5762,-5.90831 -37.0439,-6.77685 -8.555,-0.43947 -16.9663,-3.192 -24.0616,-7.95858 -17.082,-6.01347 -31.4932,-18.16132 -49.2625,-22.43935 -8.5703,1.74405 -12.0829,12.52941 -21.1621,13.04688 -12.2593,0.37437 -24.0373,-5.92406 -32.1374,-14.82 -1.4794,-3.64403 -5.5586,-9.76633 -9.6893,-5.41803 -3.7212,3.6205 -6.4896,8.72388 -11.8194,10.25081 -3.9556,1.42161 -7.938,-0.42335 -11.8863,-0.84934 -4.0749,-0.99784 -8.3216,-2.05463 -12.1258,-3.62438 -1.9181,-2.72727 0.3965,-7.6764 -3.3229,-9.14604 -3.1992,0.64901 -1.7549,4.90754 -3.0971,7.08745 -0.9626,2.75862 -4.4627,3.89944 -6.7503,2.00351 -10.591,-4.94348 -15.9553,-16.42129 -18.5195,-27.2392 -1.3044,-4.66948 -1.3629,-9.79641 -3.3821,-14.19207 -4.7326,-5.0181 -12.5868,-1.91129 -18.0068,-5.62666 -13.1066,-6.89744 -24.855,-16.01629 -36.9604,-24.46902 -6.9678,-6.16908 -9.1924,-15.76762 -10.8252,-24.54248 -0.4455,-4.89036 -4.7759,-7.91116 -7.6751,-11.43251 -7.7975,-8.0411 -16.58686,-15.68707 -21.16594,-26.15359 -7.61215,-9.36436 -13.36659,-20.48004 -15.43983,-32.40151 -5.08496,-6.30508 -14.08244,-6.20384 -21.39001,-5.13259 -12.62335,1.66469 -25.35993,-1.49487 -37.96065,0.23002 -3.75017,0.543 -6.97217,2.59651 -10.13507,4.48149 -5.90474,2.05871 -12.00592,-1.09222 -18.03596,-0.15563 -11.01019,0.10785 -22.02891,1.25325 -33.0324,0.5111 -4.08279,-0.47361 -8.52215,-0.9331 -12.09228,-2.92281 -4.92309,-7.26357 -14.87123,-7.13789 -21.22177,-12.54489 -5.01883,-3.266 -10.82036,-5.7192 -16.89688,-5.67879 -0.30664,0.66992 -0.61328,1.33985 -0.91993,2.00977 z"
             class="fil2 str0" /><!-- Niedersachsen --><path
             id="path15160"
             d="m 2011,1522 c -1,-1 -2,-2 -2,-3 -9,1 -19,2 -28,3 0,3 0,5 0,8 -1,1 -2,2 -3,3 -7,0 -15,0 -22,0 -1,-1 -2,-2 -3,-3 0,-11 0,-22 0,-33 1,-1 2,-2 3,-3 -1,-7 -2,-15 -3,-22 -3,0 -7,0 -11,0 -3,-21 -6,-22 -25,-28 -1,-1 -2,-2 -2,-2 0,-2 0,-4 0,-6 0,-1 1,-2 2,-3 3,-1 6,-2 9,-3 1,-1 1,-2 3,-2 2,-1 5,-2 8,-3 1,-1 1,-2 3,-3 0,-9 0,-18 0,-27 -2,-2 -2,-2 -3,-3 0,-2 0,-4 0,-6 1,-1 1,-2 3,-3 0,-10 -6,-16 -9,-44 -4,1 -7,2 -11,3 -1,1 -2,1 -3,3 -10,-6 -20,-12 -30,-17 0,-4 0,-7 0,-11 -10,0 -21,0 -31,0 -1,-1 -2,-2 -2,-3 0,-2 0,-5 0,-8 -4,1 -8,2 -11,3 -1,1 -2,1 -3,3 -1,-2 -2,-2 -3,-3 0,-3 0,-6 0,-9 -5,0 -9,0 -14,0 -1,-1 -2,-2 -3,-2 0,-3 0,-6 0,-9 -7,0 -15,0 -22,0 0,4 0,7 0,11 -8,-2 -17,-4 -25,-5 -1,-1 -2,-2 -2,-3 -3,-3 -6,-6 -9,-8 -1,-2 -2,-2 -3,-3 -4,-1 -7,-2 -11,-3 -5,8 -5,8 -8,6 -1,-2 -2,-2 -3,-3 -2,-1 -5,-2 -8,-3 -1,-1 -2,-2 -3,-2 -2,-7 -4,-14 -5,-20 -4,0 -8,0 -11,0 -5,-7 -10,-15 -14,-22 -1,-1 -2,-2 -3,-3 1,-1 2,-2 3,-3 1,-5 2,-9 2,-13 1,-2 2,-2 3,-3 -1,-9 -2,-17 -3,-25 1,-1 2,-2 3,-3 6,-11 6,-11 6,-50 -1,-1 -2,-2 -3,-3 8,-12 8,-17 7,-32 -13,-6 -13,-6 -35,-9 -2,-5 -4,-9 -5,-14 1,-1 1,-2 3,-3 0,-9 1,-18 2,-28 4,0 8,0 12,0 -3,-55 -3,-55 2,-88 -1,-1 -2,-2 -2,-3 -2,-3 -4,-7 -5,-10 -4,0 -8,-1 -12,-1 -1,1 -2,2 -3,3 -3,0 -6,0 -8,0 0,-4 0,-8 0,-11 -20,0 -39,0 -59,0 -1,-2 -2,-2 -2,-3 0,-3 0,-6 0,-8 -4,0 -8,0 -11,0 0,-6 0,-11 0,-17 -7,-2 -13,-4 -20,-6 -1,-1 -2,-2 -2,-2 -5,-2 -10,-2 -14,-3 -2,-1 -2,-2 -3,-3 0,-3 0,-5 0,-8 -5,0 -9,0 -14,0 -1,-1 -2,-2 -3,-3 -2,-3 -5,-6 -8,-8 -1,-1 -2,-2 -3,-3 -7,-1 -13,-2 -19,-3 -2,-1 -2,-2 -3,-2 -1,-2 -2,-2 -2,-3 -2,-1 -2,-2 -3,-3 -8,-1 -15,-2 -23,-3 0,3 0,6 0,9 -1,0 -2,1 -2,2 -2,0 -4,0 -6,0 -1,-1 -2,-2 -3,-2 -1,-2 -2,-2 -3,-3 -1,-1 -2,-2 -2,-3 -2,-1 -2,-2 -3,-3 -1,-1 -2,-2 -3,-3 -1,-1 -2,-2 -2,-2 -2,-2 -2,-2 -3,-3 11,1 22,1 33,3 0,-4 0,-8 0,-12 13,0 25,0 39,0 18,-75 101,-18 125,-99 0,1 1,1 2,3 9,0 19,0 28,0 1,-2 1,-2 3,-3 1,1 3,3 5,5 1,1 2,2 3,3 0,3 0,6 0,8 4,-1 7,-2 11,-2 1,-2 2,-2 3,-3 8,8 8,8 22,11 1,1 1,2 3,3 1,6 3,13 5,19 29,-2 52,-2 78,11 0,4 0,7 0,11 20,-2 40,-4 61,-5 0,3 0,7 0,11 3,-1 7,-2 11,-3 1,-1 1,-2 3,-3 15,-10 15,-10 19,-22 6,0 13,0 19,0 1,1 2,2 3,3 4,1 7,1 11,3 0,-3 0,-6 0,-9 1,-1 2,-2 3,-3 3,-5 6,-11 8,-16 6,0 11,0 17,0 1,4 1,7 3,11 0,1 1,2 2,3 4,1 8,2 12,2 2,-9 5,-18 8,-27 1,1 2,1 3,3 1,0 3,0 5,0 1,-2 2,-2 3,-3 5,-22 11,-28 14,-44 5,0 11,0 16,0 2,-8 4,-16 6,-23 4,0 7,0 11,0 0,-3 0,-7 0,-10 7,0 15,0 22,0 1,-6 3,-11 4,-16 4,1 9,3 13,4 1,4 1,8 3,12 0,0 1,1 2,2 1,1 2,2 3,3 1,0 2,1 3,2 0,5 0,10 0,14 16,0 33,0 50,0 0,-2 0,-5 0,-8 1,-1 2,-2 3,-3 1,0 3,0 5,0 1,1 2,2 3,3 5,1 11,2 16,3 0,8 0,17 0,25 -1,1 -2,2 -2,3 -3,4 -6,9 -9,13 -1,1 -2,2 -3,3 -1,1 -2,2 -2,3 -1,1 -2,2 -3,3 -1,1 -2,1 -3,3 -1,0 -1,1 -2,2 -1,1 -2,2 -3,3 -1,1 -2,2 -3,3 -1,3 -2,7 -3,11 6,-1 11,-2 17,-3 0,-1 1,-2 2,-3 10,2 21,4 31,6 2,-5 4,-10 6,-14 1,-1 1,-2 3,-3 4,-2 8,-4 13,-5 0,-3 0,-6 0,-9 1,-1 2,-2 3,-2 3,16 3,16 8,16 0,7 0,15 0,23 -2,3 -4,7 -5,10 -2,0 -4,0 -6,0 0,8 0,15 0,23 2,0 4,0 6,0 0,5 0,11 0,17 -2,5 -4,10 -6,16 -2,1 -4,3 -5,5 -2,4 -4,8 -6,12 -4,3 -7,7 -11,11 -2,1 -4,3 -5,5 -4,2 -8,4 -12,6 -2,2 -4,3 -5,5 -2,0 -4,0 -6,0 2,13 4,26 6,39 -2,0 -4,0 -6,0 0,7 0,15 0,22 7,0 15,0 23,0 0,4 0,7 0,11 3,0 7,0 11,0 0,4 0,8 0,12 5,0 11,0 16,0 2,1 4,3 6,5 3,4 7,7 11,11 1,1 3,3 5,5 6,6 11,12 17,17 3,2 7,4 11,6 4,1 7,3 11,5 2,2 4,4 6,6 1,2 3,4 5,6 2,3 4,7 6,10 -2,9 -4,19 -6,28 4,0 8,0 12,0 0,4 0,7 0,11 -2,4 -4,8 -6,11 -6,2 -11,4 -17,6 0,9 0,18 0,28 2,0 4,0 6,0 1,3 3,7 5,10 2,10 4,19 6,28 16,8 27,11 33,28 -6,0 -6,0 -6,11 2,0 4,0 6,0 0,4 0,7 0,11 -2,0 -4,0 -6,0 0,7 0,15 0,22 2,0 4,0 6,0 4,2 7,4 11,6 2,1 4,3 6,5 -2,8 -4,15 -6,23 -2,0 -4,0 -5,0 0,16 0,33 0,50 -4,0 -8,0 -12,0 -2,5 -4,10 -5,16 -3,1 -5,2 -7,4 0,6 0,13 0,19 4,2 8,3 12,5 4,11 8,22 12,33 0,6 0,6 11,6 0,3 0,7 0,11 3,0 7,0 11,0 0,10 0,22 0,33 -4,3 -8,5 -11,8 -1,1 -2,2 -3,3 -7,2 -13,4 -20,6 0,-4 0,-8 0,-12 -7,0 -14,0 -21,0 0,4 0,8 0,12 -18,5 -36,11 -53,16 -1,-1 -2,-2 -3,-2 -47,2 -47,2 -50,5 -1,1 -2,2 -3,2 -1,4 -2,8 -2,12 -4,0 -8,1 -12,2 -1,1 -2,2 -2,3 0,2 0,4 0,6 0,1 1,1 2,3 0,6 0,12 0,19 -4,0 -7,0 -11,0 0,4 0,7 0,11 -7,1 -14,2 -22,3 -1,1 -2,1 -2,3 -2,0 -4,0 -6,0 -1,-2 -2,-2 -3,-3 -22,5 -22,5 -78,5 0,1 -1,2 -2,3 -1,-4 -2,-7 -3,-11 -10,-4 -21,-7 -31,-11 z"
             class="fil4 str0"
             inkscape:connector-curvature="0"
             style="fill:#ffff00;stroke:#131516;stroke-width:8;stroke-linejoin:round" /><!-- Brandenburg --><!-- Berlin --><path
             id="path15166"
             d="m 1175,730 c -1,-1 -2,-2 -3,-3 -5,-3 -9,-5 -14,-8 -1,-1 -2,-2 -3,-3 0,-5 0,-10 0,-14 -16,3 -16,3 -35,17 -2,-1 -2,-2 -3,-3 -3,-3 -6,-6 -9,-8 -1,-2 -2,-2 -2,-3 -2,0 -4,0 -6,0 -1,1 -2,1 -2,3 -2,1 -4,3 -6,5 -1,-1 -2,-2 -3,-3 -8,-19 -8,-28 -5,-49 0,-2 1,-2 2,-3 1,-1 2,-2 3,-3 1,-1 2,-2 3,-3 1,-1 2,-2 3,-3 1,-1 1,-2 3,-2 12,-13 13,-14 30,-17 0,-3 0,-6 0,-8 1,-1 2,-2 3,-3 14,-3 14,-3 33,-17 1,1 1,2 3,3 -2,1 -2,2 -3,3 0,11 0,11 14,30 -1,1 -2,2 -3,3 -3,4 -6,9 -8,14 -2,1 -2,2 -3,3 1,9 1,18 3,27 5,0 11,0 16,0 1,4 2,7 3,11 1,1 2,2 3,3 4,6 7,11 11,17 -1,1 -2,2 -3,3 -2,0 -5,0 -8,0 0,3 0,5 0,8 -1,1 -2,2 -3,3 -4,0 -7,0 -11,0 z"
             class="fil1 str0"
             inkscape:connector-curvature="0"
             style="fill:#008b45;stroke:#131516;stroke-width:8;stroke-linejoin:round" /><!-- Hamburg --><g
             id="g15168"><path
               id="path15170"
               d="m 1441,835 c -1,-1 -2,-2 -3,-3 -3,-1 -5,-2 -8,-3 -1,-1 -2,-1 -3,-2 0,-5 0,-10 0,-14 -10,-6 -20,-11 -30,-17 -1,-1 -2,-2 -3,-3 -6,-14 -11,-28 -17,-41 -5,0 -9,0 -14,0 -1,-1 -2,-2 -3,-3 -4,-1 -7,-2 -11,-3 -1,4 -2,8 -4,13 -5,1 -10,2 -15,4 -1,-1 -2,-2 -3,-3 -4,-3 -9,-5 -14,-8 -1,-1 -2,-2 -2,-3 0,-3 0,-5 0,-8 -8,0 -15,0 -22,0 -2,-7 -4,-13 -6,-19 1,-2 2,-2 3,-3 1,-4 1,-8 3,-11 3,-2 7,-2 10,-3 1,-1 2,-2 3,-3 7,-2 13,-4 20,-6 0,-4 0,-7 0,-11 3,0 7,0 11,0 0,-7 0,-14 0,-22 7,-1 14,-2 22,-2 1,-2 1,-2 3,-3 -2,-5 -2,-10 -3,-14 1,-1 1,-2 3,-3 0,-3 1,-6 2,-8 1,-2 2,-2 3,-3 0,-26 -9,-24 -30,-28 0,-5 0,-11 0,-16 -4,0 -8,0 -11,0 -2,-16 -4,-32 -6,-48 1,-1 2,-2 3,-2 20,-9 20,-9 47,-11 0,-4 0,-8 0,-11 -6,-1 -11,-2 -17,-3 4,-5 7,-10 11,-14 4,-4 8,-8 12,-11 3,-2 7,-4 11,-6 9,-2 18,-3 27,-5 4,0 19,17 23,22 -6,0 -6,0 -6,11 4,0 7,0 11,0 2,0 4,0 6,0 9,2 18,4 27,6 2,1 4,3 6,5 0,6 0,6 11,6 1,-10 1,-20 1,-30 4,-1 7,-2 10,-4 0,-5 0,-11 0,-16 15,-4 16,-14 22,-28 2,0 4,0 6,0 -2,-5 -4,-11 -6,-17 2,-3 4,-7 6,-10 22,-2 44,-4 66,-6 13,-2 26,-4 39,-6 2,11 4,22 6,34 5,0 10,0 16,0 0,-6 0,-6 -11,-6 0,-13 0,-26 0,-39 2,-2 3,-4 5,-5 2,-4 4,-8 6,-11 2,-2 4,-4 6,-6 3,-2 7,-4 11,-5 1,-2 3,-4 5,-6 4,-2 8,-4 12,-5 1,-2 3,-4 5,-6 1,0 2,0 3,0 1,1 2,2 2,3 2,5 3,10 4,15 6,1 12,3 19,4 -2,-4 -4,-7 -6,-11 0,-4 0,-7 0,-11 6,0 11,0 17,0 0,-11 0,-11 -6,-11 0,-2 0,-4 0,-6 9,-2 19,-4 28,-5 0,-4 0,-8 0,-11 16,0 33,0 50,0 0,3 0,7 0,11 5,0 11,0 16,0 2,-8 4,-15 6,-22 11,-9 11,-9 28,-11 1,4 2,8 4,12 3,1 8,3 12,4 3,28 3,28 11,39 2,2 4,4 6,6 16,8 16,8 39,11 1,5 1,11 3,16 6,4 12,7 19,11 5,7 11,15 16,23 0,5 0,5 12,5 0,-4 0,-7 0,-11 10,-4 22,-8 33,-11 4,-4 8,-7 12,-10 3,3 6,6 10,10 12,9 12,9 19,27 1,1 2,2 3,3 0,5 0,9 0,14 -2,2 -4,4 -6,6 0,1 0,3 0,5 6,4 12,7 17,11 11,26 -1,30 -5,56 3,0 7,0 11,0 6,22 24,24 44,27 1,2 2,5 4,7 13,0 27,-1 40,-1 4,-2 7,-4 11,-6 -2,6 -4,12 -5,17 -6,0 -6,0 -6,11 4,0 7,0 11,0 4,9 8,18 12,28 1,11 3,22 5,33 2,4 4,7 6,11 5,17 11,33 16,50 0,8 0,17 0,25 -1,1 -2,2 -3,3 -4,1 -9,3 -13,5 0,3 0,6 0,9 -1,0 -2,1 -3,2 -3,0 -6,0 -8,0 0,4 0,7 0,11 -10,-1 -19,-2 -28,-2 -1,0 -2,1 -3,2 -3,-1 -6,-2 -8,-2 1,-2 2,-2 3,-3 1,-1 1,-2 2,-3 1,-1 2,-2 3,-3 1,-1 2,-2 3,-2 0,-2 1,-2 2,-3 1,-1 2,-2 3,-3 1,-1 2,-2 3,-3 3,-5 6,-9 8,-13 1,-2 2,-2 3,-3 1,-11 2,-23 3,-34 -7,0 -13,0 -20,0 -1,-1 -2,-2 -2,-3 -4,0 -7,0 -11,0 -1,1 -2,2 -3,3 -13,1 -25,3 -38,4 -2,-3 -4,-6 -6,-9 -1,-1 -2,-2 -3,-3 -1,-1 -2,-2 -3,-2 -1,-2 -2,-2 -3,-3 0,-5 0,-10 0,-14 -9,-2 -18,-4 -27,-6 0,6 0,11 0,17 -8,0 -15,0 -22,0 0,4 0,7 0,11 -4,0 -8,0 -12,0 -2,7 -4,14 -5,22 -6,0 -11,0 -17,0 -3,17 -8,22 -11,47 -1,1 -2,2 -2,3 -2,-1 -2,-2 -3,-3 -4,-1 -8,-2 -11,-3 -3,9 -6,19 -9,28 -1,-1 -2,-2 -3,-3 0,-4 0,-9 0,-14 -9,0 -18,0 -27,0 -2,7 -4,13 -6,20 -1,1 -2,2 -2,2 -2,2 -4,4 -6,6 -1,-1 -2,-2 -3,-3 0,-3 0,-5 0,-8 -27,5 -29,7 -44,31 -1,0 -2,1 -3,2 -1,-4 -2,-7 -3,-11 -20,2 -40,4 -61,6 0,-4 0,-8 0,-11 -23,-12 -51,-17 -77,-12 -3,-5 -6,-11 -9,-16 -1,-1 -2,-2 -2,-3 -17,-11 -17,-11 -28,-11 -1,1 -2,2 -3,3 -2,-2 -4,-4 -5,-6 -1,-1 -2,-2 -3,-2 0,-3 0,-6 0,-9 -4,1 -8,2 -11,3 -1,1 -2,2 -3,3 -8,0 -15,0 -22,0 -1,-1 -2,-2 -3,-3 -4,-1 -7,-2 -11,-3 -2,9 -4,18 -5,28 -53,29 -103,16 -117,72 -13,0 -26,0 -39,0 -1,3 -3,6 -4,9 -9,-3 -18,-6 -26,-9 z"
               class="fil4 str0"
               inkscape:connector-curvature="0"
               style="fill:#ffff00;stroke:#131516;stroke-width:8;stroke-linejoin:round" /><!-- Mecklenburg- Vorpommern --><!-- Usedom? (zu Mecklenburg- Vorpommern) --><!-- Insel (zu Mecklenburg- Vorpommern) --><!-- R&#252;gen (zu Mecklenburg- Vorpommern) --><!-- Dar&#223; (zu Mecklenburg- Vorpommern) --><!-- Jasmund? (zu Mecklenburg- Vorpommern) --><!-- Insel (zu Mecklenburg- Vorpommern) --></g><g
             id="g15184"><path
               id="path15186"
               d="m 1269,746 c -1,-1 -2,-2 -3,-2 -10,-5 -20,-10 -30,-14 -1,-1 -2,-2 -3,-3 -3,-1 -5,-2 -8,-3 -1,-1 -2,-2 -3,-2 -13,-8 -21,-22 -30,-26 -1,-1 -2,-2 -3,-2 0,-5 0,-10 0,-14 -6,0 -11,0 -17,0 -2,-7 -4,-13 -5,-19 0,-2 1,-2 2,-3 3,0 6,0 9,0 0,-5 0,-10 0,-14 1,-1 1,-2 3,-3 0,-11 0,-11 -14,-30 0,-2 1,-2 2,-3 3,0 6,0 9,0 0,-6 0,-11 0,-17 -21,7 -32,12 -50,25 -1,1 -2,2 -3,3 -17,6 -21,10 -30,25 -1,1 -2,1 -3,3 -1,0 -2,1 -3,2 -1,1 -2,2 -3,3 -1,1 -2,2 -2,3 -2,1 -2,2 -3,3 -13,10 -20,7 -36,5 0,-5 0,-11 0,-16 -6,-2 -11,-4 -17,-6 -2,-2 -4,-4 -5,-6 -4,-14 -8,-29 -12,-44 -5,0 -11,0 -16,0 -4,-7 -7,-15 -11,-22 -2,-5 -4,-11 -6,-17 -2,-2 -4,-4 -5,-5 -4,-2 -8,-4 -11,-6 -4,-4 -7,-9 -10,-12 -16,-2 -31,-3 -46,-4 0,-2 0,-4 0,-6 -9,2 -18,4 -27,6 -2,-2 -4,-4 -6,-6 -4,-7 -8,-15 -11,-22 -2,-4 -4,-8 -6,-11 -2,-8 -4,-15 -5,-22 3,0 7,0 11,0 0,1 0,3 0,5 7,0 15,0 22,0 -4,-11 -7,-22 -11,-33 0,-4 0,-7 0,-11 -9,0 -18,0 -28,0 2,-17 4,-33 6,-50 7,0 14,0 22,0 2,-7 4,-15 6,-22 -24,10 -42,7 -67,6 -2,3 -4,7 -6,11 -2,-2 -4,-4 -5,-6 -2,-4 -4,-7 -5,-11 0,-4 0,-8 0,-11 3,0 7,0 10,0 0,-6 0,-11 0,-17 -10,0 -10,0 -10,-5 20,-2 40,-4 60,-6 11,-2 11,-2 17,-11 4,-4 7,-7 11,-11 7,-4 7,-4 9,-22 -7,-8 -14,-15 -20,-22 -2,-2 -4,-4 -6,-6 -2,-5 -4,-11 -5,-16 -4,-4 -8,-8 -11,-11 0,-4 0,-8 0,-12 -6,0 -11,0 -17,0 -2,-7 -4,-15 -5,-22 -4,-8 -8,-15 -11,-22 -4,-7 -8,-15 -12,-22 -2,-2 -4,-4 -5,-6 0,-7 0,-15 0,-22 7,-2 15,-4 22,-5 24,3 48,7 72,11 11,1 22,3 33,5 2,2 4,4 6,6 5,5 11,11 16,16 6,2 12,4 17,6 0,6 0,6 11,6 0,-4 0,-8 0,-12 4,-2 8,-4 11,-5 0,3 0,7 0,11 11,0 11,0 11,-6 6,0 11,0 17,0 0,-4 0,-7 0,-11 6,2 11,4 17,6 7,1 14,3 22,5 3,6 22,23 28,23 1,1 3,3 5,5 0,6 0,6 11,6 0,-4 0,-8 0,-11 6,-2 11,-4 17,-6 1,4 3,7 5,11 2,5 4,11 6,17 0,1 0,3 0,5 -4,0 -8,0 -11,0 -13,33 -45,43 -56,72 24,-17 49,-27 56,-55 5,0 11,0 17,0 -2,20 -4,41 -6,61 -4,2 -8,4 -11,6 -9,1 -19,3 -28,5 0,5 0,11 0,17 26,-4 52,-8 78,-12 1,2 3,4 5,6 0,4 0,7 0,11 0,2 0,4 0,6 -8,16 -8,16 -11,44 4,-2 8,-3 12,-4 4,-12 7,-24 10,-35 17,-2 17,-2 22,-11 4,0 7,0 11,0 6,4 12,7 17,11 11,9 11,9 28,11 11,10 22,20 33,31 7,-1 15,-2 22,-3 4,-2 7,-4 11,-6 4,-4 8,-7 12,-11 17,-9 25,-8 44,-5 0,9 0,18 0,28 1,0 3,0 5,0 -2,16 -4,33 -5,49 -4,0 -8,0 -11,0 0,4 0,8 0,12 -17,2 -17,2 -23,10 -2,4 -3,8 -5,12 -4,0 -7,0 -11,0 0,-6 0,-6 -11,-6 0,4 0,7 0,11 -5,3 -9,7 -13,10 0,4 1,8 2,12 1,2 3,4 5,6 0,4 0,7 0,11 7,0 15,0 23,0 -2,13 -4,26 -6,39 -6,2 -11,5 -17,8 -1,1 -2,1 -3,3 1,18 2,36 3,55 4,0 7,0 11,0 0,6 0,11 0,17 8,1 15,1 22,3 4,5 7,11 11,16 -1,1 -2,2 -2,3 -2,3 -2,5 -3,8 -1,1 -2,2 -3,3 1,4 2,9 3,14 -1,1 -2,2 -3,3 -8,0 -17,0 -25,0 0,7 0,14 0,22 -4,0 -7,0 -11,0 0,3 0,7 0,11 -5,3 -11,5 -17,8 0,1 -1,2 -2,3 -5,0 -10,0 -14,0 0,4 0,9 0,14 -1,1 -2,2 -3,3 1,7 2,14 3,22 -5,1 -9,3 -14,5 z"
               class="fil2 str0"
               inkscape:connector-curvature="0"
               style="fill:#00cd66;stroke:#131516;stroke-width:8;stroke-linejoin:round" /><!-- Schleswig-Holstein --><!-- Fehmarn --><!-- Insel zu Schleswig-Holstein --><!-- Insel zu Schleswig-Holstein --><!-- zu kleine Insel zu Schleswig-Holstein --><!-- Insel zu Schleswig-Holstein --><!-- zu kleine Insel zu Schleswig-Holstein --><!-- F&#246;hr (zu Schleswig-Holstein) --><!-- Sylt (zu Schleswig-Holstein) --><!-- Insel zu Schleswig-Holstein --></g></g><!-- Bremen --></g><path
         id="path15208"
         d="m 1155,1902 c -1,0 -2,1 -2,2 -3,-7 -6,-15 -8,-22 3,0 7,0 10,0 -2,-8 -5,-15 -8,-22 -1,-1 -2,-2 -2,-3 -6,0 -11,0 -17,0 -1,1 -2,2 -3,3 -3,0 -5,0 -8,0 -2,5 -3,10 -5,15 -4,-1 -8,-3 -12,-4 2,-5 4,-9 6,-14 0,-1 1,-2 2,-3 1,-4 2,-9 3,-14 1,-1 2,-1 3,-2 1,-11 2,-21 3,-31 1,-1 1,-2 3,-2 0,-4 1,-8 2,-12 6,0 12,0 17,0 2,-13 4,-25 6,-38 -6,0 -11,0 -17,0 0,-2 0,-4 0,-6 6,0 11,0 17,0 -2,-9 -4,-18 -6,-27 6,0 13,0 19,0 1,0 2,1 3,2 7,1 15,2 22,3 0,-9 0,-19 0,-28 -5,-1 -10,-3 -15,-4 16,-20 18,-25 18,-51 -1,-1 -2,-2 -3,-3 -1,-1 -2,-2 -2,-3 -2,-1 -2,-2 -3,-3 -21,-13 -34,-30 -56,-35 -2,-8 -5,-16 -8,-23 -1,-1 -2,-1 -3,-2 2,-2 4,-4 6,-6 1,-1 1,-2 3,-3 4,-2 9,-4 14,-5 0,-4 0,-8 0,-11 6,-2 12,-4 19,-6 0,1 1,2 2,3 4,1 8,2 12,3 0,-4 0,-8 0,-11 3,0 7,0 11,0 0,-4 0,-8 0,-12 11,-2 22,-3 33,-5 0,-4 0,-7 0,-11 3,0 7,0 11,0 0,-3 0,-6 0,-8 1,-2 2,-2 3,-3 2,-5 4,-9 7,-13 24,-2 41,9 63,-3 2,-7 3,-13 4,-20 1,-1 2,-2 3,-3 17,2 33,4 50,6 1,1 2,1 3,3 3,7 5,16 8,24 1,1 2,2 3,3 1,4 2,9 3,14 1,1 1,2 3,3 1,10 3,20 5,30 25,5 44,8 70,6 0,0 1,1 2,2 11,3 22,6 34,9 1,7 3,14 5,22 3,0 6,0 9,0 0,1 1,1 2,3 1,5 3,11 5,16 -1,1 -2,2 -2,3 -2,1 -2,2 -3,3 -1,1 -2,2 -2,3 -5,1 -10,3 -14,5 0,6 0,11 0,17 4,0 9,0 14,0 0,0 1,1 2,2 8,17 8,17 8,37 1,1 2,1 3,3 28,-1 28,-1 57,6 1,4 3,8 4,13 18,1 35,3 53,5 1,1 1,2 3,3 3,1 7,2 11,3 3,9 7,18 10,27 18,-2 36,-4 53,-5 1,1 2,1 3,3 4,-1 8,-2 12,-2 1,-5 3,-10 5,-15 0,-1 1,-2 2,-3 -1,-11 -2,-22 -2,-33 4,-2 8,-3 12,-4 1,3 3,6 4,10 12,1 23,2 35,4 2,4 5,8 7,12 1,1 2,2 3,3 1,4 3,9 5,14 7,0 15,0 22,0 1,8 3,15 4,23 -4,3 -8,7 -12,10 -1,-1 -2,-2 -3,-3 -6,-1 -11,-2 -16,-2 0,3 0,7 0,11 -4,0 -8,0 -11,0 -7,21 -37,25 -56,33 0,5 0,11 0,17 4,0 7,1 11,2 -1,1 -2,2 -3,3 -4,0 -9,0 -13,0 2,18 9,26 20,40 -15,13 -15,13 -37,18 -1,1 -2,2 -3,3 1,4 1,8 2,12 -8,1 -14,3 -21,5 0,11 0,11 -6,11 -1,-8 -2,-15 -3,-23 -1,0 -2,-1 -2,-2 -6,2 -12,3 -17,5 -1,1 -2,2 -2,3 -3,6 -6,11 -9,17 -4,1 -7,1 -11,3 -1,0 -2,1 -3,2 0,4 0,8 0,11 1,1 2,2 3,3 4,-1 8,-1 12,-1 4,4 7,8 10,12 -1,1 -2,2 -2,3 -5,1 -10,3 -14,5 0,7 0,13 0,20 -2,1 -2,2 -3,3 -4,1 -7,2 -10,4 -2,-3 -3,-7 -4,-10 -75,14 -75,14 -89,11 0,-4 0,-7 0,-11 -5,-2 -9,-4 -14,-5 -1,-2 -2,-2 -3,-3 0,-11 0,-21 0,-31 -11,2 -22,4 -33,6 0,4 0,7 0,11 -5,0 -11,0 -16,0 3,17 7,35 11,53 -1,0 -2,1 -3,2 -2,11 -4,23 -6,34 -1,-1 -2,-2 -2,-3 -2,-1 -2,-2 -3,-3 -1,-1 -2,-2 -3,-3 -2,0 -4,0 -5,0 -1,1 -2,2 -3,3 -4,-11 -8,-22 -11,-33 -1,-1 -2,-2 -3,-3 -4,-1 -7,-2 -11,-3 0,3 0,6 0,9 -1,0 -2,1 -3,2 -15,-5 -29,-11 -44,-16 -1,-1 -2,-2 -3,-3 -28,0 -44,12 -50,36 3,0 6,0 9,0 0,1 1,2 2,3 0,3 0,5 0,8 7,2 13,4 20,6 1,1 2,1 2,3 0,2 0,5 0,8 -11,0 -22,0 -33,0 -1,3 -2,7 -3,11 -1,-1 -2,-2 -2,-3 -5,0 -9,1 -13,1 -7,-9 -7,-9 -9,-48 -20,-9 -23,-9 -34,-28 -5,0 -11,0 -16,0 0,-4 0,-7 0,-11 -4,0 -8,0 -11,0 -2,-7 -4,-15 -6,-22 -16,-8 -28,-11 -33,-28 -6,2 -12,3 -18,4 -2,-3 -3,-6 -4,-9 -4,1 -8,1 -12,3 z"
         class="fil4 str0"
         inkscape:connector-curvature="0"
         style="fill:#ffff00;stroke:#131516;stroke-width:8;stroke-linejoin:round" /><!-- Th&#252;ringen --><path
         id="path15210"
         d="m 1732,2032 c -2,-8 -4,-15 -6,-22 -4,0 -7,0 -11,0 -1,-5 -3,-9 -4,-13 -27,-4 -48,-3 -57,-32 -4,0 -7,0 -11,0 0,-4 0,-7 0,-11 -4,0 -7,0 -11,0 0,-4 0,-7 0,-11 4,0 7,0 11,0 0,-3 0,-6 0,-8 1,-2 2,-2 3,-3 -1,-8 -2,-15 -3,-22 -6,2 -13,3 -19,5 -1,-1 -2,-2 -3,-2 0,-2 0,-4 0,-6 1,-1 2,-2 3,-3 5,-1 10,-3 15,-4 1,-5 3,-10 4,-15 1,-1 2,-2 3,-3 4,-2 7,-4 11,-6 1,1 1,2 3,3 0,9 0,17 0,25 5,0 11,0 16,0 0,-4 0,-7 0,-11 8,0 15,0 22,0 -2,-6 -3,-13 -5,-19 1,-1 2,-2 3,-3 25,-3 25,-3 41,-11 -2,-18 -10,-26 -21,-40 3,-3 7,-5 10,-7 1,-1 2,-2 3,-3 1,-4 2,-7 3,-11 -11,0 -11,0 -11,-6 16,-7 34,-14 51,-20 1,-5 3,-9 4,-13 4,0 7,0 11,0 0,-4 0,-7 0,-11 3,0 6,0 9,0 0,1 1,2 2,3 7,-1 15,-2 22,-3 -2,-13 -4,-26 -5,-39 -8,0 -15,0 -22,0 0,-4 0,-7 0,-11 -3,0 -6,0 -8,0 -2,-1 -2,-2 -3,-3 -2,-5 -3,-10 -5,-15 -11,-2 -23,-3 -34,-4 0,-4 0,-7 0,-11 -11,0 -22,0 -33,0 0,-4 0,-7 0,-11 -4,-1 -8,-2 -12,-3 1,-1 2,-2 3,-3 -2,-14 -3,-29 -5,-44 -1,-1 -2,-2 -3,-3 -1,-5 -3,-10 -4,-15 3,-2 6,-3 9,-4 0,-17 0,-34 0,-50 -3,0 -7,0 -10,0 0,-3 0,-6 0,-8 0,-1 1,-2 2,-3 11,-27 11,-33 36,-42 1,-1 2,-2 3,-3 8,-2 16,-5 25,-7 1,-2 1,-2 3,-3 17,-5 35,-10 52,-14 1,-1 2,-2 3,-3 1,-1 2,-2 3,-3 1,-1 1,-2 3,-3 8,-1 16,-2 25,-2 1,-2 1,-2 3,-3 2,0 5,0 8,0 0,-3 0,-6 0,-9 0,-1 1,-2 2,-2 1,3 2,7 3,11 11,-1 22,-2 34,-3 0,-1 1,-2 2,-3 2,0 4,0 6,0 0,1 1,2 2,3 3,3 6,6 9,8 1,1 1,2 3,3 15,11 17,13 22,30 3,0 7,0 11,0 1,5 3,10 5,14 -1,1 -2,2 -3,3 0,13 0,26 0,39 1,1 2,2 3,3 0,3 0,5 0,8 9,-3 19,-5 28,-8 1,-1 2,-2 3,-3 7,-4 14,-7 22,-11 1,1 1,2 3,3 9,4 18,9 28,14 0,3 0,7 0,11 3,-1 7,-2 10,-3 1,-1 2,-2 3,-3 26,1 50,7 72,-5 1,0 2,1 3,2 4,0 7,0 11,0 1,-1 2,-2 3,-2 8,0 16,0 25,0 0,-4 0,-8 0,-12 3,0 7,0 11,0 -1,-9 -2,-18 -3,-27 -1,-1 -2,-2 -3,-3 1,-1 2,-2 3,-3 5,0 9,0 14,0 0,-5 0,-9 0,-14 1,-1 2,-2 3,-3 15,-1 30,-3 44,-5 1,1 2,2 3,3 16,0 39,-11 61,-14 0,-4 0,-7 0,-11 3,0 7,0 11,0 0,4 0,7 0,11 9,0 18,0 28,0 0,-3 0,-5 0,-8 1,-1 1,-2 3,-3 2,6 4,12 6,18 10,3 20,6 29,9 0,2 0,4 0,6 10,0 19,0 28,0 4,22 7,44 11,67 4,0 7,0 11,0 3,27 3,27 -5,72 1,0 3,0 5,0 0,1 0,3 0,5 -8,17 -8,17 -11,39 -8,11 -8,11 -17,44 -2,4 -3,8 -5,12 -4,0 -7,0 -11,0 -1,9 -2,18 -3,27 -3,2 -5,4 -8,6 -2,-3 -3,-5 -4,-7 -10,-2 -20,-3 -29,-4 1,-12 3,-23 5,-34 -11,0 -11,0 -11,6 -4,0 -7,0 -11,0 8,-11 8,-11 11,-28 -4,0 -7,0 -11,0 0,-4 0,-7 0,-11 -8,0 -15,0 -22,0 0,-4 0,-7 0,-11 -6,0 -11,0 -17,0 0,4 0,7 0,11 -4,0 -7,0 -11,0 0,-4 0,-7 0,-11 -11,0 -22,0 -33,0 0,11 0,22 0,33 11,6 22,11 33,17 0,4 0,7 0,11 -37,4 -31,8 -55,28 -17,3 -22,8 -56,11 0,3 0,7 0,11 -11,0 -11,0 -11,5 -5,0 -5,0 -5,11 2,0 3,0 5,0 -7,4 -15,8 -22,12 0,-2 0,-4 0,-6 -5,0 -11,0 -17,0 0,2 0,4 0,6 -2,1 -4,3 -5,5 -4,0 -7,0 -11,0 -11,-3 -11,-3 -39,6 -3,11 -6,23 -10,34 -6,1 -12,3 -18,4 -7,0 -15,0 -22,0 -1,5 -3,10 -4,16 -7,0 -13,0 -19,0 -4,11 -7,23 -10,34 -9,-2 -18,-4 -28,-5 0,3 0,7 0,11 -5,0 -11,0 -16,0 -2,9 -4,18 -6,27 -9,2 -18,4 -27,6 -2,-2 -4,-4 -6,-6 -10,-1 -19,-2 -28,-2 -2,2 -4,5 -5,8 -2,2 -4,4 -6,6 -4,1 -7,3 -11,5 -15,0 -29,0 -44,0 0,4 0,7 0,11 -4,0 -8,0 -11,0 0,4 0,8 0,11 -4,0 -8,0 -11,0 0,4 0,7 0,11 -4,0 -8,0 -12,0 -2,17 -8,23 -19,56 -3,-4 -5,-8 -8,-11 z"
         class="fil5 str0"
         inkscape:connector-curvature="0"
         style="fill:#ff7f24;stroke:#131516;stroke-width:8;stroke-linejoin:round" /><!-- Sachsen --></g><path
       inkscape:connector-curvature="0"
       id="path3415"
       d="M791.95957 71.808893L742.49570875 127.750646625L735.39103 201.23815L736.0424775 281.35796875L742.4621 312.22519L749.53317 425.36227L757.76826375 486.83174375L721.2489 524.35722L654.73114375 509.47577L621.17894 503.14402L509.11687 496.07295L453.643515 517.5646125L410.12192 552.64149L342.83928 651.85145L339.41125 772.9196L338.61403375 856.7621775L339.41125 892.05274L326.093615 942.68378875L283.95474 975.57886L264.96244 1040.8567375L240.4163 1069.9045L271.52497375 1136.5582125L282.8427 1160.7533L228.89598 1242.9843L113.13708 1273.8904L74.127924375 1301.4844L46.069452 1344.8161L90.612948 1442.2851L64.948039375 1509.8856875L49.497473 1528.4488L13.5900986625 1607.141975L5.38827366406 1634.91399063L7.0710676 1628.5188L10.242669325 1716.79635L15.3565378844 1740.20438437L42.426406 1727.5137L57.8253955 1785.677825L56.568541 1858.018L49.466065 1968.8686L47.503586875 2047.919825L42.426406 2082.1422L83.80761225 2111.2762625L106.06601 2159.9239L61.673408 2263.2536L96.267743125 2333.8647875L110.51526 2360.213L141.42135 2461.8297L177.29060125 2500.038225L230.57426 2518.3983L328.4942 2560.8247L399.709305 2581.296325L430.02424 2580.727L474.7547125 2598.3415L470.35027 2649.409L438.40623 2758.8146L397.89886 2880.3367L386.27059875 2970.98965L374.76662 3001.381L374.000575 3080.5504625L381.83769 3112.368L460.69445 3197.2208L499.3375375 3225.908925L557.30349 3226.816L627.122125 3220.368425L649.33268 3203.5152L756.60428 3161.8654L803.310675 3142.7508875L862.67029 3147.7233L970.88634 3183.0786L1074.8023 3204.2919L1098.0751375 3241.6837125L1140.592 3267.9315L1190.2872375 3285.6365125L1244.5079 3296.2157L1343.5028 3232.5761L1383.7235375 3266.2327375L1428.3557 3275.0025L1516.1173625 3255.0633125L1539.60738594 3249.02167969L1529.5007 3253.7893L1605.1324 3183.0786L1685.8691375 3153.1913375L1725.3405 3161.8654L1802.340425 3154.3489375L1831.4065 3154.7944L1922.0195 3202.981L1987.0912125 3199.7251125L2018.4793 3197.2208L2064.7517 3110.2179L2050.6096 3006.302L2015.451975 2963.9067125L1994.0411 2911.1531L2031.8344375 2878.05305L2087.04 2857.8095L2136.934275 2805.4558625L2150.6796 2787.0989L2220.3152 2716.3882L2241.5284 2600.0261L2199.102 2518.3983L2121.3203 2447.6876L2036.4675 2391.1191L1997.64355 2364.6339L1965.7568 2327.4795L1923.1789875 2302.079625L1895.0461 2263.8399L1883.2237 2194.540475L1895.0461 2157.7738L1871.4411 2101.173925L1838.4776 2094.1342L1811.5682375 2057.1214375L1847.6987 2023.4236L1958.6857 1988.0682L2070.5119 1918.6684L2143.172975 1869.0400875L2163.7467 1846.6469L2225.5983375 1806.0190375L2249.6745 1797.1494L2289.39785 1780.9409375L2333.4523 1811.2915L2385.2445 1789.775125L2415.6833 1736.1316L2455.7974875 1674.8407875L2460.7315 1647.5819L2467.8026 1526.2988L2427.99145 1466.959825L2411.2341 1450.6671L2385.9018125 1377.771125L2397.0919 1350.5971L2404.163 1245.6061L2382.9498 1125.398L2344.9611625 1058.8755125L2340.5234 1033.4741L2309.5335125 995.0145525L2286.0086 949.27474L2247.9206375 921.72651875L2246.5859 885.01308L2276.42795 840.07993125L2276.8838 772.46556L2262.7416 649.4864L2237.769775 573.417445L2226.3113 552.64149L2157.8977 518.6860975L2135.4624 510.21509L2112.324125 475.49741125L2107.1782 430.28331L2091.0831625 380.01087L2058.9916 348.89142L2010.464325 347.14421375L1965.7568 340.50946L1911.527775 286.53563375L1895.0461 276.86985L1793.9011 255.65665L1716.6495125 286.43127875L1697.0562 305.15412L1592.6862 340.50946L1514.5194 395.76711L1467.7989 412.84192875L1451.6226 440.15787L1439.9392875 374.32283625L1442.4978 346.50552L1429.1306 293.23512L1385.9293 269.79879L1285.8593 291.01199L1187.9394 255.65665L1201.1269875 181.5552825L1187.9394 156.6617L1149.781825 127.589517L1117.2287 93.022096L1054.03540875 68.19408675L1009.0126 71.808893L918.20372875 59.783964625L890.95456 64.737825L791.95961 71.808893"
       style="display:inline;fill:#000000;fill-opacity:1;fill-rule:evenodd;stroke:#000000;stroke-width:1px;stroke-linecap:butt;stroke-linejoin:miter;stroke-opacity:1;image-rendering:optimizeQuality;shape-rendering:geometricPrecision;text-rendering:geometricPrecision" /></g></svg>