  0
SECTION
  2
HEADER
  9
$ACADVER
  1
AC1014
  9
$HANDSEED
  5
FFFF
  9
$MEASUREMENT
 70
     1
  0
ENDSEC
  0
SECTION
  2
TABLES
  0
TABLE
  2
VPORT
  5
8
330
0
100
AcDbSymbolTable
 70
     4
  0
VPORT
  5
2E
330
8
100
AcDbSymbolTableRecord
100
AcDbViewportTableRecord
  2
*ACTIVE
 70
     0
 10
0.0
 20
0.0
 11
1.0
 21
1.0
 12
210.0
 22
148.5
 13
0.0
 23
0.0
 14
10.0
 24
10.0
 15
10.0
 25
10.0
 16
0.0
 26
0.0
 36
1.0
 17
0.0
 27
0.0
 37
0.0
 40
341.0
 41
1.24
 42
50.0
 43
0.0
 44
0.0
 50
0.0
 51
0.0
 71
     0
 72
   100
 73
     1
 74
     3
 75
     0
 76
     0
 77
     0
 78
     0
  0
ENDTAB
  0
TABLE
  2
LTYPE
  5
5
330
0
100
AcDbSymbolTable
 70
     1
  0
LTYPE
  5
14
330
5
100
AcDbSymbolTableRecord
100
AcDbLinetypeTableRecord
  2
BYBLOCK
 70
     0
  3

 72
    65
 73
     0
 40
0.0
  0
LTYPE
  5
15
330
5
100
AcDbSymbolTableRecord
100
AcDbLinetypeTableRecord
  2
BYLAYER
 70
     0
  3

 72
    65
 73
     0
 40
0.0
  0
LTYPE
  5
16
330
5
100
AcDbSymbolTableRecord
100
AcDbLinetypeTableRecord
  2
CONTINUOUS
 70
     0
  3
Solid line
 72
    65
 73
     0
 40
0.0
  0
ENDTAB
  0
TABLE
  2
LAYER
  5
2
100
AcDbSymbolTable
 70
2
  0
LAYER
  5
50
100
AcDbSymbolTableRecord
100
AcDbLayerTableRecord
  2
0
 70
0
  6
CONTINUOUS
  0
LAYER
  5
51
100
AcDbSymbolTableRecord
100
AcDbLayerTableRecord
  2
background
 70
0
  6
CONTINUOUS
  0
ENDTAB
  0
TABLE
  2
STYLE
  5
3
330
0
100
AcDbSymbolTable
 70
     1
  0
STYLE
  5
11
330
3
100
AcDbSymbolTableRecord
100
AcDbTextStyleTableRecord
  2
STANDARD
 70
     0
 40
0.0
 41
1.0
 50
0.0
 71
     0
 42
2.5
  3
txt
  4

  0
ENDTAB
  0
TABLE
  2
VIEW
  5
6
330
0
100
AcDbSymbolTable
 70
     0
  0
ENDTAB
  0
TABLE
  2
UCS
  5
7
330
0
100
AcDbSymbolTable
 70
     0
  0
ENDTAB
  0
TABLE
  2
APPID
  5
9
330
0
100
AcDbSymbolTable
 70
     2
  0
APPID
  5
12
330
9
100
AcDbSymbolTableRecord
100
AcDbRegAppTableRecord
  2
ACAD
 70
     0
  0
ENDTAB
  0
TABLE
  2
DIMSTYLE
  5
A
330
0
100
AcDbSymbolTable
 70
     1
  0
DIMSTYLE
105
27
330
A
100
AcDbSymbolTableRecord
100
AcDbDimStyleTableRecord
  2
ISO-25
 70
     0
  3

  4

  5

  6

  7

 40
1.0
 41
2.5
 42
0.625
 43
3.75
 44
1.25
 45
0.0
 46
0.0
 47
0.0
 48
0.0
140
2.5
141
2.5
142
0.0
143
0.03937007874016
144
1.0
145
0.0
146
1.0
147
0.625
 71
     0
 72
     0
 73
     0
 74
     0
 75
     0
 76
     0
 77
     1
 78
     8
170
     0
171
     3
172
     1
173
     0
174
     0
175
     0
176
     0
177
     0
178
     0
270
     2
271
     2
272
     2
273
     2
274
     3
340
11
275
     0
280
     0
281
     0
282
     0
283
     0
284
     8
285
     0
286
     0
287
     3
288
     0
  0
ENDTAB
  0
TABLE
  2
BLOCK_RECORD
  5
1
330
0
100
AcDbSymbolTable
 70
     1
  0
BLOCK_RECORD
  5
1F
330
1
100
AcDbSymbolTableRecord
100
AcDbBlockTableRecord
  2
*MODEL_SPACE
  0
BLOCK_RECORD
  5
1B
330
1
100
AcDbSymbolTableRecord
100
AcDbBlockTableRecord
  2
*PAPER_SPACE
  0
ENDTAB
  0
ENDSEC
  0
SECTION
  2
BLOCKS
  0
BLOCK
  5
20
330
1F
100
AcDbEntity
  8
0
100
AcDbBlockBegin
  2
*MODEL_SPACE
 70
     0
 10
0.0
 20
0.0
 30
0.0
  3
*MODEL_SPACE
  1

  0
ENDBLK
  5
21
330
1F
100
AcDbEntity
  8
0
100
AcDbBlockEnd
  0
BLOCK
  5
1C
330
1B
100
AcDbEntity
 67
     1
  8
0
100
AcDbBlockBegin
  2
*PAPER_SPACE
  1

  0
ENDBLK
  5
1D
330
1B
100
AcDbEntity
 67
     1
  8
0
100
AcDbBlockEnd
  0
ENDSEC
  0
SECTION
  2
ENTITIES
  0
LWPOLYLINE
  5
100
100
AcDbEntity
  8
background
 62
7
100
AcDbPolyline
 90
269
 70
0
 10
9.656023
 20
-0.100834
 30
0.0
 10
8.244912
 20
1.592499
 30
0.0
 10
6.551579
 20
3.003610
 30
0.0
 10
4.858245
 20
6.108054
 30
0.0
 10
4.858245
 20
10.905832
 30
0.0
 10
2.036023
 20
10.905832
 30
0.0
 10
0.342689
 20
12.599166
 30
0.0
 10
0.342689
 20
20.219188
 30
0.0
 10
2.036023
 20
29.814744
 30
0.0
 10
4.293801
 20
32.919188
 30
0.0
 10
3.447134
 20
36.023633
 30
0.0
 10
3.447134
 20
39.128077
 30
0.0
 10
4.858245
 20
40.539188
 30
0.0
 10
6.551579
 20
47.030299
 30
0.0
 10
8.244912
 20
48.441410
 30
0.0
 10
9.656023
 20
51.545855
 30
0.0
 10
8.244912
 20
51.545855
 30
0.0
 10
8.244912
 20
56.343633
 30
0.0
 10
4.858245
 20
57.754744
 30
0.0
 10
4.858245
 20
59.448077
 30
0.0
 10
4.858245
 20
62.552521
 30
0.0
 10
9.656023
 20
73.559188
 30
0.0
 10
11.349357
 20
76.663633
 30
0.0
 10
14.453801
 20
76.663633
 30
0.0
 10
14.453801
 20
84.283635
 30
0.0
 10
15.864913
 20
87.670302
 30
0.0
 10
20.662691
 20
89.081413
 30
0.0
 10
20.662691
 20
93.879191
 30
0.0
 10
18.969357
 20
93.879191
 30
0.0
 10
18.969357
 20
96.983635
 30
0.0
 10
20.662691
 20
104.603638
 30
0.0
 10
22.073802
 20
107.708083
 30
0.0
 10
23.767135
 20
111.094749
 30
0.0
 10
25.460469
 20
112.505860
 30
0.0
 10
25.460469
 20
114.199194
 30
0.0
 10
25.460469
 20
117.303638
 30
0.0
 10
25.460469
 20
118.714749
 30
0.0
 10
25.460469
 20
121.819194
 30
0.0
 10
29.976024
 20
128.310308
 30
0.0
 10
31.669358
 20
129.721419
 30
0.0
 10
33.080469
 20
131.414752
 30
0.0
 10
34.773802
 20
132.825863
 30
0.0
 10
36.184913
 20
134.519197
 30
0.0
 10
37.878247
 20
135.930308
 30
0.0
 10
39.289358
 20
139.034752
 30
0.0
 10
42.676024
 20
139.034752
 30
0.0
 10
42.676024
 20
142.139197
 30
0.0
 10
47.191580
 20
145.525863
 30
0.0
 10
48.884913
 20
146.936974
 30
0.0
 10
50.296024
 20
151.734755
 30
0.0
 10
51.989358
 20
156.250311
 30
0.0
 10
53.400469
 20
157.943644
 30
0.0
 10
55.093802
 20
161.048088
 30
0.0
 10
56.504913
 20
162.459199
 30
0.0
 10
59.609358
 20
164.999199
 30
0.0
 10
60.456024
 20
165.563644
 30
0.0
 10
62.713802
 20
166.410311
 30
0.0
 10
63.560469
 20
167.256977
 30
0.0
 10
64.407136
 20
172.901422
 30
0.0
 10
65.253802
 20
173.465866
 30
0.0
 10
66.100469
 20
174.312533
 30
0.0
 10
66.664913
 20
175.159199
 30
0.0
 10
69.204913
 20
179.110313
 30
0.0
 10
70.051580
 20
179.674758
 30
0.0
 10
73.720469
 20
196.890313
 30
0.0
 10
76.824916
 20
196.890313
 30
0.0
 10
76.824916
 20
199.430316
 30
0.0
 10
77.671583
 20
200.276983
 30
0.0
 10
78.518250
 20
200.841427
 30
0.0
 10
79.364916
 20
201.688094
 30
0.0
 10
79.364916
 20
203.099205
 30
0.0
 10
78.518250
 20
203.945872
 30
0.0
 10
76.824916
 20
205.639205
 30
0.0
 10
77.671583
 20
206.203649
 30
0.0
 10
78.518250
 20
207.050316
 30
0.0
 10
79.364916
 20
207.896983
 30
0.0
 10
81.622694
 20
220.314761
 30
0.0
 10
76.824916
 20
221.161427
 30
0.0
 10
77.671583
 20
222.008094
 30
0.0
 10
77.671583
 20
225.112541
 30
0.0
 10
76.824916
 20
225.959208
 30
0.0
 10
75.978250
 20
228.216986
 30
0.0
 10
75.413805
 20
229.063652
 30
0.0
 10
76.824916
 20
235.272541
 30
0.0
 10
77.671583
 20
236.119208
 30
0.0
 10
82.469361
 20
231.321430
 30
0.0
 10
83.316027
 20
230.474763
 30
0.0
 10
89.524916
 20
226.805875
 30
0.0
 10
89.524916
 20
239.223652
 30
0.0
 10
94.040472
 20
239.223652
 30
0.0
 10
94.887138
 20
231.321430
 30
0.0
 10
95.733805
 20
230.474763
 30
0.0
 10
104.200472
 20
225.112541
 30
0.0
 10
105.047138
 20
224.265875
 30
0.0
 10
105.047138
 20
214.105872
 30
0.0
 10
111.256027
 20
214.105872
 30
0.0
 10
111.256027
 20
217.210316
 30
0.0
 10
114.360472
 20
217.210316
 30
0.0
 10
116.053805
 20
225.959208
 30
0.0
 10
116.618250
 20
226.805875
 30
0.0
 10
118.311583
 20
226.805875
 30
0.0
 10
119.158250
 20
225.959208
 30
0.0
 10
122.262697
 20
225.959208
 30
0.0
 10
127.060475
 20
233.014763
 30
0.0
 10
136.373808
 20
233.579208
 30
0.0
 10
137.220475
 20
234.425875
 30
0.0
 10
142.300475
 20
241.199208
 30
0.0
 10
150.484919
 20
242.328097
 30
0.0
 10
151.331586
 20
250.230322
 30
0.0
 10
150.484919
 20
250.794766
 30
0.0
 10
148.791586
 20
250.794766
 30
0.0
 10
147.944919
 20
250.230322
 30
0.0
 10
145.687141
 20
255.592544
 30
0.0
 10
146.533808
 20
256.439211
 30
0.0
 10
150.484919
 20
257.285877
 30
0.0
 10
151.331586
 20
258.132544
 30
0.0
 10
151.896030
 20
257.285877
 30
0.0
 10
155.564919
 20
257.568100
 30
0.0
 10
156.693808
 20
254.745877
 30
0.0
 10
161.209363
 20
254.745877
 30
0.0
 10
161.209363
 20
257.285877
 30
0.0
 10
162.056030
 20
258.132544
 30
0.0
 10
167.136030
 20
257.003655
 30
0.0
 10
166.007141
 20
245.432541
 30
0.0
 10
169.111589
 20
246.279208
 30
0.0
 10
169.958255
 20
246.843655
 30
0.0
 10
170.804922
 20
249.383655
 30
0.0
 10
171.651589
 20
250.230322
 30
0.0
 10
172.216033
 20
246.843655
 30
0.0
 10
177.013811
 20
246.843655
 30
0.0
 10
177.013811
 20
250.230322
 30
0.0
 10
179.271589
 20
250.230322
 30
0.0
 10
180.118255
 20
249.383655
 30
0.0
 10
181.811589
 20
246.279208
 30
0.0
 10
180.964922
 20
245.432541
 30
0.0
 10
181.811589
 20
233.014763
 30
0.0
 10
186.609366
 20
231.885875
 30
0.0
 10
188.020477
 20
222.008094
 30
0.0
 10
197.333811
 20
223.419208
 30
0.0
 10
199.591589
 20
229.910319
 30
0.0
 10
201.849366
 20
221.161427
 30
0.0
 10
201.284922
 20
220.314761
 30
0.0
 10
200.438255
 20
217.210316
 30
0.0
 10
203.542700
 20
217.210316
 30
0.0
 10
204.671589
 20
213.823649
 30
0.0
 10
201.849366
 20
212.694761
 30
0.0
 10
204.389366
 20
200.276983
 30
0.0
 10
205.236033
 20
199.430316
 30
0.0
 10
205.236033
 20
197.736980
 30
0.0
 10
204.389366
 20
196.890313
 30
0.0
 10
204.389366
 20
188.988091
 30
0.0
 10
211.832977
 20
181.262257
 30
0.0
 10
213.138255
 20
170.361422
 30
0.0
 10
222.169369
 20
165.634199
 30
0.0
 10
228.660480
 20
157.096977
 30
0.0
 10
227.813814
 20
156.250311
 30
0.0
 10
227.813814
 20
154.839199
 30
0.0
 10
228.660480
 20
153.992533
 30
0.0
 10
227.813814
 20
146.936974
 30
0.0
 10
228.660480
 20
146.090308
 30
0.0
 10
225.556036
 20
135.930308
 30
0.0
 10
228.660480
 20
135.930308
 30
0.0
 10
228.660480
 20
133.672530
 30
0.0
 10
227.813814
 20
132.825863
 30
0.0
 10
223.862702
 20
130.568085
 30
0.0
 10
223.016036
 20
129.721419
 30
0.0
 10
222.451591
 20
128.874752
 30
0.0
 10
221.604925
 20
128.310308
 30
0.0
 10
220.758258
 20
131.414752
 30
0.0
 10
213.138255
 20
131.414752
 30
0.0
 10
215.960480
 20
111.094749
 30
0.0
 10
206.647144
 20
103.756969
 30
0.0
 10
205.800477
 20
103.192524
 30
0.0
 10
200.438255
 20
103.756969
 30
0.0
 10
199.591589
 20
103.192524
 30
0.0
 10
193.382700
 20
93.879191
 30
0.0
 10
198.180477
 20
82.872524
 30
0.0
 10
199.027144
 20
82.025858
 30
0.0
 10
201.284922
 20
67.068077
 30
0.0
 10
201.849366
 20
66.503633
 30
0.0
 10
202.696033
 20
65.656966
 30
0.0
 10
203.542700
 20
64.810299
 30
0.0
 10
205.236033
 20
55.496966
 30
0.0
 10
204.389366
 20
54.650299
 30
0.0
 10
203.542700
 20
47.030299
 30
0.0
 10
200.438255
 20
47.030299
 30
0.0
 10
202.978255
 20
29.250299
 30
0.0
 10
200.438255
 20
28.121410
 30
0.0
 10
200.438255
 20
21.912521
 30
0.0
 10
202.696033
 20
21.912521
 30
0.0
 10
203.542700
 20
21.065855
 30
0.0
 10
201.849366
 20
10.059166
 30
0.0
 10
201.284922
 20
9.212499
 30
0.0
 10
200.438255
 20
12.599166
 30
0.0
 10
194.229366
 20
11.752499
 30
0.0
 10
193.382700
 20
10.905832
 30
0.0
 10
192.536033
 20
10.059166
 30
0.0
 10
191.971589
 20
9.212499
 30
0.0
 10
180.118255
 20
12.599166
 30
0.0
 10
177.013811
 20
6.954721
 30
0.0
 10
176.167144
 20
6.108054
 30
0.0
 10
175.320477
 20
5.261388
 30
0.0
 10
174.756033
 20
4.696943
 30
0.0
 10
169.958255
 20
3.003610
 30
0.0
 10
169.111589
 20
3.850277
 30
0.0
 10
158.104919
 20
3.003610
 30
0.0
 10
156.976030
 20
8.083610
 30
0.0
 10
150.484919
 20
9.212499
 30
0.0
 10
149.073808
 20
11.470277
 30
0.0
 10
145.687141
 20
10.905832
 30
0.0
 10
142.582697
 20
10.905832
 30
0.0
 10
137.784919
 20
14.010305
 30
0.0
 10
136.373808
 20
15.703633
 30
0.0
 10
133.269363
 20
20.219188
 30
0.0
 10
127.060475
 20
23.323633
 30
0.0
 10
125.367141
 20
25.016966
 30
0.0
 10
122.262697
 20
26.428077
 30
0.0
 10
119.158250
 20
28.121410
 30
0.0
 10
119.158250
 20
23.323633
 30
0.0
 10
122.262697
 20
23.323633
 30
0.0
 10
125.367141
 20
21.912521
 30
0.0
 10
127.060475
 20
20.219188
 30
0.0
 10
128.471586
 20
18.808077
 30
0.0
 10
130.164919
 20
15.703633
 30
0.0
 10
130.164919
 20
12.599166
 30
0.0
 10
123.956030
 20
14.010305
 30
0.0
 10
118.346861
 20
18.808078
 30
0.0
 10
111.256027
 20
20.219188
 30
0.0
 10
112.949361
 20
17.114744
 30
0.0
 10
116.053805
 20
15.703633
 30
0.0
 10
116.053805
 20
14.010305
 30
0.0
 10
114.360472
 20
12.599166
 30
0.0
 10
111.256027
 20
10.905832
 30
0.0
 10
105.047138
 20
12.599166
 30
0.0
 10
105.047138
 20
17.114744
 30
0.0
 10
100.531583
 20
18.808077
 30
0.0
 10
98.838250
 20
18.808077
 30
0.0
 10
96.580472
 20
15.703633
 30
0.0
 10
94.040472
 20
20.219188
 30
0.0
 10
95.733805
 20
23.323633
 30
0.0
 10
92.629361
 20
23.323633
 30
0.0
 10
92.629361
 20
26.428077
 30
0.0
 10
87.831583
 20
26.428077
 30
0.0
 10
86.420472
 20
23.323633
 30
0.0
 10
86.420472
 20
28.121410
 30
0.0
 10
79.929361
 20
25.016966
 30
0.0
 10
73.720469
 20
25.016966
 30
0.0
 10
73.720469
 20
21.912521
 30
0.0
 10
70.616024
 20
17.114744
 30
0.0
 10
69.204913
 20
17.114744
 30
0.0
 10
69.204913
 20
10.905832
 30
0.0
 10
75.413805
 20
6.954721
 30
0.0
 10
72.309358
 20
6.108054
 30
0.0
 10
72.309358
 20
-0.100834
 30
0.0
 10
69.204913
 20
1.592499
 30
0.0
 10
67.511580
 20
1.592499
 30
0.0
 10
62.713802
 20
1.592499
 30
0.0
 10
61.302691
 20
6.108054
 30
0.0
 10
55.093802
 20
6.108054
 30
0.0
 10
51.989358
 20
7.801388
 30
0.0
 10
51.989358
 20
6.108054
 30
0.0
 10
42.676024
 20
-0.100834
 30
0.0
 10
40.982691
 20
-0.100834
 30
0.0
 10
29.976024
 20
-0.100834
 30
0.0
 10
29.976024
 20
4.696943
 30
0.0
 10
20.662691
 20
3.003610
 30
0.0
 10
20.662691
 20
-0.100834
 30
0.0
 10
9.656023
 20
-0.100834
 30
0.0
 10
9.656023
 20
-0.100834
 30
0.0
  0
ENDSEC
  0
SECTION
  2
OBJECTS
  0
DICTIONARY
  5
C
330
0
100
AcDbDictionary
  3
ACAD_GROUP
350
D
  3
ACAD_MLINESTYLE
350
17
  0
DICTIONARY
  5
D
330
C
100
AcDbDictionary
  0
DICTIONARY
  5
1A
330
C
100
AcDbDictionary
  0
DICTIONARY
  5
17
330
C
100
AcDbDictionary
  3
STANDARD
350
18
  0
DICTIONARY
  5
19
330
C
100
AcDbDictionary
  0
ENDSEC
  0
EOF
