<?xml version="1.0" encoding="UTF-8" standalone="no"?>
<!-- Creator: CorelDRAW -->

<svg
   xmlns:dc="http://purl.org/dc/elements/1.1/"
   xmlns:cc="http://creativecommons.org/ns#"
   xmlns:rdf="http://www.w3.org/1999/02/22-rdf-syntax-ns#"
   xmlns:svg="http://www.w3.org/2000/svg"
   xmlns="http://www.w3.org/2000/svg"
   xmlns:sodipodi="http://sodipodi.sourceforge.net/DTD/sodipodi-0.dtd"
   xmlns:inkscape="http://www.inkscape.org/namespaces/inkscape"
   xml:space="preserve"
   width="2480px"
   height="3325px"
   style="shape-rendering:geometricPrecision; text-rendering:geometricPrecision; image-rendering:optimizeQuality; fill-rule:evenodd"
   viewBox="0 0 2480 3324"
   id="svg15099"
   version="1.1"
   inkscape:version="0.91 r13725"
   sodipodi:docname="Germany_blank_map_ALKIS.svg"><metadata
     id="metadata15214"><rdf:RDF><cc:Work
         rdf:about=""><dc:format>image/svg+xml</dc:format><dc:type
           rdf:resource="http://purl.org/dc/dcmitype/StillImage" /></cc:Work></rdf:RDF></metadata><sodipodi:namedview
     pagecolor="#ffffff"
     bordercolor="#666666"
     borderopacity="1"
     objecttolerance="10"
     gridtolerance="10"
     guidetolerance="10"
     inkscape:pageopacity="0"
     inkscape:pageshadow="2"
     inkscape:window-width="1280"
     inkscape:window-height="657"
     id="namedview15212"
     showgrid="false"
     inkscape:zoom="0.14142136"
     inkscape:cx="358.6089"
     inkscape:cy="1918.4972"
     inkscape:window-x="-8"
     inkscape:window-y="-8"
     inkscape:window-maximized="1"
     inkscape:current-layer="svg15099" /><defs
     id="defs15101"><style
       type="text/css"
       id="style15103">
   
    .str0 {stroke:#131516;stroke-width:8;stroke-linejoin:round}
    .fil0 {fill:#458B00}<!-- keine Informationen -->
    .fil1 {fill:#008B45}<!-- Betrieb seit 2010 -->
    .fil2 {fill:#00CD66}<!-- Betrieb seit 2011 -->
    .fil3 {fill:#00FF7F}<!-- Betrieb seit 2012 -->
    .fil4 {fill:#FFFF00}<!-- Betrieb 2012/13 geplant -->
    .fil5 {fill:#FF7F24}<!-- Betrieb 2013/14 geplant -->
    .fil6 {fill:#2626CD}<!-- Betrieb je nach Katasteramt  -->
    .fil9 {fill:#FF0000}
   
  </style></defs><g
     id="Ebene 1"><g
       id="g15106"><g
         id="g15108"><g
           id="g15110"><path
             class="fil4 str0"
             d="M1189 3234c4,0 7,0 11,0 0,-6 0,-11 0,-16 -15,1 -30,3 -45,5 0,-13 0,-26 0,-39 -3,0 -7,0 -10,0 0,-4 0,-8 0,-11 -14,-8 -17,-8 -23,-22 -14,0 -29,0 -44,0 0,-4 0,-8 0,-11 6,0 6,0 6,-11 -6,0 -12,0 -17,0 0,1 0,3 0,5 -15,12 -26,6 -44,3 4,-3 9,-6 14,-8 0,0 1,1 2,2 8,-2 15,-4 22,-5 1,-1 2,-2 3,-3 1,-1 2,-2 3,-2 1,-2 1,-2 3,-3 9,-5 9,-5 14,-17 22,8 22,8 38,8 1,-1 2,-2 3,-2 1,-2 2,-2 3,-3 1,-1 2,-2 3,-3 4,0 9,0 14,0 0,4 0,7 0,11 3,-1 7,-2 10,-3 1,-1 2,-2 3,-2 4,-5 4,-5 6,-45 -1,-1 -2,-2 -3,-2 -2,-5 -4,-10 -6,-14 4,0 8,0 12,0 -4,-22 -7,-42 -10,-63 3,-2 6,-3 10,-4 0,-10 0,-20 0,-30 0,-2 1,-2 2,-3 0,-28 0,-28 -5,-39 -1,-1 -2,-2 -3,-3 -1,-1 -2,-2 -3,-2 -1,-2 -2,-2 -3,-3 -2,-18 -5,-35 -8,-53 -1,-1 -2,-2 -2,-3 -9,-14 -9,-14 -14,-41 6,-9 12,-17 19,-25 1,-1 1,-2 3,-3 6,1 12,2 19,3 1,-1 2,-2 3,-3 25,-19 25,-19 36,-22 1,-30 4,-43 -10,-68 5,-2 10,-3 15,-4 0,3 0,7 0,11 4,-1 8,-2 12,-3 0,-1 1,-2 2,-3 1,-1 2,-2 3,-2 1,-2 2,-2 3,-3 4,0 9,0 14,0 0,-3 0,-6 0,-8 0,-1 1,-2 2,-3 1,-6 2,-11 3,-17 -3,0 -7,0 -11,0 3,-11 6,-22 8,-33 -1,-1 -2,-2 -2,-3 0,-8 1,-16 2,-25 -1,-1 -2,-2 -2,-3 0,-1 1,-2 2,-2 0,-31 -27,-48 -52,-56 -1,-15 -2,-29 -3,-44 -20,-15 -25,-18 -30,-42 0,-1 1,-2 2,-2 0,-4 0,-8 0,-12 -1,-1 -2,-2 -2,-2 -2,-11 -4,-22 -5,-32 3,-2 7,-3 10,-4 -2,-9 -4,-19 -5,-28 -4,-1 -8,-2 -12,-3 1,-1 2,-2 3,-2 -1,-13 -2,-26 -3,-39 -5,0 -11,0 -16,0 -2,7 -4,14 -5,22 -8,2 -16,4 -23,6 -1,-12 -3,-24 -4,-35 -6,-3 -11,-6 -17,-9 1,-8 1,-16 2,-23 -3,-3 -6,-6 -8,-8 0,-1 1,-2 2,-3 1,-5 2,-11 3,-17 -3,0 -5,0 -8,0 -1,-1 -2,-2 -3,-2 -6,-2 -11,-2 -17,-3 0,11 0,11 -5,11 0,-4 0,-8 0,-11 -4,1 -7,1 -11,3 -1,0 -2,1 -3,2 -1,3 -2,6 -3,9 -1,1 -2,1 -2,3 0,-15 1,-30 2,-45 -9,1 -18,2 -28,3 -1,1 -2,2 -2,2 -2,2 -4,3 -5,4 -1,-3 -3,-6 -4,-9 -6,2 -12,3 -19,5 -1,0 -2,-1 -3,-2 -2,0 -4,0 -5,0 -1,1 -2,2 -3,2 -5,1 -10,2 -14,3 -1,1 -2,2 -3,3 -3,0 -5,0 -8,0 3,20 4,22 22,25 1,-1 2,-2 3,-3 1,1 2,2 3,3 -2,7 -4,13 -6,19 -10,2 -19,3 -29,4 -5,9 -10,18 -15,27 -1,1 -2,2 -3,3 -10,0 -20,0 -30,0 0,-4 0,-8 0,-11 -4,-2 -8,-2 -11,-3 25,-26 18,-66 11,-97 -4,0 -8,0 -11,0 -2,-6 -2,-11 -3,-17 -1,-1 -2,-2 -3,-3 1,-17 2,-35 3,-52 -1,-1 -2,-2 -3,-3 0,-2 0,-5 0,-8 -4,-2 -7,-3 -10,-4 1,-6 3,-12 4,-18 4,-2 8,-2 12,-3 0,-1 1,-2 2,-3 4,-2 7,-3 10,-4 1,5 3,10 4,15 6,0 11,0 17,0 4,-7 9,-15 14,-22 0,1 1,1 2,3 11,0 22,1 34,2 0,4 1,8 2,12 1,0 2,1 3,2 0,3 0,6 0,9 11,-2 22,-4 33,-6 0,-7 0,-13 0,-19 1,-2 2,-2 3,-3 0,-4 0,-7 0,-11 -1,-1 -2,-2 -3,-3 0,-6 0,-13 0,-19 11,1 23,3 34,5 1,-7 3,-15 5,-22 4,-1 8,-2 11,-2 1,-2 2,-2 3,-3 4,-2 9,-4 14,-6 1,-19 1,-37 3,-55 6,7 6,7 41,11 0,-3 0,-6 0,-8 1,-2 2,-2 3,-3 3,-1 6,-2 8,-3 1,-1 2,-2 3,-3 1,-1 2,-2 3,-3 1,-1 2,-2 3,-2 9,-10 16,-34 24,-42 1,-1 2,-2 3,-3 1,4 2,8 3,11 6,-1 12,-3 18,-4 24,21 35,20 43,49 4,0 7,0 11,0 0,3 0,7 0,11 5,0 11,0 17,0 10,18 14,19 33,27 2,17 4,34 6,50 6,-2 12,-4 19,-5 1,1 1,1 3,3 3,0 7,1 11,2 0,-4 0,-7 0,-11 11,0 22,0 33,0 -1,-5 -2,-11 -3,-16 -1,-1 -2,-2 -3,-3 -6,-5 -12,-10 -19,-14 -1,-1 -2,-2 -3,-3 -8,-16 26,-25 36,-30 1,1 2,2 3,3 20,11 27,16 50,16 1,-1 2,-2 3,-3 1,-2 3,-4 5,-5 1,1 2,1 3,3 1,10 2,21 4,31 4,1 8,1 13,2 1,-1 1,-2 3,-3 0,1 1,2 2,3 1,1 2,2 3,3 1,1 1,1 3,3 3,0 7,1 11,2 0,-12 0,-24 0,-36 1,-1 1,-2 3,-3 -3,-15 -5,-30 -8,-46 6,-1 11,-2 16,-4 0,-4 0,-7 0,-11 7,-2 14,-3 22,-5 1,9 1,18 3,28 0,0 1,1 2,2 0,3 0,6 0,9 4,0 8,0 12,0 0,3 0,7 0,11 29,2 57,1 84,-10 1,3 3,6 4,10 7,-3 15,-6 23,-8 0,-2 1,-2 2,-3 3,0 6,0 9,0 0,3 0,7 0,11 3,0 7,0 10,0 11,19 20,23 40,33 1,2 3,4 5,6 -2,3 -4,7 -5,11 -6,0 -6,0 -6,11 4,0 7,0 11,0 7,11 15,22 22,33 -1,8 -1,15 -1,23 9,5 19,11 29,16 0,3 0,7 0,11 9,4 18,7 28,11 0,3 0,7 0,11 5,0 11,0 16,0 1,6 3,12 4,18 4,1 8,3 13,4 0,4 0,7 0,11 -2,4 -4,8 -6,11 -7,4 -13,28 -22,39 0,9 0,19 0,28 6,0 11,0 17,0 0,3 0,7 0,11 3,0 7,0 11,0 0,7 0,14 0,22 3,0 7,0 11,0 0,9 0,18 0,28 1,0 3,0 5,0 4,7 4,7 17,11 0,9 0,18 0,28 2,0 4,0 6,0 1,3 3,7 5,11 7,3 15,7 22,11 3,16 3,16 11,22 19,1 37,3 56,5 3,8 7,15 11,23 7,13 8,16 22,22 2,3 4,7 6,11 5,7 11,14 16,22 4,1 8,3 11,5 7,2 15,4 22,6 4,2 8,4 12,6 7,18 14,36 22,55 9,2 18,4 27,6 0,-4 0,-8 0,-12 6,0 11,0 17,0 0,4 0,8 0,12 3,0 7,0 11,0 0,11 0,11 6,11 1,5 3,10 5,16 6,-2 12,-3 18,-4 3,3 7,6 10,10 1,5 3,11 5,16 4,0 7,0 11,0 0,2 0,4 0,6 -2,11 -2,11 6,33 0,4 0,7 0,11 -4,17 -8,33 -11,50 -7,4 -7,4 -11,17 -8,0 -15,0 -22,0 0,-4 0,-8 0,-11 -4,0 -8,0 -11,0 0,-2 0,-4 0,-6 -6,2 -12,4 -17,6 -2,-2 -4,-4 -6,-6 -11,-3 -11,-3 -27,6 0,5 0,10 0,16 1,0 3,0 5,0 0,4 0,7 0,11 -2,17 -4,33 -5,50 -4,0 -8,0 -11,0 0,4 0,7 0,11 -4,2 -8,4 -12,6 -2,3 -3,7 -5,11 -2,2 -4,4 -5,6 -14,1 -27,3 -39,5 -10,3 -19,7 -28,11 -2,2 -4,4 -6,6 -2,1 -4,3 -5,5 -2,2 -4,4 -6,6 -2,1 -4,3 -5,5 -4,2 -8,4 -11,6 -8,0 -15,0 -22,0 0,7 0,14 0,22 -4,1 -8,3 -12,5 -5,2 -11,4 -16,6 0,6 0,11 0,17 2,0 4,0 6,0 1,3 3,7 5,11 1,1 3,3 5,5 4,2 8,4 12,6 2,11 2,11 11,16 0,6 0,12 0,17 3,0 7,0 11,0 3,11 3,11 11,17 1,1 3,3 5,5 2,2 4,4 6,6 -2,10 -4,22 -6,33 -8,11 -8,11 -16,39 15,2 29,3 44,5 4,9 7,18 11,28 -2,2 -4,4 -5,6 -2,9 -4,18 -6,27 -2,9 -4,18 -5,28 -10,0 -19,0 -28,0 -3,-11 -3,-11 -11,-17 -4,-7 -4,-7 -22,-11 -2,-2 -4,-4 -6,-5 0,-6 0,-12 0,-17 2,0 4,0 6,0 0,-5 0,-11 0,-17 -4,0 -8,0 -12,0 -1,-4 -3,-8 -4,-12 -17,0 -34,0 -51,1 0,6 0,11 0,17 -11,0 -11,0 -11,6 -4,-2 -7,-4 -11,-6 -4,-4 -8,-8 -11,-11 0,-6 0,-11 0,-17 -6,0 -11,0 -17,0 0,4 0,7 0,11 -4,0 -7,0 -11,0 0,-4 0,-7 0,-11 -11,0 -11,0 -11,6 -2,1 -4,3 -5,5 -4,-2 -8,-4 -12,-5 2,0 4,0 6,0 0,-6 0,-11 0,-17 -11,0 -11,0 -11,6 -2,2 -4,3 -6,5 -5,0 -11,0 -16,0 0,6 0,11 0,17 1,0 3,0 5,0 2,3 4,7 6,11 -2,6 -4,11 -6,17 -2,0 -4,0 -5,0 -11,-2 -22,-4 -34,-6 0,-5 0,-5 -10,-5 0,1 0,3 0,5 -6,2 -12,4 -17,6 -9,0 -19,0 -28,0 0,3 0,7 0,11 -22,0 -44,0 -66,0 -2,11 -4,22 -6,33 -15,0 -29,0 -44,0 0,2 0,4 0,6 -2,1 -4,3 -6,5 -4,0 -19,17 -22,22 -2,2 -4,4 -5,6 -6,1 -11,3 -17,5 0,-4 0,-7 0,-11 -6,0 -11,0 -17,0 0,2 0,4 0,6 -19,3 -37,7 -55,11 1,-6 3,-11 5,-17 -2,0 -4,0 -5,0 -2,-2 -4,-4 -6,-5 -2,-6 -3,-12 -5,-17 -5,-2 -10,-3 -16,-4 0,-5 0,-9 -1,-13 0,-5 0,-5 -11,-5 0,1 0,3 0,5 -8,2 -15,4 -22,6 0,-4 0,-8 0,-11 -38,-6 -52,-3 -89,0 0,1 0,3 0,5 -2,0 -4,0 -5,0 2,21 8,29 5,50 -5,0 -5,0 -5,12 -4,0 -8,0 -11,0 0,3 0,7 0,10 -2,2 -4,4 -6,6 -7,4 -7,4 -11,17 -4,1 -8,3 -11,5 -9,1 -18,1 -26,1 1,-8 2,-16 4,-23z"
             id="path15112" /><!-- Bayern --><path
             class="fil4 str0"
             d="M474 3140c-2,-2 -4,-4 -5,-6 -2,-2 -4,-4 -6,-5 -2,-4 -4,-8 -6,-11 0,-6 0,-11 0,-17 -3,0 -7,0 -10,0 -2,-2 -4,-4 -6,-6 0,-9 0,-18 0,-27 2,-11 4,-22 6,-34 2,-4 5,-7 8,-11 -2,-3 -2,-7 -3,-11 0,-4 0,-7 0,-11 1,-2 3,-4 5,-5 2,-8 4,-15 6,-23 2,-2 4,-3 6,-5 5,0 5,0 5,-11 -2,0 -4,0 -5,0 0,-6 0,-11 0,-17 -12,0 -12,0 -12,-5 0,-2 0,-4 0,-6 0,-3 0,-7 0,-11 6,-13 12,-26 17,-39 6,0 6,0 6,-11 3,0 7,0 11,0 0,-9 0,-18 0,-27 1,-4 3,-8 5,-12 6,-2 11,-4 17,-5 0,-6 0,-11 0,-17 -2,0 -4,0 -6,0 0,-4 0,-7 0,-11 2,-9 4,-18 6,-27 1,-4 3,-8 5,-11 2,-4 4,-8 6,-12 2,-2 4,-4 6,-5 0,-2 0,-4 0,-6 0,-4 0,-7 0,-11 0,-2 0,-4 0,-5 0,-4 0,-8 0,-11 5,-8 11,-15 16,-23 2,-2 4,-4 6,-5 1,-2 3,-4 5,-6 2,-2 4,-3 6,-5 1,-2 3,-4 5,-6 2,-2 4,-4 6,-5 5,0 5,0 5,-11 4,0 8,0 12,0 0,-4 0,-8 0,-11 10,-3 10,-3 16,-12 2,-2 4,-3 6,-5 1,-5 3,-11 5,-17 2,-5 4,-11 6,-16 1,-2 3,-4 5,-6 2,-4 4,-7 6,-11 1,-2 3,-4 5,-5 4,-3 8,-6 11,-9 1,-1 2,-2 3,-2 3,-2 6,-2 8,-3 1,-1 2,-2 3,-3 1,-7 2,-13 3,-20 1,-1 2,-2 3,-2 1,-1 1,-2 3,-3 0,-1 1,-2 2,-3 3,-4 6,-9 9,-14 1,-1 1,-2 3,-2 4,-21 8,-41 13,-61 4,0 7,0 11,0 0,-3 0,-6 0,-9 1,-1 2,-2 3,-3 1,-1 2,-2 3,-2 1,-2 1,-2 3,-3 0,-2 0,-4 0,-5 -2,-1 -2,-2 -3,-3 -2,-2 -4,-4 -6,-6 1,-1 2,-2 3,-2 1,-2 2,-2 3,-3 1,-1 1,-2 3,-3 2,-15 5,-30 8,-44 -6,-2 -11,-2 -17,-3 1,-1 2,-2 3,-3 0,-4 0,-7 0,-11 -1,-1 -2,-2 -3,-3 -1,-3 -2,-5 -3,-8 -1,-1 -2,-2 -2,-3 1,-8 3,-15 5,-22 1,-1 2,-2 3,-3 6,6 11,11 17,17 1,1 1,2 3,3 4,11 9,10 22,13 0,-14 0,-29 0,-44 5,0 11,0 16,0 1,9 2,18 3,28 1,1 2,2 3,3 10,6 20,13 30,19 1,1 2,2 3,3 0,12 0,24 0,36 7,0 15,0 22,0 0,-4 0,-8 0,-11 4,0 8,0 11,0 2,-11 4,-21 6,-31 0,-1 1,-2 2,-3 2,0 4,0 6,0 1,1 2,2 3,3 3,0 7,0 11,0 12,-13 12,-13 17,-25 11,-1 22,-2 33,-2 1,-2 1,-2 3,-3 6,-8 12,-16 18,-24 9,-2 19,-3 29,-4 1,-9 1,-18 3,-28 -2,-1 -2,-2 -3,-2 -2,0 -4,0 -6,0 -1,0 -2,1 -3,2 -8,-8 -8,-8 -8,-19 1,-1 2,-2 3,-3 4,-1 9,-2 14,-3 1,-1 1,-2 3,-3 0,1 1,2 2,3 4,-1 8,-1 13,-1 1,3 2,6 4,10 5,0 11,0 16,0 0,-3 0,-6 0,-9 1,-1 2,-2 3,-3 6,2 12,3 18,4 -1,14 -3,28 -4,41 4,-1 7,-2 11,-3 1,-1 2,-2 3,-2 1,-3 2,-6 3,-9 1,-1 2,-2 3,-3 1,4 1,8 2,12 6,0 11,0 17,0 0,-4 0,-8 0,-12 3,0 5,0 8,0 1,1 2,2 3,3 2,4 4,7 6,11 -2,1 -2,2 -3,3 0,11 5,16 3,44 5,2 11,3 17,4 1,12 3,24 5,35 11,-2 22,-4 33,-5 2,-8 5,-16 8,-23 3,10 6,21 8,31 -1,1 -2,1 -2,3 -2,3 -2,7 -3,11 3,0 7,0 11,0 1,4 2,8 4,12 -3,1 -6,3 -10,4 3,15 6,30 9,44 1,1 1,2 3,3 0,2 0,4 0,6 -2,1 -2,1 -3,3 0,9 0,18 0,28 31,22 29,29 31,66 31,10 36,19 55,47 -1,1 -2,1 -3,3 0,1 0,3 0,5 1,1 2,2 3,3 -1,8 -2,17 -3,25 1,1 2,2 3,3 -8,14 -8,14 -11,36 3,0 7,0 11,0 0,3 0,5 0,8 -1,1 -2,2 -3,3 -5,2 -9,5 -14,8 -1,1 -2,2 -3,3 -1,1 -2,1 -2,3 -2,0 -2,1 -3,2 -1,-4 -2,-7 -3,-11 -9,0 -18,0 -27,0 9,28 13,43 10,72 -11,9 -22,17 -33,26 -1,0 -2,1 -3,2 -6,-1 -13,-2 -19,-2 -1,0 -2,1 -3,2 -34,21 -23,43 -5,72 1,1 1,2 3,3 2,17 5,35 8,53 0,0 1,1 2,2 1,1 2,2 3,3 1,1 2,2 3,3 2,11 4,22 6,33 -2,1 -2,2 -3,3 -1,9 -2,18 -3,27 -4,0 -8,0 -11,0 3,21 6,42 9,63 -3,1 -6,2 -9,4 0,7 0,15 0,22 3,0 5,0 8,0 1,1 2,2 3,3 -2,13 -4,26 -6,39 -1,1 -2,1 -2,3 -2,-4 -2,-8 -3,-12 -8,1 -15,2 -22,3 -1,1 -2,2 -3,3 -1,1 -2,2 -3,3 -1,1 -2,1 -2,3 -20,-9 -20,-9 -42,-12 -3,12 -3,12 -11,20 -1,1 -2,2 -3,3 -1,1 -2,1 -3,3 -1,0 -2,1 -2,2 -6,2 -12,4 -17,6 -1,-2 -2,-2 -3,-3 -13,1 -26,1 -39,3 -1,-6 -3,-12 -4,-18 -8,-2 -16,-3 -23,-4 -2,-3 -3,-5 -5,-8 -4,1 -8,1 -12,2 -4,0 -7,0 -11,0 -5,-4 -11,-8 -17,-11 -2,-2 -4,-4 -5,-6 -4,-5 -8,-11 -11,-16 -8,-4 -15,-8 -22,-11 -2,-2 -4,-4 -6,-6 -4,-2 -7,-4 -11,-5 0,-6 0,-6 -11,-6 0,6 0,11 0,17 3,0 7,0 11,0 4,1 7,3 11,5 2,2 4,4 6,6 1,2 3,3 5,5 2,4 4,7 6,11 0,4 0,7 0,11 -8,-2 -15,-4 -22,-5 -14,-18 -24,-20 -45,-22 2,4 4,7 6,11 3,1 7,3 11,5 0,2 0,4 0,6 -2,1 -4,3 -6,5 -3,2 -7,4 -11,6 -7,-2 -15,-4 -22,-6 0,-5 0,-11 0,-16 -6,-2 -11,-4 -16,-6 -2,0 -4,0 -6,0 -3,4 -6,7 -8,11 -3,-5 -6,-11 -9,-16 6,0 6,0 6,-11 -4,0 -8,0 -11,0 0,-4 0,-8 0,-11 -6,0 -11,0 -17,0 -2,3 -4,7 -5,11 0,-6 0,-11 0,-17 -17,3 -17,3 -23,11 -7,0 -15,0 -22,0 0,4 0,7 0,11 -3,6 -7,11 -11,17 -2,0 -4,0 -5,0 0,7 0,14 0,22 7,4 14,9 22,14 -4,1 -8,2 -11,3 0,7 0,14 0,22 -4,-2 -8,-4 -11,-6 -2,0 -4,0 -6,0 -5,0 -11,0 -17,0 -2,-5 -4,-11 -5,-16 -8,0 -15,0 -22,0 0,-6 0,-6 -11,-6 0,2 0,4 0,6 -17,6 -28,22 -33,22 -2,0 -4,0 -6,0 -13,0 -26,0 -39,0 0,-6 0,-11 0,-17 -11,2 -22,4 -33,6 0,3 0,7 0,11 -13,0 -26,0 -39,0z"
             id="path15114" /><!-- Baden-Württemberg --><g
             id="g15116"><!-- Bodensee --><g
               id="g15120" /></g><path
             class="fil1 str0"
             d="M574 2519c0,-5 0,-5 -11,-5 0,1 0,3 0,5 -8,0 -15,0 -22,0 0,-2 0,-4 0,-5 -6,0 -11,0 -17,0 0,1 0,3 0,5 -4,0 -8,0 -11,0 0,-2 0,-4 0,-5 -8,0 -15,0 -22,0 -2,-5 -3,-9 -5,-13 -9,-3 -19,-6 -29,-9 0,-10 0,-19 0,-28 -13,0 -26,0 -38,0 -6,0 -6,0 -6,-11 -4,0 -7,0 -11,0 3,-17 3,-17 17,-36 0,-1 1,-2 2,-3 4,-4 4,-4 4,-35 -6,-3 -13,-6 -19,-8 -2,-6 -3,-12 -4,-18 -11,0 -11,0 -11,-5 5,0 11,0 16,0 -1,-7 -3,-13 -4,-19 3,-1 6,-3 10,-4 -1,-3 -2,-7 -3,-11 -1,-1 -2,-2 -3,-2 -7,-20 -16,-12 -30,-26 -1,-1 -2,-2 -3,-2 -15,0 -18,-4 -30,-14 -1,-1 -2,-2 -3,-3 -26,5 -50,7 -72,22 -1,1 -2,2 -3,3 -16,5 -32,10 -48,15 -2,-3 -3,-6 -4,-9 -20,2 -20,2 -56,-6 0,-4 0,-8 0,-11 4,0 7,0 11,0 0,-4 0,-7 0,-11 2,-2 4,-4 6,-5 2,-8 4,-16 6,-23 1,-2 3,-4 5,-5 4,-2 7,-4 11,-6 2,-15 3,-29 5,-44 -9,0 -18,0 -27,0 -4,-4 -8,-8 -11,-11 -2,0 -4,0 -6,0 -5,-6 -11,-12 -16,-17 -9,-11 -9,-11 -17,-38 -4,0 -8,0 -11,0 -12,-32 -8,-53 0,-84 3,0 7,0 11,0 0,-9 0,-18 0,-27 7,-4 15,-8 22,-12 2,-4 4,-7 6,-11 39,-8 39,-8 61,-19 0,-1 1,-2 2,-3 9,-1 17,-2 26,-2 12,12 27,8 44,8 -2,-7 -4,-13 -6,-20 1,-1 2,-2 3,-2 0,-9 1,-18 1,-27 3,1 7,3 10,4 1,1 2,2 3,3 4,0 7,0 11,0 1,-1 1,-2 3,-3 2,0 5,0 8,0 -1,-5 -2,-11 -3,-16 -1,-1 -2,-2 -3,-3 4,-1 8,-2 12,-3 0,-4 0,-9 0,-14 0,-1 1,-2 2,-2 20,-3 20,-3 33,-12 1,1 2,2 3,3 2,0 4,0 6,0 1,-1 1,-2 3,-3 21,-5 42,-11 63,-16 0,-3 0,-6 0,-8 1,-2 2,-2 3,-3 20,-40 73,-15 86,-58 1,-2 2,-2 3,-3 18,-12 19,-21 25,-42 0,-1 1,-2 2,-2 2,0 4,0 6,0 1,0 1,1 3,2 0,9 0,17 0,25 4,2 9,4 14,6 0,0 1,1 2,2 6,1 12,2 17,3 1,11 2,23 3,34 1,1 2,1 2,3 3,2 6,5 9,8 1,0 1,1 3,2 0,5 0,10 0,14 5,0 11,0 16,0 3,23 9,28 11,53 -1,1 -2,2 -2,3 -11,0 -21,0 -31,0 0,3 0,7 0,11 -4,0 -7,0 -11,0 1,9 2,18 3,27 1,1 2,2 2,3 -1,9 -2,17 -2,25 5,4 11,8 16,11 1,1 2,2 3,3 8,25 8,25 7,40 -21,1 -21,1 -24,5 0,0 -1,1 -2,2 -5,2 -10,4 -14,6 0,2 0,5 0,8 -1,1 -2,2 -3,3 -7,1 -13,3 -19,5 0,4 1,8 2,11 1,1 2,2 3,3 2,5 4,9 6,14 -8,0 -15,0 -22,0 -8,17 -8,17 -11,39 3,0 5,0 8,0 1,1 2,2 3,3 2,4 5,9 8,13 1,1 1,2 3,3 0,3 0,6 0,8 14,-2 29,-5 44,-8 1,-1 2,-2 3,-3 3,-1 5,-2 8,-2 1,-2 2,-2 3,-3 3,-1 5,-2 8,-3 1,-1 2,-2 3,-2 4,-2 9,-2 14,-3 1,-1 2,-2 3,-3 1,2 3,4 5,6 1,0 2,1 3,2 3,1 5,2 8,3 1,1 2,1 3,3 3,4 6,9 8,13 1,1 2,2 3,3 3,14 6,28 9,42 0,1 1,1 2,3 3,8 6,16 9,25 0,0 1,1 2,2 7,12 9,15 6,28 -2,1 -2,2 -3,3 -3,1 -6,1 -8,3 -1,0 -2,1 -3,2 -3,0 -5,0 -8,0 3,11 5,22 8,33 1,1 2,2 3,3 1,3 2,6 3,9 0,0 1,1 2,2 1,10 2,20 3,31 1,1 1,1 3,3 0,2 1,5 2,8 1,1 2,2 3,3 0,1 0,3 0,5 -1,1 -2,2 -3,3 -1,4 -2,7 -2,11 5,0 11,0 16,0 -2,12 -4,24 -5,36 -1,1 -2,2 -3,3 -1,1 -2,2 -3,3 -1,1 -2,1 -3,3 -1,3 -2,7 -2,11 2,0 5,0 8,0 1,1 2,1 3,2 -1,1 -2,2 -3,3 -1,1 -2,1 -3,3 -1,0 -2,1 -3,2 -4,2 -9,4 -13,6 -8,28 -8,28 -11,64 -1,1 -2,1 -3,3 -3,4 -6,9 -8,14 -2,0 -2,1 -3,2 -1,1 -2,2 -3,3 -1,1 -2,2 -3,3 -1,6 -2,12 -3,19 -1,1 -2,2 -2,3 -3,1 -6,2 -9,3 -1,1 -1,1 -2,3 -42,-14 -42,-14 -75,-34z"
             id="path15148" /><!-- Rheinland-Pfalz --><path
             class="fil4 str0"
             d="M330 2475c-3,-22 -5,-23 -22,-36 -4,1 -7,1 -11,3 -4,0 -8,0 -11,0 -2,0 -4,0 -6,0 -2,0 -4,0 -5,0 0,7 0,14 0,22 -4,0 -8,0 -12,0 -1,0 -3,0 -5,0 -15,-7 -18,-40 -22,-55 -4,0 -8,0 -11,0 0,-4 0,-8 0,-12 -4,0 -8,0 -11,0 -2,-4 -4,-7 -6,-11 0,-4 0,-7 0,-11 3,-11 -3,-16 -6,-33 -3,0 -7,0 -10,0 -2,-2 -4,-4 -6,-6 -4,-2 -7,-4 -11,-5 -4,-1 -9,-1 -13,-2 -1,-9 -3,-17 -4,-26 15,1 31,1 46,1 1,4 2,7 4,10 20,-6 41,-13 61,-19 1,-1 2,-2 3,-3 22,-8 44,-15 66,-22 1,1 2,2 3,3 3,5 6,9 9,15 7,-1 14,-1 22,-2 0,1 1,2 2,3 5,13 10,11 23,14 0,4 0,7 0,11 2,0 5,0 8,0 1,1 1,2 2,3 -3,1 -7,2 -10,3 1,6 2,12 3,18 -5,1 -10,2 -14,4 0,6 0,11 0,17 3,0 7,0 11,0 1,5 2,11 3,17 7,3 13,6 20,9 -1,8 -1,17 -1,26 -2,1 -2,2 -3,3 -3,0 -6,0 -9,0 -8,16 -8,16 -10,44 3,0 7,0 10,0 0,6 0,11 0,17 -10,0 -10,0 -10,5 -4,0 -8,0 -11,0 -12,-3 -23,-7 -34,-10 0,-6 0,-6 -11,-6 0,5 0,11 0,16 -4,-2 -7,-4 -11,-5z"
             id="path15150" /><!-- Saarland --><path
             class="fil1 str0"
             d="M815 2342c-1,-1 -2,-2 -3,-3 0,-3 0,-5 0,-8 -16,-3 -16,-3 -30,-11 -2,-1 -2,-2 -3,-3 0,-10 0,-21 0,-31 -10,0 -19,0 -28,0 3,31 3,31 -3,45 -3,-4 -7,-7 -11,-11 -1,-1 -2,-2 -2,-3 -4,-5 -7,-10 -10,-15 -5,-1 -9,-1 -13,-2 -1,1 -2,2 -3,3 -2,-2 -4,-4 -5,-5 -1,-2 -2,-2 -3,-3 -1,-3 -2,-6 -2,-9 -1,-1 -2,-2 -3,-2 0,-9 0,-19 0,-28 1,-1 2,-2 3,-3 2,-1 5,-2 8,-2 0,-2 1,-2 2,-3 3,0 6,0 9,0 -2,-17 -2,-23 -14,-33 -1,-2 -2,-2 -3,-3 0,-8 0,-17 0,-25 -3,0 -5,0 -8,0 -1,-1 -2,-2 -3,-3 0,-14 0,-28 0,-42 -2,0 -5,0 -8,0 -1,-1 -2,-2 -3,-2 -3,-5 -5,-10 -8,-14 -1,-1 -2,-2 -3,-3 -3,-1 -6,-2 -8,-2 -2,-2 -2,-2 -3,-3 0,-3 0,-6 0,-9 -4,1 -7,2 -11,3 -1,1 -2,2 -3,3 -5,1 -9,2 -14,3 -1,1 -2,1 -3,3 -2,0 -5,1 -8,2 -1,1 -2,2 -3,3 -2,1 -5,1 -8,3 -1,0 -2,1 -3,2 -13,0 -26,0 -39,0 -1,-1 -2,-2 -2,-2 -3,-5 -6,-10 -9,-14 -1,-1 -2,-2 -2,-3 -3,-15 -2,-17 5,-31 7,0 15,0 22,0 0,-7 0,-14 0,-22 -2,0 -5,0 -8,0 -1,-1 -2,-1 -3,-2 6,-4 11,-8 17,-11 1,-2 2,-2 3,-3 4,-2 9,-4 13,-6 0,-3 0,-5 0,-8 1,-1 2,-2 3,-3 10,0 21,0 31,0 -3,-28 -3,-28 -14,-50 -1,-1 -2,-1 -3,-2 -14,-14 -14,-16 -14,-37 -1,-1 -2,-2 -3,-2 0,-7 0,-13 0,-20 4,0 8,0 12,0 1,-3 2,-6 4,-9 8,-2 15,-3 23,-4 1,-2 2,-2 3,-3 0,-33 -5,-39 -8,-56 3,0 7,0 11,0 0,-4 0,-9 0,-14 1,-1 2,-2 3,-2 1,-11 1,-21 2,-31 1,-1 2,-2 3,-3 3,-2 6,-5 8,-8 1,-1 2,-2 3,-3 1,-1 2,-2 3,-3 1,-1 2,-2 3,-2 1,-1 1,-2 3,-3 0,-1 1,-2 2,-3 11,1 21,1 32,2 4,-16 15,-13 21,-27 1,-1 2,-2 3,-2 5,-17 16,-28 17,-39 -2,-1 -2,-2 -3,-3 0,-7 0,-13 0,-19 15,0 29,0 44,0 0,-7 0,-13 0,-20 1,-1 2,-2 3,-2 2,-2 5,-2 8,-3 1,-1 1,-2 3,-3 -2,-17 -2,-33 -3,-50 -9,3 -19,6 -28,9 -1,0 -2,1 -2,2 -3,-4 -6,-9 -9,-14 1,-1 2,-2 3,-2 1,-3 2,-6 3,-9 1,-1 1,-2 3,-3 0,-1 1,-2 2,-2 1,-2 2,-2 3,-3 3,0 6,0 8,0 2,-5 4,-9 6,-14 1,-1 2,-2 3,-3 4,1 9,2 13,3 1,-1 2,-2 3,-3 10,-1 21,-2 31,-2 1,-2 2,-2 3,-3 4,0 8,0 13,0 0,-3 0,-6 0,-9 1,-1 2,-2 3,-2 -2,-6 -4,-11 -6,-17 -1,-1 -2,-2 -2,-3 -1,-1 -2,-2 -3,-3 -1,0 -2,-1 -3,-2 1,-1 2,-2 3,-3 16,-1 31,-2 47,-3 -1,1 -2,2 -2,3 0,4 0,7 0,11 0,1 1,2 2,3 13,-1 26,-2 39,-3 0,-6 0,-11 0,-16 7,-2 14,-4 22,-6 2,-7 4,-13 6,-20 0,-1 1,-2 2,-2 1,-8 2,-15 3,-22 6,-1 11,-2 17,-3 1,-1 2,-2 3,-3 1,-1 1,-2 2,-3 1,-1 2,-2 3,-2 1,3 2,7 3,11 6,-2 13,-4 19,-6 1,1 2,2 3,3 6,3 13,6 20,8 0,1 1,2 2,3 0,4 0,9 0,14 -4,0 -7,0 -11,0 -1,7 -2,14 -3,22 1,1 2,2 3,3 2,5 4,11 6,16 -1,1 -2,2 -3,3 0,4 0,7 0,11 1,1 2,2 3,3 -1,1 -2,2 -3,3 -5,2 -10,5 -14,8 -1,1 -2,2 -3,3 -1,7 -2,14 -3,22 17,8 17,8 37,11 1,1 1,2 2,3 1,1 2,1 3,3 1,0 2,1 3,2 1,0 3,0 5,0 1,-1 2,-2 3,-2 0,-6 0,-12 0,-17 -3,-3 -5,-6 -8,-8 1,-1 1,-2 3,-3 2,-1 5,-2 8,-3 1,-1 1,-2 3,-3 2,0 5,0 8,0 1,-4 2,-7 3,-11 1,1 1,2 3,3 0,4 0,9 0,14 3,-1 7,-2 11,-3 1,-1 1,-2 3,-3 2,-11 2,-11 8,-11 0,7 1,15 2,22 1,1 2,2 3,3 2,8 4,17 6,25 23,5 33,24 58,33 1,1 2,2 3,3 1,1 1,2 3,3 0,1 1,1 2,3 -2,21 -16,36 -22,58 6,0 11,0 17,0 0,5 0,11 0,17 -5,0 -10,0 -14,0 -1,-2 -2,-2 -3,-3 -9,-1 -18,-2 -27,-3 1,8 2,15 3,23 -5,1 -10,3 -15,5 0,5 0,11 0,16 6,0 12,0 17,0 -2,9 -4,19 -5,28 -6,0 -12,0 -17,0 0,4 0,9 0,14 -1,1 -2,1 -3,3 -1,10 -2,20 -3,30 -1,1 -2,2 -3,3 -1,4 -2,9 -2,14 -2,0 -2,1 -3,2 -3,0 -6,0 -8,0 0,8 0,15 0,22 9,2 18,4 27,6 2,-6 4,-13 6,-19 1,-1 2,-2 3,-3 3,0 7,0 11,0 1,1 1,2 3,3 1,3 2,6 3,9 -3,2 -6,3 -9,4 2,27 2,47 -11,70 -1,1 -2,1 -3,3 -1,0 -2,1 -3,2 -1,1 -2,2 -2,3 -3,1 -6,2 -9,3 -1,1 -2,2 -3,3 -21,2 -26,-3 -47,-6 0,19 0,37 0,56 -4,0 -7,0 -11,0 0,2 0,5 0,8 -1,1 -1,2 -2,3 -5,0 -10,0 -14,0 -4,7 -7,13 -10,20 -10,-1 -19,-3 -29,-4 1,9 2,19 3,28 1,1 1,2 2,3 0,1 0,3 0,5 -1,1 -1,2 -2,3 -1,5 -2,11 -3,17 -8,0 -17,0 -25,0 -1,-2 -2,-2 -3,-3 0,-5 0,-10 0,-14 -12,0 -24,0 -36,0 -1,-1 -2,-2 -3,-3 -21,0 -16,20 -27,20 0,-6 0,-12 0,-17 -8,3 -15,5 -22,8 -2,1 -2,2 -3,3 -5,0 -10,0 -14,0 -2,11 -4,22 -6,34 5,1 9,3 14,5 1,1 2,1 3,3 -1,17 -2,35 -3,52 1,1 2,2 3,3 0,6 0,13 0,20 4,0 7,0 11,0 9,45 -2,58 -11,99 4,0 7,0 11,0 -2,17 -7,21 -19,33 -2,-1 -2,-2 -3,-2 -4,0 -8,0 -11,0 -1,0 -2,1 -3,2 -3,10 -5,19 -8,28 -4,0 -8,0 -11,0 0,4 0,7 0,11 -4,0 -8,0 -11,0 -2,-11 -2,-22 -3,-33z"
             id="path15152" /><!-- Hessen --><path
             class="fil6 str0"
             d="M169 1960c4,-13 8,-26 12,-39 -4,0 -8,0 -12,0 -1,-6 -3,-12 -4,-18 -10,-2 -19,-3 -29,-4 -2,-8 -4,-15 -5,-23 5,-2 11,-3 16,-5 0,-4 0,-7 0,-11 6,0 6,0 6,-11 -4,0 -8,0 -11,0 -2,0 -4,0 -6,0 -5,-13 -11,-26 -17,-39 -21,-3 -21,-11 -33,-28 2,-7 4,-14 6,-22 6,-1 12,-3 18,-4 -1,-4 -1,-8 -2,-12 0,-2 0,-4 0,-6 2,0 4,0 6,0 0,-6 0,-11 0,-16 -6,0 -11,0 -16,0 0,-8 0,-16 0,-23 -10,0 -19,0 -28,0 -4,-9 -8,-18 -12,-27 6,1 12,3 17,5 0,6 0,6 11,6 7,-30 26,-40 56,-45 0,-5 0,-11 0,-16 0,-2 0,-4 0,-6 -2,0 -4,0 -6,0 -2,2 -4,4 -5,6 -6,0 -12,0 -17,0 2,-10 3,-19 5,-28 2,-4 4,-8 6,-11 4,0 7,0 11,0 2,-8 4,-15 6,-22 1,-2 3,-4 5,-6 2,-2 4,-4 6,-5 0,-25 1,-49 2,-73 -2,-1 -5,-3 -8,-5 -2,-4 -4,-7 -5,-11 -2,-2 -4,-4 -6,-5 -2,-2 -4,-4 -5,-6 1,-9 3,-18 5,-28 -5,0 -11,0 -17,0 -2,-2 -3,-4 -5,-5 2,-8 3,-15 5,-22 -2,0 -3,0 -5,0 0,-2 0,-4 0,-6 -6,0 -11,0 -16,0 0,-2 0,-4 0,-6 3,0 7,0 10,0 -3,-11 -7,-22 -10,-33 3,0 7,0 10,0 2,0 4,0 6,0 13,0 25,0 39,0 0,-11 0,-11 -6,-11 1,-4 2,-8 3,-11 7,7 7,7 36,11 0,4 0,7 0,11 4,0 7,0 11,0 0,4 0,7 0,11 5,0 11,0 17,0 0,-7 0,-15 0,-22 1,0 3,0 5,0 0,4 0,7 0,11 19,-2 28,-6 44,-17 4,-2 8,-3 12,-5 5,2 11,3 16,5 2,0 4,0 6,0 5,-2 11,-3 16,-5 0,-6 0,-11 0,-16 4,0 8,0 12,0 0,-8 0,-16 0,-23 -2,0 -4,0 -6,0 -2,-2 -4,-4 -6,-5 -4,-2 -7,-4 -11,-6 -3,-2 -7,-4 -11,-5 0,-4 0,-8 0,-11 6,0 11,0 17,0 1,-5 2,-9 4,-13 8,-3 17,-6 25,-8 1,-5 3,-9 4,-13 5,-3 11,-7 17,-11 3,0 7,0 11,0 0,-4 0,-7 0,-11 5,0 11,0 17,0 0,-2 0,-4 0,-5 16,-9 16,-9 52,-12 1,1 2,2 3,3 4,1 7,2 11,3 0,-3 0,-6 0,-8 1,-1 1,-2 3,-3 4,0 9,0 14,0 0,-4 0,-7 0,-11 5,0 11,0 16,0 0,-4 0,-7 0,-11 4,0 7,0 11,0 0,-3 0,-6 0,-8 1,-2 2,-2 3,-3 8,0 17,0 25,0 0,-5 0,-10 0,-14 1,-1 2,-2 3,-3 0,-4 0,-7 0,-11 -1,-1 -2,-2 -3,-3 0,-4 0,-7 0,-11 1,-1 2,-2 3,-2 7,3 15,7 22,11 1,0 2,1 3,2 0,7 0,13 0,20 4,0 9,0 13,0 1,0 2,1 3,2 1,1 2,2 3,3 1,1 2,2 3,3 10,1 20,2 30,3 1,1 2,1 3,3 3,19 3,19 -6,55 0,1 -1,2 -2,3 -1,5 -2,11 -3,16 7,2 15,4 22,6 -3,17 -3,17 -11,25 -1,1 -2,1 -3,3 -3,0 -5,0 -8,0 0,7 0,14 0,22 5,0 9,0 14,0 1,0 1,1 3,2 12,-2 25,-4 38,-5 1,-1 2,-2 3,-3 6,-1 13,-2 20,-2 0,-2 1,-2 2,-3 1,-4 2,-8 3,-11 4,0 7,0 11,0 2,-4 3,-7 4,-10 13,7 13,7 35,10 4,-15 10,-16 22,-25 1,-2 2,-2 3,-3 1,-4 1,-7 3,-11 -5,0 -10,0 -14,0 -1,-1 -2,-2 -3,-3 0,-2 0,-4 0,-5 1,-2 2,-2 3,-3 0,-15 0,-30 0,-44 -1,-2 -2,-2 -3,-3 -1,-3 -2,-6 -3,-9 -1,-1 -2,-2 -2,-2 -2,-2 -2,-2 -3,-3 -1,-1 -2,-2 -3,-3 -3,-1 -6,-2 -8,-3 -2,-1 -2,-2 -3,-3 -2,-6 -4,-12 -6,-19 9,-1 19,-2 28,-3 1,-1 2,-2 3,-2 2,-7 5,-13 8,-20 1,-1 2,-2 3,-3 1,1 1,2 3,3 0,1 1,2 2,3 1,1 2,2 3,3 2,0 4,0 6,0 1,-1 1,-2 3,-3 2,-1 5,-2 8,-3 1,-1 1,-2 3,-3 2,-1 5,-2 8,-2 1,-2 2,-2 3,-3 1,1 1,1 3,3 2,4 5,9 8,14 0,0 1,1 2,2 0,2 0,4 0,6 -1,1 -2,1 -2,3 0,9 0,19 1,28 4,1 8,1 13,2 0,-1 1,-2 2,-3 4,0 8,0 12,0 0,1 1,2 2,3 9,-2 19,-4 28,-6 1,-1 1,-2 3,-2 0,-2 1,-2 2,-3 1,-1 2,-2 3,-3 3,0 6,0 9,0 3,-9 7,-18 11,-27 7,2 14,5 22,8 -1,1 -2,1 -3,3 -3,12 -6,24 -8,36 -1,0 -2,1 -3,2 -8,4 -17,8 -25,12 0,6 0,12 0,19 -1,0 -2,1 -3,2 1,4 1,8 1,13 4,1 9,3 13,4 -3,17 -8,22 -8,39 1,1 1,2 3,3 0,3 0,5 0,8 3,-1 7,-2 11,-3 1,-1 1,-2 3,-2 6,2 12,5 19,8 -1,1 -2,1 -3,3 -1,3 -2,7 -3,11 4,0 7,0 11,0 1,9 2,18 3,27 1,1 2,2 3,3 0,2 0,4 0,6 -1,1 -2,1 -3,3 -1,5 -2,10 -3,16 6,-2 12,-3 18,-4 9,16 9,16 18,21 1,0 2,1 3,2 2,7 4,13 6,20 7,2 14,4 22,6 0,8 0,16 0,24 -1,1 -2,2 -3,3 -3,1 -7,3 -10,4 -1,40 -1,40 -9,82 -2,1 -2,1 -3,3 -3,0 -6,0 -9,0 0,5 0,11 0,16 -7,2 -14,4 -22,6 0,5 0,11 0,16 -10,2 -20,4 -30,6 -1,-1 -2,-2 -3,-3 0,-2 0,-3 0,-5 1,-1 2,-2 3,-3 1,-4 2,-7 3,-11 -53,5 -53,5 -56,8 -1,1 -2,2 -2,3 0,2 0,3 0,5 0,1 1,2 2,3 1,1 2,2 3,3 1,1 2,2 3,3 1,3 3,7 5,11 -1,1 -2,2 -3,3 -4,2 -9,5 -13,8 -1,1 -2,2 -3,3 -10,-2 -21,-4 -31,-6 0,3 0,6 0,9 -1,0 -2,1 -2,2 -5,-1 -10,-2 -14,-2 -1,0 -2,1 -3,2 -3,0 -5,0 -8,0 -2,5 -4,9 -6,14 -1,1 -2,2 -2,3 -2,1 -2,1 -3,3 -1,0 -2,1 -3,2 -1,3 -2,6 -3,9 -1,1 -2,1 -3,3 1,6 1,12 2,18 4,0 8,0 12,1 1,-1 2,-2 3,-3 5,-1 10,-3 15,-4 7,15 7,15 10,40 -1,1 -2,2 -3,3 -2,1 -5,2 -8,3 -1,1 -2,1 -3,3 -1,5 -2,10 -3,16 -14,0 -29,0 -44,0 1,9 2,18 3,28 1,1 2,1 3,3 -13,13 -14,15 -17,33 -1,1 -2,1 -3,3 -11,11 -18,7 -24,23 -9,1 -19,1 -28,2 -2,0 -2,1 -3,2 -1,1 -2,2 -3,3 -1,1 -2,2 -3,3 -1,0 -2,1 -3,2 -1,1 -2,2 -2,3 -3,0 -6,0 -9,0 0,3 0,6 0,9 -1,0 -1,1 -2,2 -5,4 -5,4 -3,31 -1,1 -2,2 -3,3 -1,3 -2,7 -3,11 -7,0 -15,0 -22,0 -1,-4 -2,-8 -3,-11 -1,-1 -2,-2 -2,-3 0,-3 0,-5 0,-8 -3,0 -6,0 -9,0 -1,-1 -2,-2 -3,-3 0,-12 0,-24 0,-36 -6,0 -12,0 -19,0 -1,-1 -2,-2 -3,-3 0,-3 0,-5 0,-8 -4,0 -7,0 -11,0 -1,-8 -2,-15 -3,-22 -1,-2 -2,-2 -2,-3 -4,0 -8,0 -11,0 -1,1 -2,1 -3,3 -3,0 -5,0 -8,0 -2,21 -2,26 -17,41 -1,1 -2,2 -3,3 -15,30 -51,31 -80,39 -2,6 -4,12 -6,19 -1,1 -2,2 -2,3 -22,8 -43,17 -64,25 -1,1 -2,2 -3,2 -1,0 -2,-1 -3,-2 -16,0 -16,0 -38,11 -2,1 -2,1 -3,3 -1,3 -2,7 -3,11 -4,0 -8,0 -11,0 1,3 1,7 3,11 0,1 1,2 2,3 -2,3 -4,7 -5,11 -1,1 -2,1 -3,2 -2,0 -4,0 -5,0 -1,-1 -2,-1 -3,-2 -8,-3 -15,-6 -22,-9 1,10 3,20 5,31 -1,1 -2,1 -3,3 1,4 1,8 2,12 -6,2 -12,5 -18,7 -12,-9 -36,-21 -47,-5 -2,0 -2,1 -3,2 -9,3 -18,6 -26,10 -6,-6 -11,-10 -16,-15z"
             id="path15154" /><!-- Nordrhein-Westfalen --><path
             class="fil5 str0"
             d="M1629 1699c-1,-1 -2,-2 -2,-3 -5,-4 -5,-4 -50,-8 -2,-4 -4,-9 -5,-13 -21,-6 -36,-5 -59,-3 -1,-1 -2,-2 -3,-3 0,-12 0,-24 0,-36 -3,0 -6,0 -8,0 -2,-2 -2,-2 -3,-3 -11,-3 -11,-3 -11,-8 4,0 7,0 11,0 0,-3 0,-6 0,-8 1,-2 1,-2 3,-3 0,-1 1,-2 2,-3 1,-1 2,-2 3,-3 -2,-7 -4,-15 -5,-22 -2,-1 -2,-2 -3,-3 -4,-8 -7,-17 -11,-25 -12,-2 -24,-4 -36,-5 -1,-1 -2,-2 -3,-3 -22,-3 -44,-6 -66,-8 -3,-10 -6,-19 -9,-28 -1,-1 -2,-2 -2,-3 -2,-5 -2,-9 -3,-14 -1,-1 -2,-2 -3,-3 -3,-8 -6,-16 -8,-24 -2,-1 -2,-2 -3,-3 -11,-6 -11,-6 -44,-8 -5,-14 -10,-26 -14,-39 -1,-1 -2,-2 -3,-3 -1,-3 -2,-6 -3,-8 -1,-2 -2,-2 -2,-3 -3,-5 -6,-10 -9,-14 -1,-1 -2,-2 -2,-3 3,-7 7,-15 11,-22 0,-1 1,-2 2,-3 1,-1 2,-2 3,-2 1,-2 2,-2 3,-3 0,-4 0,-8 0,-11 -1,-2 -2,-2 -3,-3 -2,-2 -4,-4 -5,-6 0,-1 1,-2 2,-3 0,-3 0,-7 0,-10 -1,-1 -2,-2 -2,-3 -2,-1 -2,-2 -3,-3 -1,-1 -2,-2 -3,-3 -1,-1 -2,-2 -3,-2 -1,-2 -2,-2 -2,-3 5,-2 11,-4 16,-6 1,-1 2,-2 3,-3 21,-4 42,-9 63,-14 1,-1 2,-2 3,-2 5,0 9,0 14,0 -1,-4 -2,-8 -3,-11 -1,-1 -2,-2 -2,-3 1,-2 3,-4 5,-6 1,-1 2,-2 3,-2 6,-2 13,-4 19,-6 0,-7 0,-15 0,-22 -3,0 -5,0 -8,0 -1,-1 -2,-2 -3,-3 2,-4 4,-7 6,-11 1,-1 2,-2 3,-3 2,0 5,0 8,0 -3,-16 -14,-28 -19,-44 -2,-1 -2,-2 -3,-3 5,-1 11,-2 16,-2 0,-8 0,-16 0,-23 -3,0 -7,0 -11,0 0,-4 0,-7 0,-11 -2,0 -5,0 -8,0 -1,-1 -2,-2 -3,-3 -2,-8 -4,-17 -5,-24 3,0 7,0 11,0 -1,-4 -2,-8 -3,-12 -1,-1 -2,-2 -3,-2 -1,-2 -2,-2 -3,-3 -1,-1 -2,-2 -2,-3 -2,-1 -2,-2 -3,-3 -1,-1 -2,-2 -3,-3 -1,-10 -2,-20 -3,-30 -1,-1 -2,-2 -3,-3 -2,-5 -5,-9 -8,-14 -1,-1 -2,-2 -3,-2 0,-2 -1,-2 -2,-3 -1,-1 -2,-2 -3,-3 0,-4 0,-9 0,-14 -4,0 -7,0 -11,0 -3,-7 -6,-15 -8,-22 -2,-1 -2,-2 -3,-3 0,-8 0,-17 0,-24 15,-3 29,-6 44,-9 1,-1 2,-2 3,-3 3,0 5,0 8,0 0,-5 0,-11 0,-16 14,-3 22,2 83,8 1,-1 2,-2 3,-3 6,-3 13,-5 20,-8 0,-1 1,-2 2,-3 10,-10 10,-10 14,-25 1,-1 1,-2 3,-3 4,-2 9,-5 14,-8 0,-1 1,-2 2,-3 1,-1 2,-2 3,-2 1,-2 2,-2 3,-3 2,0 4,0 6,0 0,1 1,1 2,3 5,2 10,5 14,8 1,1 2,1 3,3 4,0 9,1 14,2 1,1 1,2 3,3 5,3 11,6 16,9 0,5 0,10 0,16 5,2 9,4 14,6 1,0 2,1 3,2 18,1 36,2 55,3 0,4 0,7 0,11 6,-1 11,-2 17,-2 1,-2 1,-2 3,-3 3,3 7,7 11,11 1,1 1,2 3,3 -10,28 -8,50 -6,80 -4,0 -8,0 -11,0 0,10 0,20 0,31 -1,0 -2,1 -3,2 1,8 2,15 3,22 35,9 40,7 30,39 1,1 2,2 3,3 -2,15 -4,29 -6,44 0,1 -1,2 -2,3 1,8 2,17 2,25 0,1 -1,2 -2,3 -1,4 -2,9 -3,14 -1,1 -2,1 -3,2 0,2 0,4 0,6 1,1 2,1 3,3 4,8 7,16 11,25 4,0 7,0 11,0 3,5 6,10 8,16 1,1 2,2 3,3 3,1 6,1 9,3 0,0 1,1 2,2 0,3 0,6 0,9 6,0 11,0 17,0 1,-4 1,-8 3,-11 0,0 1,1 2,2 0,3 0,6 0,9 3,0 6,0 9,0 1,1 1,1 3,3 0,2 0,5 0,8 10,0 21,0 33,0 0,-4 0,-8 0,-11 4,1 9,3 14,5 0,1 1,2 2,3 5,3 10,6 14,9 1,0 2,1 3,2 2,0 4,0 6,0 1,-1 1,-2 3,-2 1,1 3,3 5,5 1,1 1,2 3,3 6,6 54,27 66,27 1,-1 2,-2 3,-2 6,28 6,28 14,36 -1,0 -2,1 -3,2 0,4 0,8 0,12 1,0 2,1 3,2 0,7 0,15 0,23 -1,0 -2,1 -3,2 -3,1 -5,2 -8,3 -1,1 -2,2 -3,3 -3,0 -6,1 -8,2 -2,1 -2,2 -3,3 -2,0 -4,0 -6,0 -1,-1 -2,-2 -3,-3 -3,0 -7,0 -10,0 -2,1 -2,2 -3,3 -9,0 -17,0 -25,0 0,-3 0,-7 0,-11 -4,1 -8,2 -11,3 -2,1 -2,2 -3,3 -3,2 -6,5 -8,8 -1,1 -2,2 -3,3 -8,-2 -17,-4 -25,-6 0,3 0,6 0,9 -1,0 -2,1 -3,2 -1,1 -2,2 -3,3 -1,1 -2,2 -3,3 -17,4 -35,9 -52,14 -1,1 -2,2 -3,3 -8,0 -17,0 -25,0 0,3 0,5 0,8 -1,1 -2,2 -3,2 -31,5 -27,14 -35,42 -2,1 -2,2 -3,3 -1,5 -2,11 -3,17 3,1 6,2 10,4 0,11 0,23 1,34 -4,0 -7,0 -11,0 3,9 6,19 8,28 1,1 2,2 3,3 2,13 3,25 5,39 0,0 -1,1 -2,2 -1,4 -2,8 -3,12 4,0 7,0 11,0 0,3 0,7 0,11 4,0 7,0 11,0 2,12 4,24 6,36 -2,0 -2,1 -3,2 -4,6 -8,11 -11,17 -1,-1 -2,-2 -3,-3 -16,0 -31,1 -46,1 -5,-9 -10,-17 -15,-26 -4,0 -9,0 -14,0z"
             id="path15156" /><!-- Sachsen-Anhalt --><path
             class="fil2 str0"
             d="M1059 1600c-2,-2 -2,-2 -3,-3 -1,-1 -2,-2 -3,-3 -1,-1 -2,-2 -3,-3 -11,-5 -22,-9 -33,-14 0,-5 0,-9 0,-13 1,-2 2,-2 3,-3 4,0 9,0 14,0 0,-3 0,-6 0,-9 1,-1 1,-2 3,-2 0,-2 0,-4 0,-6 -2,-1 -2,-2 -3,-3 0,-2 0,-4 0,-5 1,-1 1,-2 3,-3 -2,-8 -4,-15 -6,-22 -1,-1 -2,-2 -3,-3 2,-5 4,-9 6,-14 3,0 7,0 11,0 -1,-7 -2,-15 -3,-22 -1,-1 -2,-2 -3,-2 0,-3 0,-6 0,-9 -6,0 -13,0 -19,0 -1,-1 -2,-2 -3,-3 -4,1 -9,1 -13,2 -1,-4 -3,-7 -4,-10 -3,1 -7,2 -11,3 -1,1 -1,1 -2,3 -1,0 -2,1 -3,2 -1,1 -2,2 -3,3 -3,0 -5,0 -8,0 1,-22 -2,-40 11,-58 1,-1 2,-2 3,-3 1,-11 1,-22 2,-33 -7,-2 -15,-4 -22,-6 0,-5 0,-11 0,-16 -3,0 -5,0 -8,0 -1,-2 -2,-2 -3,-3 -8,-9 -8,-9 -11,-25 -6,1 -12,3 -18,4 -2,-2 -3,-5 -4,-7 1,-1 1,-2 3,-2 0,-4 0,-8 0,-12 -2,-1 -2,-2 -3,-2 0,-11 0,-21 0,-31 -4,-1 -8,-2 -11,-3 1,-1 1,-2 3,-2 0,-4 1,-8 2,-11 -9,-2 -18,-2 -27,-3 -1,1 -2,1 -3,3 -2,-2 -4,-4 -6,-6 -1,-1 -2,-2 -2,-3 8,-14 8,-14 11,-41 -6,-3 -11,-6 -17,-9 1,-1 2,-2 3,-3 1,-5 1,-11 3,-16 7,-2 14,-4 22,-5 0,-3 0,-6 0,-9 0,-1 1,-2 2,-3 4,-4 4,-4 9,-36 1,-1 1,-2 3,-2 -1,-5 -2,-9 -2,-13 -10,-2 -19,-3 -29,-4 -5,10 -11,20 -17,30 -1,1 -2,2 -2,3 -2,1 -2,2 -3,3 -1,1 -2,1 -3,3 -8,1 -15,3 -22,5 -1,-1 -2,-2 -3,-3 -5,0 -11,0 -16,0 -2,1 -2,2 -3,3 -3,-8 -6,-17 -9,-25 1,-1 2,-2 3,-2 0,-4 0,-8 0,-11 -1,-2 -2,-2 -3,-3 -2,-5 -5,-10 -8,-14 -1,-1 -2,-2 -2,-3 -2,0 -4,0 -6,0 -1,1 -2,2 -3,3 -3,1 -5,1 -8,3 -1,0 -2,1 -3,2 -3,1 -5,2 -8,3 -1,1 -2,2 -3,3 -1,-1 -2,-2 -3,-3 -1,-1 -2,-2 -3,-3 -1,-1 -2,-2 -2,-2 -2,0 -4,0 -6,0 -1,0 -2,1 -2,2 -3,7 -6,13 -9,20 -1,1 -2,1 -3,3 -10,0 -20,0 -30,0 0,9 0,18 0,27 2,0 5,0 8,0 1,1 2,2 3,3 3,1 5,2 8,3 1,1 2,1 3,3 1,0 2,1 3,2 1,1 1,2 3,3 0,3 1,6 2,9 1,0 2,1 3,2 0,13 0,26 0,39 -1,1 -2,2 -3,3 0,3 0,7 0,11 1,1 2,2 3,3 4,1 7,3 11,5 -1,1 -2,2 -2,3 -8,3 -15,6 -22,9 -1,4 -2,9 -4,13 -13,-4 -25,-7 -38,-11 0,4 0,7 0,11 -4,0 -8,0 -11,0 0,4 0,9 0,14 -2,1 -2,2 -3,3 -7,1 -13,1 -20,3 -1,0 -1,1 -2,2 -17,-2 -19,-3 -34,6 -1,-2 -2,-2 -2,-3 -4,-1 -8,-2 -12,-3 2,-5 4,-9 6,-14 1,-1 2,-2 3,-2 3,-2 6,-3 9,-5 2,-10 3,-19 5,-29 -8,-2 -15,-3 -23,-5 0,-3 0,-6 0,-8 1,-2 2,-2 3,-3 8,-25 11,-35 6,-61 -1,-1 -2,-2 -3,-3 -10,-1 -20,-2 -30,-3 -2,-1 -2,-2 -3,-3 -1,-1 -2,-2 -3,-2 -1,-2 -2,-2 -3,-3 -4,-1 -7,-2 -11,-3 -1,-6 -2,-11 -3,-16 -1,-2 -2,-2 -2,-3 -17,-11 -17,-11 -28,-11 -1,1 -2,1 -3,3 0,5 0,11 0,16 1,1 2,2 3,3 0,2 0,3 0,5 -1,1 -2,2 -3,3 -1,4 -2,7 -3,11 -7,1 -14,2 -22,3 -1,1 -2,2 -2,3 -5,1 -10,3 -14,5 0,4 0,8 0,12 -6,0 -11,0 -17,0 0,3 0,7 0,10 -4,1 -8,2 -11,3 -1,1 -2,2 -3,3 -2,2 -4,3 -5,5 -1,-1 -2,-2 -3,-2 -20,0 -41,1 -61,2 0,-5 0,-11 0,-16 2,-2 4,-4 6,-5 1,-6 3,-12 5,-17 6,0 6,0 6,-11 -2,0 -4,0 -6,0 -2,-4 -4,-8 -5,-12 -2,-3 -4,-7 -6,-10 0,-6 0,-11 0,-17 -6,0 -11,0 -17,0 0,4 0,7 0,11 -4,0 -7,0 -11,0 -13,-10 -22,-9 -39,-11 0,-4 0,-8 0,-11 -4,0 -7,0 -11,0 0,-8 0,-15 0,-22 4,-2 8,-3 13,-5 -1,-4 -1,-8 -2,-12 0,-8 0,-15 0,-22 28,1 56,3 84,5 0,-9 0,-18 0,-27 1,-19 3,-37 5,-56 2,-5 4,-11 5,-16 2,-2 4,-4 6,-6 2,-2 4,-4 6,-5 1,-4 3,-8 5,-11 2,-4 4,-8 6,-12 1,-5 3,-11 5,-16 2,0 4,0 6,0 0,-8 0,-15 0,-22 -2,0 -4,0 -6,0 0,-8 0,-15 0,-23 0,-2 0,-4 0,-5 0,-9 0,-18 0,-28 4,0 8,0 12,0 1,-18 3,-37 5,-55 11,3 22,7 33,11 0,9 0,18 0,28 2,0 4,0 6,0 0,-12 0,-23 0,-34 -22,-8 -22,-8 -50,-11 -15,-2 -30,-4 -44,-5 0,-17 0,-34 0,-50 1,-6 3,-11 5,-16 2,-2 4,-4 5,-6 2,0 4,0 6,0 0,6 0,6 11,6 0,-14 0,-27 0,-40 2,-2 4,-4 6,-5 5,-6 11,-11 17,-17 1,-2 3,-4 5,-5 7,-2 15,-4 22,-6 4,0 7,0 11,0 24,1 48,2 72,3 2,-3 4,-5 6,-8 1,0 3,0 5,0 26,1 52,3 78,5 0,2 0,4 0,6 1,6 2,12 4,18 12,3 12,15 18,15 4,7 7,15 11,22 0,4 0,8 0,12 -9,1 -19,3 -28,5 0,9 0,18 0,28 9,1 19,3 28,5 2,2 4,4 6,6 0,3 0,7 0,11 7,0 14,0 22,0 0,-4 0,-8 0,-11 10,-14 9,-27 11,-44 -8,0 -15,0 -22,0 0,-2 0,-4 0,-6 2,-8 3,-15 5,-22 2,-2 4,-4 6,-6 5,0 11,0 16,0 2,4 3,8 4,12 4,2 9,3 13,5 4,1 7,3 11,5 6,2 11,4 17,6 -16,25 -23,54 -9,83 6,-61 6,-61 12,-67 6,7 6,7 19,9 1,-2 2,-2 3,-3 4,-5 4,-5 5,-33 -6,-4 -11,-8 -16,-11 -2,-2 -2,-2 -3,-3 -1,-1 -2,-2 -3,-3 -1,-1 -2,-2 -3,-3 -4,-1 -7,-2 -11,-3 -2,-11 -4,-22 -5,-33 1,-4 3,-7 5,-11 9,-11 9,-11 28,-61 16,3 28,14 39,17 0,1 0,3 0,5 22,0 44,0 66,0 0,-2 0,-4 0,-5 20,0 41,0 61,0 2,1 4,3 6,5 2,17 6,21 16,34 2,3 4,7 6,11 5,5 11,11 16,16 2,2 4,4 6,6 2,19 2,21 17,33 3,2 7,4 11,6 15,13 19,14 38,17 3,21 3,21 14,38 1,1 2,2 3,3 4,1 7,2 11,3 0,-3 0,-6 0,-9 1,-1 2,-2 3,-2 1,0 1,1 3,2 0,3 0,6 0,9 2,0 5,0 8,0 1,1 2,1 3,3 5,0 11,0 17,0 3,-5 7,-9 12,-13 2,3 4,6 7,10 0,1 1,1 2,3 5,2 10,5 14,8 1,0 2,1 3,2 6,0 11,0 17,0 1,-1 2,-2 3,-2 2,-3 5,-6 8,-8 1,-2 1,-2 3,-3 5,1 11,3 16,5 1,1 2,2 3,3 3,1 6,2 8,3 1,0 2,1 3,2 10,5 20,10 31,14 0,1 1,2 2,3 14,1 28,2 42,3 1,1 1,1 3,3 4,2 9,5 14,8 0,1 1,2 2,3 8,-1 16,-1 24,-2 2,-4 4,-8 7,-12 0,1 1,1 2,3 20,4 16,26 31,41 1,1 2,2 3,3 0,3 0,6 0,8 9,4 18,8 28,12 0,3 1,7 2,10 1,1 2,2 3,3 3,1 6,2 8,3 1,1 2,1 3,3 1,4 2,9 3,14 1,0 2,1 3,2 1,1 1,2 3,3 0,1 1,2 2,3 1,1 2,2 3,3 1,1 1,1 3,3 0,0 1,1 2,2 1,1 2,2 3,3 4,0 7,0 11,0 1,-1 2,-2 3,-3 6,-2 11,-4 17,-5 1,1 2,1 3,3 1,0 1,1 3,2 0,1 1,2 2,3 6,1 13,2 19,3 1,1 2,2 3,3 0,1 0,3 0,5 -1,1 -2,2 -3,3 -1,1 -2,1 -2,3 -2,0 -2,1 -3,2 -5,0 -10,0 -14,0 0,3 0,6 0,9 -1,0 -2,1 -2,2 -5,9 -10,17 -14,26 -2,0 -2,1 -3,2 -7,3 -13,6 -20,8 -1,1 -2,2 -3,3 -32,-5 -54,-15 -85,-11 -2,6 -4,13 -6,20 -1,0 -2,1 -3,2 -16,2 -31,4 -47,6 1,11 2,22 3,33 1,1 2,2 3,3 1,8 3,17 5,25 4,0 8,0 12,0 0,4 1,7 2,11 1,1 2,1 3,3 1,0 2,1 3,2 1,1 2,2 2,3 0,4 0,9 0,14 3,0 6,0 9,0 0,1 1,2 2,3 1,10 2,20 3,30 1,1 2,2 3,3 1,1 2,2 3,3 1,1 1,1 3,3 0,0 1,1 2,2 1,1 2,2 3,3 -4,1 -7,2 -11,3 5,30 5,30 8,33 1,1 2,2 3,3 2,4 4,9 6,14 3,0 7,0 11,0 0,3 0,7 0,11 -6,0 -11,0 -17,0 1,4 2,7 3,11 1,1 2,2 3,3 3,19 13,33 11,39 -1,0 -2,1 -3,2 -2,6 -4,11 -5,17 0,1 1,1 2,3 2,4 4,9 6,14 -6,2 -11,5 -17,8 -1,1 -2,1 -3,3 -2,0 -5,0 -8,0 1,3 2,7 3,11 1,1 1,1 3,3 -4,1 -8,3 -12,5 -1,1 -2,1 -2,3 -21,1 -43,3 -64,5 0,3 0,6 0,9 -1,0 -2,1 -3,2 -6,0 -13,0 -19,0 1,4 2,8 3,12 1,0 1,1 3,2 0,1 1,2 2,3 1,1 2,2 3,3 1,1 2,2 3,3 1,1 1,1 3,3 0,1 0,3 0,5 -2,0 -2,1 -3,2 -1,4 -2,8 -3,12 3,0 6,0 8,0 1,0 2,1 3,2 0,2 0,4 0,6 -1,1 -2,2 -3,3 -1,1 -2,1 -2,3 -2,0 -2,1 -3,2 -10,11 -10,13 -11,28 1,1 1,2 3,3 0,4 0,9 0,14 2,0 5,0 8,0 1,0 1,1 3,2 0,3 1,6 2,9 1,1 2,1 3,3 8,33 8,33 5,38 0,1 -1,2 -2,3 -16,37 -38,19 -71,20 -2,6 -3,11 -4,16 -1,1 -2,2 -3,3 -5,1 -9,3 -14,5 0,4 0,8 0,12 -11,1 -22,3 -33,5 0,4 0,7 0,11 -4,0 -7,0 -11,0 -1,4 -2,7 -3,11 -1,-1 -2,-2 -3,-3 -9,1 -18,2 -27,3 0,4 0,7 0,11 -4,0 -8,0 -11,0 0,3 0,6 0,9 -1,0 -2,1 -3,2 -1,-5 -2,-11 -3,-16 -5,0 -11,0 -16,0 0,4 0,9 0,14 -1,0 -2,1 -3,2 -2,-4 -4,-7 -6,-11 -1,-1 -2,-2 -2,-3 -4,-1 -8,-2 -12,-2 -2,4 -4,9 -5,14 -1,0 -2,1 -3,2 -3,1 -5,2 -8,3 -1,1 -2,2 -3,3 0,11 0,11 8,25 -1,1 -2,1 -2,3z"
             id="path15158" /><!-- Niedersachsen --><path
             class="fil4 str0"
             d="M2011 1522c-1,-1 -2,-2 -2,-3 -9,1 -19,2 -28,3 0,3 0,5 0,8 -1,1 -2,2 -3,3 -7,0 -15,0 -22,0 -1,-1 -2,-2 -3,-3 0,-11 0,-22 0,-33 1,-1 2,-2 3,-3 -1,-7 -2,-15 -3,-22 -3,0 -7,0 -11,0 -3,-21 -6,-22 -25,-28 -1,-1 -2,-2 -2,-2 0,-2 0,-4 0,-6 0,-1 1,-2 2,-3 3,-1 6,-2 9,-3 1,-1 1,-2 3,-2 2,-1 5,-2 8,-3 1,-1 1,-2 3,-3 0,-9 0,-18 0,-27 -2,-2 -2,-2 -3,-3 0,-2 0,-4 0,-6 1,-1 1,-2 3,-3 0,-10 -6,-16 -9,-44 -4,1 -7,2 -11,3 -1,1 -2,1 -3,3 -10,-6 -20,-12 -30,-17 0,-4 0,-7 0,-11 -10,0 -21,0 -31,0 -1,-1 -2,-2 -2,-3 0,-2 0,-5 0,-8 -4,1 -8,2 -11,3 -1,1 -2,1 -3,3 -1,-2 -2,-2 -3,-3 0,-3 0,-6 0,-9 -5,0 -9,0 -14,0 -1,-1 -2,-2 -3,-2 0,-3 0,-6 0,-9 -7,0 -15,0 -22,0 0,4 0,7 0,11 -8,-2 -17,-4 -25,-5 -1,-1 -2,-2 -2,-3 -3,-3 -6,-6 -9,-8 -1,-2 -2,-2 -3,-3 -4,-1 -7,-2 -11,-3 -5,8 -5,8 -8,6 -1,-2 -2,-2 -3,-3 -2,-1 -5,-2 -8,-3 -1,-1 -2,-2 -3,-2 -2,-7 -4,-14 -5,-20 -4,0 -8,0 -11,0 -5,-7 -10,-15 -14,-22 -1,-1 -2,-2 -3,-3 1,-1 2,-2 3,-3 1,-5 2,-9 2,-13 1,-2 2,-2 3,-3 -1,-9 -2,-17 -3,-25 1,-1 2,-2 3,-3 6,-11 6,-11 6,-50 -1,-1 -2,-2 -3,-3 8,-12 8,-17 7,-32 -13,-6 -13,-6 -35,-9 -2,-5 -4,-9 -5,-14 1,-1 1,-2 3,-3 0,-9 1,-18 2,-28 4,0 8,0 12,0 -3,-55 -3,-55 2,-88 -1,-1 -2,-2 -2,-3 -2,-3 -4,-7 -5,-10 -4,0 -8,-1 -12,-1 -1,1 -2,2 -3,3 -3,0 -6,0 -8,0 0,-4 0,-8 0,-11 -20,0 -39,0 -59,0 -1,-2 -2,-2 -2,-3 0,-3 0,-6 0,-8 -4,0 -8,0 -11,0 0,-6 0,-11 0,-17 -7,-2 -13,-4 -20,-6 -1,-1 -2,-2 -2,-2 -5,-2 -10,-2 -14,-3 -2,-1 -2,-2 -3,-3 0,-3 0,-5 0,-8 -5,0 -9,0 -14,0 -1,-1 -2,-2 -3,-3 -2,-3 -5,-6 -8,-8 -1,-1 -2,-2 -3,-3 -7,-1 -13,-2 -19,-3 -2,-1 -2,-2 -3,-2 -1,-2 -2,-2 -2,-3 -2,-1 -2,-2 -3,-3 -8,-1 -15,-2 -23,-3 0,3 0,6 0,9 -1,0 -2,1 -2,2 -2,0 -4,0 -6,0 -1,-1 -2,-2 -3,-2 -1,-2 -2,-2 -3,-3 -1,-1 -2,-2 -2,-3 -2,-1 -2,-2 -3,-3 -1,-1 -2,-2 -3,-3 -1,-1 -2,-2 -2,-2 -2,-2 -2,-2 -3,-3 11,1 22,1 33,3 0,-4 0,-8 0,-12 13,0 25,0 39,0 18,-75 101,-18 125,-99 0,1 1,1 2,3 9,0 19,0 28,0 1,-2 1,-2 3,-3 1,1 3,3 5,5 1,1 2,2 3,3 0,3 0,6 0,8 4,-1 7,-2 11,-2 1,-2 2,-2 3,-3 8,8 8,8 22,11 1,1 1,2 3,3 1,6 3,13 5,19 29,-2 52,-2 78,11 0,4 0,7 0,11 20,-2 40,-4 61,-5 0,3 0,7 0,11 3,-1 7,-2 11,-3 1,-1 1,-2 3,-3 15,-10 15,-10 19,-22 6,0 13,0 19,0 1,1 2,2 3,3 4,1 7,1 11,3 0,-3 0,-6 0,-9 1,-1 2,-2 3,-3 3,-5 6,-11 8,-16 6,0 11,0 17,0 1,4 1,7 3,11 0,1 1,2 2,3 4,1 8,2 12,2 2,-9 5,-18 8,-27 1,1 2,1 3,3 1,0 3,0 5,0 1,-2 2,-2 3,-3 5,-22 11,-28 14,-44 5,0 11,0 16,0 2,-8 4,-16 6,-23 4,0 7,0 11,0 0,-3 0,-7 0,-10 7,0 15,0 22,0 1,-6 3,-11 4,-16 4,1 9,3 13,4 1,4 1,8 3,12 0,0 1,1 2,2 1,1 2,2 3,3 1,0 2,1 3,2 0,5 0,10 0,14 16,0 33,0 50,0 0,-2 0,-5 0,-8 1,-1 2,-2 3,-3 1,0 3,0 5,0 1,1 2,2 3,3 5,1 11,2 16,3 0,8 0,17 0,25 -1,1 -2,2 -2,3 -3,4 -6,9 -9,13 -1,1 -2,2 -3,3 -1,1 -2,2 -2,3 -1,1 -2,2 -3,3 -1,1 -2,1 -3,3 -1,0 -1,1 -2,2 -1,1 -2,2 -3,3 -1,1 -2,2 -3,3 -1,3 -2,7 -3,11 6,-1 11,-2 17,-3 0,-1 1,-2 2,-3 10,2 21,4 31,6 2,-5 4,-10 6,-14 1,-1 1,-2 3,-3 4,-2 8,-4 13,-5 0,-3 0,-6 0,-9 1,-1 2,-2 3,-2 3,16 3,16 8,16 0,7 0,15 0,23 -2,3 -4,7 -5,10 -2,0 -4,0 -6,0 0,8 0,15 0,23 2,0 4,0 6,0 0,5 0,11 0,17 -2,5 -4,10 -6,16 -2,1 -4,3 -5,5 -2,4 -4,8 -6,12 -4,3 -7,7 -11,11 -2,1 -4,3 -5,5 -4,2 -8,4 -12,6 -2,2 -4,3 -5,5 -2,0 -4,0 -6,0 2,13 4,26 6,39 -2,0 -4,0 -6,0 0,7 0,15 0,22 7,0 15,0 23,0 0,4 0,7 0,11 3,0 7,0 11,0 0,4 0,8 0,12 5,0 11,0 16,0 2,1 4,3 6,5 3,4 7,7 11,11 1,1 3,3 5,5 6,6 11,12 17,17 3,2 7,4 11,6 4,1 7,3 11,5 2,2 4,4 6,6 1,2 3,4 5,6 2,3 4,7 6,10 -2,9 -4,19 -6,28 4,0 8,0 12,0 0,4 0,7 0,11 -2,4 -4,8 -6,11 -6,2 -11,4 -17,6 0,9 0,18 0,28 2,0 4,0 6,0 1,3 3,7 5,10 2,10 4,19 6,28 16,8 27,11 33,28 -6,0 -6,0 -6,11 2,0 4,0 6,0 0,4 0,7 0,11 -2,0 -4,0 -6,0 0,7 0,15 0,22 2,0 4,0 6,0 4,2 7,4 11,6 2,1 4,3 6,5 -2,8 -4,15 -6,23 -2,0 -4,0 -5,0 0,16 0,33 0,50 -4,0 -8,0 -12,0 -2,5 -4,10 -5,16 -3,1 -5,2 -7,4 0,6 0,13 0,19 4,2 8,3 12,5 4,11 8,22 12,33 0,6 0,6 11,6 0,3 0,7 0,11 3,0 7,0 11,0 0,10 0,22 0,33 -4,3 -8,5 -11,8 -1,1 -2,2 -3,3 -7,2 -13,4 -20,6 0,-4 0,-8 0,-12 -7,0 -14,0 -21,0 0,4 0,8 0,12 -18,5 -36,11 -53,16 -1,-1 -2,-2 -3,-2 -47,2 -47,2 -50,5 -1,1 -2,2 -3,2 -1,4 -2,8 -2,12 -4,0 -8,1 -12,2 -1,1 -2,2 -2,3 0,2 0,4 0,6 0,1 1,1 2,3 0,6 0,12 0,19 -4,0 -7,0 -11,0 0,4 0,7 0,11 -7,1 -14,2 -22,3 -1,1 -2,1 -2,3 -2,0 -4,0 -6,0 -1,-2 -2,-2 -3,-3 -22,5 -22,5 -78,5 0,1 -1,2 -2,3 -1,-4 -2,-7 -3,-11 -10,-4 -21,-7 -31,-11z"
             id="path15160" /><!-- Brandenburg --><path
             class="fil4 str0"
             d="M1990 1134c-2,-1 -2,-2 -3,-3 0,-3 0,-5 0,-8 -3,0 -6,0 -9,0 -1,-1 -2,-2 -2,-3 -2,0 -4,0 -6,0 -1,1 -2,2 -3,3 -5,0 -9,0 -14,0 0,-4 0,-7 0,-11 -7,3 -15,6 -22,8 -1,1 -2,2 -2,3 -3,1 -6,2 -9,3 -1,1 -2,2 -3,2 -1,0 -2,-1 -2,-2 -2,-1 -2,-2 -3,-3 -1,-1 -2,-2 -3,-3 4,-1 7,-2 11,-2 -1,-4 -2,-8 -3,-11 -1,-2 -2,-2 -2,-3 0,-2 0,-4 0,-6 0,-1 1,-2 2,-3 1,-1 2,-2 3,-2 1,-2 2,-2 3,-3 1,-12 2,-24 3,-36 1,-1 1,-2 3,-3 2,0 5,0 8,0 0,-5 0,-10 0,-14 1,-1 1,-2 3,-3 4,0 8,0 13,0 0,-10 0,-10 6,-10 0,3 0,7 0,10 17,-2 34,-19 50,-8 -2,1 -2,2 -3,3 -1,5 -2,11 -3,16 3,0 6,0 8,0 1,1 2,2 3,3 4,1 7,2 11,3 0,4 0,7 0,11 5,2 10,4 14,6 1,1 2,1 3,3 0,8 0,16 0,24 9,2 19,4 28,6 -2,6 -4,13 -6,19 -1,1 -2,2 -3,3 -2,3 -4,6 -7,9 -7,-6 -7,-6 -26,-9 -1,-1 -2,-2 -3,-3 -4,0 -7,0 -11,0 -1,1 -2,2 -3,3 -1,-4 -2,-7 -2,-11 -4,1 -8,2 -11,3 -1,1 -2,1 -3,3 -2,5 -4,10 -5,16z"
             id="path15162" /><!-- Berlin --><path
             class="fil9 str0"
             d="M848 879c-1,-1 -2,-1 -3,-2 2,0 4,0 6,0 -1,1 -2,1 -3,2z"
             id="path15164" /><path
             class="fil1 str0"
             d="M1175 730c-1,-1 -2,-2 -3,-3 -5,-3 -9,-5 -14,-8 -1,-1 -2,-2 -3,-3 0,-5 0,-10 0,-14 -16,3 -16,3 -35,17 -2,-1 -2,-2 -3,-3 -3,-3 -6,-6 -9,-8 -1,-2 -2,-2 -2,-3 -2,0 -4,0 -6,0 -1,1 -2,1 -2,3 -2,1 -4,3 -6,5 -1,-1 -2,-2 -3,-3 -8,-19 -8,-28 -5,-49 0,-2 1,-2 2,-3 1,-1 2,-2 3,-3 1,-1 2,-2 3,-3 1,-1 2,-2 3,-3 1,-1 1,-2 3,-2 12,-13 13,-14 30,-17 0,-3 0,-6 0,-8 1,-1 2,-2 3,-3 14,-3 14,-3 33,-17 1,1 1,2 3,3 -2,1 -2,2 -3,3 0,11 0,11 14,30 -1,1 -2,2 -3,3 -3,4 -6,9 -8,14 -2,1 -2,2 -3,3 1,9 1,18 3,27 5,0 11,0 16,0 1,4 2,7 3,11 1,1 2,2 3,3 4,6 7,11 11,17 -1,1 -2,2 -3,3 -2,0 -5,0 -8,0 0,3 0,5 0,8 -1,1 -2,2 -3,3 -4,0 -7,0 -11,0z"
             id="path15166" /><!-- Hamburg --><g
             id="g15168"><path
               class="fil4 str0"
               d="M1441 835c-1,-1 -2,-2 -3,-3 -3,-1 -5,-2 -8,-3 -1,-1 -2,-1 -3,-2 0,-5 0,-10 0,-14 -10,-6 -20,-11 -30,-17 -1,-1 -2,-2 -3,-3 -6,-14 -11,-28 -17,-41 -5,0 -9,0 -14,0 -1,-1 -2,-2 -3,-3 -4,-1 -7,-2 -11,-3 -1,4 -2,8 -4,13 -5,1 -10,2 -15,4 -1,-1 -2,-2 -3,-3 -4,-3 -9,-5 -14,-8 -1,-1 -2,-2 -2,-3 0,-3 0,-5 0,-8 -8,0 -15,0 -22,0 -2,-7 -4,-13 -6,-19 1,-2 2,-2 3,-3 1,-4 1,-8 3,-11 3,-2 7,-2 10,-3 1,-1 2,-2 3,-3 7,-2 13,-4 20,-6 0,-4 0,-7 0,-11 3,0 7,0 11,0 0,-7 0,-14 0,-22 7,-1 14,-2 22,-2 1,-2 1,-2 3,-3 -2,-5 -2,-10 -3,-14 1,-1 1,-2 3,-3 0,-3 1,-6 2,-8 1,-2 2,-2 3,-3 0,-26 -9,-24 -30,-28 0,-5 0,-11 0,-16 -4,0 -8,0 -11,0 -2,-16 -4,-32 -6,-48 1,-1 2,-2 3,-2 20,-9 20,-9 47,-11 0,-4 0,-8 0,-11 -6,-1 -11,-2 -17,-3 4,-5 7,-10 11,-14 4,-4 8,-8 12,-11 3,-2 7,-4 11,-6 9,-2 18,-3 27,-5 4,0 19,17 23,22 -6,0 -6,0 -6,11 4,0 7,0 11,0 2,0 4,0 6,0 9,2 18,4 27,6 2,1 4,3 6,5 0,6 0,6 11,6 1,-10 1,-20 1,-30 4,-1 7,-2 10,-4 0,-5 0,-11 0,-16 15,-4 16,-14 22,-28 2,0 4,0 6,0 -2,-5 -4,-11 -6,-17 2,-3 4,-7 6,-10 22,-2 44,-4 66,-6 13,-2 26,-4 39,-6 2,11 4,22 6,34 5,0 10,0 16,0 0,-6 0,-6 -11,-6 0,-13 0,-26 0,-39 2,-2 3,-4 5,-5 2,-4 4,-8 6,-11 2,-2 4,-4 6,-6 3,-2 7,-4 11,-5 1,-2 3,-4 5,-6 4,-2 8,-4 12,-5 1,-2 3,-4 5,-6 1,0 2,0 3,0 1,1 2,2 2,3 2,5 3,10 4,15 6,1 12,3 19,4 -2,-4 -4,-7 -6,-11 0,-4 0,-7 0,-11 6,0 11,0 17,0 0,-11 0,-11 -6,-11 0,-2 0,-4 0,-6 9,-2 19,-4 28,-5 0,-4 0,-8 0,-11 16,0 33,0 50,0 0,3 0,7 0,11 5,0 11,0 16,0 2,-8 4,-15 6,-22 11,-9 11,-9 28,-11 1,4 2,8 4,12 3,1 8,3 12,4 3,28 3,28 11,39 2,2 4,4 6,6 16,8 16,8 39,11 1,5 1,11 3,16 6,4 12,7 19,11 5,7 11,15 16,23 0,5 0,5 12,5 0,-4 0,-7 0,-11 10,-4 22,-8 33,-11 4,-4 8,-7 12,-10 3,3 6,6 10,10 12,9 12,9 19,27 1,1 2,2 3,3 0,5 0,9 0,14 -2,2 -4,4 -6,6 0,1 0,3 0,5 6,4 12,7 17,11 11,26 -1,30 -5,56 3,0 7,0 11,0 6,22 24,24 44,27 1,2 2,5 4,7 13,0 27,-1 40,-1 4,-2 7,-4 11,-6 -2,6 -4,12 -5,17 -6,0 -6,0 -6,11 4,0 7,0 11,0 4,9 8,18 12,28 1,11 3,22 5,33 2,4 4,7 6,11 5,17 11,33 16,50 0,8 0,17 0,25 -1,1 -2,2 -3,3 -4,1 -9,3 -13,5 0,3 0,6 0,9 -1,0 -2,1 -3,2 -3,0 -6,0 -8,0 0,4 0,7 0,11 -10,-1 -19,-2 -28,-2 -1,0 -2,1 -3,2 -3,-1 -6,-2 -8,-2 1,-2 2,-2 3,-3 1,-1 1,-2 2,-3 1,-1 2,-2 3,-3 1,-1 2,-2 3,-2 0,-2 1,-2 2,-3 1,-1 2,-2 3,-3 1,-1 2,-2 3,-3 3,-5 6,-9 8,-13 1,-2 2,-2 3,-3 1,-11 2,-23 3,-34 -7,0 -13,0 -20,0 -1,-1 -2,-2 -2,-3 -4,0 -7,0 -11,0 -1,1 -2,2 -3,3 -13,1 -25,3 -38,4 -2,-3 -4,-6 -6,-9 -1,-1 -2,-2 -3,-3 -1,-1 -2,-2 -3,-2 -1,-2 -2,-2 -3,-3 0,-5 0,-10 0,-14 -9,-2 -18,-4 -27,-6 0,6 0,11 0,17 -8,0 -15,0 -22,0 0,4 0,7 0,11 -4,0 -8,0 -12,0 -2,7 -4,14 -5,22 -6,0 -11,0 -17,0 -3,17 -8,22 -11,47 -1,1 -2,2 -2,3 -2,-1 -2,-2 -3,-3 -4,-1 -8,-2 -11,-3 -3,9 -6,19 -9,28 -1,-1 -2,-2 -3,-3 0,-4 0,-9 0,-14 -9,0 -18,0 -27,0 -2,7 -4,13 -6,20 -1,1 -2,2 -2,2 -2,2 -4,4 -6,6 -1,-1 -2,-2 -3,-3 0,-3 0,-5 0,-8 -27,5 -29,7 -44,31 -1,0 -2,1 -3,2 -1,-4 -2,-7 -3,-11 -20,2 -40,4 -61,6 0,-4 0,-8 0,-11 -23,-12 -51,-17 -77,-12 -3,-5 -6,-11 -9,-16 -1,-1 -2,-2 -2,-3 -17,-11 -17,-11 -28,-11 -1,1 -2,2 -3,3 -2,-2 -4,-4 -5,-6 -1,-1 -2,-2 -3,-2 0,-3 0,-6 0,-9 -4,1 -8,2 -11,3 -1,1 -2,2 -3,3 -8,0 -15,0 -22,0 -1,-1 -2,-2 -3,-3 -4,-1 -7,-2 -11,-3 -2,9 -4,18 -5,28 -53,29 -103,16 -117,72 -13,0 -26,0 -39,0 -1,3 -3,6 -4,9 -9,-3 -18,-6 -26,-9z"
               id="path15170" /><!-- Mecklenburg- Vorpommern --><!-- Usedom? (zu Mecklenburg- Vorpommern) --><!-- Insel (zu Mecklenburg- Vorpommern) --><!-- Rügen (zu Mecklenburg- Vorpommern) --><!-- Darß (zu Mecklenburg- Vorpommern) --><!-- Jasmund? (zu Mecklenburg- Vorpommern) --><!-- Insel (zu Mecklenburg- Vorpommern) --></g><g
             id="g15184"><path
               class="fil2 str0"
               d="M1269 746c-1,-1 -2,-2 -3,-2 -10,-5 -20,-10 -30,-14 -1,-1 -2,-2 -3,-3 -3,-1 -5,-2 -8,-3 -1,-1 -2,-2 -3,-2 -13,-8 -21,-22 -30,-26 -1,-1 -2,-2 -3,-2 0,-5 0,-10 0,-14 -6,0 -11,0 -17,0 -2,-7 -4,-13 -5,-19 0,-2 1,-2 2,-3 3,0 6,0 9,0 0,-5 0,-10 0,-14 1,-1 1,-2 3,-3 0,-11 0,-11 -14,-30 0,-2 1,-2 2,-3 3,0 6,0 9,0 0,-6 0,-11 0,-17 -21,7 -32,12 -50,25 -1,1 -2,2 -3,3 -17,6 -21,10 -30,25 -1,1 -2,1 -3,3 -1,0 -2,1 -3,2 -1,1 -2,2 -3,3 -1,1 -2,2 -2,3 -2,1 -2,2 -3,3 -13,10 -20,7 -36,5 0,-5 0,-11 0,-16 -6,-2 -11,-4 -17,-6 -2,-2 -4,-4 -5,-6 -4,-14 -8,-29 -12,-44 -5,0 -11,0 -16,0 -4,-7 -7,-15 -11,-22 -2,-5 -4,-11 -6,-17 -2,-2 -4,-4 -5,-5 -4,-2 -8,-4 -11,-6 -4,-4 -7,-9 -10,-12 -16,-2 -31,-3 -46,-4 0,-2 0,-4 0,-6 -9,2 -18,4 -27,6 -2,-2 -4,-4 -6,-6 -4,-7 -8,-15 -11,-22 -2,-4 -4,-8 -6,-11 -2,-8 -4,-15 -5,-22 3,0 7,0 11,0 0,1 0,3 0,5 7,0 15,0 22,0 -4,-11 -7,-22 -11,-33 0,-4 0,-7 0,-11 -9,0 -18,0 -28,0 2,-17 4,-33 6,-50 7,0 14,0 22,0 2,-7 4,-15 6,-22 -24,10 -42,7 -67,6 -2,3 -4,7 -6,11 -2,-2 -4,-4 -5,-6 -2,-4 -4,-7 -5,-11 0,-4 0,-8 0,-11 3,0 7,0 10,0 0,-6 0,-11 0,-17 -10,0 -10,0 -10,-5 20,-2 40,-4 60,-6 11,-2 11,-2 17,-11 4,-4 7,-7 11,-11 7,-4 7,-4 9,-22 -7,-8 -14,-15 -20,-22 -2,-2 -4,-4 -6,-6 -2,-5 -4,-11 -5,-16 -4,-4 -8,-8 -11,-11 0,-4 0,-8 0,-12 -6,0 -11,0 -17,0 -2,-7 -4,-15 -5,-22 -4,-8 -8,-15 -11,-22 -4,-7 -8,-15 -12,-22 -2,-2 -4,-4 -5,-6 0,-7 0,-15 0,-22 7,-2 15,-4 22,-5 24,3 48,7 72,11 11,1 22,3 33,5 2,2 4,4 6,6 5,5 11,11 16,16 6,2 12,4 17,6 0,6 0,6 11,6 0,-4 0,-8 0,-12 4,-2 8,-4 11,-5 0,3 0,7 0,11 11,0 11,0 11,-6 6,0 11,0 17,0 0,-4 0,-7 0,-11 6,2 11,4 17,6 7,1 14,3 22,5 3,6 22,23 28,23 1,1 3,3 5,5 0,6 0,6 11,6 0,-4 0,-8 0,-11 6,-2 11,-4 17,-6 1,4 3,7 5,11 2,5 4,11 6,17 0,1 0,3 0,5 -4,0 -8,0 -11,0 -13,33 -45,43 -56,72 24,-17 49,-27 56,-55 5,0 11,0 17,0 -2,20 -4,41 -6,61 -4,2 -8,4 -11,6 -9,1 -19,3 -28,5 0,5 0,11 0,17 26,-4 52,-8 78,-12 1,2 3,4 5,6 0,4 0,7 0,11 0,2 0,4 0,6 -8,16 -8,16 -11,44 4,-2 8,-3 12,-4 4,-12 7,-24 10,-35 17,-2 17,-2 22,-11 4,0 7,0 11,0 6,4 12,7 17,11 11,9 11,9 28,11 11,10 22,20 33,31 7,-1 15,-2 22,-3 4,-2 7,-4 11,-6 4,-4 8,-7 12,-11 17,-9 25,-8 44,-5 0,9 0,18 0,28 1,0 3,0 5,0 -2,16 -4,33 -5,49 -4,0 -8,0 -11,0 0,4 0,8 0,12 -17,2 -17,2 -23,10 -2,4 -3,8 -5,12 -4,0 -7,0 -11,0 0,-6 0,-6 -11,-6 0,4 0,7 0,11 -5,3 -9,7 -13,10 0,4 1,8 2,12 1,2 3,4 5,6 0,4 0,7 0,11 7,0 15,0 23,0 -2,13 -4,26 -6,39 -6,2 -11,5 -17,8 -1,1 -2,1 -3,3 1,18 2,36 3,55 4,0 7,0 11,0 0,6 0,11 0,17 8,1 15,1 22,3 4,5 7,11 11,16 -1,1 -2,2 -2,3 -2,3 -2,5 -3,8 -1,1 -2,2 -3,3 1,4 2,9 3,14 -1,1 -2,2 -3,3 -8,0 -17,0 -25,0 0,7 0,14 0,22 -4,0 -7,0 -11,0 0,3 0,7 0,11 -5,3 -11,5 -17,8 0,1 -1,2 -2,3 -5,0 -10,0 -14,0 0,4 0,9 0,14 -1,1 -2,2 -3,3 1,7 2,14 3,22 -5,1 -9,3 -14,5z"
               id="path15186" /><!-- Schleswig-Holstein --><!-- Fehmarn --><!-- Insel zu Schleswig-Holstein --><!-- Insel zu Schleswig-Holstein --><!-- zu kleine Insel zu Schleswig-Holstein --><!-- Insel zu Schleswig-Holstein --><!-- zu kleine Insel zu Schleswig-Holstein --><!-- Föhr (zu Schleswig-Holstein) --><!-- Sylt (zu Schleswig-Holstein) --><!-- Insel zu Schleswig-Holstein --></g></g><path
           class="fil5 str0"
           d="M859 890c-1,-1 -2,-2 -3,-2 -1,-3 -2,-6 -3,-9 -1,-1 -2,-1 -2,-2 -2,0 -4,0 -6,0 -1,1 -2,1 -2,2 -4,0 -8,0 -11,0 -2,-1 -2,-1 -3,-2 -5,0 -9,0 -13,1 -2,-7 -3,-14 -4,-21 -4,0 -8,0 -11,0 -1,-4 -2,-7 -3,-11 -1,-1 -2,-2 -2,-3 -2,-3 -2,-5 -3,-8 -1,-1 -2,-2 -3,-3 -1,-3 -2,-6 -3,-8 -1,-1 -2,-2 -3,-3 19,3 37,5 56,8 0,4 0,7 0,11 7,-1 14,-2 22,-2 1,-2 1,-2 3,-3 1,1 3,3 5,5 1,1 2,2 3,3 0,12 0,24 0,36 -4,0 -8,0 -11,0 0,3 0,6 0,9 -1,0 -2,1 -3,2z"
           id="path15206" /><!-- Bremen --></g><path
         class="fil4 str0"
         d="M1155 1902c-1,0 -2,1 -2,2 -3,-7 -6,-15 -8,-22 3,0 7,0 10,0 -2,-8 -5,-15 -8,-22 -1,-1 -2,-2 -2,-3 -6,0 -11,0 -17,0 -1,1 -2,2 -3,3 -3,0 -5,0 -8,0 -2,5 -3,10 -5,15 -4,-1 -8,-3 -12,-4 2,-5 4,-9 6,-14 0,-1 1,-2 2,-3 1,-4 2,-9 3,-14 1,-1 2,-1 3,-2 1,-11 2,-21 3,-31 1,-1 1,-2 3,-2 0,-4 1,-8 2,-12 6,0 12,0 17,0 2,-13 4,-25 6,-38 -6,0 -11,0 -17,0 0,-2 0,-4 0,-6 6,0 11,0 17,0 -2,-9 -4,-18 -6,-27 6,0 13,0 19,0 1,0 2,1 3,2 7,1 15,2 22,3 0,-9 0,-19 0,-28 -5,-1 -10,-3 -15,-4 16,-20 18,-25 18,-51 -1,-1 -2,-2 -3,-3 -1,-1 -2,-2 -2,-3 -2,-1 -2,-2 -3,-3 -21,-13 -34,-30 -56,-35 -2,-8 -5,-16 -8,-23 -1,-1 -2,-1 -3,-2 2,-2 4,-4 6,-6 1,-1 1,-2 3,-3 4,-2 9,-4 14,-5 0,-4 0,-8 0,-11 6,-2 12,-4 19,-6 0,1 1,2 2,3 4,1 8,2 12,3 0,-4 0,-8 0,-11 3,0 7,0 11,0 0,-4 0,-8 0,-12 11,-2 22,-3 33,-5 0,-4 0,-7 0,-11 3,0 7,0 11,0 0,-3 0,-6 0,-8 1,-2 2,-2 3,-3 2,-5 4,-9 7,-13 24,-2 41,9 63,-3 2,-7 3,-13 4,-20 1,-1 2,-2 3,-3 17,2 33,4 50,6 1,1 2,1 3,3 3,7 5,16 8,24 1,1 2,2 3,3 1,4 2,9 3,14 1,1 1,2 3,3 1,10 3,20 5,30 25,5 44,8 70,6 0,0 1,1 2,2 11,3 22,6 34,9 1,7 3,14 5,22 3,0 6,0 9,0 0,1 1,1 2,3 1,5 3,11 5,16 -1,1 -2,2 -2,3 -2,1 -2,2 -3,3 -1,1 -2,2 -2,3 -5,1 -10,3 -14,5 0,6 0,11 0,17 4,0 9,0 14,0 0,0 1,1 2,2 8,17 8,17 8,37 1,1 2,1 3,3 28,-1 28,-1 57,6 1,4 3,8 4,13 18,1 35,3 53,5 1,1 1,2 3,3 3,1 7,2 11,3 3,9 7,18 10,27 18,-2 36,-4 53,-5 1,1 2,1 3,3 4,-1 8,-2 12,-2 1,-5 3,-10 5,-15 0,-1 1,-2 2,-3 -1,-11 -2,-22 -2,-33 4,-2 8,-3 12,-4 1,3 3,6 4,10 12,1 23,2 35,4 2,4 5,8 7,12 1,1 2,2 3,3 1,4 3,9 5,14 7,0 15,0 22,0 1,8 3,15 4,23 -4,3 -8,7 -12,10 -1,-1 -2,-2 -3,-3 -6,-1 -11,-2 -16,-2 0,3 0,7 0,11 -4,0 -8,0 -11,0 -7,21 -37,25 -56,33 0,5 0,11 0,17 4,0 7,1 11,2 -1,1 -2,2 -3,3 -4,0 -9,0 -13,0 2,18 9,26 20,40 -15,13 -15,13 -37,18 -1,1 -2,2 -3,3 1,4 1,8 2,12 -8,1 -14,3 -21,5 0,11 0,11 -6,11 -1,-8 -2,-15 -3,-23 -1,0 -2,-1 -2,-2 -6,2 -12,3 -17,5 -1,1 -2,2 -2,3 -3,6 -6,11 -9,17 -4,1 -7,1 -11,3 -1,0 -2,1 -3,2 0,4 0,8 0,11 1,1 2,2 3,3 4,-1 8,-1 12,-1 4,4 7,8 10,12 -1,1 -2,2 -2,3 -5,1 -10,3 -14,5 0,7 0,13 0,20 -2,1 -2,2 -3,3 -4,1 -7,2 -10,4 -2,-3 -3,-7 -4,-10 -75,14 -75,14 -89,11 0,-4 0,-7 0,-11 -5,-2 -9,-4 -14,-5 -1,-2 -2,-2 -3,-3 0,-11 0,-21 0,-31 -11,2 -22,4 -33,6 0,4 0,7 0,11 -5,0 -11,0 -16,0 3,17 7,35 11,53 -1,0 -2,1 -3,2 -2,11 -4,23 -6,34 -1,-1 -2,-2 -2,-3 -2,-1 -2,-2 -3,-3 -1,-1 -2,-2 -3,-3 -2,0 -4,0 -5,0 -1,1 -2,2 -3,3 -4,-11 -8,-22 -11,-33 -1,-1 -2,-2 -3,-3 -4,-1 -7,-2 -11,-3 0,3 0,6 0,9 -1,0 -2,1 -3,2 -15,-5 -29,-11 -44,-16 -1,-1 -2,-2 -3,-3 -28,0 -44,12 -50,36 3,0 6,0 9,0 0,1 1,2 2,3 0,3 0,5 0,8 7,2 13,4 20,6 1,1 2,1 2,3 0,2 0,5 0,8 -11,0 -22,0 -33,0 -1,3 -2,7 -3,11 -1,-1 -2,-2 -2,-3 -5,0 -9,1 -13,1 -7,-9 -7,-9 -9,-48 -20,-9 -23,-9 -34,-28 -5,0 -11,0 -16,0 0,-4 0,-7 0,-11 -4,0 -8,0 -11,0 -2,-7 -4,-15 -6,-22 -16,-8 -28,-11 -33,-28 -6,2 -12,3 -18,4 -2,-3 -3,-6 -4,-9 -4,1 -8,1 -12,3z"
         id="path15208" /><!-- Thüringen --><path
         class="fil5 str0"
         d="M1732 2032c-2,-8 -4,-15 -6,-22 -4,0 -7,0 -11,0 -1,-5 -3,-9 -4,-13 -27,-4 -48,-3 -57,-32 -4,0 -7,0 -11,0 0,-4 0,-7 0,-11 -4,0 -7,0 -11,0 0,-4 0,-7 0,-11 4,0 7,0 11,0 0,-3 0,-6 0,-8 1,-2 2,-2 3,-3 -1,-8 -2,-15 -3,-22 -6,2 -13,3 -19,5 -1,-1 -2,-2 -3,-2 0,-2 0,-4 0,-6 1,-1 2,-2 3,-3 5,-1 10,-3 15,-4 1,-5 3,-10 4,-15 1,-1 2,-2 3,-3 4,-2 7,-4 11,-6 1,1 1,2 3,3 0,9 0,17 0,25 5,0 11,0 16,0 0,-4 0,-7 0,-11 8,0 15,0 22,0 -2,-6 -3,-13 -5,-19 1,-1 2,-2 3,-3 25,-3 25,-3 41,-11 -2,-18 -10,-26 -21,-40 3,-3 7,-5 10,-7 1,-1 2,-2 3,-3 1,-4 2,-7 3,-11 -11,0 -11,0 -11,-6 16,-7 34,-14 51,-20 1,-5 3,-9 4,-13 4,0 7,0 11,0 0,-4 0,-7 0,-11 3,0 6,0 9,0 0,1 1,2 2,3 7,-1 15,-2 22,-3 -2,-13 -4,-26 -5,-39 -8,0 -15,0 -22,0 0,-4 0,-7 0,-11 -3,0 -6,0 -8,0 -2,-1 -2,-2 -3,-3 -2,-5 -3,-10 -5,-15 -11,-2 -23,-3 -34,-4 0,-4 0,-7 0,-11 -11,0 -22,0 -33,0 0,-4 0,-7 0,-11 -4,-1 -8,-2 -12,-3 1,-1 2,-2 3,-3 -2,-14 -3,-29 -5,-44 -1,-1 -2,-2 -3,-3 -1,-5 -3,-10 -4,-15 3,-2 6,-3 9,-4 0,-17 0,-34 0,-50 -3,0 -7,0 -10,0 0,-3 0,-6 0,-8 0,-1 1,-2 2,-3 11,-27 11,-33 36,-42 1,-1 2,-2 3,-3 8,-2 16,-5 25,-7 1,-2 1,-2 3,-3 17,-5 35,-10 52,-14 1,-1 2,-2 3,-3 1,-1 2,-2 3,-3 1,-1 1,-2 3,-3 8,-1 16,-2 25,-2 1,-2 1,-2 3,-3 2,0 5,0 8,0 0,-3 0,-6 0,-9 0,-1 1,-2 2,-2 1,3 2,7 3,11 11,-1 22,-2 34,-3 0,-1 1,-2 2,-3 2,0 4,0 6,0 0,1 1,2 2,3 3,3 6,6 9,8 1,1 1,2 3,3 15,11 17,13 22,30 3,0 7,0 11,0 1,5 3,10 5,14 -1,1 -2,2 -3,3 0,13 0,26 0,39 1,1 2,2 3,3 0,3 0,5 0,8 9,-3 19,-5 28,-8 1,-1 2,-2 3,-3 7,-4 14,-7 22,-11 1,1 1,2 3,3 9,4 18,9 28,14 0,3 0,7 0,11 3,-1 7,-2 10,-3 1,-1 2,-2 3,-3 26,1 50,7 72,-5 1,0 2,1 3,2 4,0 7,0 11,0 1,-1 2,-2 3,-2 8,0 16,0 25,0 0,-4 0,-8 0,-12 3,0 7,0 11,0 -1,-9 -2,-18 -3,-27 -1,-1 -2,-2 -3,-3 1,-1 2,-2 3,-3 5,0 9,0 14,0 0,-5 0,-9 0,-14 1,-1 2,-2 3,-3 15,-1 30,-3 44,-5 1,1 2,2 3,3 16,0 39,-11 61,-14 0,-4 0,-7 0,-11 3,0 7,0 11,0 0,4 0,7 0,11 9,0 18,0 28,0 0,-3 0,-5 0,-8 1,-1 1,-2 3,-3 2,6 4,12 6,18 10,3 20,6 29,9 0,2 0,4 0,6 10,0 19,0 28,0 4,22 7,44 11,67 4,0 7,0 11,0 3,27 3,27 -5,72 1,0 3,0 5,0 0,1 0,3 0,5 -8,17 -8,17 -11,39 -8,11 -8,11 -17,44 -2,4 -3,8 -5,12 -4,0 -7,0 -11,0 -1,9 -2,18 -3,27 -3,2 -5,4 -8,6 -2,-3 -3,-5 -4,-7 -10,-2 -20,-3 -29,-4 1,-12 3,-23 5,-34 -11,0 -11,0 -11,6 -4,0 -7,0 -11,0 8,-11 8,-11 11,-28 -4,0 -7,0 -11,0 0,-4 0,-7 0,-11 -8,0 -15,0 -22,0 0,-4 0,-7 0,-11 -6,0 -11,0 -17,0 0,4 0,7 0,11 -4,0 -7,0 -11,0 0,-4 0,-7 0,-11 -11,0 -22,0 -33,0 0,11 0,22 0,33 11,6 22,11 33,17 0,4 0,7 0,11 -37,4 -31,8 -55,28 -17,3 -22,8 -56,11 0,3 0,7 0,11 -11,0 -11,0 -11,5 -5,0 -5,0 -5,11 2,0 3,0 5,0 -7,4 -15,8 -22,12 0,-2 0,-4 0,-6 -5,0 -11,0 -17,0 0,2 0,4 0,6 -2,1 -4,3 -5,5 -4,0 -7,0 -11,0 -11,-3 -11,-3 -39,6 -3,11 -6,23 -10,34 -6,1 -12,3 -18,4 -7,0 -15,0 -22,0 -1,5 -3,10 -4,16 -7,0 -13,0 -19,0 -4,11 -7,23 -10,34 -9,-2 -18,-4 -28,-5 0,3 0,7 0,11 -5,0 -11,0 -16,0 -2,9 -4,18 -6,27 -9,2 -18,4 -27,6 -2,-2 -4,-4 -6,-6 -10,-1 -19,-2 -28,-2 -2,2 -4,5 -5,8 -2,2 -4,4 -6,6 -4,1 -7,3 -11,5 -15,0 -29,0 -44,0 0,4 0,7 0,11 -4,0 -8,0 -11,0 0,4 0,8 0,11 -4,0 -8,0 -11,0 0,4 0,7 0,11 -4,0 -8,0 -12,0 -2,17 -8,23 -19,56 -3,-4 -5,-8 -8,-11z"
         id="path15210" /><!-- Sachsen --></g></g></svg>