<?xml version="1.0" encoding="UTF-8" standalone="no"?>
<!-- Creator: CorelDRAW -->

<svg
   xmlns:dc="http://purl.org/dc/elements/1.1/"
   xmlns:cc="http://creativecommons.org/ns#"
   xmlns:rdf="http://www.w3.org/1999/02/22-rdf-syntax-ns#"
   xmlns:svg="http://www.w3.org/2000/svg"
   xmlns="http://www.w3.org/2000/svg"
   xmlns:sodipodi="http://sodipodi.sourceforge.net/DTD/sodipodi-0.dtd"
   xmlns:inkscape="http://www.inkscape.org/namespaces/inkscape"
   xml:space="preserve"
   width="2480px"
   height="3325px"
   style="shape-rendering:geometricPrecision; text-rendering:geometricPrecision; image-rendering:optimizeQuality; fill-rule:evenodd"
   viewBox="0 0 2480 3324"
   id="svg15099"
   version="1.1"
   inkscape:version="0.91 r13725"
   sodipodi:docname="germany.svg"><sodipodi:namedview
     pagecolor="#ffffff"
     bordercolor="#666666"
     borderopacity="1"
     objecttolerance="10"
     gridtolerance="10"
     guidetolerance="10"
     inkscape:pageopacity="0"
     inkscape:pageshadow="2"
     inkscape:window-width="1280"
     inkscape:window-height="657"
     id="namedview15212"
     showgrid="false"
     inkscape:zoom="0.28284271"
     inkscape:cx="1369.5987"
     inkscape:cy="2580.3274"
     inkscape:window-x="-8"
     inkscape:window-y="-8"
     inkscape:window-maximized="1"
     inkscape:current-layer="layer9" /><metadata
     id="metadata15214"><rdf:RDF><cc:Work
         rdf:about=""><dc:format>image/svg+xml</dc:format><dc:type
           rdf:resource="http://purl.org/dc/dcmitype/StillImage" /><dc:title></dc:title></cc:Work></rdf:RDF></metadata><defs
     id="defs15101"><style
       type="text/css"
       id="style15103">
   
    .str0 {stroke:#131516;stroke-width:8;stroke-linejoin:round}
    .fil0 {fill:#458B00}<!-- keine Informationen -->
    .fil1 {fill:#008B45}<!-- Betrieb seit 2010 -->
    .fil2 {fill:#00CD66}<!-- Betrieb seit 2011 -->
    .fil3 {fill:#00FF7F}<!-- Betrieb seit 2012 -->
    .fil4 {fill:#FFFF00}<!-- Betrieb 2012/13 geplant -->
    .fil5 {fill:#FF7F24}<!-- Betrieb 2013/14 geplant -->
    .fil6 {fill:#2626CD}<!-- Betrieb je nach Katasteramt  -->
    .fil9 {fill:#FF0000}
   
  </style></defs><g
     inkscape:groupmode="layer"
     id="layer15"
     inkscape:label="nds"><path
       style="shape-rendering:geometricPrecision;text-rendering:geometricPrecision;image-rendering:optimizeQuality;fill-rule:evenodd"
       class="fil2 str0"
       d="M1059.0 1600.0L1056.0 1597.0L1053.0 1594.0L1050.0 1591.0L1017.0 1577.0L1017.0 1564.0L1020.0 1561.0L1034.0 1561.0L1034.0 1552.0L1037.0 1550.0L1037.0 1544.0L1034.0 1541.0L1034.0 1536.0L1037.0 1533.0L1031.0 1511.0L1028.0 1508.0L1034.0 1494.0L1045.0 1494.0L1042.0 1472.0L1039.0 1470.0L1039.0 1461.0L1020.0 1461.0L1017.0 1458.0L1004.0 1460.0L1000.0 1450.0L989.0 1453.0L987.0 1456.0L984.0 1458.0L981.0 1461.0L973.0 1461.0L974.0 1430.5L976.9375 1416.5625L984.0 1403.0L987.0 1400.0L989.0 1367.0L967.0 1361.0L967.0 1345.0L959.0 1345.0L956.0 1342.0L948.625 1332.125L945.0 1317.0L927.0 1321.0L923.0 1314.0L926.0 1312.0L926.0 1300.0L923.0 1298.0L923.0 1267.0L912.0 1264.0L915.0 1262.0L917.0 1251.0L890.0 1248.0L887.0 1251.0L881.0 1245.0L879.0 1242.0L886.375 1226.375L890.0 1201.0L873.0 1192.0L876.0 1189.0L879.0 1173.0L901.0 1168.0L901.0 1159.0L903.0 1156.0L912.0 1120.0L915.0 1118.0L913.0 1105.0L884.0 1101.0L867.0 1131.0L865.0 1134.0L862.0 1137.0L859.0 1140.0L837.0 1145.0L834.0 1142.0L818.0 1142.0L815.0 1145.0L806.0 1120.0L809.0 1118.0L809.0 1107.0L806.0 1104.0L798.0 1090.0L796.0 1087.0L790.0 1087.0L787.0 1090.0L779.0 1093.0L776.0 1095.0L768.0 1098.0L765.0 1101.0L762.0 1098.0L759.0 1095.0L757.0 1093.0L751.0 1093.0L749.0 1095.0L740.0 1115.0L737.0 1118.0L707.0 1118.0L707.0 1145.0L715.0 1145.0L718.0 1148.0L726.0 1151.0L729.0 1154.0L732.0 1156.0L735.0 1159.0L737.0 1168.0L740.0 1170.0L740.0 1209.0L737.0 1212.0L737.0 1223.0L740.0 1226.0L751.0 1231.0L749.0 1234.0L727.0 1243.0L723.0 1256.0L685.0 1245.0L685.0 1256.0L674.0 1256.0L674.0 1270.0L671.0 1273.0L651.0 1276.0L649.0 1278.0L631.25 1276.875L615.0 1284.0L613.0 1281.0L601.0 1278.0L607.0 1264.0L610.0 1262.0L619.0 1257.0L624.0 1228.0L601.0 1223.0L601.0 1215.0L604.0 1212.0L611.875 1181.875L610.0 1151.0L607.0 1148.0L577.0 1145.0L574.0 1142.0L571.0 1140.0L568.0 1137.0L557.0 1134.0L554.0 1118.0L552.0 1115.0L535.75 1105.375L524.0 1104.0L521.0 1107.0L521.0 1123.0L524.0 1126.0L524.0 1131.0L521.0 1134.0L518.0 1145.0L496.0 1148.0L494.0 1151.0L480.0 1156.0L480.0 1168.0L463.0 1168.0L463.0 1178.0L452.0 1181.0L449.0 1184.0L444.0 1189.0L441.0 1187.0L380.0 1189.0L380.0 1173.0L386.0 1168.0L391.0 1151.0L396.25 1149.625L397.0 1140.0L391.0 1140.0L386.0 1128.0L380.0 1118.0L380.0 1101.0L363.0 1101.0L363.0 1112.0L352.0 1112.0L334.0 1103.5L313.0 1101.0L313.0 1090.0L302.0 1090.0L302.0 1068.0L315.0 1063.0L313.0 1051.0L313.0 1029.0L397.0 1034.0L397.0 1007.0L402.0 951.0L407.0 935.0L413.0 929.0L419.0 924.0L424.0 913.0L430.0 901.0L435.0 885.0L441.0 885.0L441.0 863.0L435.0 863.0L435.0 840.0L435.0 835.0L435.0 807.0L447.0 807.0L452.0 752.0L485.0 763.0L485.0 791.0L491.0 791.0L491.0 757.0L468.25 749.625L441.0 746.0L397.0 741.0L397.0 691.0L402.0 675.0L407.0 669.0L413.0 669.0L414.375 674.25L424.0 675.0L424.0 635.0L430.0 630.0L447.0 613.0L452.0 608.0L474.0 602.0L485.0 602.0L557.0 605.0L563.0 597.0L568.0 597.0L646.0 602.0L646.0 608.0L650.0 626.0L661.25 634.625L668.0 641.0L679.0 663.0L679.0 675.0L651.0 680.0L651.0 708.0L679.0 713.0L685.0 719.0L685.0 730.0L707.0 730.0L707.0 719.0L715.5 698.125L718.0 675.0L696.0 675.0L696.0 669.0L701.0 647.0L707.0 641.0L723.0 641.0L727.0 653.0L740.0 658.0L751.0 663.0L768.0 669.0L757.875 688.4375L752.25 709.0L752.25 730.3125L759.0 752.0L765.0 697.875L771.0 685.0L777.875 691.375L790.0 694.0L793.0 691.0L796.625 683.125L798.0 658.0L782.0 647.0L779.0 644.0L776.0 641.0L773.0 638.0L762.0 635.0L757.0 602.0L762.0 591.0L772.25 575.125L790.0 530.0L811.375 538.5L829.0 547.0L829.0 552.0L895.0 552.0L895.0 547.0L956.0 547.0L962.0 552.0L967.0 570.5L978.0 586.0L984.0 597.0L1000.0 613.0L1006.0 619.0L1009.625 638.125L1023.0 652.0L1034.0 658.0L1051.5 670.25L1072.0 675.0L1076.0 695.5L1086.0 713.0L1089.0 716.0L1100.0 719.0L1100.0 710.0L1103.0 708.0L1106.0 710.0L1106.0 719.0L1114.0 719.0L1117.0 722.0L1134.0 722.0L1146.0 709.0L1153.0 719.0L1155.0 722.0L1169.0 730.0L1172.0 732.0L1189.0 732.0L1192.0 730.0L1200.0 722.0L1203.0 719.0L1219.0 724.0L1222.0 727.0L1230.0 730.0L1233.0 732.0L1264.0 746.0L1266.0 749.0L1308.0 752.0L1311.0 755.0L1325.0 763.0L1327.0 766.0L1351.0 764.0L1358.0 752.0L1360.0 755.0L1371.171875 760.984375L1377.375 771.375L1391.0 796.0L1394.0 799.0L1394.0 807.0L1422.0 819.0L1424.0 829.0L1427.0 832.0L1435.0 835.0L1438.0 838.0L1441.0 852.0L1444.0 854.0L1447.0 857.0L1449.0 860.0L1452.0 863.0L1455.0 866.0L1457.0 868.0L1460.0 871.0L1471.0 871.0L1474.0 868.0L1491.0 863.0L1494.0 866.0L1497.0 868.0L1499.0 871.0L1518.0 874.0L1521.0 877.0L1521.0 882.0L1518.0 885.0L1516.0 888.0L1513.0 890.0L1499.0 890.0L1499.0 899.0L1497.0 901.0L1483.0 927.0L1480.0 929.0L1460.0 937.0L1457.0 940.0L1414.125 931.125L1372.0 929.0L1366.0 949.0L1363.0 951.0L1316.0 957.0L1319.0 990.0L1322.0 993.0L1327.0 1018.0L1339.0 1018.0L1341.0 1029.0L1344.0 1032.0L1347.0 1034.0L1349.0 1037.0L1349.0 1051.0L1358.0 1051.0L1360.0 1054.0L1363.0 1084.0L1366.0 1087.0L1369.0 1090.0L1372.0 1093.0L1374.0 1095.0L1377.0 1098.0L1366.0 1101.0L1374.0 1134.0L1377.0 1137.0L1383.0 1151.0L1394.0 1151.0L1394.0 1162.0L1377.0 1162.0L1380.0 1173.0L1383.0 1176.0L1390.375 1200.375L1394.0 1215.0L1391.0 1217.0L1386.0 1234.0L1388.0 1237.0L1394.0 1251.0L1377.0 1259.0L1374.0 1262.0L1366.0 1262.0L1369.0 1273.0L1372.0 1276.0L1360.0 1281.0L1358.0 1284.0L1294.0 1289.0L1294.0 1298.0L1291.0 1300.0L1272.0 1300.0L1275.0 1312.0L1278.0 1314.0L1280.0 1317.0L1283.0 1320.0L1286.0 1323.0L1289.0 1326.0L1289.0 1331.0L1286.0 1333.0L1283.0 1345.0L1291.0 1345.0L1294.0 1347.0L1294.0 1353.0L1291.0 1356.0L1289.0 1359.0L1286.0 1361.0L1277.125 1373.5L1275.0 1389.0L1278.0 1392.0L1278.0 1406.0L1286.0 1406.0L1289.0 1408.0L1291.0 1417.0L1294.0 1420.0L1300.625 1449.5L1299.0 1458.0L1297.0 1461.0L1283.796875 1479.59375L1267.875 1484.5L1226.0 1481.0L1222.0 1497.0L1219.0 1500.0L1205.0 1505.0L1205.0 1517.0L1172.0 1522.0L1172.0 1533.0L1161.0 1533.0L1158.0 1544.0L1155.0 1541.0L1128.0 1544.0L1128.0 1555.0L1117.0 1555.0L1117.0 1564.0L1114.0 1566.0L1111.0 1550.0L1095.0 1550.0L1095.0 1564.0L1092.0 1566.0L1086.0 1555.0L1084.0 1552.0L1072.0 1550.0L1067.0 1564.0L1064.0 1566.0L1056.0 1569.0L1053.0 1572.0L1054.0 1583.375L1061.0 1597.0L1059.0 1600.0L1059.0 1600.0"
       id="path15158" /></g><g
     inkscape:groupmode="layer"
     id="layer12"
     inkscape:label="bra"><path
       style="shape-rendering:geometricPrecision;text-rendering:geometricPrecision;image-rendering:optimizeQuality;fill-rule:evenodd"
       class="fil4 str0"
       d="M2011.0 1522.0L2009.0 1519.0L1981.0 1522.0L1981.0 1530.0L1978.0 1533.0L1956.0 1533.0L1953.0 1530.0L1953.0 1497.0L1956.0 1494.0L1953.0 1472.0L1942.0 1472.0L1935.5 1452.375L1917.0 1444.0L1915.0 1442.0L1915.0 1436.0L1917.0 1433.0L1926.0 1430.0L1929.0 1428.0L1937.0 1425.0L1940.0 1422.0L1940.0 1395.0L1937.0 1392.0L1937.0 1386.0L1940.0 1383.0L1931.0 1339.0L1920.0 1342.0L1917.0 1345.0L1887.0 1328.0L1887.0 1317.0L1856.0 1317.0L1854.0 1314.0L1854.0 1306.0L1843.0 1309.0L1840.0 1312.0L1837.0 1309.0L1837.0 1300.0L1823.0 1300.0L1820.0 1298.0L1820.0 1289.0L1798.0 1289.0L1798.0 1300.0L1773.0 1295.0L1771.0 1292.0L1762.0 1284.0L1759.0 1281.0L1748.0 1278.0L1743.25 1284.75L1740.0 1284.0L1737.0 1281.0L1729.0 1278.0L1726.0 1276.0L1721.0 1256.0L1710.0 1256.0L1696.0 1234.0L1693.0 1231.0L1696.0 1228.0L1698.0 1215.0L1701.0 1212.0L1698.0 1187.0L1701.0 1184.0L1706.25 1169.5L1707.0 1134.0L1704.0 1131.0L1710.875 1116.125L1711.0 1099.0L1676.0 1090.0L1671.0 1076.0L1674.0 1073.0L1676.0 1045.0L1688.0 1045.0L1686.0 992.75L1690.0 957.0L1688.0 954.0L1683.0 944.0L1671.0 943.0L1668.0 946.0L1660.0 946.0L1660.0 935.0L1601.0 935.0L1599.0 932.0L1599.0 924.0L1588.0 924.0L1588.0 907.0L1568.0 901.0L1566.0 899.0L1552.0 896.0L1549.0 893.0L1549.0 885.0L1535.0 885.0L1532.0 882.0L1524.0 874.0L1521.0 871.0L1502.0 868.0L1499.0 866.0L1497.0 863.0L1494.0 860.0L1471.0 857.0L1471.0 866.0L1469.0 868.0L1463.0 868.0L1460.0 866.0L1457.0 863.0L1455.0 860.0L1452.0 857.0L1449.0 854.0L1447.0 852.0L1444.0 849.0L1477.0 852.0L1477.0 840.0L1516.0 840.0L1525.5546875 817.53515625L1539.75 804.28125L1576.25 792.75L1595.6484375 788.14453125L1613.875 780.09375L1629.4765625 765.43359375L1641.0 741.0L1643.0 744.0L1671.0 744.0L1674.0 741.0L1679.0 746.0L1682.0 749.0L1682.0 757.0L1693.0 755.0L1696.0 752.0L1704.75 759.375L1718.0 763.0L1721.0 766.0L1726.0 785.0L1766.125 784.875L1804.0 796.0L1804.0 807.0L1865.0 802.0L1865.0 813.0L1876.0 810.0L1879.0 807.0L1892.625 796.75L1898.0 785.0L1917.0 785.0L1920.0 788.0L1931.0 791.0L1931.0 782.0L1934.0 779.0L1942.0 763.0L1959.0 763.0L1962.0 774.0L1964.0 777.0L1976.0 779.0L1984.0 752.0L1987.0 755.0L1992.0 755.0L1995.0 752.0L2009.0 708.0L2025.0 708.0L2031.0 685.0L2042.0 685.0L2042.0 675.0L2064.0 675.0L2068.0 659.0L2081.0 663.0L2084.0 675.0L2086.0 677.0L2089.0 680.0L2092.0 682.0L2092.0 696.0L2142.0 696.0L2142.0 688.0L2145.0 685.0L2150.0 685.0L2153.0 688.0L2169.0 691.0L2169.0 716.0L2167.0 719.0L2158.0 732.0L2155.0 735.0L2153.0 738.0L2150.0 741.0L2147.0 744.0L2145.0 746.0L2142.0 749.0L2139.0 752.0L2136.0 763.0L2153.0 760.0L2155.0 757.0L2186.0 763.0L2192.0 749.0L2195.0 746.0L2208.0 741.0L2208.0 732.0L2211.0 730.0L2214.25 744.0L2219.0 746.0L2219.0 769.0L2214.0 779.0L2208.0 779.0L2208.0 802.0L2214.0 802.0L2214.0 819.0L2208.0 835.0L2203.0 840.0L2197.0 852.0L2186.0 863.0L2181.0 868.0L2169.0 874.0L2164.0 879.0L2158.0 879.0L2164.0 918.0L2158.0 918.0L2158.0 940.0L2181.0 940.0L2181.0 951.0L2192.0 951.0L2192.0 963.0L2208.0 963.0L2214.0 968.0L2225.0 979.0L2230.0 984.0L2247.0 1001.0L2258.0 1007.0L2269.0 1012.0L2275.0 1018.0L2280.0 1024.0L2286.0 1034.0L2280.0 1062.0L2292.0 1062.0L2292.0 1073.0L2286.0 1084.0L2269.0 1090.0L2269.0 1118.0L2275.0 1118.0L2280.0 1128.0L2286.0 1156.0L2306.25 1166.625L2319.0 1184.0L2313.75 1185.375L2313.0 1195.0L2319.0 1195.0L2319.0 1206.0L2313.0 1206.0L2313.0 1228.0L2319.0 1228.0L2330.0 1234.0L2336.0 1239.0L2330.0 1262.0L2325.0 1262.0L2325.0 1312.0L2313.0 1312.0L2308.0 1328.0L2301.0 1332.0L2301.0 1351.0L2313.0 1356.0L2325.0 1389.0L2326.375 1394.25L2336.0 1395.0L2336.0 1406.0L2347.0 1406.0L2347.0 1439.0L2336.0 1447.0L2333.0 1450.0L2313.0 1456.0L2313.0 1444.0L2292.0 1444.0L2292.0 1456.0L2239.0 1472.0L2236.0 1470.0L2186.0 1475.0L2183.0 1477.0L2181.0 1489.0L2169.0 1491.0L2167.0 1494.0L2167.0 1500.0L2169.0 1503.0L2169.0 1522.0L2158.0 1522.0L2158.0 1533.0L2136.0 1536.0L2134.0 1539.0L2128.0 1539.0L2125.0 1536.0L2098.75 1540.375L2047.0 1541.0L2045.0 1544.0L2042.0 1533.0L2011.0 1522.0L2011.0 1522.0"
       id="path15160" /></g><g
     id="Ebene 1"><g
       id="g15106"><g
         id="g15108"><g
           id="g15110"><!-- Bayern --><!-- Baden-W&#252;rttemberg --><g
             id="g15116"><!-- Bodensee --><g
               id="g15120" /></g><!-- Rheinland-Pfalz --><!-- Saarland --><!-- Hessen --><!-- Nordrhein-Westfalen --><!-- Sachsen-Anhalt --><!-- Niedersachsen --><!-- Brandenburg --><!-- Berlin --><path
             class="fil9 str0"
             d="M848 879c-1,-1 -2,-1 -3,-2 2,0 4,0 6,0 -1,1 -2,1 -3,2z"
             id="path15164" /><!-- Hamburg --><g
             id="g15168"><!-- Mecklenburg- Vorpommern --><!-- Usedom? (zu Mecklenburg- Vorpommern) --><!-- Insel (zu Mecklenburg- Vorpommern) --><!-- R&#252;gen (zu Mecklenburg- Vorpommern) --><!-- Dar&#223; (zu Mecklenburg- Vorpommern) --><!-- Jasmund? (zu Mecklenburg- Vorpommern) --><!-- Insel (zu Mecklenburg- Vorpommern) --></g><g
             id="g15184"><!-- Schleswig-Holstein --><!-- Fehmarn --><!-- Insel zu Schleswig-Holstein --><!-- Insel zu Schleswig-Holstein --><!-- zu kleine Insel zu Schleswig-Holstein --><!-- Insel zu Schleswig-Holstein --><!-- zu kleine Insel zu Schleswig-Holstein --><!-- F&#246;hr (zu Schleswig-Holstein) --><!-- Sylt (zu Schleswig-Holstein) --><!-- Insel zu Schleswig-Holstein --></g></g><!-- Bremen --></g><!-- Th&#252;ringen --><!-- Sachsen --></g></g><g
     inkscape:groupmode="layer"
     id="layer3"
     inkscape:label="bw"><path
       style="shape-rendering:geometricPrecision;text-rendering:geometricPrecision;image-rendering:optimizeQuality;fill-rule:evenodd"
       class="fil4 str0"
       d="M474.0 3140.0L469.0 3134.0L463.0 3129.0L457.0 3118.0L457.0 3101.0L447.0 3101.0L441.0 3095.0L441.0 3068.0L447.0 3034.0L455.0 3023.0L452.0 3012.0L452.0 3001.0L457.0 2996.0L463.0 2973.0L469.0 2968.0L473.375 2966.625L474.0 2957.0L469.0 2957.0L469.0 2940.0L458.5 2939.375L457.0 2935.0L457.0 2929.0L457.0 2918.0L474.0 2879.0L479.25 2877.625L480.0 2868.0L491.0 2868.0L491.0 2841.0L496.0 2829.0L513.0 2824.0L513.0 2807.0L507.0 2807.0L507.0 2796.0L513.0 2769.0L518.0 2758.0L524.0 2746.0L530.0 2741.0L530.0 2735.0L530.0 2724.0L530.0 2719.0L530.0 2708.0L546.0 2685.0L552.0 2680.0L557.0 2674.0L563.0 2669.0L568.0 2663.0L574.0 2658.0L578.375 2656.625L579.0 2647.0L591.0 2647.0L591.0 2636.0L600.5 2632.25L607.0 2624.0L613.0 2619.0L618.0 2602.0L624.0 2586.0L629.0 2580.0L635.0 2569.0L640.0 2564.0L651.0 2555.0L654.0 2553.0L662.0 2550.0L665.0 2547.0L668.0 2527.0L671.0 2525.0L674.0 2522.0L676.0 2519.0L685.0 2505.0L688.0 2503.0L701.0 2442.0L712.0 2442.0L712.0 2433.0L715.0 2430.0L718.0 2428.0L721.0 2425.0L721.0 2420.0L718.0 2417.0L712.0 2411.0L715.0 2409.0L718.0 2406.0L721.0 2403.0L729.0 2359.0L712.0 2356.0L715.0 2353.0L715.0 2342.0L712.0 2339.0L709.0 2331.0L707.0 2328.0L712.0 2306.0L715.0 2303.0L732.0 2320.0L735.0 2323.0L742.625 2332.5L757.0 2336.0L757.0 2292.0L773.0 2292.0L776.0 2320.0L779.0 2323.0L809.0 2342.0L812.0 2345.0L812.0 2381.0L834.0 2381.0L834.0 2370.0L845.0 2370.0L851.0 2339.0L853.0 2336.0L859.0 2336.0L862.0 2339.0L873.0 2339.0L890.0 2314.0L923.0 2312.0L926.0 2309.0L944.0 2285.0L973.0 2281.0L976.0 2253.0L973.0 2251.0L967.0 2251.0L964.0 2253.0L957.0 2244.625L956.0 2234.0L959.0 2231.0L973.0 2228.0L976.0 2225.0L978.0 2228.0L991.0 2227.0L995.0 2237.0L1011.0 2237.0L1011.0 2228.0L1014.0 2225.0L1032.0 2229.0L1028.0 2270.0L1039.0 2267.0L1042.0 2265.0L1045.0 2256.0L1048.0 2253.0L1050.0 2265.0L1067.0 2265.0L1067.0 2253.0L1075.0 2253.0L1078.0 2256.0L1084.0 2267.0L1081.0 2270.0L1083.25 2285.625L1084.0 2314.0L1101.0 2318.0L1106.0 2353.0L1139.0 2348.0L1147.0 2325.0L1155.0 2356.0L1153.0 2359.0L1150.0 2370.0L1161.0 2370.0L1165.0 2382.0L1155.0 2386.0L1164.0 2430.0L1167.0 2433.0L1167.0 2439.0L1164.0 2442.0L1164.0 2470.0L1181.640625 2484.390625L1190.375 2497.375L1195.0 2536.0L1227.0 2552.75L1250.0 2583.0L1247.0 2586.0L1247.0 2591.0L1250.0 2594.0L1247.0 2619.0L1250.0 2622.0L1242.625 2637.0L1239.0 2658.0L1250.0 2658.0L1250.0 2666.0L1247.0 2669.0L1233.0 2677.0L1230.0 2680.0L1228.0 2683.0L1225.0 2685.0L1222.0 2674.0L1195.0 2674.0L1204.5 2709.625L1205.0 2746.0L1172.0 2772.0L1169.0 2774.0L1150.0 2772.0L1147.0 2774.0L1129.34375 2790.03125L1125.0 2807.0L1130.40625 2825.46875L1142.0 2846.0L1145.0 2849.0L1153.0 2902.0L1155.0 2904.0L1158.0 2907.0L1161.0 2910.0L1167.0 2943.0L1164.0 2946.0L1161.0 2973.0L1150.0 2973.0L1159.0 3036.0L1150.0 3040.0L1150.0 3062.0L1158.0 3062.0L1161.0 3065.0L1155.0 3104.0L1153.0 3107.0L1150.0 3095.0L1128.0 3098.0L1125.0 3101.0L1122.0 3104.0L1120.0 3107.0L1099.75 3098.75L1078.0 3095.0L1074.375 3106.5L1067.0 3115.0L1064.0 3118.0L1061.0 3121.0L1059.0 3123.0L1042.0 3129.0L1039.0 3126.0L1000.0 3129.0L996.0 3111.0L973.0 3107.0L968.0 3099.0L956.0 3101.0L945.0 3101.0L928.0 3090.0L923.0 3084.0L912.0 3068.0L890.0 3057.0L884.0 3051.0L873.0 3046.0L871.625 3040.75L862.0 3040.0L862.0 3057.0L873.0 3057.0L884.0 3062.0L890.0 3068.0L895.0 3073.0L901.0 3084.0L901.0 3095.0L879.0 3090.0L859.125 3073.0L834.0 3068.0L840.0 3079.0L851.0 3084.0L851.0 3090.0L845.0 3095.0L834.0 3101.0L812.0 3095.0L812.0 3079.0L796.0 3073.0L790.0 3073.0L782.0 3084.0L773.0 3068.0L778.25 3066.625L779.0 3057.0L768.0 3057.0L768.0 3046.0L751.0 3046.0L746.0 3057.0L746.0 3040.0L730.375 3043.625L723.0 3051.0L701.0 3051.0L701.0 3062.0L690.0 3079.0L685.0 3079.0L685.0 3101.0L707.0 3115.0L696.0 3118.0L696.0 3140.0L685.0 3134.0L679.0 3134.0L662.0 3134.0L657.0 3118.0L635.0 3118.0L633.625 3112.75L624.0 3112.0L624.0 3118.0L603.0 3131.25L591.0 3140.0L585.0 3140.0L546.0 3140.0L546.0 3123.0L513.0 3129.0L513.0 3140.0L474.0 3140.0L474.0 3140.0"
       id="path15114" /></g><g
     inkscape:groupmode="layer"
     id="layer4"
     inkscape:label="bay"><path
       style="shape-rendering:geometricPrecision;text-rendering:geometricPrecision;image-rendering:optimizeQuality;fill-rule:evenodd"
       class="fil4 str0"
       d="M1189.0 3234.0L1200.0 3234.0L1200.0 3218.0L1155.0 3223.0L1155.0 3184.0L1145.0 3184.0L1145.0 3173.0L1130.5 3164.25L1122.0 3151.0L1078.0 3151.0L1078.0 3140.0L1083.25 3138.625L1084.0 3129.0L1067.0 3129.0L1067.0 3134.0L1056.328125 3139.953125L1046.125 3141.125L1023.0 3137.0L1037.0 3129.0L1039.0 3131.0L1061.0 3126.0L1064.0 3123.0L1067.0 3121.0L1070.0 3118.0L1078.5 3112.125L1084.0 3101.0L1105.25 3108.0L1122.0 3109.0L1125.0 3107.0L1128.0 3104.0L1131.0 3101.0L1145.0 3101.0L1145.0 3112.0L1155.0 3109.0L1158.0 3107.0L1161.75 3097.625L1164.0 3062.0L1161.0 3060.0L1155.0 3046.0L1167.0 3046.0L1157.0 2983.0L1167.0 2979.0L1167.0 2949.0L1169.0 2946.0L1168.375 2920.125L1164.0 2907.0L1161.0 2904.0L1158.0 2902.0L1155.0 2899.0L1147.0 2846.0L1145.0 2843.0L1136.5 2827.375L1131.0 2802.0L1150.0 2777.0L1153.0 2774.0L1172.0 2777.0L1175.0 2774.0L1198.25 2757.0L1211.0 2752.0L1211.625 2716.125L1201.0 2684.0L1216.0 2680.0L1216.0 2691.0L1228.0 2688.0L1230.0 2685.0L1233.0 2683.0L1236.0 2680.0L1250.0 2680.0L1250.0 2672.0L1252.0 2669.0L1255.0 2652.0L1244.0 2652.0L1252.0 2619.0L1250.0 2616.0L1252.0 2591.0L1250.0 2588.0L1252.0 2586.0L1247.390625 2565.296875L1235.375 2549.375L1218.671875 2537.765625L1200.0 2530.0L1197.0 2486.0L1176.375 2468.375L1167.0 2444.0L1169.0 2442.0L1169.0 2430.0L1167.0 2428.0L1162.0 2396.0L1172.0 2392.0L1167.0 2364.0L1155.0 2361.0L1158.0 2359.0L1155.0 2320.0L1139.0 2320.0L1134.0 2342.0L1111.0 2348.0L1107.0 2313.0L1090.0 2304.0L1092.0 2281.0L1084.0 2273.0L1086.0 2270.0L1089.0 2253.0L1081.0 2253.0L1078.0 2251.0L1061.0 2248.0L1060.375 2257.625L1056.0 2259.0L1056.0 2248.0L1045.0 2251.0L1042.0 2253.0L1039.0 2262.0L1037.0 2265.0L1039.0 2220.0L1011.0 2223.0L1009.0 2225.0L1004.0 2229.0L1000.0 2220.0L981.0 2225.0L978.0 2223.0L973.0 2223.0L970.0 2225.0L956.0 2228.0L953.0 2231.0L945.0 2231.0L950.375 2249.875L967.0 2256.0L970.0 2253.0L973.0 2256.0L967.0 2275.0L938.0 2279.0L923.0 2306.0L920.0 2309.0L890.0 2309.0L890.0 2298.0L879.0 2295.0L892.25 2273.234375L896.5 2248.375L890.0 2198.0L879.0 2198.0L876.0 2181.0L873.0 2178.0L876.0 2126.0L873.0 2123.0L873.0 2115.0L863.0 2111.0L867.0 2093.0L879.0 2090.0L881.0 2087.0L891.0 2083.0L895.0 2098.0L912.0 2098.0L926.0 2076.0L928.0 2079.0L962.0 2081.0L964.0 2093.0L967.0 2095.0L967.0 2104.0L1000.0 2098.0L1000.0 2079.0L1003.0 2076.0L1003.0 2065.0L1000.0 2062.0L1000.0 2043.0L1034.0 2048.0L1039.0 2026.0L1050.0 2024.0L1053.0 2021.0L1067.0 2015.0L1070.0 1960.0L1079.625 1966.625L1111.0 1971.0L1111.0 1963.0L1114.0 1960.0L1122.0 1957.0L1125.0 1954.0L1128.0 1951.0L1131.0 1949.0L1155.0 1907.0L1158.0 1904.0L1161.0 1915.0L1179.0 1911.0L1206.5 1932.5L1215.28125 1943.0625L1222.0 1960.0L1233.0 1960.0L1233.0 1971.0L1250.0 1971.0L1263.125 1988.25L1283.0 1998.0L1289.0 2048.0L1308.0 2043.0L1311.0 2046.0L1322.0 2048.0L1322.0 2037.0L1355.0 2037.0L1352.0 2021.0L1349.0 2018.0L1330.0 2004.0L1327.0 2001.0L1327.84375 1990.265625L1338.25 1981.875L1363.0 1971.0L1366.0 1974.0L1389.875 1986.125L1416.0 1990.0L1419.0 1987.0L1424.0 1982.0L1427.0 1985.0L1431.0 2016.0L1444.0 2018.0L1447.0 2015.0L1449.0 2018.0L1452.0 2021.0L1455.0 2024.0L1466.0 2026.0L1466.0 1990.0L1469.0 1987.0L1461.0 1941.0L1477.0 1937.0L1477.0 1926.0L1499.0 1921.0L1502.0 1949.0L1504.0 1951.0L1504.0 1960.0L1516.0 1960.0L1516.0 1971.0L1558.75 1970.875L1600.0 1961.0L1604.0 1971.0L1627.0 1963.0L1629.0 1960.0L1638.0 1960.0L1638.0 1971.0L1648.0 1971.0L1664.625 1990.875L1688.0 2004.0L1693.0 2010.0L1688.0 2021.0L1682.75 2022.375L1682.0 2032.0L1693.0 2032.0L1715.0 2065.0L1714.0 2088.0L1743.0 2104.0L1743.0 2115.0L1771.0 2126.0L1771.0 2137.0L1787.0 2137.0L1791.0 2155.0L1804.0 2159.0L1804.0 2170.0L1798.0 2181.0L1787.75 2197.875L1776.0 2220.0L1776.0 2248.0L1793.0 2248.0L1793.0 2259.0L1804.0 2259.0L1804.0 2281.0L1815.0 2281.0L1815.0 2309.0L1820.0 2309.0L1825.125 2315.625L1837.0 2320.0L1837.0 2348.0L1843.0 2348.0L1848.0 2359.0L1870.0 2370.0L1873.625 2384.75L1881.0 2392.0L1937.0 2397.0L1948.0 2420.0L1956.375 2433.625L1970.0 2442.0L1976.0 2453.0L1992.0 2475.0L2003.0 2480.0L2025.0 2486.0L2037.0 2492.0L2059.0 2547.0L2086.0 2553.0L2086.0 2541.0L2103.0 2541.0L2103.0 2553.0L2114.0 2553.0L2114.75 2562.625L2120.0 2564.0L2125.0 2580.0L2143.0 2576.0L2153.0 2586.0L2158.0 2602.0L2169.0 2602.0L2169.0 2608.0L2168.25 2620.375L2175.0 2641.0L2175.0 2652.0L2164.0 2702.0L2157.375 2707.125L2153.0 2719.0L2131.0 2719.0L2131.0 2708.0L2120.0 2708.0L2120.0 2702.0L2103.0 2708.0L2097.0 2702.0L2085.375 2700.5L2070.0 2708.0L2070.0 2724.0L2075.0 2724.0L2075.0 2735.0L2070.0 2785.0L2059.0 2785.0L2059.0 2796.0L2047.0 2802.0L2042.0 2813.0L2037.0 2819.0L1998.0 2824.0L1970.0 2835.0L1964.0 2841.0L1959.0 2846.0L1953.0 2852.0L1948.0 2857.0L1937.0 2863.0L1915.0 2863.0L1915.0 2885.0L1903.0 2890.0L1887.0 2896.0L1887.0 2913.0L1893.0 2913.0L1898.0 2924.0L1903.0 2929.0L1915.0 2935.0L1917.875 2945.25L1926.0 2951.0L1926.0 2968.0L1937.0 2968.0L1940.625 2978.375L1948.0 2985.0L1953.0 2990.0L1959.0 2996.0L1953.0 3029.0L1945.0 3042.125L1937.0 3068.0L1981.0 3073.0L1992.0 3101.0L1987.0 3107.0L1981.0 3134.0L1976.0 3162.0L1948.0 3162.0L1944.375 3151.625L1937.0 3145.0L1931.25 3138.375L1915.0 3134.0L1909.0 3129.0L1909.0 3112.0L1915.0 3112.0L1915.0 3095.0L1903.0 3095.0L1899.0 3083.0L1848.0 3084.0L1848.0 3101.0L1838.375 3101.75L1837.0 3107.0L1826.0 3101.0L1815.0 3090.0L1815.0 3073.0L1798.0 3073.0L1798.0 3084.0L1787.0 3084.0L1787.0 3073.0L1777.375 3073.75L1776.0 3079.0L1771.0 3084.0L1759.0 3079.0L1765.0 3079.0L1765.0 3062.0L1755.375 3062.75L1754.0 3068.0L1748.0 3073.0L1732.0 3073.0L1732.0 3090.0L1737.0 3090.0L1743.0 3101.0L1737.0 3118.0L1732.0 3118.0L1698.0 3112.0L1696.75 3107.625L1688.0 3107.0L1688.0 3112.0L1671.0 3118.0L1643.0 3118.0L1643.0 3129.0L1577.0 3129.0L1571.0 3162.0L1527.0 3162.0L1527.0 3168.0L1521.0 3173.0L1499.0 3195.0L1494.0 3201.0L1477.0 3206.0L1477.0 3195.0L1460.0 3195.0L1460.0 3201.0L1405.0 3212.0L1410.0 3195.0L1405.0 3195.0L1399.0 3190.0L1394.0 3173.0L1378.0 3169.0L1377.0 3156.0L1375.625 3151.625L1366.0 3151.0L1366.0 3156.0L1344.0 3162.0L1344.0 3151.0L1299.125 3147.625L1255.0 3151.0L1255.0 3156.0L1250.0 3156.0L1254.375 3181.0L1255.0 3206.0L1250.625 3207.5L1250.0 3218.0L1239.0 3218.0L1239.0 3228.0L1233.0 3234.0L1226.375 3239.125L1222.0 3251.0L1211.0 3256.0L1185.0 3257.0L1189.0 3234.0L1189.0 3234.0"
       id="path15112" /></g><g
     inkscape:groupmode="layer"
     id="layer5"
     inkscape:label="hes"><path
       style="shape-rendering:geometricPrecision;text-rendering:geometricPrecision;image-rendering:optimizeQuality;fill-rule:evenodd"
       class="fil1 str0"
       d="M815.0 2342.0L812.0 2339.0L812.0 2331.0L782.0 2320.0L779.0 2317.0L779.0 2286.0L751.0 2286.0L752.875 2314.875L748.0 2331.0L737.0 2320.0L735.0 2317.0L725.0 2302.0L712.0 2300.0L709.0 2303.0L704.0 2298.0L701.0 2295.0L699.0 2286.0L696.0 2284.0L696.0 2256.0L699.0 2253.0L707.0 2251.0L709.0 2248.0L718.0 2248.0L714.75 2228.875L704.0 2215.0L701.0 2212.0L701.0 2187.0L693.0 2187.0L690.0 2184.0L690.0 2142.0L682.0 2142.0L679.0 2140.0L671.0 2126.0L668.0 2123.0L660.0 2121.0L657.0 2118.0L657.0 2109.0L646.0 2112.0L643.0 2115.0L629.0 2118.0L626.0 2121.0L618.0 2123.0L615.0 2126.0L607.0 2129.0L604.0 2131.0L565.0 2131.0L563.0 2129.0L554.0 2115.0L552.0 2112.0L550.75 2096.125L557.0 2081.0L579.0 2081.0L579.0 2059.0L571.0 2059.0L568.0 2057.0L585.0 2046.0L588.0 2043.0L601.0 2037.0L601.0 2029.0L604.0 2026.0L635.0 2026.0L631.0 1998.75L621.0 1976.0L618.0 1974.0L605.75 1958.125L604.0 1937.0L601.0 1935.0L601.0 1915.0L613.0 1915.0L617.0 1906.0L640.0 1902.0L643.0 1899.0L640.125 1865.0L635.0 1843.0L646.0 1843.0L646.0 1829.0L649.0 1827.0L651.0 1796.0L654.0 1793.0L662.0 1785.0L665.0 1782.0L668.0 1779.0L671.0 1777.0L674.0 1774.0L676.0 1771.0L708.0 1773.0L717.75 1758.75L729.0 1746.0L732.0 1744.0L742.0 1722.25L749.0 1705.0L746.0 1702.0L746.0 1683.0L790.0 1683.0L790.0 1663.0L793.0 1661.0L801.0 1658.0L804.0 1655.0L801.0 1605.0L773.0 1614.0L771.0 1616.0L762.0 1602.0L765.0 1600.0L768.0 1591.0L771.0 1588.0L773.0 1586.0L776.0 1583.0L784.0 1583.0L790.0 1569.0L793.0 1566.0L806.0 1569.0L809.0 1566.0L840.0 1564.0L843.0 1561.0L856.0 1561.0L856.0 1552.0L859.0 1550.0L853.0 1533.0L851.0 1530.0L848.0 1527.0L845.0 1525.0L848.0 1522.0L895.0 1519.0L893.0 1522.0L893.0 1533.0L895.0 1536.0L934.0 1533.0L934.0 1517.0L956.0 1511.0L962.0 1491.0L964.0 1489.0L967.0 1467.0L984.0 1464.0L987.0 1461.0L989.0 1458.0L992.0 1456.0L995.0 1467.0L1014.0 1461.0L1017.0 1464.0L1037.0 1472.0L1039.0 1475.0L1039.0 1489.0L1028.0 1489.0L1025.0 1511.0L1028.0 1514.0L1034.0 1530.0L1031.0 1533.0L1031.0 1544.0L1034.0 1547.0L1031.0 1550.0L1017.0 1558.0L1014.0 1561.0L1011.0 1583.0L1048.0 1594.0L1050.0 1597.0L1053.0 1600.0L1056.0 1602.0L1061.0 1602.0L1064.0 1600.0L1064.0 1583.0L1056.0 1575.0L1059.0 1572.0L1067.0 1569.0L1070.0 1566.0L1078.0 1566.0L1081.0 1555.0L1084.0 1558.0L1084.0 1572.0L1095.0 1569.0L1098.0 1566.0L1100.5 1556.375L1106.0 1555.0L1108.0 1577.0L1111.0 1580.0L1117.0 1605.0L1132.25 1611.0L1145.25 1620.0L1175.0 1638.0L1178.0 1641.0L1181.0 1644.0L1183.0 1647.0L1173.5 1675.625L1161.0 1705.0L1178.0 1705.0L1178.0 1722.0L1164.0 1722.0L1161.0 1719.0L1134.0 1716.0L1137.0 1739.0L1122.0 1744.0L1122.0 1760.0L1139.0 1760.0L1134.0 1788.0L1117.0 1788.0L1117.0 1802.0L1114.0 1805.0L1111.0 1835.0L1108.0 1838.0L1106.0 1852.0L1103.0 1854.0L1095.0 1854.0L1095.0 1876.0L1122.0 1882.0L1128.0 1863.0L1131.0 1860.0L1142.0 1860.0L1145.0 1863.0L1148.0 1872.0L1139.0 1876.0L1139.125 1912.5L1128.0 1946.0L1125.0 1949.0L1122.0 1951.0L1120.0 1954.0L1111.0 1957.0L1108.0 1960.0L1084.5 1958.875L1061.0 1954.0L1061.0 2010.0L1050.0 2010.0L1050.0 2018.0L1048.0 2021.0L1034.0 2021.0L1024.0 2041.0L995.0 2037.0L998.0 2065.0L1000.0 2068.0L1000.0 2073.0L998.0 2076.0L995.0 2093.0L970.0 2093.0L967.0 2090.0L967.0 2076.0L931.0 2076.0L928.0 2073.0L916.46875 2076.125L910.75 2083.0L906.90625 2089.875L901.0 2093.0L901.0 2076.0L879.0 2084.0L876.0 2087.0L862.0 2087.0L856.0 2121.0L870.0 2126.0L873.0 2129.0L870.0 2181.0L873.0 2184.0L873.0 2204.0L884.0 2204.0L887.34375 2232.6875L885.25 2255.0L873.0 2303.0L884.0 2303.0L878.25 2321.375L865.0 2336.0L862.0 2334.0L851.0 2334.0L848.0 2336.0L840.0 2364.0L829.0 2364.0L829.0 2375.0L818.0 2375.0L815.0 2342.0L815.0 2342.0"
       id="path15152" /></g><g
     inkscape:groupmode="layer"
     id="layer6"
     inkscape:label="rp"><path
       style="shape-rendering:geometricPrecision;text-rendering:geometricPrecision;image-rendering:optimizeQuality;fill-rule:evenodd"
       class="fil1 str0"
       d="M574.0 2519.0L572.625 2514.625L563.0 2514.0L563.0 2519.0L541.0 2519.0L541.0 2514.0L524.0 2514.0L524.0 2519.0L513.0 2519.0L513.0 2514.0L491.0 2514.0L486.0 2501.0L457.0 2492.0L457.0 2464.0L419.0 2464.0L413.75 2462.625L413.0 2453.0L402.0 2453.0L406.375 2435.75L419.0 2417.0L421.0 2414.0L424.5 2406.625L425.0 2379.0L406.0 2371.0L402.0 2353.0L392.375 2352.375L391.0 2348.0L407.0 2348.0L403.0 2329.0L413.0 2325.0L410.0 2314.0L407.0 2312.0L401.328125 2301.46875L394.625 2296.75L377.0 2286.0L374.0 2284.0L357.875 2280.75L344.0 2270.0L341.0 2267.0L303.5 2274.25L269.0 2289.0L266.0 2292.0L218.0 2307.0L214.0 2298.0L192.0 2298.75L158.0 2292.0L158.0 2281.0L169.0 2281.0L169.0 2270.0L175.0 2265.0L181.0 2242.0L186.0 2237.0L197.0 2231.0L202.0 2187.0L175.0 2187.0L164.0 2176.0L158.0 2176.0L142.0 2159.0L133.125 2146.0L125.0 2121.0L114.0 2121.0L107.8125 2098.734375L106.5 2078.625L114.0 2037.0L125.0 2037.0L125.0 2010.0L147.0 1998.0L153.0 1987.0L189.875 1978.625L214.0 1968.0L216.0 1965.0L242.0 1963.0L251.546875 1969.3125L262.125 1971.5L286.0 1971.0L280.0 1951.0L283.0 1949.0L284.0 1922.0L294.0 1926.0L297.0 1929.0L308.0 1929.0L311.0 1926.0L319.0 1926.0L316.0 1910.0L313.0 1907.0L325.0 1904.0L325.0 1890.0L327.0 1888.0L346.125 1884.25L360.0 1876.0L363.0 1879.0L369.0 1879.0L372.0 1876.0L435.0 1860.0L435.0 1852.0L438.0 1849.0L446.904296875 1836.78710938L458.046875 1829.109375L483.625 1821.125L507.890625 1812.578125L517.392578125 1804.19726563L524.0 1791.0L527.0 1788.0L544.0 1770.375L552.0 1746.0L554.0 1744.0L560.0 1744.0L563.0 1746.0L563.0 1771.0L577.0 1777.0L579.0 1779.0L596.0 1782.0L599.0 1816.0L601.0 1819.0L610.0 1827.0L613.0 1829.0L613.0 1843.0L629.0 1843.0L634.875 1868.75L640.0 1896.0L638.0 1899.0L607.0 1899.0L607.0 1910.0L596.0 1910.0L599.0 1937.0L601.0 1940.0L599.0 1965.0L615.0 1976.0L618.0 1979.0L624.875 2002.75L625.0 2019.0L606.25 2020.375L601.0 2024.0L599.0 2026.0L585.0 2032.0L585.0 2040.0L582.0 2043.0L563.0 2048.0L565.0 2059.0L568.0 2062.0L574.0 2076.0L552.0 2076.0L544.625 2093.625L541.0 2115.0L549.0 2115.0L552.0 2118.0L560.0 2131.0L563.0 2134.0L563.0 2142.0L607.0 2134.0L610.0 2131.0L618.0 2129.0L621.0 2126.0L629.0 2123.0L632.0 2121.0L646.0 2118.0L649.0 2115.0L654.0 2121.0L657.0 2123.0L665.0 2126.0L668.0 2129.0L676.0 2142.0L679.0 2145.0L688.0 2187.0L690.0 2190.0L699.0 2215.0L701.0 2217.0L707.75 2230.625L707.0 2245.0L704.0 2248.0L696.0 2251.0L693.0 2253.0L685.0 2253.0L693.0 2286.0L696.0 2289.0L699.0 2298.0L701.0 2300.0L704.0 2331.0L707.0 2334.0L709.0 2342.0L712.0 2345.0L712.0 2350.0L709.0 2353.0L707.0 2364.0L723.0 2364.0L718.0 2400.0L715.0 2403.0L712.0 2406.0L709.0 2409.0L707.0 2420.0L715.0 2420.0L718.0 2422.0L715.0 2425.0L712.0 2428.0L709.0 2430.0L696.0 2436.0L688.625 2465.0L685.0 2500.0L682.0 2503.0L674.0 2517.0L671.0 2519.0L668.0 2522.0L665.0 2525.0L662.0 2544.0L660.0 2547.0L651.0 2550.0L649.0 2553.0L608.125 2538.25L574.0 2519.0L574.0 2519.0"
       id="path15148" /></g><g
     inkscape:groupmode="layer"
     id="layer7"
     inkscape:label="sar"><path
       style="shape-rendering:geometricPrecision;text-rendering:geometricPrecision;image-rendering:optimizeQuality;fill-rule:evenodd"
       class="fil4 str0"
       d="M330.0 2475.0L324.25 2453.625L308.0 2439.0L297.0 2442.0L286.0 2442.0L280.0 2442.0L275.0 2442.0L275.0 2464.0L263.0 2464.0L258.0 2464.0L248.796875 2454.5625L242.875 2439.5L236.0 2409.0L225.0 2409.0L225.0 2397.0L214.0 2397.0L208.0 2386.0L208.0 2375.0L207.25 2360.75L202.0 2342.0L192.0 2342.0L186.0 2336.0L175.0 2331.0L162.0 2329.0L158.0 2303.0L204.0 2304.0L208.0 2314.0L269.0 2295.0L272.0 2292.0L338.0 2270.0L341.0 2273.0L350.0 2288.0L372.0 2286.0L374.0 2289.0L382.5 2299.75L397.0 2303.0L397.0 2314.0L405.0 2314.0L407.0 2317.0L397.0 2320.0L400.0 2338.0L386.0 2342.0L386.0 2359.0L397.0 2359.0L400.0 2376.0L420.0 2385.0L419.0 2411.0L416.0 2414.0L407.0 2414.0L399.75 2431.5L397.0 2458.0L407.0 2458.0L407.0 2475.0L398.25 2475.625L397.0 2480.0L386.0 2480.0L352.0 2470.0L350.625 2464.75L341.0 2464.0L341.0 2480.0L330.0 2475.0L330.0 2475.0"
       id="path15150" /></g><g
     inkscape:groupmode="layer"
     id="layer8"
     inkscape:label="nrw"><path
       style="shape-rendering:geometricPrecision;text-rendering:geometricPrecision;image-rendering:optimizeQuality;fill-rule:evenodd"
       class="fil6 str0"
       d="M169.0 1960.0L181.0 1921.0L169.0 1921.0L165.0 1903.0L136.0 1899.0L131.0 1876.0L147.0 1871.0L147.0 1860.0L152.25 1858.625L153.0 1849.0L142.0 1849.0L136.0 1849.0L119.0 1810.0L99.125 1801.25L86.0 1782.0L92.0 1760.0L110.0 1756.0L108.0 1744.0L108.0 1738.0L114.0 1738.0L114.0 1722.0L98.0 1722.0L98.0 1699.0L70.0 1699.0L58.0 1672.0L75.0 1677.0L76.375 1682.25L86.0 1683.0L93.484375 1664.015625L105.375 1651.125L121.578125 1642.921875L142.0 1638.0L142.0 1622.0L142.0 1616.0L136.0 1616.0L131.0 1622.0L114.0 1622.0L119.0 1594.0L125.0 1583.0L136.0 1583.0L142.0 1561.0L147.0 1555.0L153.0 1550.0L155.0 1477.0L147.0 1472.0L142.0 1461.0L136.0 1456.0L131.0 1450.0L136.0 1422.0L119.0 1422.0L114.0 1417.0L119.0 1395.0L114.0 1395.0L114.0 1389.0L98.0 1389.0L98.0 1383.0L108.0 1383.0L98.0 1350.0L108.0 1350.0L114.0 1350.0L153.0 1350.0L152.25 1340.375L147.0 1339.0L150.0 1328.0L159.75 1334.625L186.0 1339.0L186.0 1350.0L197.0 1350.0L197.0 1361.0L214.0 1361.0L214.0 1339.0L219.0 1339.0L219.0 1350.0L242.125 1344.875L263.0 1333.0L275.0 1328.0L291.0 1333.0L297.0 1333.0L313.0 1328.0L313.0 1312.0L325.0 1312.0L325.0 1289.0L319.0 1289.0L313.0 1284.0L302.0 1278.0L291.0 1273.0L291.0 1262.0L308.0 1262.0L312.0 1249.0L337.0 1241.0L341.0 1228.0L358.0 1217.0L369.0 1217.0L369.0 1206.0L386.0 1206.0L386.0 1201.0L404.5 1192.75L438.0 1189.0L441.0 1192.0L452.0 1195.0L452.0 1187.0L455.0 1184.0L469.0 1184.0L469.0 1173.0L485.0 1173.0L485.0 1162.0L496.0 1162.0L496.0 1154.0L499.0 1151.0L524.0 1151.0L524.0 1137.0L527.0 1134.0L527.0 1123.0L524.0 1120.0L524.0 1109.0L527.0 1107.0L549.0 1118.0L552.0 1120.0L552.0 1140.0L565.0 1140.0L568.0 1142.0L571.0 1145.0L574.0 1148.0L604.0 1151.0L607.0 1154.0L608.5 1175.125L601.0 1209.0L599.0 1212.0L596.0 1228.0L618.0 1234.0L614.375 1249.875L607.0 1259.0L604.0 1262.0L596.0 1262.0L596.0 1284.0L610.0 1284.0L613.0 1286.0L651.0 1281.0L654.0 1278.0L674.0 1276.0L676.0 1273.0L679.0 1262.0L690.0 1262.0L694.0 1252.0L708.125 1258.5L729.0 1262.0L737.0 1247.25L751.0 1237.0L754.0 1234.0L757.0 1223.0L743.0 1223.0L740.0 1220.0L740.0 1215.0L743.0 1212.0L743.0 1168.0L740.0 1165.0L737.0 1156.0L735.0 1154.0L732.0 1151.0L729.0 1148.0L721.0 1145.0L718.0 1142.0L712.0 1123.0L740.0 1120.0L743.0 1118.0L751.0 1098.0L754.0 1095.0L757.0 1098.0L759.0 1101.0L762.0 1104.0L768.0 1104.0L771.0 1101.0L779.0 1098.0L782.0 1095.0L790.0 1093.0L793.0 1090.0L796.0 1093.0L804.0 1107.0L806.0 1109.0L806.0 1115.0L804.0 1118.0L805.0 1146.0L818.0 1148.0L820.0 1145.0L832.0 1145.0L834.0 1148.0L862.0 1142.0L865.0 1140.0L867.0 1137.0L870.0 1134.0L879.0 1134.0L890.0 1107.0L912.0 1115.0L909.0 1118.0L901.0 1154.0L898.0 1156.0L873.0 1168.0L873.0 1187.0L870.0 1189.0L871.0 1202.0L884.0 1206.0L878.875 1225.5L876.0 1245.0L879.0 1248.0L879.0 1256.0L890.0 1253.0L893.0 1251.0L912.0 1259.0L909.0 1262.0L906.0 1273.0L917.0 1273.0L920.0 1300.0L923.0 1303.0L923.0 1309.0L920.0 1312.0L917.0 1328.0L935.0 1324.0L944.0 1338.625L953.0 1345.0L956.0 1347.0L962.0 1367.0L984.0 1373.0L984.0 1397.0L981.0 1400.0L971.0 1404.0L969.125 1444.25L962.0 1486.0L959.0 1489.0L950.0 1489.0L950.0 1505.0L928.0 1511.0L928.0 1527.0L898.0 1533.0L895.0 1530.0L895.0 1525.0L898.0 1522.0L901.0 1511.0L845.0 1519.0L843.0 1522.0L843.0 1527.0L845.0 1530.0L848.0 1533.0L851.0 1536.0L856.0 1547.0L853.0 1550.0L840.0 1558.0L837.0 1561.0L806.0 1555.0L806.0 1564.0L804.0 1566.0L790.0 1564.0L787.0 1566.0L779.0 1566.0L773.0 1580.0L771.0 1583.0L768.0 1586.0L765.0 1588.0L762.0 1597.0L759.0 1600.0L761.0 1618.0L773.0 1619.0L776.0 1616.0L791.0 1612.0L797.5 1628.25L801.0 1652.0L798.0 1655.0L790.0 1658.0L787.0 1661.0L784.0 1677.0L740.0 1677.0L743.0 1705.0L746.0 1708.0L733.75 1722.625L729.0 1741.0L726.0 1744.0L712.125 1753.625L702.0 1767.0L674.0 1769.0L671.0 1771.0L668.0 1774.0L665.0 1777.0L662.0 1779.0L660.0 1782.0L651.0 1782.0L651.0 1791.0L649.0 1793.0L644.875 1799.875L646.0 1824.0L643.0 1827.0L640.0 1838.0L618.0 1838.0L615.0 1827.0L613.0 1824.0L613.0 1816.0L604.0 1816.0L601.0 1813.0L601.0 1777.0L582.0 1777.0L579.0 1774.0L579.0 1766.0L568.0 1766.0L565.0 1744.0L563.0 1741.0L552.0 1741.0L549.0 1744.0L541.0 1744.0L537.375 1766.75L524.0 1785.0L521.0 1788.0L506.25 1805.625L486.25 1815.75L441.0 1827.0L435.0 1846.0L433.0 1849.0L369.0 1874.0L366.0 1876.0L363.0 1874.0L346.25 1875.375L325.0 1885.0L322.0 1888.0L319.0 1899.0L308.0 1899.0L311.0 1910.0L313.0 1913.0L308.0 1924.0L305.0 1926.0L300.0 1926.0L297.0 1924.0L275.0 1915.0L280.0 1946.0L277.0 1949.0L279.0 1961.0L261.0 1968.0L237.125 1956.125L224.296875 1955.765625L214.0 1963.0L211.0 1965.0L185.0 1975.0L169.0 1960.0L169.0 1960.0"
       id="path15154" /></g><g
     inkscape:groupmode="layer"
     id="layer9"
     inkscape:label="sah"><path
       style="shape-rendering:geometricPrecision;text-rendering:geometricPrecision;image-rendering:optimizeQuality;fill-rule:evenodd"
       class="fil5 str0"
       d="M1629.0 1699.0L1627.0 1696.0L1617.0 1692.0L1577.0 1688.0L1572.0 1675.0L1543.25 1670.5L1513.0 1672.0L1510.0 1669.0L1510.0 1633.0L1502.0 1633.0L1499.0 1630.0L1489.375 1626.75L1488.0 1622.0L1499.0 1622.0L1499.0 1614.0L1502.0 1611.0L1504.0 1608.0L1507.0 1605.0L1502.0 1583.0L1499.0 1580.0L1488.0 1555.0L1452.0 1550.0L1449.0 1547.0L1383.0 1539.0L1374.0 1511.0L1372.0 1508.0L1369.0 1494.0L1366.0 1491.0L1358.0 1467.0L1355.0 1464.0L1341.25 1458.5L1311.0 1456.0L1297.0 1417.0L1294.0 1414.0L1291.0 1406.0L1289.0 1403.0L1280.0 1389.0L1278.0 1386.0L1289.0 1364.0L1291.0 1361.0L1294.0 1359.0L1297.0 1356.0L1297.0 1345.0L1294.0 1342.0L1289.0 1336.0L1291.0 1333.0L1291.0 1323.0L1289.0 1320.0L1286.0 1317.0L1283.0 1314.0L1280.0 1312.0L1278.0 1309.0L1294.0 1303.0L1297.0 1300.0L1360.0 1286.0L1363.0 1284.0L1377.0 1284.0L1374.0 1273.0L1372.0 1270.0L1377.0 1264.0L1380.0 1262.0L1399.0 1256.0L1399.0 1234.0L1391.0 1234.0L1388.0 1231.0L1394.0 1220.0L1397.0 1217.0L1405.0 1217.0L1396.25 1195.0L1386.0 1173.0L1383.0 1170.0L1399.0 1168.0L1399.0 1145.0L1388.0 1145.0L1388.0 1134.0L1380.0 1134.0L1377.0 1131.0L1372.0 1107.0L1383.0 1107.0L1380.0 1095.0L1377.0 1093.0L1374.0 1090.0L1372.0 1087.0L1369.0 1084.0L1366.0 1081.0L1363.0 1051.0L1360.0 1048.0L1352.0 1034.0L1349.0 1032.0L1347.0 1029.0L1344.0 1026.0L1344.0 1012.0L1333.0 1012.0L1325.0 990.0L1322.0 987.0L1322.0 963.0L1366.0 954.0L1369.0 951.0L1377.0 951.0L1377.0 935.0L1400.875 935.625L1460.0 943.0L1463.0 940.0L1483.0 932.0L1485.0 929.0L1494.25 918.375L1499.0 904.0L1502.0 901.0L1516.0 893.0L1518.0 890.0L1521.0 888.0L1524.0 885.0L1530.0 885.0L1532.0 888.0L1546.0 896.0L1549.0 899.0L1563.0 901.0L1566.0 904.0L1582.0 913.0L1582.0 929.0L1596.0 935.0L1599.0 937.0L1654.0 940.0L1654.0 951.0L1671.0 949.0L1674.0 946.0L1685.0 957.0L1688.0 960.0L1680.5 999.25L1682.0 1040.0L1671.0 1040.0L1671.0 1071.0L1668.0 1073.0L1671.0 1095.0L1702.875 1105.875L1705.453125 1115.671875L1701.0 1134.0L1704.0 1137.0L1698.0 1181.0L1696.0 1184.0L1698.0 1209.0L1696.0 1212.0L1693.0 1226.0L1690.0 1228.0L1690.0 1234.0L1693.0 1237.0L1704.0 1262.0L1715.0 1262.0L1723.0 1278.0L1726.0 1281.0L1735.0 1284.0L1737.0 1286.0L1737.0 1295.0L1754.0 1295.0L1757.0 1284.0L1759.0 1286.0L1759.0 1295.0L1768.0 1295.0L1771.0 1298.0L1771.0 1306.0L1804.0 1306.0L1804.0 1295.0L1818.0 1300.0L1820.0 1303.0L1834.0 1312.0L1837.0 1314.0L1843.0 1314.0L1846.0 1312.0L1851.0 1317.0L1854.0 1320.0L1884.75 1335.75L1920.0 1347.0L1923.0 1345.0L1929.25 1370.5L1937.0 1381.0L1934.0 1383.0L1934.0 1395.0L1937.0 1397.0L1937.0 1420.0L1934.0 1422.0L1926.0 1425.0L1923.0 1428.0L1915.0 1430.0L1912.0 1433.0L1906.0 1433.0L1903.0 1430.0L1893.0 1430.0L1890.0 1433.0L1865.0 1433.0L1865.0 1422.0L1854.0 1425.0L1851.0 1428.0L1843.0 1436.0L1840.0 1439.0L1815.0 1433.0L1815.0 1442.0L1812.0 1444.0L1809.0 1447.0L1806.0 1450.0L1754.0 1464.0L1751.0 1467.0L1726.0 1467.0L1726.0 1475.0L1723.0 1477.0L1705.578125 1481.734375L1696.875 1489.375L1688.0 1519.0L1685.0 1522.0L1682.0 1539.0L1692.0 1543.0L1693.0 1577.0L1682.0 1577.0L1690.0 1605.0L1693.0 1608.0L1698.0 1647.0L1696.0 1649.0L1693.0 1661.0L1704.0 1661.0L1704.0 1672.0L1715.0 1672.0L1721.0 1708.0L1718.0 1710.0L1707.0 1727.0L1704.0 1724.0L1658.0 1725.0L1643.0 1699.0L1629.0 1699.0L1629.0 1699.0"
       id="path15156" /></g><g
     inkscape:groupmode="layer"
     id="layer10"
     inkscape:label="thu"><path
       style="shape-rendering:geometricPrecision;text-rendering:geometricPrecision;image-rendering:optimizeQuality;fill-rule:evenodd"
       class="fil4 str0"
       d="M1155.0 1902.0L1153.0 1904.0L1145.0 1882.0L1155.0 1882.0L1147.0 1860.0L1145.0 1857.0L1128.0 1857.0L1125.0 1860.0L1117.0 1860.0L1112.0 1875.0L1100.0 1871.0L1106.0 1857.0L1108.0 1854.0L1111.0 1840.0L1114.0 1838.0L1117.0 1807.0L1120.0 1805.0L1122.0 1793.0L1139.0 1793.0L1145.0 1755.0L1128.0 1755.0L1128.0 1749.0L1145.0 1749.0L1139.0 1722.0L1158.0 1722.0L1161.0 1724.0L1183.0 1727.0L1183.0 1699.0L1168.0 1695.0L1183.0 1671.75L1186.0 1644.0L1183.0 1641.0L1181.0 1638.0L1178.0 1635.0L1150.375 1614.5L1122.0 1600.0L1114.0 1577.0L1111.0 1575.0L1117.0 1569.0L1120.0 1566.0L1134.0 1561.0L1134.0 1550.0L1153.0 1544.0L1155.0 1547.0L1167.0 1550.0L1167.0 1539.0L1178.0 1539.0L1178.0 1527.0L1211.0 1522.0L1211.0 1511.0L1222.0 1511.0L1222.0 1503.0L1225.0 1500.0L1232.0 1487.0L1264.25 1489.25L1279.25 1489.25L1295.0 1484.0L1299.0 1464.0L1302.0 1461.0L1352.0 1467.0L1355.0 1470.0L1363.0 1494.0L1366.0 1497.0L1369.0 1511.0L1372.0 1514.0L1377.0 1544.0L1411.625 1549.625L1447.0 1550.0L1449.0 1552.0L1483.0 1561.0L1488.0 1583.0L1497.0 1583.0L1499.0 1586.0L1504.0 1602.0L1502.0 1605.0L1499.0 1608.0L1497.0 1611.0L1483.0 1616.0L1483.0 1633.0L1497.0 1633.0L1499.0 1635.0L1506.0 1652.375L1507.0 1672.0L1510.0 1675.0L1538.125 1675.0L1567.0 1681.0L1571.0 1694.0L1624.0 1699.0L1627.0 1702.0L1638.0 1705.0L1648.0 1732.0L1701.0 1727.0L1704.0 1730.0L1716.0 1728.0L1721.0 1713.0L1723.0 1710.0L1721.0 1677.0L1733.0 1673.0L1737.0 1683.0L1772.0 1687.0L1779.0 1699.0L1782.0 1702.0L1787.0 1716.0L1809.0 1716.0L1813.0 1739.0L1801.0 1749.0L1798.0 1746.0L1782.0 1744.0L1782.0 1755.0L1771.0 1755.0L1761.96875 1767.890625L1747.5 1776.375L1715.0 1788.0L1715.0 1805.0L1726.0 1807.0L1723.0 1810.0L1710.0 1810.0L1716.625 1831.5L1730.0 1850.0L1714.125 1862.0L1693.0 1868.0L1690.0 1871.0L1692.0 1883.0L1671.0 1888.0L1670.25 1897.625L1665.0 1899.0L1662.0 1876.0L1660.0 1874.0L1643.0 1879.0L1641.0 1882.0L1632.0 1899.0L1621.0 1902.0L1618.0 1904.0L1618.0 1915.0L1621.0 1918.0L1633.0 1917.0L1643.0 1929.0L1641.0 1932.0L1627.0 1937.0L1627.0 1957.0L1624.0 1960.0L1614.0 1964.0L1610.0 1954.0L1542.625 1965.875L1521.0 1965.0L1521.0 1954.0L1507.0 1949.0L1504.0 1946.0L1504.0 1915.0L1471.0 1921.0L1471.0 1932.0L1455.0 1932.0L1466.0 1985.0L1463.0 1987.0L1457.0 2021.0L1455.0 2018.0L1452.0 2015.0L1449.0 2012.0L1444.0 2012.0L1441.0 2015.0L1430.0 1982.0L1427.0 1979.0L1416.0 1976.0L1416.0 1985.0L1413.0 1987.0L1369.0 1971.0L1366.0 1968.0L1347.21875 1970.25L1332.75 1977.0L1322.40625 1988.25L1316.0 2004.0L1325.0 2004.0L1327.0 2007.0L1327.0 2015.0L1347.0 2021.0L1349.0 2024.0L1349.0 2032.0L1316.0 2032.0L1313.0 2043.0L1311.0 2040.0L1298.0 2041.0L1291.625 2028.25L1289.0 1993.0L1268.625 1982.75L1255.0 1965.0L1239.0 1965.0L1239.0 1954.0L1228.0 1954.0L1222.0 1932.0L1201.375 1921.375L1189.0 1904.0L1171.0 1908.0L1167.0 1899.0L1155.0 1902.0L1155.0 1902.0"
       id="path15208" /></g><g
     inkscape:groupmode="layer"
     id="layer11"
     inkscape:label="sac"><path
       style="shape-rendering:geometricPrecision;text-rendering:geometricPrecision;image-rendering:optimizeQuality;fill-rule:evenodd"
       class="fil5 str0"
       d="M1732.0 2032.0L1726.0 2010.0L1715.0 2010.0L1711.0 1997.0L1675.75 1990.375L1662.90625 1981.671875L1654.0 1965.0L1643.0 1965.0L1643.0 1954.0L1632.0 1954.0L1632.0 1943.0L1643.0 1943.0L1643.0 1935.0L1646.0 1932.0L1643.0 1910.0L1624.0 1915.0L1621.0 1913.0L1621.0 1907.0L1624.0 1904.0L1639.0 1900.0L1643.0 1885.0L1646.0 1882.0L1657.0 1876.0L1660.0 1879.0L1660.0 1904.0L1676.0 1904.0L1676.0 1893.0L1698.0 1893.0L1693.0 1874.0L1696.0 1871.0L1719.875 1867.375L1737.0 1860.0L1729.875 1838.5L1716.0 1820.0L1726.0 1813.0L1729.0 1810.0L1732.0 1799.0L1722.375 1798.25L1721.0 1793.0L1772.0 1773.0L1776.0 1760.0L1787.0 1760.0L1787.0 1749.0L1796.0 1749.0L1798.0 1752.0L1820.0 1749.0L1815.0 1710.0L1793.0 1710.0L1793.0 1699.0L1785.0 1699.0L1782.0 1696.0L1777.0 1681.0L1743.0 1677.0L1743.0 1666.0L1710.0 1666.0L1710.0 1655.0L1698.0 1652.0L1701.0 1649.0L1696.0 1605.0L1693.0 1602.0L1689.0 1587.0L1698.0 1583.0L1698.0 1533.0L1688.0 1533.0L1688.0 1525.0L1690.0 1522.0L1702.75 1494.25L1726.0 1480.0L1729.0 1477.0L1754.0 1470.0L1757.0 1467.0L1809.0 1453.0L1812.0 1450.0L1815.0 1447.0L1818.0 1444.0L1843.0 1442.0L1846.0 1439.0L1854.0 1439.0L1854.0 1430.0L1856.0 1428.0L1859.0 1439.0L1893.0 1436.0L1895.0 1433.0L1901.0 1433.0L1903.0 1436.0L1912.0 1444.0L1915.0 1447.0L1929.75 1459.75L1937.0 1477.0L1948.0 1477.0L1953.0 1491.0L1950.0 1494.0L1950.0 1533.0L1953.0 1536.0L1953.0 1544.0L1981.0 1536.0L1984.0 1533.0L2006.0 1522.0L2009.0 1525.0L2037.0 1539.0L2037.0 1550.0L2047.0 1547.0L2050.0 1544.0L2087.5 1546.375L2105.125 1544.984375L2122.0 1539.0L2125.0 1541.0L2136.0 1541.0L2139.0 1539.0L2164.0 1539.0L2164.0 1527.0L2175.0 1527.0L2172.0 1500.0L2169.0 1497.0L2172.0 1494.0L2186.0 1494.0L2186.0 1480.0L2189.0 1477.0L2233.0 1472.0L2236.0 1475.0L2264.25 1469.125L2297.0 1461.0L2297.0 1450.0L2308.0 1450.0L2308.0 1461.0L2336.0 1461.0L2336.0 1453.0L2339.0 1450.0L2345.0 1468.0L2374.0 1477.0L2374.0 1483.0L2402.0 1483.0L2413.0 1550.0L2424.0 1550.0L2425.625 1579.25L2419.0 1622.0L2424.0 1622.0L2424.0 1627.0L2416.625 1644.625L2413.0 1666.0L2404.875 1679.75L2396.0 1710.0L2391.0 1722.0L2380.0 1722.0L2377.0 1749.0L2369.0 1755.0L2365.0 1748.0L2336.0 1744.0L2341.0 1710.0L2331.375 1710.75L2330.0 1716.0L2319.0 1716.0L2326.375 1704.25L2330.0 1688.0L2319.0 1688.0L2319.0 1677.0L2297.0 1677.0L2297.0 1666.0L2280.0 1666.0L2280.0 1677.0L2269.0 1677.0L2269.0 1666.0L2236.0 1666.0L2236.0 1699.0L2269.0 1716.0L2269.0 1727.0L2236.625 1735.0L2214.0 1755.0L2192.375 1760.5L2158.0 1766.0L2158.0 1777.0L2148.375 1777.625L2147.0 1782.0L2142.625 1783.375L2142.0 1793.0L2147.0 1793.0L2125.0 1805.0L2125.0 1799.0L2108.0 1799.0L2108.0 1805.0L2103.0 1810.0L2092.0 1810.0L2078.875 1808.5L2053.0 1816.0L2043.0 1850.0L2025.0 1854.0L2003.0 1854.0L1999.0 1870.0L1980.0 1870.0L1970.0 1904.0L1942.0 1899.0L1942.0 1910.0L1926.0 1910.0L1920.0 1937.0L1893.0 1943.0L1887.0 1937.0L1859.0 1935.0L1854.0 1943.0L1848.0 1949.0L1837.0 1954.0L1793.0 1954.0L1793.0 1965.0L1782.0 1965.0L1782.0 1976.0L1771.0 1976.0L1771.0 1987.0L1759.0 1987.0L1752.875 2009.0L1740.0 2043.0L1732.0 2032.0L1732.0 2032.0"
       id="path15210" /></g><g
     inkscape:groupmode="layer"
     id="layer13"
     inkscape:label="ber"><path
       style="shape-rendering:geometricPrecision;text-rendering:geometricPrecision;image-rendering:optimizeQuality;fill-rule:evenodd"
       class="fil4 str0"
       d="M1990.0 1134.0L1987.0 1131.0L1987.0 1123.0L1978.0 1123.0L1976.0 1120.0L1970.0 1120.0L1967.0 1123.0L1953.0 1123.0L1953.0 1112.0L1931.0 1120.0L1929.0 1123.0L1920.0 1126.0L1917.0 1128.0L1915.0 1126.0L1912.0 1123.0L1909.0 1120.0L1920.0 1118.0L1917.0 1107.0L1915.0 1104.0L1915.0 1098.0L1917.0 1095.0L1920.0 1093.0L1923.0 1090.0L1926.0 1054.0L1929.0 1051.0L1937.0 1051.0L1937.0 1037.0L1940.0 1034.0L1953.0 1034.0L1953.75 1025.25L1959.0 1024.0L1959.0 1034.0L1984.375 1025.125L1996.828125 1022.328125L2009.0 1026.0L2006.0 1029.0L2003.0 1045.0L2011.0 1045.0L2014.0 1048.0L2025.0 1051.0L2025.0 1062.0L2039.0 1068.0L2042.0 1071.0L2042.0 1095.0L2070.0 1101.0L2064.0 1120.0L2061.0 1123.0L2054.0 1132.0L2045.5 1126.375L2028.0 1123.0L2025.0 1120.0L2014.0 1120.0L2011.0 1123.0L2009.0 1112.0L1998.0 1115.0L1995.0 1118.0L1990.0 1134.0L1990.0 1134.0"
       id="path15162" /></g><g
     inkscape:groupmode="layer"
     id="layer14"
     inkscape:label="mvp"><path
       style="shape-rendering:geometricPrecision;text-rendering:geometricPrecision;image-rendering:optimizeQuality;fill-rule:evenodd"
       class="fil4 str0"
       d="M1441.0 835.0L1438.0 832.0L1430.0 829.0L1427.0 827.0L1427.0 813.0L1397.0 796.0L1394.0 793.0L1377.0 752.0L1363.0 752.0L1360.0 749.0L1349.0 746.0L1345.0 759.0L1330.0 763.0L1327.0 760.0L1313.0 752.0L1311.0 749.0L1311.0 741.0L1289.0 741.0L1283.0 722.0L1286.0 719.0L1289.0 708.0L1299.0 705.0L1302.0 702.0L1322.0 696.0L1322.0 685.0L1333.0 685.0L1333.0 663.0L1355.0 661.0L1358.0 658.0L1355.0 644.0L1358.0 641.0L1360.0 633.0L1363.0 630.0L1361.265625 615.21875L1355.875 607.75L1333.0 602.0L1333.0 586.0L1322.0 586.0L1316.0 538.0L1319.0 536.0L1339.875 527.875L1366.0 525.0L1366.0 514.0L1349.0 511.0L1360.0 497.0L1372.0 486.0L1383.0 480.0L1410.0 475.0L1433.0 497.0L1427.75 498.375L1427.0 508.0L1438.0 508.0L1444.0 508.0L1471.0 514.0L1477.0 519.0L1478.375 524.25L1488.0 525.0L1489.0 495.0L1499.0 491.0L1499.0 475.0L1513.375 464.75L1521.0 447.0L1527.0 447.0L1521.0 430.0L1527.0 420.0L1593.0 414.0L1632.0 408.0L1638.0 442.0L1654.0 442.0L1652.625 436.75L1643.0 436.0L1643.0 397.0L1648.0 392.0L1654.0 381.0L1660.0 375.0L1671.0 370.0L1676.0 364.0L1688.0 359.0L1693.0 353.0L1696.0 353.0L1698.0 356.0L1702.0 371.0L1721.0 375.0L1715.0 364.0L1715.0 353.0L1732.0 353.0L1731.25 343.375L1726.0 342.0L1726.0 336.0L1754.0 331.0L1754.0 320.0L1804.0 320.0L1804.0 331.0L1820.0 331.0L1826.0 309.0L1837.75 300.875L1854.0 298.0L1858.0 310.0L1870.0 314.0L1873.625 339.875L1881.0 353.0L1887.0 359.0L1903.875 366.375L1926.0 370.0L1929.0 386.0L1948.0 397.0L1964.0 420.0L1965.5 424.375L1976.0 425.0L1976.0 414.0L2009.0 403.0L2021.0 393.0L2031.0 403.0L2042.375 413.125L2050.0 430.0L2053.0 433.0L2053.0 447.0L2047.0 453.0L2047.0 458.0L2064.0 469.0L2068.421875 485.0625L2067.125 497.0L2059.0 525.0L2070.0 525.0L2076.59375 538.078125L2086.75 545.625L2114.0 552.0L2118.0 559.0L2158.0 558.0L2169.0 552.0L2164.0 569.0L2158.75 570.375L2158.0 580.0L2169.0 580.0L2181.0 608.0L2186.0 641.0L2192.0 652.0L2208.0 702.0L2208.0 727.0L2205.0 730.0L2192.0 735.0L2192.0 744.0L2189.0 746.0L2181.0 746.0L2181.0 757.0L2153.0 755.0L2150.0 757.0L2142.0 755.0L2145.0 752.0L2147.0 749.0L2150.0 746.0L2153.0 744.0L2155.0 741.0L2158.0 738.0L2161.0 735.0L2169.0 722.0L2172.0 719.0L2175.0 685.0L2155.0 685.0L2153.0 682.0L2142.0 682.0L2139.0 685.0L2101.0 689.0L2095.0 680.0L2092.0 677.0L2089.0 675.0L2086.0 672.0L2086.0 658.0L2059.0 652.0L2059.0 669.0L2037.0 669.0L2037.0 680.0L2025.0 680.0L2020.0 702.0L2003.0 702.0L1992.0 749.0L1990.0 752.0L1987.0 749.0L1976.0 746.0L1967.0 774.0L1964.0 771.0L1964.0 757.0L1937.0 757.0L1931.0 777.0L1929.0 779.0L1923.0 785.0L1920.0 782.0L1920.0 774.0L1893.5 782.375L1876.0 805.0L1873.0 807.0L1870.0 796.0L1809.0 802.0L1809.0 791.0L1771.625 778.625L1732.0 779.0L1723.0 763.0L1721.0 760.0L1704.75 750.375L1693.0 749.0L1690.0 752.0L1685.0 746.0L1682.0 744.0L1682.0 735.0L1671.0 738.0L1668.0 741.0L1646.0 741.0L1643.0 738.0L1632.0 735.0L1627.0 763.0L1588.328125 778.609375L1553.875 788.875L1526.734375 804.203125L1516.87304688 817.017578125L1510.0 835.0L1471.0 835.0L1467.0 844.0L1441.0 835.0L1441.0 835.0"
       id="path15170" /></g><g
     inkscape:groupmode="layer"
     id="layer16"
     inkscape:label="bre"><path
       style="shape-rendering:geometricPrecision;text-rendering:geometricPrecision;image-rendering:optimizeQuality;fill-rule:evenodd"
       class="fil5 str0"
       d="M859.0 890.0L856.0 888.0L853.0 879.0L851.0 877.0L845.0 877.0L843.0 879.0L832.0 879.0L829.0 877.0L816.0 878.0L812.0 857.0L801.0 857.0L798.0 846.0L796.0 843.0L793.0 835.0L790.0 832.0L787.0 824.0L784.0 821.0L840.0 829.0L840.0 840.0L862.0 838.0L865.0 835.0L870.0 840.0L873.0 843.0L873.0 879.0L862.0 879.0L862.0 888.0L859.0 890.0L859.0 890.0"
       id="path15206" /></g><g
     inkscape:groupmode="layer"
     id="layer17"
     inkscape:label="sh"><path
       style="shape-rendering:geometricPrecision;text-rendering:geometricPrecision;image-rendering:optimizeQuality;fill-rule:evenodd"
       class="fil2 str0"
       d="M1269.0 746.0L1266.0 744.0L1236.0 730.0L1233.0 727.0L1225.0 724.0L1222.0 722.0L1192.0 696.0L1189.0 694.0L1189.0 680.0L1172.0 680.0L1167.0 661.0L1169.0 658.0L1178.0 658.0L1178.0 644.0L1181.0 641.0L1179.25 629.0L1167.0 611.0L1169.0 608.0L1178.0 608.0L1178.0 591.0L1151.875 601.25L1128.0 616.0L1125.0 619.0L1107.0 628.125L1095.0 644.0L1092.0 647.0L1089.0 649.0L1086.0 652.0L1084.0 655.0L1081.0 658.0L1064.125 665.0L1045.0 663.0L1045.0 647.0L1028.0 641.0L1023.0 635.0L1011.0 591.0L995.0 591.0L984.0 569.0L978.0 552.0L973.0 547.0L962.0 541.0L952.0 529.0L906.0 525.0L906.0 519.0L879.0 525.0L873.0 519.0L862.0 497.0L856.0 486.0L851.0 464.0L862.0 464.0L862.0 469.0L884.0 469.0L873.0 436.0L873.0 425.0L845.0 425.0L851.0 375.0L873.0 375.0L879.0 353.0L845.875 360.125L812.0 359.0L806.0 370.0L801.0 364.0L796.0 353.0L796.0 342.0L806.0 342.0L806.0 325.0L797.25 324.375L796.0 320.0L856.0 314.0L866.375 311.125L873.0 303.0L884.0 292.0L890.375 286.25L893.0 270.0L873.0 248.0L867.0 242.0L862.0 226.0L851.0 215.0L851.0 203.0L834.0 203.0L829.0 181.0L818.0 159.0L806.0 137.0L801.0 131.0L801.0 109.0L823.0 104.0L895.0 115.0L928.0 120.0L934.0 126.0L950.0 142.0L967.0 148.0L968.375 153.25L978.0 154.0L978.0 142.0L989.0 137.0L989.0 148.0L998.625 147.25L1000.0 142.0L1017.0 142.0L1017.0 131.0L1034.0 137.0L1056.0 142.0L1068.875 155.75L1084.0 165.0L1089.0 170.0L1090.375 175.25L1100.0 176.0L1100.0 165.0L1117.0 159.0L1122.0 170.0L1128.0 187.0L1128.0 192.0L1117.0 192.0L1104.3125 213.09375L1088.25 229.5L1072.5625 245.15625L1061.0 264.0L1095.375 240.625L1108.671875 227.015625L1117.0 209.0L1134.0 209.0L1128.0 270.0L1117.0 276.0L1089.0 281.0L1089.0 298.0L1167.0 286.0L1172.0 292.0L1172.0 303.0L1172.0 309.0L1164.625 326.5L1161.0 353.0L1173.0 349.0L1183.0 314.0L1198.5 311.125L1205.0 303.0L1216.0 303.0L1233.0 314.0L1244.75 322.125L1261.0 325.0L1294.0 356.0L1316.0 353.0L1327.0 347.0L1339.0 336.0L1360.25 329.0L1383.0 331.0L1383.0 359.0L1388.0 359.0L1383.0 408.0L1372.0 408.0L1372.0 420.0L1356.375 422.75L1349.0 430.0L1344.0 442.0L1333.0 442.0L1331.625 436.75L1322.0 436.0L1322.0 447.0L1309.0 457.0L1311.0 469.0L1316.0 475.0L1316.0 486.0L1339.0 486.0L1333.0 525.0L1316.0 533.0L1313.0 536.0L1316.0 591.0L1327.0 591.0L1327.0 608.0L1349.0 611.0L1360.0 627.0L1358.0 630.0L1355.0 638.0L1352.0 641.0L1355.0 655.0L1352.0 658.0L1327.0 658.0L1327.0 680.0L1316.0 680.0L1316.0 691.0L1299.0 699.0L1297.0 702.0L1283.0 702.0L1283.0 716.0L1280.0 719.0L1283.0 741.0L1269.0 746.0L1269.0 746.0"
       id="path15186" /></g><g
     inkscape:groupmode="layer"
     id="layer18"
     inkscape:label="ham"><path
       style="shape-rendering:geometricPrecision;text-rendering:geometricPrecision;image-rendering:optimizeQuality;fill-rule:evenodd"
       class="fil1 str0"
       d="M1175.0 730.0L1172.0 727.0L1158.0 719.0L1155.0 716.0L1155.0 702.0L1138.625 706.375L1120.0 719.0L1117.0 716.0L1108.0 708.0L1106.0 705.0L1100.0 705.0L1098.0 708.0L1092.0 713.0L1089.0 710.0L1082.375 686.25L1084.0 661.0L1086.0 658.0L1089.0 655.0L1092.0 652.0L1095.0 649.0L1098.0 647.0L1111.125 634.75L1128.0 630.0L1128.0 622.0L1131.0 619.0L1145.625 614.625L1164.0 602.0L1167.0 605.0L1164.0 608.0L1165.75 620.0L1178.0 638.0L1175.0 641.0L1167.0 655.0L1164.0 658.0L1167.0 685.0L1183.0 685.0L1186.0 696.0L1189.0 699.0L1200.0 716.0L1197.0 719.0L1189.0 719.0L1189.0 727.0L1186.0 730.0L1175.0 730.0L1175.0 730.0"
       id="path15166" /></g></svg>