  0
SECTION
  2
HEADER
  9
$ACADVER
  1
AC1014
  9
$HANDSEED
  5
FFFF
  9
$MEASUREMENT
 70
     1
  0
ENDSEC
  0
SECTION
  2
TABLES
  0
TABLE
  2
VPORT
  5
8
330
0
100
AcDbSymbolTable
 70
     4
  0
VPORT
  5
2E
330
8
100
AcDbSymbolTableRecord
100
AcDbViewportTableRecord
  2
*ACTIVE
 70
     0
 10
0.0
 20
0.0
 11
1.0
 21
1.0
 12
210.0
 22
148.5
 13
0.0
 23
0.0
 14
10.0
 24
10.0
 15
10.0
 25
10.0
 16
0.0
 26
0.0
 36
1.0
 17
0.0
 27
0.0
 37
0.0
 40
341.0
 41
1.24
 42
50.0
 43
0.0
 44
0.0
 50
0.0
 51
0.0
 71
     0
 72
   100
 73
     1
 74
     3
 75
     0
 76
     0
 77
     0
 78
     0
  0
ENDTAB
  0
TABLE
  2
LTYPE
  5
5
330
0
100
AcDbSymbolTable
 70
     1
  0
LTYPE
  5
14
330
5
100
AcDbSymbolTableRecord
100
AcDbLinetypeTableRecord
  2
BYBLOCK
 70
     0
  3

 72
    65
 73
     0
 40
0.0
  0
LTYPE
  5
15
330
5
100
AcDbSymbolTableRecord
100
AcDbLinetypeTableRecord
  2
BYLAYER
 70
     0
  3

 72
    65
 73
     0
 40
0.0
  0
LTYPE
  5
16
330
5
100
AcDbSymbolTableRecord
100
AcDbLinetypeTableRecord
  2
CONTINUOUS
 70
     0
  3
Solid line
 72
    65
 73
     0
 40
0.0
  0
ENDTAB
  0
TABLE
  2
LAYER
  5
2
100
AcDbSymbolTable
 70
17
  0
LAYER
  5
50
100
AcDbSymbolTableRecord
100
AcDbLayerTableRecord
  2
0
 70
0
  6
CONTINUOUS
  0
LAYER
  5
51
100
AcDbSymbolTableRecord
100
AcDbLayerTableRecord
  2
nds
 70
0
  6
CONTINUOUS
  0
LAYER
  5
52
100
AcDbSymbolTableRecord
100
AcDbLayerTableRecord
  2
bra
 70
0
  6
CONTINUOUS
  0
LAYER
  5
53
100
AcDbSymbolTableRecord
100
AcDbLayerTableRecord
  2
bw
 70
0
  6
CONTINUOUS
  0
LAYER
  5
54
100
AcDbSymbolTableRecord
100
AcDbLayerTableRecord
  2
bay
 70
0
  6
CONTINUOUS
  0
LAYER
  5
55
100
AcDbSymbolTableRecord
100
AcDbLayerTableRecord
  2
hes
 70
0
  6
CONTINUOUS
  0
LAYER
  5
56
100
AcDbSymbolTableRecord
100
AcDbLayerTableRecord
  2
rp
 70
0
  6
CONTINUOUS
  0
LAYER
  5
57
100
AcDbSymbolTableRecord
100
AcDbLayerTableRecord
  2
sar
 70
0
  6
CONTINUOUS
  0
LAYER
  5
58
100
AcDbSymbolTableRecord
100
AcDbLayerTableRecord
  2
nrw
 70
0
  6
CONTINUOUS
  0
LAYER
  5
59
100
AcDbSymbolTableRecord
100
AcDbLayerTableRecord
  2
sah
 70
0
  6
CONTINUOUS
  0
LAYER
  5
5a
100
AcDbSymbolTableRecord
100
AcDbLayerTableRecord
  2
thu
 70
0
  6
CONTINUOUS
  0
LAYER
  5
5b
100
AcDbSymbolTableRecord
100
AcDbLayerTableRecord
  2
sac
 70
0
  6
CONTINUOUS
  0
LAYER
  5
5c
100
AcDbSymbolTableRecord
100
AcDbLayerTableRecord
  2
ber
 70
0
  6
CONTINUOUS
  0
LAYER
  5
5d
100
AcDbSymbolTableRecord
100
AcDbLayerTableRecord
  2
mvp
 70
0
  6
CONTINUOUS
  0
LAYER
  5
5e
100
AcDbSymbolTableRecord
100
AcDbLayerTableRecord
  2
bre
 70
0
  6
CONTINUOUS
  0
LAYER
  5
5f
100
AcDbSymbolTableRecord
100
AcDbLayerTableRecord
  2
sh
 70
0
  6
CONTINUOUS
  0
LAYER
  5
60
100
AcDbSymbolTableRecord
100
AcDbLayerTableRecord
  2
ham
 70
0
  6
CONTINUOUS
  0
ENDTAB
  0
TABLE
  2
STYLE
  5
3
330
0
100
AcDbSymbolTable
 70
     1
  0
STYLE
  5
11
330
3
100
AcDbSymbolTableRecord
100
AcDbTextStyleTableRecord
  2
STANDARD
 70
     0
 40
0.0
 41
1.0
 50
0.0
 71
     0
 42
2.5
  3
txt
  4

  0
ENDTAB
  0
TABLE
  2
VIEW
  5
6
330
0
100
AcDbSymbolTable
 70
     0
  0
ENDTAB
  0
TABLE
  2
UCS
  5
7
330
0
100
AcDbSymbolTable
 70
     0
  0
ENDTAB
  0
TABLE
  2
APPID
  5
9
330
0
100
AcDbSymbolTable
 70
     2
  0
APPID
  5
12
330
9
100
AcDbSymbolTableRecord
100
AcDbRegAppTableRecord
  2
ACAD
 70
     0
  0
ENDTAB
  0
TABLE
  2
DIMSTYLE
  5
A
330
0
100
AcDbSymbolTable
 70
     1
  0
DIMSTYLE
105
27
330
A
100
AcDbSymbolTableRecord
100
AcDbDimStyleTableRecord
  2
ISO-25
 70
     0
  3

  4

  5

  6

  7

 40
1.0
 41
2.5
 42
0.625
 43
3.75
 44
1.25
 45
0.0
 46
0.0
 47
0.0
 48
0.0
140
2.5
141
2.5
142
0.0
143
0.03937007874016
144
1.0
145
0.0
146
1.0
147
0.625
 71
     0
 72
     0
 73
     0
 74
     0
 75
     0
 76
     0
 77
     1
 78
     8
170
     0
171
     3
172
     1
173
     0
174
     0
175
     0
176
     0
177
     0
178
     0
270
     2
271
     2
272
     2
273
     2
274
     3
340
11
275
     0
280
     0
281
     0
282
     0
283
     0
284
     8
285
     0
286
     0
287
     3
288
     0
  0
ENDTAB
  0
TABLE
  2
BLOCK_RECORD
  5
1
330
0
100
AcDbSymbolTable
 70
     1
  0
BLOCK_RECORD
  5
1F
330
1
100
AcDbSymbolTableRecord
100
AcDbBlockTableRecord
  2
*MODEL_SPACE
  0
BLOCK_RECORD
  5
1B
330
1
100
AcDbSymbolTableRecord
100
AcDbBlockTableRecord
  2
*PAPER_SPACE
  0
ENDTAB
  0
ENDSEC
  0
SECTION
  2
BLOCKS
  0
BLOCK
  5
20
330
1F
100
AcDbEntity
  8
0
100
AcDbBlockBegin
  2
*MODEL_SPACE
 70
     0
 10
0.0
 20
0.0
 30
0.0
  3
*MODEL_SPACE
  1

  0
ENDBLK
  5
21
330
1F
100
AcDbEntity
  8
0
100
AcDbBlockEnd
  0
BLOCK
  5
1C
330
1B
100
AcDbEntity
 67
     1
  8
0
100
AcDbBlockBegin
  2
*PAPER_SPACE
  1

  0
ENDBLK
  5
1D
330
1B
100
AcDbEntity
 67
     1
  8
0
100
AcDbBlockEnd
  0
ENDSEC
  0
SECTION
  2
ENTITIES
  0
LWPOLYLINE
  5
100
100
AcDbEntity
  8
nds
 62
7
100
AcDbPolyline
 90
455
 70
0
 10
298.873333
 20
486.833333
 30
0.0
 10
298.026667
 20
487.680000
 30
0.0
 10
297.180000
 20
488.526667
 30
0.0
 10
296.333333
 20
489.373333
 30
0.0
 10
287.020000
 20
493.324444
 30
0.0
 10
287.020000
 20
496.993333
 30
0.0
 10
287.866667
 20
497.840000
 30
0.0
 10
291.817778
 20
497.840000
 30
0.0
 10
291.817778
 20
500.380000
 30
0.0
 10
292.664444
 20
500.944444
 30
0.0
 10
292.664444
 20
502.637778
 30
0.0
 10
291.817778
 20
503.484444
 30
0.0
 10
291.817778
 20
504.895556
 30
0.0
 10
292.664444
 20
505.742222
 30
0.0
 10
290.971111
 20
511.951111
 30
0.0
 10
290.124444
 20
512.797778
 30
0.0
 10
291.817778
 20
516.748889
 30
0.0
 10
294.922222
 20
516.748889
 30
0.0
 10
294.075556
 20
522.957778
 30
0.0
 10
293.228889
 20
523.522222
 30
0.0
 10
293.228889
 20
526.062222
 30
0.0
 10
287.866667
 20
526.062222
 30
0.0
 10
287.020000
 20
526.908889
 30
0.0
 10
283.351111
 20
526.344444
 30
0.0
 10
282.222222
 20
529.166667
 30
0.0
 10
279.117778
 20
528.320000
 30
0.0
 10
278.553333
 20
527.473333
 30
0.0
 10
277.706667
 20
526.908889
 30
0.0
 10
276.860000
 20
526.062222
 30
0.0
 10
274.602222
 20
526.062222
 30
0.0
 10
274.884444
 20
534.670000
 30
0.0
 10
275.713472
 20
538.603472
 30
0.0
 10
277.706667
 20
542.431111
 30
0.0
 10
278.553333
 20
543.277778
 30
0.0
 10
279.117778
 20
552.591111
 30
0.0
 10
272.908889
 20
554.284444
 30
0.0
 10
272.908889
 20
558.800000
 30
0.0
 10
270.651111
 20
558.800000
 30
0.0
 10
269.804444
 20
559.646667
 30
0.0
 10
267.723056
 20
562.433611
 30
0.0
 10
266.700000
 20
566.702222
 30
0.0
 10
261.620000
 20
565.573333
 30
0.0
 10
260.491111
 20
567.548889
 30
0.0
 10
261.337778
 20
568.113333
 30
0.0
 10
261.337778
 20
571.500000
 30
0.0
 10
260.491111
 20
572.064444
 30
0.0
 10
260.491111
 20
580.813333
 30
0.0
 10
257.386667
 20
581.660000
 30
0.0
 10
258.233333
 20
582.224444
 30
0.0
 10
258.797778
 20
585.328889
 30
0.0
 10
251.177778
 20
586.175556
 30
0.0
 10
250.331111
 20
585.328889
 30
0.0
 10
248.637778
 20
587.022222
 30
0.0
 10
248.073333
 20
587.868889
 30
0.0
 10
250.154722
 20
592.278611
 30
0.0
 10
251.177778
 20
599.440000
 30
0.0
 10
246.380000
 20
601.980000
 30
0.0
 10
247.226667
 20
602.826667
 30
0.0
 10
248.073333
 20
607.342222
 30
0.0
 10
254.282222
 20
608.753333
 30
0.0
 10
254.282222
 20
611.293333
 30
0.0
 10
254.846667
 20
612.140000
 30
0.0
 10
257.386667
 20
622.300000
 30
0.0
 10
258.233333
 20
622.864444
 30
0.0
 10
257.668889
 20
626.533333
 30
0.0
 10
249.484444
 20
627.662222
 30
0.0
 10
244.686667
 20
619.195556
 30
0.0
 10
244.122222
 20
618.348889
 30
0.0
 10
243.275556
 20
617.502222
 30
0.0
 10
242.428889
 20
616.655556
 30
0.0
 10
236.220000
 20
615.244444
 30
0.0
 10
235.373333
 20
616.091111
 30
0.0
 10
230.857778
 20
616.091111
 30
0.0
 10
230.011111
 20
615.244444
 30
0.0
 10
227.471111
 20
622.300000
 30
0.0
 10
228.317778
 20
622.864444
 30
0.0
 10
228.317778
 20
625.968889
 30
0.0
 10
227.471111
 20
626.815556
 30
0.0
 10
225.213333
 20
630.766667
 30
0.0
 10
224.648889
 20
631.613333
 30
0.0
 10
222.955556
 20
631.613333
 30
0.0
 10
222.108889
 20
630.766667
 30
0.0
 10
219.851111
 20
629.920000
 30
0.0
 10
219.004444
 20
629.355556
 30
0.0
 10
216.746667
 20
628.508889
 30
0.0
 10
215.900000
 20
627.662222
 30
0.0
 10
215.053333
 20
628.508889
 30
0.0
 10
214.206667
 20
629.355556
 30
0.0
 10
213.642222
 20
629.920000
 30
0.0
 10
211.948889
 20
629.920000
 30
0.0
 10
211.384444
 20
629.355556
 30
0.0
 10
208.844444
 20
623.711111
 30
0.0
 10
207.997778
 20
622.864444
 30
0.0
 10
199.531111
 20
622.864444
 30
0.0
 10
199.531111
 20
615.244444
 30
0.0
 10
201.788889
 20
615.244444
 30
0.0
 10
202.635556
 20
614.397778
 30
0.0
 10
204.893333
 20
613.551111
 30
0.0
 10
205.740000
 20
612.704444
 30
0.0
 10
206.586667
 20
612.140000
 30
0.0
 10
207.433333
 20
611.293333
 30
0.0
 10
207.997778
 20
608.753333
 30
0.0
 10
208.844444
 20
608.188889
 30
0.0
 10
208.844444
 20
597.182222
 30
0.0
 10
207.997778
 20
596.335556
 30
0.0
 10
207.997778
 20
593.231111
 30
0.0
 10
208.844444
 20
592.384444
 30
0.0
 10
211.948889
 20
590.973333
 30
0.0
 10
211.384444
 20
590.126667
 30
0.0
 10
205.175556
 20
587.586667
 30
0.0
 10
204.046667
 20
583.917778
 30
0.0
 10
193.322222
 20
587.022222
 30
0.0
 10
193.322222
 20
583.917778
 30
0.0
 10
190.217778
 20
583.917778
 30
0.0
 10
190.217778
 20
579.966667
 30
0.0
 10
189.371111
 20
579.120000
 30
0.0
 10
183.726667
 20
578.273333
 30
0.0
 10
183.162222
 20
577.708889
 30
0.0
 10
178.152778
 20
578.026389
 30
0.0
 10
173.566667
 20
576.015556
 30
0.0
 10
173.002222
 20
576.862222
 30
0.0
 10
169.615556
 20
577.708889
 30
0.0
 10
171.308889
 20
581.660000
 30
0.0
 10
172.155556
 20
582.224444
 30
0.0
 10
174.695556
 20
583.635556
 30
0.0
 10
176.106667
 20
591.820000
 30
0.0
 10
169.615556
 20
593.231111
 30
0.0
 10
169.615556
 20
595.488889
 30
0.0
 10
170.462222
 20
596.335556
 30
0.0
 10
172.684722
 20
604.837500
 30
0.0
 10
172.155556
 20
613.551111
 30
0.0
 10
171.308889
 20
614.397778
 30
0.0
 10
162.842222
 20
615.244444
 30
0.0
 10
161.995556
 20
616.091111
 30
0.0
 10
161.148889
 20
616.655556
 30
0.0
 10
160.302222
 20
617.502222
 30
0.0
 10
157.197778
 20
618.348889
 30
0.0
 10
156.351111
 20
622.864444
 30
0.0
 10
155.786667
 20
623.711111
 30
0.0
 10
151.200556
 20
626.427500
 30
0.0
 10
147.884444
 20
626.815556
 30
0.0
 10
147.037778
 20
625.968889
 30
0.0
 10
147.037778
 20
621.453333
 30
0.0
 10
147.884444
 20
620.606667
 30
0.0
 10
147.884444
 20
619.195556
 30
0.0
 10
147.037778
 20
618.348889
 30
0.0
 10
146.191111
 20
615.244444
 30
0.0
 10
139.982222
 20
614.397778
 30
0.0
 10
139.417778
 20
613.551111
 30
0.0
 10
135.466667
 20
612.140000
 30
0.0
 10
135.466667
 20
608.753333
 30
0.0
 10
130.668889
 20
608.753333
 30
0.0
 10
130.668889
 20
605.931111
 30
0.0
 10
127.564444
 20
605.084444
 30
0.0
 10
126.717778
 20
604.237778
 30
0.0
 10
125.306667
 20
602.826667
 30
0.0
 10
124.460000
 20
603.391111
 30
0.0
 10
107.244444
 20
602.826667
 30
0.0
 10
107.244444
 20
607.342222
 30
0.0
 10
108.937778
 20
608.753333
 30
0.0
 10
110.348889
 20
613.551111
 30
0.0
 10
111.830556
 20
613.939167
 30
0.0
 10
112.042222
 20
616.655556
 30
0.0
 10
110.348889
 20
616.655556
 30
0.0
 10
108.937778
 20
620.042222
 30
0.0
 10
107.244444
 20
622.864444
 30
0.0
 10
107.244444
 20
627.662222
 30
0.0
 10
102.446667
 20
627.662222
 30
0.0
 10
102.446667
 20
624.557778
 30
0.0
 10
99.342222
 20
624.557778
 30
0.0
 10
94.262222
 20
626.956667
 30
0.0
 10
88.335556
 20
627.662222
 30
0.0
 10
88.335556
 20
630.766667
 30
0.0
 10
85.231111
 20
630.766667
 30
0.0
 10
85.231111
 20
636.975556
 30
0.0
 10
88.900000
 20
638.386667
 30
0.0
 10
88.335556
 20
641.773333
 30
0.0
 10
88.335556
 20
647.982222
 30
0.0
 10
112.042222
 20
646.571111
 30
0.0
 10
112.042222
 20
654.191111
 30
0.0
 10
113.453333
 20
669.995556
 30
0.0
 10
114.864444
 20
674.511111
 30
0.0
 10
116.557778
 20
676.204444
 30
0.0
 10
118.251111
 20
677.615556
 30
0.0
 10
119.662222
 20
680.720000
 30
0.0
 10
121.355556
 20
684.106667
 30
0.0
 10
122.766667
 20
688.622222
 30
0.0
 10
124.460000
 20
688.622222
 30
0.0
 10
124.460000
 20
694.831111
 30
0.0
 10
122.766667
 20
694.831111
 30
0.0
 10
122.766667
 20
701.322222
 30
0.0
 10
122.766667
 20
702.733333
 30
0.0
 10
122.766667
 20
710.635556
 30
0.0
 10
126.153333
 20
710.635556
 30
0.0
 10
127.564444
 20
726.157778
 30
0.0
 10
136.877778
 20
723.053333
 30
0.0
 10
136.877778
 20
715.151111
 30
0.0
 10
138.571111
 20
715.151111
 30
0.0
 10
138.571111
 20
724.746667
 30
0.0
 10
132.150556
 20
726.828056
 30
0.0
 10
124.460000
 20
727.851111
 30
0.0
 10
112.042222
 20
729.262222
 30
0.0
 10
112.042222
 20
743.373333
 30
0.0
 10
113.453333
 20
747.888889
 30
0.0
 10
114.864444
 20
749.582222
 30
0.0
 10
116.557778
 20
749.582222
 30
0.0
 10
116.945833
 20
748.100556
 30
0.0
 10
119.662222
 20
747.888889
 30
0.0
 10
119.662222
 20
759.177778
 30
0.0
 10
121.355556
 20
760.588889
 30
0.0
 10
126.153333
 20
765.386667
 30
0.0
 10
127.564444
 20
766.797778
 30
0.0
 10
133.773333
 20
768.491111
 30
0.0
 10
136.877778
 20
768.491111
 30
0.0
 10
157.197778
 20
767.644444
 30
0.0
 10
158.891111
 20
769.902222
 30
0.0
 10
160.302222
 20
769.902222
 30
0.0
 10
182.315556
 20
768.491111
 30
0.0
 10
182.315556
 20
766.797778
 30
0.0
 10
183.444444
 20
761.717778
 30
0.0
 10
186.619444
 20
759.283611
 30
0.0
 10
188.524444
 20
757.484444
 30
0.0
 10
191.628889
 20
751.275556
 30
0.0
 10
191.628889
 20
747.888889
 30
0.0
 10
183.726667
 20
746.477778
 30
0.0
 10
183.726667
 20
738.575556
 30
0.0
 10
191.628889
 20
737.164444
 30
0.0
 10
193.322222
 20
735.471111
 30
0.0
 10
193.322222
 20
732.366667
 30
0.0
 10
199.531111
 20
732.366667
 30
0.0
 10
199.531111
 20
735.471111
 30
0.0
 10
201.930000
 20
741.362500
 30
0.0
 10
202.635556
 20
747.888889
 30
0.0
 10
196.426667
 20
747.888889
 30
0.0
 10
196.426667
 20
749.582222
 30
0.0
 10
197.837778
 20
755.791111
 30
0.0
 10
199.531111
 20
757.484444
 30
0.0
 10
204.046667
 20
757.484444
 30
0.0
 10
205.175556
 20
754.097778
 30
0.0
 10
208.844444
 20
752.686667
 30
0.0
 10
211.948889
 20
751.275556
 30
0.0
 10
216.746667
 20
749.582222
 30
0.0
 10
213.889167
 20
744.096528
 30
0.0
 10
212.301667
 20
738.293333
 30
0.0
 10
212.301667
 20
732.278472
 30
0.0
 10
214.206667
 20
726.157778
 30
0.0
 10
215.900000
 20
741.433056
 30
0.0
 10
217.593333
 20
745.066667
 30
0.0
 10
219.533611
 20
743.267500
 30
0.0
 10
222.955556
 20
742.526667
 30
0.0
 10
223.802222
 20
743.373333
 30
0.0
 10
224.825278
 20
745.595833
 30
0.0
 10
225.213333
 20
752.686667
 30
0.0
 10
220.697778
 20
755.791111
 30
0.0
 10
219.851111
 20
756.637778
 30
0.0
 10
219.004444
 20
757.484444
 30
0.0
 10
218.157778
 20
758.331111
 30
0.0
 10
215.053333
 20
759.177778
 30
0.0
 10
213.642222
 20
768.491111
 30
0.0
 10
215.053333
 20
771.595556
 30
0.0
 10
217.946111
 20
776.075833
 30
0.0
 10
222.955556
 20
788.811111
 30
0.0
 10
228.988056
 20
786.412222
 30
0.0
 10
233.962222
 20
784.013333
 30
0.0
 10
233.962222
 20
782.602222
 30
0.0
 10
252.588889
 20
782.602222
 30
0.0
 10
252.588889
 20
784.013333
 30
0.0
 10
269.804444
 20
784.013333
 30
0.0
 10
271.497778
 20
782.602222
 30
0.0
 10
272.908889
 20
777.381111
 30
0.0
 10
276.013333
 20
773.006667
 30
0.0
 10
277.706667
 20
769.902222
 30
0.0
 10
282.222222
 20
765.386667
 30
0.0
 10
283.915556
 20
763.693333
 30
0.0
 10
284.938611
 20
758.295833
 30
0.0
 10
288.713333
 20
754.380000
 30
0.0
 10
291.817778
 20
752.686667
 30
0.0
 10
296.756667
 20
749.229444
 30
0.0
 10
302.542222
 20
747.888889
 30
0.0
 10
303.671111
 20
742.103333
 30
0.0
 10
306.493333
 20
737.164444
 30
0.0
 10
307.340000
 20
736.317778
 30
0.0
 10
310.444444
 20
735.471111
 30
0.0
 10
310.444444
 20
738.011111
 30
0.0
 10
311.291111
 20
738.575556
 30
0.0
 10
312.137778
 20
738.011111
 30
0.0
 10
312.137778
 20
735.471111
 30
0.0
 10
314.395556
 20
735.471111
 30
0.0
 10
315.242222
 20
734.624444
 30
0.0
 10
320.040000
 20
734.624444
 30
0.0
 10
323.426667
 20
738.293333
 30
0.0
 10
325.402222
 20
735.471111
 30
0.0
 10
325.966667
 20
734.624444
 30
0.0
 10
329.917778
 20
732.366667
 30
0.0
 10
330.764444
 20
731.802222
 30
0.0
 10
335.562222
 20
731.802222
 30
0.0
 10
336.408889
 20
732.366667
 30
0.0
 10
338.666667
 20
734.624444
 30
0.0
 10
339.513333
 20
735.471111
 30
0.0
 10
344.028889
 20
734.060000
 30
0.0
 10
344.875556
 20
733.213333
 30
0.0
 10
347.133333
 20
732.366667
 30
0.0
 10
347.980000
 20
731.802222
 30
0.0
 10
356.728889
 20
727.851111
 30
0.0
 10
357.293333
 20
727.004444
 30
0.0
 10
369.146667
 20
726.157778
 30
0.0
 10
369.993333
 20
725.311111
 30
0.0
 10
373.944444
 20
723.053333
 30
0.0
 10
374.508889
 20
722.206667
 30
0.0
 10
381.282222
 20
722.771111
 30
0.0
 10
383.257778
 20
726.157778
 30
0.0
 10
383.822222
 20
725.311111
 30
0.0
 10
386.975174
 20
723.622187
 30
0.0
 10
388.725833
 20
720.689722
 30
0.0
 10
392.571111
 20
713.740000
 30
0.0
 10
393.417778
 20
712.893333
 30
0.0
 10
393.417778
 20
710.635556
 30
0.0
 10
401.320000
 20
707.248889
 30
0.0
 10
401.884444
 20
704.426667
 30
0.0
 10
402.731111
 20
703.580000
 30
0.0
 10
404.988889
 20
702.733333
 30
0.0
 10
405.835556
 20
701.886667
 30
0.0
 10
406.682222
 20
697.935556
 30
0.0
 10
407.528889
 20
697.371111
 30
0.0
 10
408.375556
 20
696.524444
 30
0.0
 10
408.940000
 20
695.677778
 30
0.0
 10
409.786667
 20
694.831111
 30
0.0
 10
410.633333
 20
693.984444
 30
0.0
 10
411.197778
 20
693.420000
 30
0.0
 10
412.044444
 20
692.573333
 30
0.0
 10
415.148889
 20
692.573333
 30
0.0
 10
415.995556
 20
693.420000
 30
0.0
 10
420.793333
 20
694.831111
 30
0.0
 10
421.640000
 20
693.984444
 30
0.0
 10
422.486667
 20
693.420000
 30
0.0
 10
423.051111
 20
692.573333
 30
0.0
 10
428.413333
 20
691.726667
 30
0.0
 10
429.260000
 20
690.880000
 30
0.0
 10
429.260000
 20
689.468889
 30
0.0
 10
428.413333
 20
688.622222
 30
0.0
 10
427.848889
 20
687.775556
 30
0.0
 10
427.002222
 20
687.211111
 30
0.0
 10
423.051111
 20
687.211111
 30
0.0
 10
423.051111
 20
684.671111
 30
0.0
 10
422.486667
 20
684.106667
 30
0.0
 10
418.535556
 20
676.768889
 30
0.0
 10
417.688889
 20
676.204444
 30
0.0
 10
412.044444
 20
673.946667
 30
0.0
 10
411.197778
 20
673.100000
 30
0.0
 10
399.097500
 20
675.604722
 30
0.0
 10
387.208889
 20
676.204444
 30
0.0
 10
385.515556
 20
670.560000
 30
0.0
 10
384.668889
 20
669.995556
 30
0.0
 10
371.404444
 20
668.302222
 30
0.0
 10
372.251111
 20
658.988889
 30
0.0
 10
373.097778
 20
658.142222
 30
0.0
 10
374.508889
 20
651.086667
 30
0.0
 10
377.895556
 20
651.086667
 30
0.0
 10
378.460000
 20
647.982222
 30
0.0
 10
379.306667
 20
647.135556
 30
0.0
 10
380.153333
 20
646.571111
 30
0.0
 10
380.717778
 20
645.724444
 30
0.0
 10
380.717778
 20
641.773333
 30
0.0
 10
383.257778
 20
641.773333
 30
0.0
 10
383.822222
 20
640.926667
 30
0.0
 10
384.668889
 20
632.460000
 30
0.0
 10
385.515556
 20
631.613333
 30
0.0
 10
386.362222
 20
630.766667
 30
0.0
 10
387.208889
 20
629.920000
 30
0.0
 10
387.773333
 20
629.355556
 30
0.0
 10
388.620000
 20
628.508889
 30
0.0
 10
385.515556
 20
627.662222
 30
0.0
 10
387.773333
 20
618.348889
 30
0.0
 10
388.620000
 20
617.502222
 30
0.0
 10
390.313333
 20
613.551111
 30
0.0
 10
393.417778
 20
613.551111
 30
0.0
 10
393.417778
 20
610.446667
 30
0.0
 10
388.620000
 20
610.446667
 30
0.0
 10
389.466667
 20
607.342222
 30
0.0
 10
390.313333
 20
606.495556
 30
0.0
 10
392.394722
 20
599.616389
 30
0.0
 10
393.417778
 20
595.488889
 30
0.0
 10
392.571111
 20
594.924444
 30
0.0
 10
391.160000
 20
590.126667
 30
0.0
 10
391.724444
 20
589.280000
 30
0.0
 10
393.417778
 20
585.328889
 30
0.0
 10
388.620000
 20
583.071111
 30
0.0
 10
387.773333
 20
582.224444
 30
0.0
 10
385.515556
 20
582.224444
 30
0.0
 10
386.362222
 20
579.120000
 30
0.0
 10
387.208889
 20
578.273333
 30
0.0
 10
383.822222
 20
576.862222
 30
0.0
 10
383.257778
 20
576.015556
 30
0.0
 10
365.195556
 20
574.604444
 30
0.0
 10
365.195556
 20
572.064444
 30
0.0
 10
364.348889
 20
571.500000
 30
0.0
 10
358.986667
 20
571.500000
 30
0.0
 10
359.833333
 20
568.113333
 30
0.0
 10
360.680000
 20
567.548889
 30
0.0
 10
361.244444
 20
566.702222
 30
0.0
 10
362.091111
 20
565.855556
 30
0.0
 10
362.937778
 20
565.008889
 30
0.0
 10
363.784444
 20
564.162222
 30
0.0
 10
363.784444
 20
562.751111
 30
0.0
 10
362.937778
 20
562.186667
 30
0.0
 10
362.091111
 20
558.800000
 30
0.0
 10
364.348889
 20
558.800000
 30
0.0
 10
365.195556
 20
558.235556
 30
0.0
 10
365.195556
 20
556.542222
 30
0.0
 10
364.348889
 20
555.695556
 30
0.0
 10
363.784444
 20
554.848889
 30
0.0
 10
362.937778
 20
554.284444
 30
0.0
 10
360.433056
 20
550.756667
 30
0.0
 10
359.833333
 20
546.382222
 30
0.0
 10
360.680000
 20
545.535556
 30
0.0
 10
360.680000
 20
541.584444
 30
0.0
 10
362.937778
 20
541.584444
 30
0.0
 10
363.784444
 20
541.020000
 30
0.0
 10
364.348889
 20
538.480000
 30
0.0
 10
365.195556
 20
537.633333
 30
0.0
 10
367.065278
 20
529.307778
 30
0.0
 10
366.606667
 20
526.908889
 30
0.0
 10
366.042222
 20
526.062222
 30
0.0
 10
362.316007
 20
520.814653
 30
0.0
 10
357.822500
 20
519.430000
 30
0.0
 10
346.004444
 20
520.417778
 30
0.0
 10
344.875556
 20
515.902222
 30
0.0
 10
344.028889
 20
515.055556
 30
0.0
 10
340.077778
 20
513.644444
 30
0.0
 10
340.077778
 20
510.257778
 30
0.0
 10
330.764444
 20
508.846667
 30
0.0
 10
330.764444
 20
505.742222
 30
0.0
 10
327.660000
 20
505.742222
 30
0.0
 10
326.813333
 20
502.637778
 30
0.0
 10
325.966667
 20
503.484444
 30
0.0
 10
318.346667
 20
502.637778
 30
0.0
 10
318.346667
 20
499.533333
 30
0.0
 10
315.242222
 20
499.533333
 30
0.0
 10
315.242222
 20
496.993333
 30
0.0
 10
314.395556
 20
496.428889
 30
0.0
 10
313.548889
 20
500.944444
 30
0.0
 10
309.033333
 20
500.944444
 30
0.0
 10
309.033333
 20
496.993333
 30
0.0
 10
308.186667
 20
496.428889
 30
0.0
 10
306.493333
 20
499.533333
 30
0.0
 10
305.928889
 20
500.380000
 30
0.0
 10
302.542222
 20
500.944444
 30
0.0
 10
301.131111
 20
496.993333
 30
0.0
 10
300.284444
 20
496.428889
 30
0.0
 10
298.026667
 20
495.582222
 30
0.0
 10
297.180000
 20
494.735556
 30
0.0
 10
297.462222
 20
491.525278
 30
0.0
 10
299.437778
 20
487.680000
 30
0.0
 10
298.873333
 20
486.833333
 30
0.0
 10
298.873333
 20
486.833333
 30
0.0
  0
SPLINE
  5
101
100
AcDbEntity
  8
bra
 62
7
100
AcDbSpline
 70
8
 71
3
 72
8
 73
4
 74
0
 40
0
 40
0
 40
0
 40
0
 40
1
 40
1
 40
1
 40
1
 10
239.324444
 20
690.315556
 30
0.0
 10
239.042222
 20
690.597778
 30
0.0
 10
238.760000
 20
690.597778
 30
0.0
 10
238.477778
 20
690.880000
 30
0.0
  0
SPLINE
  5
102
100
AcDbEntity
  8
bra
 62
7
100
AcDbSpline
 70
8
 71
3
 72
8
 73
4
 74
0
 40
0
 40
0
 40
0
 40
0
 40
1
 40
1
 40
1
 40
1
 10
238.477778
 20
690.880000
 30
0.0
 10
239.042222
 20
690.880000
 30
0.0
 10
239.606667
 20
690.880000
 30
0.0
 10
240.171111
 20
690.880000
 30
0.0
  0
SPLINE
  5
103
100
AcDbEntity
  8
bra
 62
7
100
AcDbSpline
 70
8
 71
3
 72
8
 73
4
 74
0
 40
0
 40
0
 40
0
 40
0
 40
1
 40
1
 40
1
 40
1
 10
240.171111
 20
690.880000
 30
0.0
 10
239.888889
 20
690.597778
 30
0.0
 10
239.606667
 20
690.597778
 30
0.0
 10
239.324444
 20
690.315556
 30
0.0
  0
LWPOLYLINE
  5
104
100
AcDbEntity
  8
bra
 62
7
100
AcDbPolyline
 90
285
 70
0
 10
567.548889
 20
508.846667
 30
0.0
 10
566.984444
 20
509.693333
 30
0.0
 10
559.082222
 20
508.846667
 30
0.0
 10
559.082222
 20
506.588889
 30
0.0
 10
558.235556
 20
505.742222
 30
0.0
 10
552.026667
 20
505.742222
 30
0.0
 10
551.180000
 20
506.588889
 30
0.0
 10
551.180000
 20
515.902222
 30
0.0
 10
552.026667
 20
516.748889
 30
0.0
 10
551.180000
 20
522.957778
 30
0.0
 10
548.075556
 20
522.957778
 30
0.0
 10
546.241111
 20
528.496389
 30
0.0
 10
541.020000
 20
530.860000
 30
0.0
 10
540.455556
 20
531.424444
 30
0.0
 10
540.455556
 20
533.117778
 30
0.0
 10
541.020000
 20
533.964444
 30
0.0
 10
543.560000
 20
534.811111
 30
0.0
 10
544.406667
 20
535.375556
 30
0.0
 10
546.664444
 20
536.222222
 30
0.0
 10
547.511111
 20
537.068889
 30
0.0
 10
547.511111
 20
544.688889
 30
0.0
 10
546.664444
 20
545.535556
 30
0.0
 10
546.664444
 20
547.228889
 30
0.0
 10
547.511111
 20
548.075556
 30
0.0
 10
544.971111
 20
560.493333
 30
0.0
 10
541.866667
 20
559.646667
 30
0.0
 10
541.020000
 20
558.800000
 30
0.0
 10
532.553333
 20
563.597778
 30
0.0
 10
532.553333
 20
566.702222
 30
0.0
 10
523.804444
 20
566.702222
 30
0.0
 10
523.240000
 20
567.548889
 30
0.0
 10
523.240000
 20
569.806667
 30
0.0
 10
520.135556
 20
568.960000
 30
0.0
 10
519.288889
 20
568.113333
 30
0.0
 10
518.442222
 20
568.960000
 30
0.0
 10
518.442222
 20
571.500000
 30
0.0
 10
514.491111
 20
571.500000
 30
0.0
 10
513.644444
 20
572.064444
 30
0.0
 10
513.644444
 20
574.604444
 30
0.0
 10
507.435556
 20
574.604444
 30
0.0
 10
507.435556
 20
571.500000
 30
0.0
 10
500.380000
 20
572.911111
 30
0.0
 10
499.815556
 20
573.757778
 30
0.0
 10
497.275556
 20
576.015556
 30
0.0
 10
496.428889
 20
576.862222
 30
0.0
 10
493.324444
 20
577.708889
 30
0.0
 10
491.983889
 20
575.803889
 30
0.0
 10
491.066667
 20
576.015556
 30
0.0
 10
490.220000
 20
576.862222
 30
0.0
 10
487.962222
 20
577.708889
 30
0.0
 10
487.115556
 20
578.273333
 30
0.0
 10
485.704444
 20
583.917778
 30
0.0
 10
482.600000
 20
583.917778
 30
0.0
 10
478.648889
 20
590.126667
 30
0.0
 10
477.802222
 20
590.973333
 30
0.0
 10
478.648889
 20
591.820000
 30
0.0
 10
479.213333
 20
595.488889
 30
0.0
 10
480.060000
 20
596.335556
 30
0.0
 10
479.213333
 20
603.391111
 30
0.0
 10
480.060000
 20
604.237778
 30
0.0
 10
481.541667
 20
608.330000
 30
0.0
 10
481.753333
 20
618.348889
 30
0.0
 10
480.906667
 20
619.195556
 30
0.0
 10
482.846944
 20
623.393611
 30
0.0
 10
482.882222
 20
628.226667
 30
0.0
 10
473.004444
 20
630.766667
 30
0.0
 10
471.593333
 20
634.717778
 30
0.0
 10
472.440000
 20
635.564444
 30
0.0
 10
473.004444
 20
643.466667
 30
0.0
 10
476.391111
 20
643.466667
 30
0.0
 10
475.826667
 20
658.212778
 30
0.0
 10
476.955556
 20
668.302222
 30
0.0
 10
476.391111
 20
669.148889
 30
0.0
 10
474.980000
 20
671.971111
 30
0.0
 10
471.593333
 20
672.253333
 30
0.0
 10
470.746667
 20
671.406667
 30
0.0
 10
468.488889
 20
671.406667
 30
0.0
 10
468.488889
 20
674.511111
 30
0.0
 10
451.837778
 20
674.511111
 30
0.0
 10
451.273333
 20
675.357778
 30
0.0
 10
451.273333
 20
677.615556
 30
0.0
 10
448.168889
 20
677.615556
 30
0.0
 10
448.168889
 20
682.413333
 30
0.0
 10
442.524444
 20
684.106667
 30
0.0
 10
441.960000
 20
684.671111
 30
0.0
 10
438.008889
 20
685.517778
 30
0.0
 10
437.162222
 20
686.364444
 30
0.0
 10
437.162222
 20
688.622222
 30
0.0
 10
433.211111
 20
688.622222
 30
0.0
 10
432.364444
 20
689.468889
 30
0.0
 10
430.106667
 20
691.726667
 30
0.0
 10
429.260000
 20
692.573333
 30
0.0
 10
423.897778
 20
693.420000
 30
0.0
 10
423.051111
 20
693.984444
 30
0.0
 10
422.486667
 20
694.831111
 30
0.0
 10
421.640000
 20
695.677778
 30
0.0
 10
415.148889
 20
696.524444
 30
0.0
 10
415.148889
 20
693.984444
 30
0.0
 10
414.584444
 20
693.420000
 30
0.0
 10
412.891111
 20
693.420000
 30
0.0
 10
412.044444
 20
693.984444
 30
0.0
 10
411.197778
 20
694.831111
 30
0.0
 10
410.633333
 20
695.677778
 30
0.0
 10
409.786667
 20
696.524444
 30
0.0
 10
408.940000
 20
697.371111
 30
0.0
 10
408.375556
 20
697.935556
 30
0.0
 10
407.528889
 20
698.782222
 30
0.0
 10
416.842222
 20
697.935556
 30
0.0
 10
416.842222
 20
701.322222
 30
0.0
 10
427.848889
 20
701.322222
 30
0.0
 10
430.545434
 20
707.662300
 30
0.0
 10
434.551667
 20
711.402847
 30
0.0
 10
444.852778
 20
714.657222
 30
0.0
 10
450.327448
 20
715.956988
 30
0.0
 10
455.471389
 20
718.229097
 30
0.0
 10
459.874497
 20
722.366519
 30
0.0
 10
463.126667
 20
729.262222
 30
0.0
 10
463.691111
 20
728.415556
 30
0.0
 10
471.593333
 20
728.415556
 30
0.0
 10
472.440000
 20
729.262222
 30
0.0
 10
473.851111
 20
727.851111
 30
0.0
 10
474.697778
 20
727.004444
 30
0.0
 10
474.697778
 20
724.746667
 30
0.0
 10
477.802222
 20
725.311111
 30
0.0
 10
478.648889
 20
726.157778
 30
0.0
 10
481.118333
 20
724.076389
 30
0.0
 10
484.857778
 20
723.053333
 30
0.0
 10
485.704444
 20
722.206667
 30
0.0
 10
487.115556
 20
716.844444
 30
0.0
 10
498.439722
 20
716.879722
 30
0.0
 10
509.128889
 20
713.740000
 30
0.0
 10
509.128889
 20
710.635556
 30
0.0
 10
526.344444
 20
712.046667
 30
0.0
 10
526.344444
 20
708.942222
 30
0.0
 10
529.448889
 20
709.788889
 30
0.0
 10
530.295556
 20
710.635556
 30
0.0
 10
534.140833
 20
713.528333
 30
0.0
 10
535.657778
 20
716.844444
 30
0.0
 10
541.020000
 20
716.844444
 30
0.0
 10
541.866667
 20
715.997778
 30
0.0
 10
544.971111
 20
715.151111
 30
0.0
 10
544.971111
 20
717.691111
 30
0.0
 10
545.817778
 20
718.537778
 30
0.0
 10
548.075556
 20
723.053333
 30
0.0
 10
552.873333
 20
723.053333
 30
0.0
 10
553.720000
 20
719.948889
 30
0.0
 10
554.284444
 20
719.102222
 30
0.0
 10
557.671111
 20
718.537778
 30
0.0
 10
559.928889
 20
726.157778
 30
0.0
 10
560.775556
 20
725.311111
 30
0.0
 10
562.186667
 20
725.311111
 30
0.0
 10
563.033333
 20
726.157778
 30
0.0
 10
566.984444
 20
738.575556
 30
0.0
 10
571.500000
 20
738.575556
 30
0.0
 10
573.193333
 20
745.066667
 30
0.0
 10
576.297778
 20
745.066667
 30
0.0
 10
576.297778
 20
747.888889
 30
0.0
 10
582.506667
 20
747.888889
 30
0.0
 10
583.635556
 20
752.404444
 30
0.0
 10
587.304444
 20
751.275556
 30
0.0
 10
588.151111
 20
747.888889
 30
0.0
 10
588.715556
 20
747.324444
 30
0.0
 10
589.562222
 20
746.477778
 30
0.0
 10
590.408889
 20
745.913333
 30
0.0
 10
590.408889
 20
741.962222
 30
0.0
 10
604.520000
 20
741.962222
 30
0.0
 10
604.520000
 20
744.220000
 30
0.0
 10
605.366667
 20
745.066667
 30
0.0
 10
606.777778
 20
745.066667
 30
0.0
 10
607.624444
 20
744.220000
 30
0.0
 10
612.140000
 20
743.373333
 30
0.0
 10
612.140000
 20
736.317778
 30
0.0
 10
611.575556
 20
735.471111
 30
0.0
 10
609.035556
 20
731.802222
 30
0.0
 10
608.188889
 20
730.955556
 30
0.0
 10
607.624444
 20
730.108889
 30
0.0
 10
606.777778
 20
729.262222
 30
0.0
 10
605.931111
 20
728.415556
 30
0.0
 10
605.366667
 20
727.851111
 30
0.0
 10
604.520000
 20
727.004444
 30
0.0
 10
603.673333
 20
726.157778
 30
0.0
 10
602.826667
 20
723.053333
 30
0.0
 10
607.624444
 20
723.900000
 30
0.0
 10
608.188889
 20
724.746667
 30
0.0
 10
616.937778
 20
723.053333
 30
0.0
 10
618.631111
 20
727.004444
 30
0.0
 10
619.477778
 20
727.851111
 30
0.0
 10
623.146667
 20
729.262222
 30
0.0
 10
623.146667
 20
731.802222
 30
0.0
 10
623.993333
 20
732.366667
 30
0.0
 10
624.910556
 20
728.415556
 30
0.0
 10
626.251111
 20
727.851111
 30
0.0
 10
626.251111
 20
721.360000
 30
0.0
 10
624.840000
 20
718.537778
 30
0.0
 10
623.146667
 20
718.537778
 30
0.0
 10
623.146667
 20
712.046667
 30
0.0
 10
624.840000
 20
712.046667
 30
0.0
 10
624.840000
 20
707.248889
 30
0.0
 10
623.146667
 20
702.733333
 30
0.0
 10
621.735556
 20
701.322222
 30
0.0
 10
620.042222
 20
697.935556
 30
0.0
 10
616.937778
 20
694.831111
 30
0.0
 10
615.526667
 20
693.420000
 30
0.0
 10
612.140000
 20
691.726667
 30
0.0
 10
610.728889
 20
690.315556
 30
0.0
 10
609.035556
 20
690.315556
 30
0.0
 10
610.728889
 20
679.308889
 30
0.0
 10
609.035556
 20
679.308889
 30
0.0
 10
609.035556
 20
673.100000
 30
0.0
 10
615.526667
 20
673.100000
 30
0.0
 10
615.526667
 20
669.995556
 30
0.0
 10
618.631111
 20
669.995556
 30
0.0
 10
618.631111
 20
666.608889
 30
0.0
 10
623.146667
 20
666.608889
 30
0.0
 10
624.840000
 20
665.197778
 30
0.0
 10
627.944444
 20
662.093333
 30
0.0
 10
629.355556
 20
660.682222
 30
0.0
 10
634.153333
 20
655.884444
 30
0.0
 10
637.257778
 20
654.191111
 30
0.0
 10
640.362222
 20
652.780000
 30
0.0
 10
642.055556
 20
651.086667
 30
0.0
 10
643.466667
 20
649.393333
 30
0.0
 10
645.160000
 20
646.571111
 30
0.0
 10
643.466667
 20
638.668889
 30
0.0
 10
646.853333
 20
638.668889
 30
0.0
 10
646.853333
 20
635.564444
 30
0.0
 10
645.160000
 20
632.460000
 30
0.0
 10
640.362222
 20
630.766667
 30
0.0
 10
640.362222
 20
622.864444
 30
0.0
 10
642.055556
 20
622.864444
 30
0.0
 10
643.466667
 20
620.042222
 30
0.0
 10
645.160000
 20
612.140000
 30
0.0
 10
650.875000
 20
609.141389
 30
0.0
 10
654.473333
 20
604.237778
 30
0.0
 10
652.991667
 20
603.849722
 30
0.0
 10
652.780000
 20
601.133333
 30
0.0
 10
654.473333
 20
601.133333
 30
0.0
 10
654.473333
 20
598.028889
 30
0.0
 10
652.780000
 20
598.028889
 30
0.0
 10
652.780000
 20
591.820000
 30
0.0
 10
654.473333
 20
591.820000
 30
0.0
 10
657.577778
 20
590.126667
 30
0.0
 10
659.271111
 20
588.715556
 30
0.0
 10
657.577778
 20
582.224444
 30
0.0
 10
656.166667
 20
582.224444
 30
0.0
 10
656.166667
 20
568.113333
 30
0.0
 10
652.780000
 20
568.113333
 30
0.0
 10
651.368889
 20
563.597778
 30
0.0
 10
649.393333
 20
562.468889
 30
0.0
 10
649.393333
 20
557.106667
 30
0.0
 10
652.780000
 20
555.695556
 30
0.0
 10
656.166667
 20
546.382222
 30
0.0
 10
656.554722
 20
544.900556
 30
0.0
 10
659.271111
 20
544.688889
 30
0.0
 10
659.271111
 20
541.584444
 30
0.0
 10
662.375556
 20
541.584444
 30
0.0
 10
662.375556
 20
532.271111
 30
0.0
 10
659.271111
 20
530.013333
 30
0.0
 10
658.424444
 20
529.166667
 30
0.0
 10
652.780000
 20
527.473333
 30
0.0
 10
652.780000
 20
530.860000
 30
0.0
 10
646.853333
 20
530.860000
 30
0.0
 10
646.853333
 20
527.473333
 30
0.0
 10
631.895556
 20
522.957778
 30
0.0
 10
631.048889
 20
523.522222
 30
0.0
 10
616.937778
 20
522.111111
 30
0.0
 10
616.091111
 20
521.546667
 30
0.0
 10
615.526667
 20
518.160000
 30
0.0
 10
612.140000
 20
517.595556
 30
0.0
 10
611.575556
 20
516.748889
 30
0.0
 10
611.575556
 20
515.055556
 30
0.0
 10
612.140000
 20
514.208889
 30
0.0
 10
612.140000
 20
508.846667
 30
0.0
 10
609.035556
 20
508.846667
 30
0.0
 10
609.035556
 20
505.742222
 30
0.0
 10
602.826667
 20
504.895556
 30
0.0
 10
602.262222
 20
504.048889
 30
0.0
 10
600.568889
 20
504.048889
 30
0.0
 10
599.722222
 20
504.895556
 30
0.0
 10
592.313889
 20
503.660833
 30
0.0
 10
577.708889
 20
503.484444
 30
0.0
 10
577.144444
 20
502.637778
 30
0.0
 10
576.297778
 20
505.742222
 30
0.0
 10
567.548889
 20
508.846667
 30
0.0
 10
567.548889
 20
508.846667
 30
0.0
  0
LWPOLYLINE
  5
105
100
AcDbEntity
  8
bra
 62
7
100
AcDbPolyline
 90
2
 70
1
 10
239.324444
 20
690.315556
 30
0.0
 10
239.324444
 20
690.315556
 30
0.0
  0
LWPOLYLINE
  5
106
100
AcDbEntity
  8
bw
 62
7
100
AcDbPolyline
 90
289
 70
0
 10
133.773333
 20
52.211111
 30
0.0
 10
132.362222
 20
53.904444
 30
0.0
 10
130.668889
 20
55.315556
 30
0.0
 10
128.975556
 20
58.420000
 30
0.0
 10
128.975556
 20
63.217778
 30
0.0
 10
126.153333
 20
63.217778
 30
0.0
 10
124.460000
 20
64.911111
 30
0.0
 10
124.460000
 20
72.531111
 30
0.0
 10
126.153333
 20
82.126667
 30
0.0
 10
128.411111
 20
85.231111
 30
0.0
 10
127.564444
 20
88.335556
 30
0.0
 10
127.564444
 20
91.440000
 30
0.0
 10
128.975556
 20
92.851111
 30
0.0
 10
130.668889
 20
99.342222
 30
0.0
 10
132.362222
 20
100.753333
 30
0.0
 10
133.596944
 20
101.141389
 30
0.0
 10
133.773333
 20
103.857778
 30
0.0
 10
132.362222
 20
103.857778
 30
0.0
 10
132.362222
 20
108.655556
 30
0.0
 10
129.398889
 20
108.831944
 30
0.0
 10
128.975556
 20
110.066667
 30
0.0
 10
128.975556
 20
111.760000
 30
0.0
 10
128.975556
 20
114.864444
 30
0.0
 10
133.773333
 20
125.871111
 30
0.0
 10
135.255000
 20
126.259167
 30
0.0
 10
135.466667
 20
128.975556
 30
0.0
 10
138.571111
 20
128.975556
 30
0.0
 10
138.571111
 20
136.595556
 30
0.0
 10
139.982222
 20
139.982222
 30
0.0
 10
144.780000
 20
141.393333
 30
0.0
 10
144.780000
 20
146.191111
 30
0.0
 10
143.086667
 20
146.191111
 30
0.0
 10
143.086667
 20
149.295556
 30
0.0
 10
144.780000
 20
156.915556
 30
0.0
 10
146.191111
 20
160.020000
 30
0.0
 10
147.884444
 20
163.406667
 30
0.0
 10
149.577778
 20
164.817778
 30
0.0
 10
149.577778
 20
166.511111
 30
0.0
 10
149.577778
 20
169.615556
 30
0.0
 10
149.577778
 20
171.026667
 30
0.0
 10
149.577778
 20
174.131111
 30
0.0
 10
154.093333
 20
180.622222
 30
0.0
 10
155.786667
 20
182.033333
 30
0.0
 10
157.197778
 20
183.726667
 30
0.0
 10
158.891111
 20
185.137778
 30
0.0
 10
160.302222
 20
186.831111
 30
0.0
 10
161.995556
 20
188.242222
 30
0.0
 10
163.230278
 20
188.630278
 30
0.0
 10
163.406667
 20
191.346667
 30
0.0
 10
166.793333
 20
191.346667
 30
0.0
 10
166.793333
 20
194.451111
 30
0.0
 10
169.474444
 20
195.509444
 30
0.0
 10
171.308889
 20
197.837778
 30
0.0
 10
173.002222
 20
199.248889
 30
0.0
 10
174.413333
 20
204.046667
 30
0.0
 10
176.106667
 20
208.562222
 30
0.0
 10
177.517778
 20
210.255556
 30
0.0
 10
179.211111
 20
213.360000
 30
0.0
 10
180.622222
 20
214.771111
 30
0.0
 10
183.726667
 20
217.311111
 30
0.0
 10
184.573333
 20
217.875556
 30
0.0
 10
186.831111
 20
218.722222
 30
0.0
 10
187.677778
 20
219.568889
 30
0.0
 10
188.524444
 20
225.213333
 30
0.0
 10
189.371111
 20
225.777778
 30
0.0
 10
190.217778
 20
226.624444
 30
0.0
 10
190.782222
 20
227.471111
 30
0.0
 10
193.322222
 20
231.422222
 30
0.0
 10
194.168889
 20
231.986667
 30
0.0
 10
197.837778
 20
249.202222
 30
0.0
 10
200.942222
 20
249.202222
 30
0.0
 10
200.942222
 20
251.742222
 30
0.0
 10
201.788889
 20
252.588889
 30
0.0
 10
202.635556
 20
253.153333
 30
0.0
 10
203.482222
 20
254.000000
 30
0.0
 10
203.482222
 20
255.411111
 30
0.0
 10
202.635556
 20
256.257778
 30
0.0
 10
200.942222
 20
257.951111
 30
0.0
 10
201.788889
 20
258.515556
 30
0.0
 10
202.635556
 20
259.362222
 30
0.0
 10
203.482222
 20
260.208889
 30
0.0
 10
205.740000
 20
272.626667
 30
0.0
 10
200.942222
 20
273.473333
 30
0.0
 10
201.788889
 20
274.320000
 30
0.0
 10
201.788889
 20
277.424444
 30
0.0
 10
200.942222
 20
278.271111
 30
0.0
 10
200.095556
 20
280.528889
 30
0.0
 10
199.531111
 20
281.375556
 30
0.0
 10
200.942222
 20
287.584444
 30
0.0
 10
201.788889
 20
288.431111
 30
0.0
 10
206.586667
 20
283.633333
 30
0.0
 10
207.433333
 20
282.786667
 30
0.0
 10
209.585278
 20
280.105556
 30
0.0
 10
213.642222
 20
279.117778
 30
0.0
 10
213.642222
 20
291.535556
 30
0.0
 10
218.157778
 20
291.535556
 30
0.0
 10
219.004444
 20
283.633333
 30
0.0
 10
219.851111
 20
282.786667
 30
0.0
 10
228.317778
 20
277.424444
 30
0.0
 10
229.164444
 20
276.577778
 30
0.0
 10
229.164444
 20
266.417778
 30
0.0
 10
235.373333
 20
266.417778
 30
0.0
 10
235.373333
 20
269.522222
 30
0.0
 10
238.477778
 20
269.522222
 30
0.0
 10
240.171111
 20
278.271111
 30
0.0
 10
240.735556
 20
279.117778
 30
0.0
 10
242.428889
 20
279.117778
 30
0.0
 10
243.275556
 20
278.271111
 30
0.0
 10
246.380000
 20
278.271111
 30
0.0
 10
251.177778
 20
285.326667
 30
0.0
 10
260.491111
 20
285.891111
 30
0.0
 10
261.337778
 20
286.737778
 30
0.0
 10
266.417778
 20
293.511111
 30
0.0
 10
274.602222
 20
294.640000
 30
0.0
 10
275.448889
 20
302.542222
 30
0.0
 10
274.602222
 20
303.106667
 30
0.0
 10
272.908889
 20
303.106667
 30
0.0
 10
272.062222
 20
302.542222
 30
0.0
 10
270.086667
 20
304.905833
 30
0.0
 10
269.804444
 20
307.904444
 30
0.0
 10
270.651111
 20
308.751111
 30
0.0
 10
274.602222
 20
309.597778
 30
0.0
 10
275.448889
 20
310.444444
 30
0.0
 10
276.013333
 20
309.597778
 30
0.0
 10
279.682222
 20
309.880000
 30
0.0
 10
280.811111
 20
307.057778
 30
0.0
 10
285.326667
 20
307.057778
 30
0.0
 10
285.326667
 20
309.597778
 30
0.0
 10
286.173333
 20
310.444444
 30
0.0
 10
291.253333
 20
309.315556
 30
0.0
 10
290.124444
 20
297.744444
 30
0.0
 10
293.228889
 20
298.591111
 30
0.0
 10
294.075556
 20
299.155556
 30
0.0
 10
294.922222
 20
301.695556
 30
0.0
 10
295.768889
 20
302.542222
 30
0.0
 10
296.333333
 20
299.155556
 30
0.0
 10
301.131111
 20
299.155556
 30
0.0
 10
301.131111
 20
302.542222
 30
0.0
 10
303.388889
 20
302.542222
 30
0.0
 10
304.235556
 20
301.695556
 30
0.0
 10
305.928889
 20
298.591111
 30
0.0
 10
305.082222
 20
297.744444
 30
0.0
 10
305.717222
 20
293.334722
 30
0.0
 10
305.928889
 20
285.326667
 30
0.0
 10
310.726667
 20
284.197778
 30
0.0
 10
312.137778
 20
274.320000
 30
0.0
 10
321.451111
 20
275.731111
 30
0.0
 10
323.708889
 20
282.222222
 30
0.0
 10
325.966667
 20
273.473333
 30
0.0
 10
325.402222
 20
272.626667
 30
0.0
 10
324.555556
 20
269.522222
 30
0.0
 10
327.660000
 20
269.522222
 30
0.0
 10
328.788889
 20
266.135556
 30
0.0
 10
325.966667
 20
265.006667
 30
0.0
 10
328.506667
 20
252.588889
 30
0.0
 10
329.353333
 20
251.742222
 30
0.0
 10
329.353333
 20
250.048889
 30
0.0
 10
328.506667
 20
249.202222
 30
0.0
 10
328.506667
 20
241.300000
 30
0.0
 10
333.485243
 20
237.238646
 30
0.0
 10
335.950278
 20
233.574167
 30
0.0
 10
337.255556
 20
222.673333
 30
0.0
 10
346.286667
 20
217.946111
 30
0.0
 10
352.777778
 20
209.408889
 30
0.0
 10
351.931111
 20
208.562222
 30
0.0
 10
351.931111
 20
207.151111
 30
0.0
 10
352.777778
 20
206.304444
 30
0.0
 10
351.931111
 20
199.248889
 30
0.0
 10
352.777778
 20
198.402222
 30
0.0
 10
350.696389
 20
194.168889
 30
0.0
 10
349.673333
 20
188.242222
 30
0.0
 10
352.777778
 20
188.242222
 30
0.0
 10
352.777778
 20
185.984444
 30
0.0
 10
351.931111
 20
185.137778
 30
0.0
 10
347.980000
 20
182.880000
 30
0.0
 10
347.133333
 20
182.033333
 30
0.0
 10
346.568889
 20
181.186667
 30
0.0
 10
345.722222
 20
180.622222
 30
0.0
 10
344.875556
 20
183.726667
 30
0.0
 10
337.255556
 20
183.726667
 30
0.0
 10
339.936667
 20
173.672500
 30
0.0
 10
340.077778
 20
163.406667
 30
0.0
 10
330.764444
 20
156.068889
 30
0.0
 10
329.917778
 20
155.504444
 30
0.0
 10
324.555556
 20
156.068889
 30
0.0
 10
323.708889
 20
155.504444
 30
0.0
 10
318.725903
 20
150.980069
 30
0.0
 10
317.500000
 20
146.191111
 30
0.0
 10
319.025764
 20
140.978819
 30
0.0
 10
322.297778
 20
135.184444
 30
0.0
 10
323.144444
 20
134.337778
 30
0.0
 10
325.402222
 20
119.380000
 30
0.0
 10
325.966667
 20
118.815556
 30
0.0
 10
326.813333
 20
117.968889
 30
0.0
 10
327.660000
 20
117.122222
 30
0.0
 10
329.353333
 20
107.808889
 30
0.0
 10
328.506667
 20
106.962222
 30
0.0
 10
327.660000
 20
99.342222
 30
0.0
 10
324.555556
 20
99.342222
 30
0.0
 10
327.095556
 20
81.562222
 30
0.0
 10
324.555556
 20
80.433333
 30
0.0
 10
324.555556
 20
74.224444
 30
0.0
 10
326.813333
 20
74.224444
 30
0.0
 10
327.660000
 20
73.377778
 30
0.0
 10
325.966667
 20
62.371111
 30
0.0
 10
325.402222
 20
61.524444
 30
0.0
 10
324.555556
 20
64.911111
 30
0.0
 10
318.346667
 20
64.064444
 30
0.0
 10
317.500000
 20
63.217778
 30
0.0
 10
316.653333
 20
62.371111
 30
0.0
 10
316.088889
 20
61.524444
 30
0.0
 10
310.373889
 20
63.852778
 30
0.0
 10
304.235556
 20
64.911111
 30
0.0
 10
303.212500
 20
61.665556
 30
0.0
 10
301.131111
 20
59.266667
 30
0.0
 10
300.284444
 20
58.420000
 30
0.0
 10
299.437778
 20
57.573333
 30
0.0
 10
298.873333
 20
57.008889
 30
0.0
 10
294.075556
 20
55.315556
 30
0.0
 10
293.228889
 20
56.162222
 30
0.0
 10
282.222222
 20
55.315556
 30
0.0
 10
281.093333
 20
60.395556
 30
0.0
 10
274.602222
 20
61.524444
 30
0.0
 10
273.191111
 20
63.782222
 30
0.0
 10
269.804444
 20
63.217778
 30
0.0
 10
266.700000
 20
63.217778
 30
0.0
 10
261.902222
 20
66.322222
 30
0.0
 10
260.491111
 20
68.015556
 30
0.0
 10
257.386667
 20
72.531111
 30
0.0
 10
251.177778
 20
75.635556
 30
0.0
 10
249.484444
 20
77.328889
 30
0.0
 10
246.380000
 20
78.740000
 30
0.0
 10
245.991944
 20
80.221667
 30
0.0
 10
243.275556
 20
80.433333
 30
0.0
 10
243.275556
 20
75.635556
 30
0.0
 10
246.380000
 20
75.635556
 30
0.0
 10
249.484444
 20
74.224444
 30
0.0
 10
251.177778
 20
72.531111
 30
0.0
 10
252.588889
 20
71.120000
 30
0.0
 10
254.282222
 20
68.015556
 30
0.0
 10
254.282222
 20
64.911111
 30
0.0
 10
248.073333
 20
66.322222
 30
0.0
 10
242.464167
 20
71.120000
 30
0.0
 10
235.373333
 20
72.531111
 30
0.0
 10
237.066667
 20
69.426667
 30
0.0
 10
240.171111
 20
68.015556
 30
0.0
 10
240.171111
 20
66.322222
 30
0.0
 10
238.477778
 20
64.911111
 30
0.0
 10
235.373333
 20
63.217778
 30
0.0
 10
229.164444
 20
64.911111
 30
0.0
 10
229.164444
 20
69.426667
 30
0.0
 10
224.648889
 20
71.120000
 30
0.0
 10
222.955556
 20
71.120000
 30
0.0
 10
220.697778
 20
68.015556
 30
0.0
 10
218.157778
 20
72.531111
 30
0.0
 10
219.639444
 20
72.919167
 30
0.0
 10
219.851111
 20
75.635556
 30
0.0
 10
216.746667
 20
75.635556
 30
0.0
 10
216.746667
 20
78.740000
 30
0.0
 10
211.948889
 20
78.740000
 30
0.0
 10
210.537778
 20
75.635556
 30
0.0
 10
210.537778
 20
80.433333
 30
0.0
 10
206.128056
 20
79.410278
 30
0.0
 10
204.046667
 20
77.328889
 30
0.0
 10
197.837778
 20
77.328889
 30
0.0
 10
197.837778
 20
74.224444
 30
0.0
 10
194.733333
 20
69.426667
 30
0.0
 10
193.322222
 20
69.426667
 30
0.0
 10
193.322222
 20
63.217778
 30
0.0
 10
199.531111
 20
59.266667
 30
0.0
 10
196.426667
 20
58.420000
 30
0.0
 10
196.426667
 20
52.211111
 30
0.0
 10
193.322222
 20
53.904444
 30
0.0
 10
191.628889
 20
53.904444
 30
0.0
 10
186.831111
 20
53.904444
 30
0.0
 10
185.420000
 20
58.420000
 30
0.0
 10
179.211111
 20
58.420000
 30
0.0
 10
178.823056
 20
59.901667
 30
0.0
 10
176.106667
 20
60.113333
 30
0.0
 10
176.106667
 20
58.420000
 30
0.0
 10
170.180000
 20
54.680556
 30
0.0
 10
166.793333
 20
52.211111
 30
0.0
 10
165.100000
 20
52.211111
 30
0.0
 10
154.093333
 20
52.211111
 30
0.0
 10
154.093333
 20
57.008889
 30
0.0
 10
144.780000
 20
55.315556
 30
0.0
 10
144.780000
 20
52.211111
 30
0.0
 10
133.773333
 20
52.211111
 30
0.0
 10
133.773333
 20
52.211111
 30
0.0
  0
LWPOLYLINE
  5
107
100
AcDbEntity
  8
bay
 62
7
100
AcDbPolyline
 90
432
 70
0
 10
335.562222
 20
25.682222
 30
0.0
 10
338.666667
 20
25.682222
 30
0.0
 10
338.666667
 20
30.197778
 30
0.0
 10
325.966667
 20
28.786667
 30
0.0
 10
325.966667
 20
39.793333
 30
0.0
 10
323.144444
 20
39.793333
 30
0.0
 10
323.144444
 20
42.897778
 30
0.0
 10
319.052222
 20
45.367222
 30
0.0
 10
316.653333
 20
49.106667
 30
0.0
 10
304.235556
 20
49.106667
 30
0.0
 10
304.235556
 20
52.211111
 30
0.0
 10
305.717222
 20
52.599167
 30
0.0
 10
305.928889
 20
55.315556
 30
0.0
 10
301.131111
 20
55.315556
 30
0.0
 10
301.131111
 20
53.904444
 30
0.0
 10
298.119271
 20
52.224340
 30
0.0
 10
295.239722
 20
51.893611
 30
0.0
 10
288.713333
 20
53.057778
 30
0.0
 10
292.664444
 20
55.315556
 30
0.0
 10
293.228889
 20
54.751111
 30
0.0
 10
299.437778
 20
56.162222
 30
0.0
 10
300.284444
 20
57.008889
 30
0.0
 10
301.131111
 20
57.573333
 30
0.0
 10
301.977778
 20
58.420000
 30
0.0
 10
304.376667
 20
60.078056
 30
0.0
 10
305.928889
 20
63.217778
 30
0.0
 10
311.926111
 20
61.242222
 30
0.0
 10
316.653333
 20
60.960000
 30
0.0
 10
317.500000
 20
61.524444
 30
0.0
 10
318.346667
 20
62.371111
 30
0.0
 10
319.193333
 20
63.217778
 30
0.0
 10
323.144444
 20
63.217778
 30
0.0
 10
323.144444
 20
60.113333
 30
0.0
 10
325.966667
 20
60.960000
 30
0.0
 10
326.813333
 20
61.524444
 30
0.0
 10
327.871667
 20
64.170278
 30
0.0
 10
328.506667
 20
74.224444
 30
0.0
 10
327.660000
 20
74.788889
 30
0.0
 10
325.966667
 20
78.740000
 30
0.0
 10
329.353333
 20
78.740000
 30
0.0
 10
326.531111
 20
96.520000
 30
0.0
 10
329.353333
 20
97.648889
 30
0.0
 10
329.353333
 20
106.115556
 30
0.0
 10
329.917778
 20
106.962222
 30
0.0
 10
329.741389
 20
114.264722
 30
0.0
 10
328.506667
 20
117.968889
 30
0.0
 10
327.660000
 20
118.815556
 30
0.0
 10
326.813333
 20
119.380000
 30
0.0
 10
325.966667
 20
120.226667
 30
0.0
 10
323.708889
 20
135.184444
 30
0.0
 10
323.144444
 20
136.031111
 30
0.0
 10
320.745556
 20
140.440833
 30
0.0
 10
319.193333
 20
147.602222
 30
0.0
 10
324.555556
 20
154.657778
 30
0.0
 10
325.402222
 20
155.504444
 30
0.0
 10
330.764444
 20
154.657778
 30
0.0
 10
331.611111
 20
155.504444
 30
0.0
 10
338.172778
 20
160.302222
 30
0.0
 10
341.771111
 20
161.713333
 30
0.0
 10
341.947500
 20
171.838056
 30
0.0
 10
338.948889
 20
180.904444
 30
0.0
 10
343.182222
 20
182.033333
 30
0.0
 10
343.182222
 20
178.928889
 30
0.0
 10
346.568889
 20
179.775556
 30
0.0
 10
347.133333
 20
180.622222
 30
0.0
 10
347.980000
 20
181.186667
 30
0.0
 10
348.826667
 20
182.033333
 30
0.0
 10
352.777778
 20
182.033333
 30
0.0
 10
352.777778
 20
184.291111
 30
0.0
 10
353.342222
 20
185.137778
 30
0.0
 10
354.188889
 20
189.935556
 30
0.0
 10
351.084444
 20
189.935556
 30
0.0
 10
353.342222
 20
199.248889
 30
0.0
 10
352.777778
 20
200.095556
 30
0.0
 10
353.342222
 20
207.151111
 30
0.0
 10
352.777778
 20
207.997778
 30
0.0
 10
353.342222
 20
208.562222
 30
0.0
 10
352.041354
 20
214.405104
 30
0.0
 10
348.650278
 20
218.898611
 30
0.0
 10
343.936285
 20
222.175035
 30
0.0
 10
338.666667
 20
224.366667
 30
0.0
 10
337.820000
 20
236.784444
 30
0.0
 10
331.999167
 20
241.758611
 30
0.0
 10
329.353333
 20
248.637778
 30
0.0
 10
329.917778
 20
249.202222
 30
0.0
 10
329.917778
 20
252.588889
 30
0.0
 10
329.353333
 20
253.153333
 30
0.0
 10
327.942222
 20
262.184444
 30
0.0
 10
330.764444
 20
263.313333
 30
0.0
 10
329.353333
 20
271.215556
 30
0.0
 10
325.966667
 20
272.062222
 30
0.0
 10
326.813333
 20
272.626667
 30
0.0
 10
325.966667
 20
283.633333
 30
0.0
 10
321.451111
 20
283.633333
 30
0.0
 10
320.040000
 20
277.424444
 30
0.0
 10
313.548889
 20
275.731111
 30
0.0
 10
312.420000
 20
285.608889
 30
0.0
 10
307.622222
 20
288.148889
 30
0.0
 10
308.186667
 20
294.640000
 30
0.0
 10
305.928889
 20
296.897778
 30
0.0
 10
306.493333
 20
297.744444
 30
0.0
 10
307.340000
 20
302.542222
 30
0.0
 10
305.082222
 20
302.542222
 30
0.0
 10
304.235556
 20
303.106667
 30
0.0
 10
299.437778
 20
303.953333
 30
0.0
 10
299.261389
 20
301.236944
 30
0.0
 10
298.026667
 20
300.848889
 30
0.0
 10
298.026667
 20
303.953333
 30
0.0
 10
294.922222
 20
303.106667
 30
0.0
 10
294.075556
 20
302.542222
 30
0.0
 10
293.228889
 20
300.002222
 30
0.0
 10
292.664444
 20
299.155556
 30
0.0
 10
293.228889
 20
311.855556
 30
0.0
 10
285.326667
 20
311.008889
 30
0.0
 10
284.762222
 20
310.444444
 30
0.0
 10
283.351111
 20
309.315556
 30
0.0
 10
282.222222
 20
311.855556
 30
0.0
 10
276.860000
 20
310.444444
 30
0.0
 10
276.013333
 20
311.008889
 30
0.0
 10
274.602222
 20
311.008889
 30
0.0
 10
273.755556
 20
310.444444
 30
0.0
 10
269.804444
 20
309.597778
 30
0.0
 10
268.957778
 20
308.751111
 30
0.0
 10
266.700000
 20
308.751111
 30
0.0
 10
268.216944
 20
303.424167
 30
0.0
 10
272.908889
 20
301.695556
 30
0.0
 10
273.755556
 20
302.542222
 30
0.0
 10
274.602222
 20
301.695556
 30
0.0
 10
272.908889
 20
296.333333
 30
0.0
 10
264.724444
 20
295.204444
 30
0.0
 10
260.491111
 20
287.584444
 30
0.0
 10
259.644444
 20
286.737778
 30
0.0
 10
251.177778
 20
286.737778
 30
0.0
 10
251.177778
 20
289.842222
 30
0.0
 10
248.073333
 20
290.688889
 30
0.0
 10
251.812778
 20
296.831632
 30
0.0
 10
253.012222
 20
303.847500
 30
0.0
 10
251.177778
 20
318.064444
 30
0.0
 10
248.073333
 20
318.064444
 30
0.0
 10
247.226667
 20
322.862222
 30
0.0
 10
246.380000
 20
323.708889
 30
0.0
 10
247.226667
 20
338.384444
 30
0.0
 10
246.380000
 20
339.231111
 30
0.0
 10
246.380000
 20
341.488889
 30
0.0
 10
243.557778
 20
342.617778
 30
0.0
 10
244.686667
 20
347.697778
 30
0.0
 10
248.073333
 20
348.544444
 30
0.0
 10
248.637778
 20
349.391111
 30
0.0
 10
251.460000
 20
350.520000
 30
0.0
 10
252.588889
 20
346.286667
 30
0.0
 10
257.386667
 20
346.286667
 30
0.0
 10
261.337778
 20
352.495556
 30
0.0
 10
261.902222
 20
351.648889
 30
0.0
 10
271.497778
 20
351.084444
 30
0.0
 10
272.062222
 20
347.697778
 30
0.0
 10
272.908889
 20
347.133333
 30
0.0
 10
272.908889
 20
344.593333
 30
0.0
 10
282.222222
 20
346.286667
 30
0.0
 10
282.222222
 20
351.648889
 30
0.0
 10
283.068889
 20
352.495556
 30
0.0
 10
283.068889
 20
355.600000
 30
0.0
 10
282.222222
 20
356.446667
 30
0.0
 10
282.222222
 20
361.808889
 30
0.0
 10
291.817778
 20
360.397778
 30
0.0
 10
293.228889
 20
366.606667
 30
0.0
 10
296.333333
 20
367.171111
 30
0.0
 10
297.180000
 20
368.017778
 30
0.0
 10
301.131111
 20
369.711111
 30
0.0
 10
301.977778
 20
385.233333
 30
0.0
 10
304.694167
 20
383.363611
 30
0.0
 10
313.548889
 20
382.128889
 30
0.0
 10
313.548889
 20
384.386667
 30
0.0
 10
314.395556
 20
385.233333
 30
0.0
 10
316.653333
 20
386.080000
 30
0.0
 10
317.500000
 20
386.926667
 30
0.0
 10
318.346667
 20
387.773333
 30
0.0
 10
319.193333
 20
388.337778
 30
0.0
 10
325.966667
 20
400.191111
 30
0.0
 10
326.813333
 20
401.037778
 30
0.0
 10
327.660000
 20
397.933333
 30
0.0
 10
332.740000
 20
399.062222
 30
0.0
 10
340.501111
 20
392.994444
 30
0.0
 10
342.979375
 20
390.013472
 30
0.0
 10
344.875556
 20
385.233333
 30
0.0
 10
347.980000
 20
385.233333
 30
0.0
 10
347.980000
 20
382.128889
 30
0.0
 10
352.777778
 20
382.128889
 30
0.0
 10
356.481944
 20
377.260556
 30
0.0
 10
362.091111
 20
374.508889
 30
0.0
 10
363.784444
 20
360.397778
 30
0.0
 10
369.146667
 20
361.808889
 30
0.0
 10
369.993333
 20
360.962222
 30
0.0
 10
373.097778
 20
360.397778
 30
0.0
 10
373.097778
 20
363.502222
 30
0.0
 10
382.411111
 20
363.502222
 30
0.0
 10
381.564444
 20
368.017778
 30
0.0
 10
380.717778
 20
368.864444
 30
0.0
 10
375.355556
 20
372.815556
 30
0.0
 10
374.508889
 20
373.662222
 30
0.0
 10
374.747014
 20
376.691701
 30
0.0
 10
377.683889
 20
379.059722
 30
0.0
 10
384.668889
 20
382.128889
 30
0.0
 10
385.515556
 20
381.282222
 30
0.0
 10
392.253611
 20
377.860278
 30
0.0
 10
399.626667
 20
376.766667
 30
0.0
 10
400.473333
 20
377.613333
 30
0.0
 10
401.884444
 20
379.024444
 30
0.0
 10
402.731111
 20
378.177778
 30
0.0
 10
403.860000
 20
369.428889
 30
0.0
 10
407.528889
 20
368.864444
 30
0.0
 10
408.375556
 20
369.711111
 30
0.0
 10
408.940000
 20
368.864444
 30
0.0
 10
409.786667
 20
368.017778
 30
0.0
 10
410.633333
 20
367.171111
 30
0.0
 10
413.737778
 20
366.606667
 30
0.0
 10
413.737778
 20
376.766667
 30
0.0
 10
414.584444
 20
377.613333
 30
0.0
 10
412.326667
 20
390.595556
 30
0.0
 10
416.842222
 20
391.724444
 30
0.0
 10
416.842222
 20
394.828889
 30
0.0
 10
423.051111
 20
396.240000
 30
0.0
 10
423.897778
 20
388.337778
 30
0.0
 10
424.462222
 20
387.773333
 30
0.0
 10
424.462222
 20
385.233333
 30
0.0
 10
427.848889
 20
385.233333
 30
0.0
 10
427.848889
 20
382.128889
 30
0.0
 10
439.913889
 20
382.164167
 30
0.0
 10
451.555556
 20
384.951111
 30
0.0
 10
452.684444
 20
382.128889
 30
0.0
 10
459.175556
 20
384.386667
 30
0.0
 10
459.740000
 20
385.233333
 30
0.0
 10
462.280000
 20
385.233333
 30
0.0
 10
462.280000
 20
382.128889
 30
0.0
 10
465.102222
 20
382.128889
 30
0.0
 10
469.794167
 20
376.519722
 30
0.0
 10
476.391111
 20
372.815556
 30
0.0
 10
477.802222
 20
371.122222
 30
0.0
 10
476.391111
 20
368.017778
 30
0.0
 10
474.909444
 20
367.629722
 30
0.0
 10
474.697778
 20
364.913333
 30
0.0
 10
477.802222
 20
364.913333
 30
0.0
 10
484.011111
 20
355.600000
 30
0.0
 10
483.728889
 20
349.108889
 30
0.0
 10
491.913333
 20
344.593333
 30
0.0
 10
491.913333
 20
341.488889
 30
0.0
 10
499.815556
 20
338.384444
 30
0.0
 10
499.815556
 20
335.280000
 30
0.0
 10
504.331111
 20
335.280000
 30
0.0
 10
505.460000
 20
330.200000
 30
0.0
 10
509.128889
 20
329.071111
 30
0.0
 10
509.128889
 20
325.966667
 30
0.0
 10
507.435556
 20
322.862222
 30
0.0
 10
504.542778
 20
318.099722
 30
0.0
 10
501.226667
 20
311.855556
 30
0.0
 10
501.226667
 20
303.953333
 30
0.0
 10
506.024444
 20
303.953333
 30
0.0
 10
506.024444
 20
300.848889
 30
0.0
 10
509.128889
 20
300.848889
 30
0.0
 10
509.128889
 20
294.640000
 30
0.0
 10
512.233333
 20
294.640000
 30
0.0
 10
512.233333
 20
286.737778
 30
0.0
 10
513.644444
 20
286.737778
 30
0.0
 10
515.090833
 20
284.868056
 30
0.0
 10
518.442222
 20
283.633333
 30
0.0
 10
518.442222
 20
275.731111
 30
0.0
 10
520.135556
 20
275.731111
 30
0.0
 10
521.546667
 20
272.626667
 30
0.0
 10
527.755556
 20
269.522222
 30
0.0
 10
528.778611
 20
265.359444
 30
0.0
 10
530.860000
 20
263.313333
 30
0.0
 10
546.664444
 20
261.902222
 30
0.0
 10
549.768889
 20
255.411111
 30
0.0
 10
552.132500
 20
251.565833
 30
0.0
 10
555.977778
 20
249.202222
 30
0.0
 10
557.671111
 20
246.097778
 30
0.0
 10
562.186667
 20
239.888889
 30
0.0
 10
565.291111
 20
238.477778
 30
0.0
 10
571.500000
 20
236.784444
 30
0.0
 10
574.886667
 20
235.091111
 30
0.0
 10
581.095556
 20
219.568889
 30
0.0
 10
588.715556
 20
217.875556
 30
0.0
 10
588.715556
 20
221.262222
 30
0.0
 10
593.513333
 20
221.262222
 30
0.0
 10
593.513333
 20
217.875556
 30
0.0
 10
596.617778
 20
217.875556
 30
0.0
 10
596.829444
 20
215.159167
 30
0.0
 10
598.311111
 20
214.771111
 30
0.0
 10
599.722222
 20
210.255556
 30
0.0
 10
604.802222
 20
211.384444
 30
0.0
 10
607.624444
 20
208.562222
 30
0.0
 10
609.035556
 20
204.046667
 30
0.0
 10
612.140000
 20
204.046667
 30
0.0
 10
612.140000
 20
202.353333
 30
0.0
 10
611.928333
 20
198.860833
 30
0.0
 10
613.833333
 20
193.040000
 30
0.0
 10
613.833333
 20
189.935556
 30
0.0
 10
610.728889
 20
175.824444
 30
0.0
 10
608.859167
 20
174.378056
 30
0.0
 10
607.624444
 20
171.026667
 30
0.0
 10
601.415556
 20
171.026667
 30
0.0
 10
601.415556
 20
174.131111
 30
0.0
 10
598.311111
 20
174.131111
 30
0.0
 10
598.311111
 20
175.824444
 30
0.0
 10
593.513333
 20
174.131111
 30
0.0
 10
591.820000
 20
175.824444
 30
0.0
 10
588.539167
 20
176.247778
 30
0.0
 10
584.200000
 20
174.131111
 30
0.0
 10
584.200000
 20
169.615556
 30
0.0
 10
585.611111
 20
169.615556
 30
0.0
 10
585.611111
 20
166.511111
 30
0.0
 10
584.200000
 20
152.400000
 30
0.0
 10
581.095556
 20
152.400000
 30
0.0
 10
581.095556
 20
149.295556
 30
0.0
 10
577.708889
 20
147.602222
 30
0.0
 10
576.297778
 20
144.497778
 30
0.0
 10
574.886667
 20
142.804444
 30
0.0
 10
563.880000
 20
141.393333
 30
0.0
 10
555.977778
 20
138.288889
 30
0.0
 10
554.284444
 20
136.595556
 30
0.0
 10
552.873333
 20
135.184444
 30
0.0
 10
551.180000
 20
133.491111
 30
0.0
 10
549.768889
 20
132.080000
 30
0.0
 10
546.664444
 20
130.386667
 30
0.0
 10
540.455556
 20
130.386667
 30
0.0
 10
540.455556
 20
124.177778
 30
0.0
 10
537.068889
 20
122.766667
 30
0.0
 10
532.553333
 20
121.073333
 30
0.0
 10
532.553333
 20
116.275556
 30
0.0
 10
534.246667
 20
116.275556
 30
0.0
 10
535.657778
 20
113.171111
 30
0.0
 10
537.068889
 20
111.760000
 30
0.0
 10
540.455556
 20
110.066667
 30
0.0
 10
541.266944
 20
107.173889
 30
0.0
 10
543.560000
 20
105.551111
 30
0.0
 10
543.560000
 20
100.753333
 30
0.0
 10
546.664444
 20
100.753333
 30
0.0
 10
547.687500
 20
97.825278
 30
0.0
 10
549.768889
 20
95.955556
 30
0.0
 10
551.180000
 20
94.544444
 30
0.0
 10
552.873333
 20
92.851111
 30
0.0
 10
551.180000
 20
83.537778
 30
0.0
 10
548.922222
 20
79.833611
 30
0.0
 10
546.664444
 20
72.531111
 30
0.0
 10
559.082222
 20
71.120000
 30
0.0
 10
562.186667
 20
63.217778
 30
0.0
 10
560.775556
 20
61.524444
 30
0.0
 10
559.082222
 20
53.904444
 30
0.0
 10
557.671111
 20
46.002222
 30
0.0
 10
549.768889
 20
46.002222
 30
0.0
 10
548.745833
 20
48.930278
 30
0.0
 10
546.664444
 20
50.800000
 30
0.0
 10
545.041667
 20
52.669722
 30
0.0
 10
540.455556
 20
53.904444
 30
0.0
 10
538.762222
 20
55.315556
 30
0.0
 10
538.762222
 20
60.113333
 30
0.0
 10
540.455556
 20
60.113333
 30
0.0
 10
540.455556
 20
64.911111
 30
0.0
 10
537.068889
 20
64.911111
 30
0.0
 10
535.940000
 20
68.297778
 30
0.0
 10
521.546667
 20
68.015556
 30
0.0
 10
521.546667
 20
63.217778
 30
0.0
 10
518.830278
 20
63.006111
 30
0.0
 10
518.442222
 20
61.524444
 30
0.0
 10
515.337778
 20
63.217778
 30
0.0
 10
512.233333
 20
66.322222
 30
0.0
 10
512.233333
 20
71.120000
 30
0.0
 10
507.435556
 20
71.120000
 30
0.0
 10
507.435556
 20
68.015556
 30
0.0
 10
504.331111
 20
68.015556
 30
0.0
 10
504.331111
 20
71.120000
 30
0.0
 10
501.614722
 20
70.908333
 30
0.0
 10
501.226667
 20
69.426667
 30
0.0
 10
499.815556
 20
68.015556
 30
0.0
 10
496.428889
 20
69.426667
 30
0.0
 10
498.122222
 20
69.426667
 30
0.0
 10
498.122222
 20
74.224444
 30
0.0
 10
495.405833
 20
74.012778
 30
0.0
 10
495.017778
 20
72.531111
 30
0.0
 10
493.324444
 20
71.120000
 30
0.0
 10
488.808889
 20
71.120000
 30
0.0
 10
488.808889
 20
66.322222
 30
0.0
 10
490.220000
 20
66.322222
 30
0.0
 10
491.913333
 20
63.217778
 30
0.0
 10
490.220000
 20
58.420000
 30
0.0
 10
488.808889
 20
58.420000
 30
0.0
 10
479.213333
 20
60.113333
 30
0.0
 10
478.860556
 20
61.348056
 30
0.0
 10
476.391111
 20
61.524444
 30
0.0
 10
476.391111
 20
60.113333
 30
0.0
 10
471.593333
 20
58.420000
 30
0.0
 10
463.691111
 20
58.420000
 30
0.0
 10
463.691111
 20
55.315556
 30
0.0
 10
445.064444
 20
55.315556
 30
0.0
 10
443.371111
 20
46.002222
 30
0.0
 10
430.953333
 20
46.002222
 30
0.0
 10
430.953333
 20
44.308889
 30
0.0
 10
429.260000
 20
42.897778
 30
0.0
 10
423.051111
 20
36.688889
 30
0.0
 10
421.640000
 20
34.995556
 30
0.0
 10
416.842222
 20
33.584444
 30
0.0
 10
416.842222
 20
36.688889
 30
0.0
 10
412.044444
 20
36.688889
 30
0.0
 10
412.044444
 20
34.995556
 30
0.0
 10
396.522222
 20
31.891111
 30
0.0
 10
397.933333
 20
36.688889
 30
0.0
 10
396.522222
 20
36.688889
 30
0.0
 10
394.828889
 20
38.100000
 30
0.0
 10
393.417778
 20
42.897778
 30
0.0
 10
388.902222
 20
44.026667
 30
0.0
 10
388.620000
 20
47.695556
 30
0.0
 10
388.231944
 20
48.930278
 30
0.0
 10
385.515556
 20
49.106667
 30
0.0
 10
385.515556
 20
47.695556
 30
0.0
 10
379.306667
 20
46.002222
 30
0.0
 10
379.306667
 20
49.106667
 30
0.0
 10
366.641944
 20
50.059167
 30
0.0
 10
354.188889
 20
49.106667
 30
0.0
 10
354.188889
 20
47.695556
 30
0.0
 10
352.777778
 20
47.695556
 30
0.0
 10
354.012500
 20
40.640000
 30
0.0
 10
354.188889
 20
33.584444
 30
0.0
 10
352.954167
 20
33.161111
 30
0.0
 10
352.777778
 20
30.197778
 30
0.0
 10
349.673333
 20
30.197778
 30
0.0
 10
349.673333
 20
27.375556
 30
0.0
 10
347.980000
 20
25.682222
 30
0.0
 10
346.110278
 20
24.235833
 30
0.0
 10
344.875556
 20
20.884444
 30
0.0
 10
341.771111
 20
19.473333
 30
0.0
 10
334.433333
 20
19.191111
 30
0.0
 10
335.562222
 20
25.682222
 30
0.0
 10
335.562222
 20
25.682222
 30
0.0
  0
LWPOLYLINE
  5
108
100
AcDbEntity
  8
hes
 62
7
100
AcDbPolyline
 90
265
 70
0
 10
230.011111
 20
277.424444
 30
0.0
 10
229.164444
 20
278.271111
 30
0.0
 10
229.164444
 20
280.528889
 30
0.0
 10
220.697778
 20
283.633333
 30
0.0
 10
219.851111
 20
284.480000
 30
0.0
 10
219.851111
 20
293.228889
 30
0.0
 10
211.948889
 20
293.228889
 30
0.0
 10
212.478056
 20
285.079722
 30
0.0
 10
211.102222
 20
280.528889
 30
0.0
 10
207.997778
 20
283.633333
 30
0.0
 10
207.433333
 20
284.480000
 30
0.0
 10
204.611111
 20
288.713333
 30
0.0
 10
200.942222
 20
289.277778
 30
0.0
 10
200.095556
 20
288.431111
 30
0.0
 10
198.684444
 20
289.842222
 30
0.0
 10
197.837778
 20
290.688889
 30
0.0
 10
197.273333
 20
293.228889
 30
0.0
 10
196.426667
 20
293.793333
 30
0.0
 10
196.426667
 20
301.695556
 30
0.0
 10
197.273333
 20
302.542222
 30
0.0
 10
199.531111
 20
303.106667
 30
0.0
 10
200.095556
 20
303.953333
 30
0.0
 10
202.635556
 20
303.953333
 30
0.0
 10
201.718333
 20
309.350833
 30
0.0
 10
198.684444
 20
313.266667
 30
0.0
 10
197.837778
 20
314.113333
 30
0.0
 10
197.837778
 20
321.168889
 30
0.0
 10
195.580000
 20
321.168889
 30
0.0
 10
194.733333
 20
322.015556
 30
0.0
 10
194.733333
 20
333.868889
 30
0.0
 10
192.475556
 20
333.868889
 30
0.0
 10
191.628889
 20
334.433333
 30
0.0
 10
189.371111
 20
338.384444
 30
0.0
 10
188.524444
 20
339.231111
 30
0.0
 10
186.266667
 20
339.795556
 30
0.0
 10
185.420000
 20
340.642222
 30
0.0
 10
185.420000
 20
343.182222
 30
0.0
 10
182.315556
 20
342.335556
 30
0.0
 10
181.468889
 20
341.488889
 30
0.0
 10
177.517778
 20
340.642222
 30
0.0
 10
176.671111
 20
339.795556
 30
0.0
 10
174.413333
 20
339.231111
 30
0.0
 10
173.566667
 20
338.384444
 30
0.0
 10
171.308889
 20
337.537778
 30
0.0
 10
170.462222
 20
336.973333
 30
0.0
 10
159.455556
 20
336.973333
 30
0.0
 10
158.891111
 20
337.537778
 30
0.0
 10
156.351111
 20
341.488889
 30
0.0
 10
155.786667
 20
342.335556
 30
0.0
 10
155.433889
 20
346.815833
 30
0.0
 10
157.197778
 20
351.084444
 30
0.0
 10
163.406667
 20
351.084444
 30
0.0
 10
163.406667
 20
357.293333
 30
0.0
 10
161.148889
 20
357.293333
 30
0.0
 10
160.302222
 20
357.857778
 30
0.0
 10
165.100000
 20
360.962222
 30
0.0
 10
165.946667
 20
361.808889
 30
0.0
 10
169.615556
 20
363.502222
 30
0.0
 10
169.615556
 20
365.760000
 30
0.0
 10
170.462222
 20
366.606667
 30
0.0
 10
179.211111
 20
366.606667
 30
0.0
 10
178.082222
 20
374.297222
 30
0.0
 10
175.260000
 20
380.717778
 30
0.0
 10
174.413333
 20
381.282222
 30
0.0
 10
170.956111
 20
385.762500
 30
0.0
 10
170.462222
 20
391.724444
 30
0.0
 10
169.615556
 20
392.288889
 30
0.0
 10
169.615556
 20
397.933333
 30
0.0
 10
173.002222
 20
397.933333
 30
0.0
 10
174.131111
 20
400.473333
 30
0.0
 10
180.622222
 20
401.602222
 30
0.0
 10
181.468889
 20
402.448889
 30
0.0
 10
180.657500
 20
412.044444
 30
0.0
 10
179.211111
 20
418.253333
 30
0.0
 10
182.315556
 20
418.253333
 30
0.0
 10
182.315556
 20
422.204444
 30
0.0
 10
183.162222
 20
422.768889
 30
0.0
 10
183.726667
 20
431.517778
 30
0.0
 10
184.573333
 20
432.364444
 30
0.0
 10
186.831111
 20
434.622222
 30
0.0
 10
187.677778
 20
435.468889
 30
0.0
 10
188.524444
 20
436.315556
 30
0.0
 10
189.371111
 20
436.880000
 30
0.0
 10
190.217778
 20
437.726667
 30
0.0
 10
190.782222
 20
438.573333
 30
0.0
 10
199.813333
 20
438.008889
 30
0.0
 10
202.565000
 20
442.030556
 30
0.0
 10
205.740000
 20
445.628889
 30
0.0
 10
206.586667
 20
446.193333
 30
0.0
 10
209.408889
 20
452.331667
 30
0.0
 10
211.384444
 20
457.200000
 30
0.0
 10
210.537778
 20
458.046667
 30
0.0
 10
210.537778
 20
463.408889
 30
0.0
 10
222.955556
 20
463.408889
 30
0.0
 10
222.955556
 20
469.053333
 30
0.0
 10
223.802222
 20
469.617778
 30
0.0
 10
226.060000
 20
470.464444
 30
0.0
 10
226.906667
 20
471.311111
 30
0.0
 10
226.060000
 20
485.422222
 30
0.0
 10
218.157778
 20
482.882222
 30
0.0
 10
217.593333
 20
482.317778
 30
0.0
 10
215.053333
 20
486.268889
 30
0.0
 10
215.900000
 20
486.833333
 30
0.0
 10
216.746667
 20
489.373333
 30
0.0
 10
217.593333
 20
490.220000
 30
0.0
 10
218.157778
 20
490.784444
 30
0.0
 10
219.004444
 20
491.631111
 30
0.0
 10
221.262222
 20
491.631111
 30
0.0
 10
222.955556
 20
495.582222
 30
0.0
 10
223.802222
 20
496.428889
 30
0.0
 10
227.471111
 20
495.582222
 30
0.0
 10
228.317778
 20
496.428889
 30
0.0
 10
237.066667
 20
496.993333
 30
0.0
 10
237.913333
 20
497.840000
 30
0.0
 10
241.582222
 20
497.840000
 30
0.0
 10
241.582222
 20
500.380000
 30
0.0
 10
242.428889
 20
500.944444
 30
0.0
 10
240.735556
 20
505.742222
 30
0.0
 10
240.171111
 20
506.588889
 30
0.0
 10
239.324444
 20
507.435556
 30
0.0
 10
238.477778
 20
508.000000
 30
0.0
 10
239.324444
 20
508.846667
 30
0.0
 10
252.588889
 20
509.693333
 30
0.0
 10
252.024444
 20
508.846667
 30
0.0
 10
252.024444
 20
505.742222
 30
0.0
 10
252.588889
 20
504.895556
 30
0.0
 10
263.595556
 20
505.742222
 30
0.0
 10
263.595556
 20
510.257778
 30
0.0
 10
269.804444
 20
511.951111
 30
0.0
 10
271.497778
 20
517.595556
 30
0.0
 10
272.062222
 20
518.160000
 30
0.0
 10
272.908889
 20
524.368889
 30
0.0
 10
277.706667
 20
525.215556
 30
0.0
 10
278.553333
 20
526.062222
 30
0.0
 10
279.117778
 20
526.908889
 30
0.0
 10
279.964444
 20
527.473333
 30
0.0
 10
280.811111
 20
524.368889
 30
0.0
 10
286.173333
 20
526.062222
 30
0.0
 10
287.020000
 20
525.215556
 30
0.0
 10
292.664444
 20
522.957778
 30
0.0
 10
293.228889
 20
522.111111
 30
0.0
 10
293.228889
 20
518.160000
 30
0.0
 10
290.124444
 20
518.160000
 30
0.0
 10
289.277778
 20
511.951111
 30
0.0
 10
290.124444
 20
511.104444
 30
0.0
 10
291.817778
 20
506.588889
 30
0.0
 10
290.971111
 20
505.742222
 30
0.0
 10
290.971111
 20
502.637778
 30
0.0
 10
291.817778
 20
501.791111
 30
0.0
 10
290.971111
 20
500.944444
 30
0.0
 10
287.020000
 20
498.686667
 30
0.0
 10
286.173333
 20
497.840000
 30
0.0
 10
285.326667
 20
491.631111
 30
0.0
 10
295.768889
 20
488.526667
 30
0.0
 10
296.333333
 20
487.680000
 30
0.0
 10
297.180000
 20
486.833333
 30
0.0
 10
298.026667
 20
486.268889
 30
0.0
 10
299.437778
 20
486.268889
 30
0.0
 10
300.284444
 20
486.833333
 30
0.0
 10
300.284444
 20
491.631111
 30
0.0
 10
298.026667
 20
493.888889
 30
0.0
 10
298.873333
 20
494.735556
 30
0.0
 10
301.131111
 20
495.582222
 30
0.0
 10
301.977778
 20
496.428889
 30
0.0
 10
304.235556
 20
496.428889
 30
0.0
 10
305.082222
 20
499.533333
 30
0.0
 10
305.928889
 20
498.686667
 30
0.0
 10
305.928889
 20
494.735556
 30
0.0
 10
309.033333
 20
495.582222
 30
0.0
 10
309.880000
 20
496.428889
 30
0.0
 10
310.585556
 20
499.145278
 30
0.0
 10
312.137778
 20
499.533333
 30
0.0
 10
312.702222
 20
493.324444
 30
0.0
 10
313.548889
 20
492.477778
 30
0.0
 10
315.242222
 20
485.422222
 30
0.0
 10
319.546111
 20
483.728889
 30
0.0
 10
323.215000
 20
481.188889
 30
0.0
 10
331.611111
 20
476.108889
 30
0.0
 10
332.457778
 20
475.262222
 30
0.0
 10
333.304444
 20
474.415556
 30
0.0
 10
333.868889
 20
473.568889
 30
0.0
 10
331.187778
 20
465.490278
 30
0.0
 10
327.660000
 20
457.200000
 30
0.0
 10
332.457778
 20
457.200000
 30
0.0
 10
332.457778
 20
452.402222
 30
0.0
 10
328.506667
 20
452.402222
 30
0.0
 10
327.660000
 20
453.248889
 30
0.0
 10
320.040000
 20
454.095556
 30
0.0
 10
320.886667
 20
447.604444
 30
0.0
 10
316.653333
 20
446.193333
 30
0.0
 10
316.653333
 20
441.677778
 30
0.0
 10
321.451111
 20
441.677778
 30
0.0
 10
320.040000
 20
433.775556
 30
0.0
 10
315.242222
 20
433.775556
 30
0.0
 10
315.242222
 20
429.824444
 30
0.0
 10
314.395556
 20
428.977778
 30
0.0
 10
313.548889
 20
420.511111
 30
0.0
 10
312.702222
 20
419.664444
 30
0.0
 10
312.137778
 20
415.713333
 30
0.0
 10
311.291111
 20
415.148889
 30
0.0
 10
309.033333
 20
415.148889
 30
0.0
 10
309.033333
 20
408.940000
 30
0.0
 10
316.653333
 20
407.246667
 30
0.0
 10
318.346667
 20
412.608889
 30
0.0
 10
319.193333
 20
413.455556
 30
0.0
 10
322.297778
 20
413.455556
 30
0.0
 10
323.144444
 20
412.608889
 30
0.0
 10
323.991111
 20
410.068889
 30
0.0
 10
321.451111
 20
408.940000
 30
0.0
 10
321.486389
 20
398.638889
 30
0.0
 10
318.346667
 20
389.184444
 30
0.0
 10
317.500000
 20
388.337778
 30
0.0
 10
316.653333
 20
387.773333
 30
0.0
 10
316.088889
 20
386.926667
 30
0.0
 10
313.548889
 20
386.080000
 30
0.0
 10
312.702222
 20
385.233333
 30
0.0
 10
306.070000
 20
385.550833
 30
0.0
 10
299.437778
 20
386.926667
 30
0.0
 10
299.437778
 20
371.122222
 30
0.0
 10
296.333333
 20
371.122222
 30
0.0
 10
296.333333
 20
368.864444
 30
0.0
 10
295.768889
 20
368.017778
 30
0.0
 10
291.817778
 20
368.017778
 30
0.0
 10
288.995556
 20
362.373333
 30
0.0
 10
280.811111
 20
363.502222
 30
0.0
 10
281.657778
 20
355.600000
 30
0.0
 10
282.222222
 20
354.753333
 30
0.0
 10
282.222222
 20
353.342222
 30
0.0
 10
281.657778
 20
352.495556
 30
0.0
 10
280.811111
 20
347.697778
 30
0.0
 10
273.755556
 20
347.697778
 30
0.0
 10
272.908889
 20
348.544444
 30
0.0
 10
272.908889
 20
352.495556
 30
0.0
 10
262.748889
 20
352.495556
 30
0.0
 10
261.902222
 20
353.342222
 30
0.0
 10
258.647847
 20
352.460278
 30
0.0
 10
257.033889
 20
350.520000
 30
0.0
 10
255.949097
 20
348.579722
 30
0.0
 10
254.282222
 20
347.697778
 30
0.0
 10
254.282222
 20
352.495556
 30
0.0
 10
248.073333
 20
350.237778
 30
0.0
 10
247.226667
 20
349.391111
 30
0.0
 10
243.275556
 20
349.391111
 30
0.0
 10
241.582222
 20
339.795556
 30
0.0
 10
245.533333
 20
338.384444
 30
0.0
 10
246.380000
 20
337.537778
 30
0.0
 10
245.533333
 20
322.862222
 30
0.0
 10
246.380000
 20
322.015556
 30
0.0
 10
246.380000
 20
316.371111
 30
0.0
 10
249.484444
 20
316.371111
 30
0.0
 10
250.428125
 20
308.274861
 30
0.0
 10
249.837222
 20
301.977778
 30
0.0
 10
246.380000
 20
288.431111
 30
0.0
 10
249.484444
 20
288.431111
 30
0.0
 10
247.861667
 20
283.245278
 30
0.0
 10
244.122222
 20
279.117778
 30
0.0
 10
243.275556
 20
279.682222
 30
0.0
 10
240.171111
 20
279.682222
 30
0.0
 10
239.324444
 20
279.117778
 30
0.0
 10
237.066667
 20
271.215556
 30
0.0
 10
233.962222
 20
271.215556
 30
0.0
 10
233.962222
 20
268.111111
 30
0.0
 10
230.857778
 20
268.111111
 30
0.0
 10
230.011111
 20
277.424444
 30
0.0
 10
230.011111
 20
277.424444
 30
0.0
  0
LWPOLYLINE
  5
109
100
AcDbEntity
  8
rp
 62
7
100
AcDbPolyline
 90
210
 70
0
 10
161.995556
 20
227.471111
 30
0.0
 10
161.607500
 20
228.705833
 30
0.0
 10
158.891111
 20
228.882222
 30
0.0
 10
158.891111
 20
227.471111
 30
0.0
 10
152.682222
 20
227.471111
 30
0.0
 10
152.682222
 20
228.882222
 30
0.0
 10
147.884444
 20
228.882222
 30
0.0
 10
147.884444
 20
227.471111
 30
0.0
 10
144.780000
 20
227.471111
 30
0.0
 10
144.780000
 20
228.882222
 30
0.0
 10
138.571111
 20
228.882222
 30
0.0
 10
137.160000
 20
232.551111
 30
0.0
 10
128.975556
 20
235.091111
 30
0.0
 10
128.975556
 20
242.993333
 30
0.0
 10
118.251111
 20
242.993333
 30
0.0
 10
116.769444
 20
243.381389
 30
0.0
 10
116.557778
 20
246.097778
 30
0.0
 10
113.453333
 20
246.097778
 30
0.0
 10
114.688056
 20
250.966111
 30
0.0
 10
118.251111
 20
256.257778
 30
0.0
 10
118.815556
 20
257.104444
 30
0.0
 10
119.803333
 20
259.185833
 30
0.0
 10
119.944444
 20
266.982222
 30
0.0
 10
114.582222
 20
269.240000
 30
0.0
 10
113.453333
 20
274.320000
 30
0.0
 10
110.736944
 20
274.496389
 30
0.0
 10
110.348889
 20
275.731111
 30
0.0
 10
114.864444
 20
275.731111
 30
0.0
 10
113.735556
 20
281.093333
 30
0.0
 10
116.557778
 20
282.222222
 30
0.0
 10
115.711111
 20
285.326667
 30
0.0
 10
114.864444
 20
285.891111
 30
0.0
 10
113.263715
 20
288.863264
 30
0.0
 10
111.371944
 20
290.195000
 30
0.0
 10
106.397778
 20
293.228889
 30
0.0
 10
105.551111
 20
293.793333
 30
0.0
 10
101.000278
 20
294.710556
 30
0.0
 10
97.084444
 20
297.744444
 30
0.0
 10
96.237778
 20
298.591111
 30
0.0
 10
85.654444
 20
296.545000
 30
0.0
 10
75.917778
 20
292.382222
 30
0.0
 10
75.071111
 20
291.535556
 30
0.0
 10
61.524444
 20
287.302222
 30
0.0
 10
60.395556
 20
289.842222
 30
0.0
 10
54.186667
 20
289.630556
 30
0.0
 10
44.591111
 20
291.535556
 30
0.0
 10
44.591111
 20
294.640000
 30
0.0
 10
47.695556
 20
294.640000
 30
0.0
 10
47.695556
 20
297.744444
 30
0.0
 10
49.388889
 20
299.155556
 30
0.0
 10
51.082222
 20
305.646667
 30
0.0
 10
52.493333
 20
307.057778
 30
0.0
 10
55.597778
 20
308.751111
 30
0.0
 10
57.008889
 20
321.168889
 30
0.0
 10
49.388889
 20
321.168889
 30
0.0
 10
46.284444
 20
324.273333
 30
0.0
 10
44.591111
 20
324.273333
 30
0.0
 10
40.075556
 20
329.071111
 30
0.0
 10
37.570833
 20
332.740000
 30
0.0
 10
35.277778
 20
339.795556
 30
0.0
 10
32.173333
 20
339.795556
 30
0.0
 10
30.427083
 20
346.079410
 30
0.0
 10
30.056667
 20
351.754722
 30
0.0
 10
32.173333
 20
363.502222
 30
0.0
 10
35.277778
 20
363.502222
 30
0.0
 10
35.277778
 20
371.122222
 30
0.0
 10
41.486667
 20
374.508889
 30
0.0
 10
43.180000
 20
377.613333
 30
0.0
 10
53.586944
 20
379.976944
 30
0.0
 10
60.395556
 20
382.975556
 30
0.0
 10
60.960000
 20
383.822222
 30
0.0
 10
68.297778
 20
384.386667
 30
0.0
 10
70.992118
 20
382.605139
 30
0.0
 10
73.977500
 20
381.987778
 30
0.0
 10
80.715556
 20
382.128889
 30
0.0
 10
79.022222
 20
387.773333
 30
0.0
 10
79.868889
 20
388.337778
 30
0.0
 10
80.151111
 20
395.957778
 30
0.0
 10
82.973333
 20
394.828889
 30
0.0
 10
83.820000
 20
393.982222
 30
0.0
 10
86.924444
 20
393.982222
 30
0.0
 10
87.771111
 20
394.828889
 30
0.0
 10
90.028889
 20
394.828889
 30
0.0
 10
89.182222
 20
399.344444
 30
0.0
 10
88.335556
 20
400.191111
 30
0.0
 10
91.722222
 20
401.037778
 30
0.0
 10
91.722222
 20
404.988889
 30
0.0
 10
92.286667
 20
405.553333
 30
0.0
 10
97.684167
 20
406.611667
 30
0.0
 10
101.600000
 20
408.940000
 30
0.0
 10
102.446667
 20
408.093333
 30
0.0
 10
104.140000
 20
408.093333
 30
0.0
 10
104.986667
 20
408.940000
 30
0.0
 10
122.766667
 20
413.455556
 30
0.0
 10
122.766667
 20
415.713333
 30
0.0
 10
123.613333
 20
416.560000
 30
0.0
 10
126.126324
 20
420.006749
 30
0.0
 10
129.271007
 20
422.173576
 30
0.0
 10
136.489722
 20
424.426944
 30
0.0
 10
143.338021
 20
426.839062
 30
0.0
 10
146.019683
 20
429.204327
 30
0.0
 10
147.884444
 20
432.928889
 30
0.0
 10
148.731111
 20
433.775556
 30
0.0
 10
153.528889
 20
438.749722
 30
0.0
 10
155.786667
 20
445.628889
 30
0.0
 10
156.351111
 20
446.193333
 30
0.0
 10
158.044444
 20
446.193333
 30
0.0
 10
158.891111
 20
445.628889
 30
0.0
 10
158.891111
 20
438.573333
 30
0.0
 10
162.842222
 20
436.880000
 30
0.0
 10
163.406667
 20
436.315556
 30
0.0
 10
168.204444
 20
435.468889
 30
0.0
 10
169.051111
 20
425.873333
 30
0.0
 10
169.615556
 20
425.026667
 30
0.0
 10
172.155556
 20
422.768889
 30
0.0
 10
173.002222
 20
422.204444
 30
0.0
 10
173.002222
 20
418.253333
 30
0.0
 10
177.517778
 20
418.253333
 30
0.0
 10
179.175833
 20
410.986111
 30
0.0
 10
180.622222
 20
403.295556
 30
0.0
 10
180.057778
 20
402.448889
 30
0.0
 10
171.308889
 20
402.448889
 30
0.0
 10
171.308889
 20
399.344444
 30
0.0
 10
168.204444
 20
399.344444
 30
0.0
 10
169.051111
 20
391.724444
 30
0.0
 10
169.615556
 20
390.877778
 30
0.0
 10
169.051111
 20
383.822222
 30
0.0
 10
173.566667
 20
380.717778
 30
0.0
 10
174.413333
 20
379.871111
 30
0.0
 10
176.353611
 20
373.168333
 30
0.0
 10
176.388889
 20
368.582222
 30
0.0
 10
171.097222
 20
368.194167
 30
0.0
 10
169.615556
 20
367.171111
 30
0.0
 10
169.051111
 20
366.606667
 30
0.0
 10
165.100000
 20
364.913333
 30
0.0
 10
165.100000
 20
362.655556
 30
0.0
 10
164.253333
 20
361.808889
 30
0.0
 10
158.891111
 20
360.397778
 30
0.0
 10
159.455556
 20
357.293333
 30
0.0
 10
160.302222
 20
356.446667
 30
0.0
 10
161.995556
 20
352.495556
 30
0.0
 10
155.786667
 20
352.495556
 30
0.0
 10
153.705278
 20
347.521389
 30
0.0
 10
152.682222
 20
341.488889
 30
0.0
 10
154.940000
 20
341.488889
 30
0.0
 10
155.786667
 20
340.642222
 30
0.0
 10
158.044444
 20
336.973333
 30
0.0
 10
158.891111
 20
336.126667
 30
0.0
 10
158.891111
 20
333.868889
 30
0.0
 10
171.308889
 20
336.126667
 30
0.0
 10
172.155556
 20
336.973333
 30
0.0
 10
174.413333
 20
337.537778
 30
0.0
 10
175.260000
 20
338.384444
 30
0.0
 10
177.517778
 20
339.231111
 30
0.0
 10
178.364444
 20
339.795556
 30
0.0
 10
182.315556
 20
340.642222
 30
0.0
 10
183.162222
 20
341.488889
 30
0.0
 10
184.573333
 20
339.795556
 30
0.0
 10
185.420000
 20
339.231111
 30
0.0
 10
187.677778
 20
338.384444
 30
0.0
 10
188.524444
 20
337.537778
 30
0.0
 10
190.782222
 20
333.868889
 30
0.0
 10
191.628889
 20
333.022222
 30
0.0
 10
194.168889
 20
321.168889
 30
0.0
 10
194.733333
 20
320.322222
 30
0.0
 10
197.273333
 20
313.266667
 30
0.0
 10
197.837778
 20
312.702222
 30
0.0
 10
199.742778
 20
308.856944
 30
0.0
 10
199.531111
 20
304.800000
 30
0.0
 10
198.684444
 20
303.953333
 30
0.0
 10
196.426667
 20
303.106667
 30
0.0
 10
195.580000
 20
302.542222
 30
0.0
 10
193.322222
 20
302.542222
 30
0.0
 10
195.580000
 20
293.228889
 30
0.0
 10
196.426667
 20
292.382222
 30
0.0
 10
197.273333
 20
289.842222
 30
0.0
 10
197.837778
 20
289.277778
 30
0.0
 10
198.684444
 20
280.528889
 30
0.0
 10
199.531111
 20
279.682222
 30
0.0
 10
200.095556
 20
277.424444
 30
0.0
 10
200.942222
 20
276.577778
 30
0.0
 10
200.942222
 20
275.166667
 30
0.0
 10
200.095556
 20
274.320000
 30
0.0
 10
199.531111
 20
271.215556
 30
0.0
 10
204.046667
 20
271.215556
 30
0.0
 10
202.635556
 20
261.055556
 30
0.0
 10
201.788889
 20
260.208889
 30
0.0
 10
200.942222
 20
259.362222
 30
0.0
 10
200.095556
 20
258.515556
 30
0.0
 10
199.531111
 20
255.411111
 30
0.0
 10
201.788889
 20
255.411111
 30
0.0
 10
202.635556
 20
254.846667
 30
0.0
 10
201.788889
 20
254.000000
 30
0.0
 10
200.942222
 20
253.153333
 30
0.0
 10
200.095556
 20
252.588889
 30
0.0
 10
196.426667
 20
250.895556
 30
0.0
 10
194.345278
 20
242.711111
 30
0.0
 10
193.322222
 20
232.833333
 30
0.0
 10
192.475556
 20
231.986667
 30
0.0
 10
190.217778
 20
228.035556
 30
0.0
 10
189.371111
 20
227.471111
 30
0.0
 10
188.524444
 20
226.624444
 30
0.0
 10
187.677778
 20
225.777778
 30
0.0
 10
186.831111
 20
220.415556
 30
0.0
 10
186.266667
 20
219.568889
 30
0.0
 10
183.726667
 20
218.722222
 30
0.0
 10
183.162222
 20
217.875556
 30
0.0
 10
171.626389
 20
222.038333
 30
0.0
 10
161.995556
 20
227.471111
 30
0.0
 10
161.995556
 20
227.471111
 30
0.0
  0
LWPOLYLINE
  5
10a
100
AcDbEntity
  8
sar
 62
7
100
AcDbPolyline
 90
62
 70
0
 10
93.133333
 20
239.888889
 30
0.0
 10
91.510556
 20
245.921389
 30
0.0
 10
86.924444
 20
250.048889
 30
0.0
 10
83.820000
 20
249.202222
 30
0.0
 10
80.715556
 20
249.202222
 30
0.0
 10
79.022222
 20
249.202222
 30
0.0
 10
77.611111
 20
249.202222
 30
0.0
 10
77.611111
 20
242.993333
 30
0.0
 10
74.224444
 20
242.993333
 30
0.0
 10
72.813333
 20
242.993333
 30
0.0
 10
70.216007
 20
245.656806
 30
0.0
 10
68.544722
 20
249.907778
 30
0.0
 10
66.604444
 20
258.515556
 30
0.0
 10
63.500000
 20
258.515556
 30
0.0
 10
63.500000
 20
261.902222
 30
0.0
 10
60.395556
 20
261.902222
 30
0.0
 10
58.702222
 20
265.006667
 30
0.0
 10
58.702222
 20
268.111111
 30
0.0
 10
58.490556
 20
272.132778
 30
0.0
 10
57.008889
 20
277.424444
 30
0.0
 10
54.186667
 20
277.424444
 30
0.0
 10
52.493333
 20
279.117778
 30
0.0
 10
49.388889
 20
280.528889
 30
0.0
 10
45.720000
 20
281.093333
 30
0.0
 10
44.591111
 20
288.431111
 30
0.0
 10
57.573333
 20
288.148889
 30
0.0
 10
58.702222
 20
285.326667
 30
0.0
 10
75.917778
 20
290.688889
 30
0.0
 10
76.764444
 20
291.535556
 30
0.0
 10
95.391111
 20
297.744444
 30
0.0
 10
96.237778
 20
296.897778
 30
0.0
 10
98.777778
 20
292.664444
 30
0.0
 10
104.986667
 20
293.228889
 30
0.0
 10
105.551111
 20
292.382222
 30
0.0
 10
107.950000
 20
289.348333
 30
0.0
 10
112.042222
 20
288.431111
 30
0.0
 10
112.042222
 20
285.326667
 30
0.0
 10
114.300000
 20
285.326667
 30
0.0
 10
114.864444
 20
284.480000
 30
0.0
 10
112.042222
 20
283.633333
 30
0.0
 10
112.888889
 20
278.553333
 30
0.0
 10
108.937778
 20
277.424444
 30
0.0
 10
108.937778
 20
272.626667
 30
0.0
 10
112.042222
 20
272.626667
 30
0.0
 10
112.888889
 20
267.828889
 30
0.0
 10
118.533333
 20
265.288889
 30
0.0
 10
118.251111
 20
257.951111
 30
0.0
 10
117.404444
 20
257.104444
 30
0.0
 10
114.864444
 20
257.104444
 30
0.0
 10
112.818333
 20
252.165556
 30
0.0
 10
112.042222
 20
244.686667
 30
0.0
 10
114.864444
 20
244.686667
 30
0.0
 10
114.864444
 20
239.888889
 30
0.0
 10
112.395000
 20
239.712500
 30
0.0
 10
112.042222
 20
238.477778
 30
0.0
 10
108.937778
 20
238.477778
 30
0.0
 10
99.342222
 20
241.300000
 30
0.0
 10
98.954167
 20
242.781667
 30
0.0
 10
96.237778
 20
242.993333
 30
0.0
 10
96.237778
 20
238.477778
 30
0.0
 10
93.133333
 20
239.888889
 30
0.0
 10
93.133333
 20
239.888889
 30
0.0
  0
LWPOLYLINE
  5
10b
100
AcDbEntity
  8
nrw
 62
7
100
AcDbPolyline
 90
340
 70
0
 10
47.695556
 20
385.233333
 30
0.0
 10
51.082222
 20
396.240000
 30
0.0
 10
47.695556
 20
396.240000
 30
0.0
 10
46.566667
 20
401.320000
 30
0.0
 10
38.382222
 20
402.448889
 30
0.0
 10
36.971111
 20
408.940000
 30
0.0
 10
41.486667
 20
410.351111
 30
0.0
 10
41.486667
 20
413.455556
 30
0.0
 10
42.968333
 20
413.843611
 30
0.0
 10
43.180000
 20
416.560000
 30
0.0
 10
40.075556
 20
416.560000
 30
0.0
 10
38.382222
 20
416.560000
 30
0.0
 10
33.584444
 20
427.566667
 30
0.0
 10
27.975278
 20
430.036111
 30
0.0
 10
24.271111
 20
435.468889
 30
0.0
 10
25.964444
 20
441.677778
 30
0.0
 10
31.044444
 20
442.806667
 30
0.0
 10
30.480000
 20
446.193333
 30
0.0
 10
30.480000
 20
447.886667
 30
0.0
 10
32.173333
 20
447.886667
 30
0.0
 10
32.173333
 20
452.402222
 30
0.0
 10
27.657778
 20
452.402222
 30
0.0
 10
27.657778
 20
458.893333
 30
0.0
 10
19.755556
 20
458.893333
 30
0.0
 10
16.368889
 20
466.513333
 30
0.0
 10
21.166667
 20
465.102222
 30
0.0
 10
21.554722
 20
463.620556
 30
0.0
 10
24.271111
 20
463.408889
 30
0.0
 10
26.383368
 20
468.766701
 30
0.0
 10
29.739167
 20
472.404722
 30
0.0
 10
34.312049
 20
474.719826
 30
0.0
 10
40.075556
 20
476.108889
 30
0.0
 10
40.075556
 20
480.624444
 30
0.0
 10
40.075556
 20
482.317778
 30
0.0
 10
38.382222
 20
482.317778
 30
0.0
 10
36.971111
 20
480.624444
 30
0.0
 10
32.173333
 20
480.624444
 30
0.0
 10
33.584444
 20
488.526667
 30
0.0
 10
35.277778
 20
491.631111
 30
0.0
 10
38.382222
 20
491.631111
 30
0.0
 10
40.075556
 20
497.840000
 30
0.0
 10
41.486667
 20
499.533333
 30
0.0
 10
43.180000
 20
500.944444
 30
0.0
 10
43.744444
 20
521.546667
 30
0.0
 10
41.486667
 20
522.957778
 30
0.0
 10
40.075556
 20
526.062222
 30
0.0
 10
38.382222
 20
527.473333
 30
0.0
 10
36.971111
 20
529.166667
 30
0.0
 10
38.382222
 20
537.068889
 30
0.0
 10
33.584444
 20
537.068889
 30
0.0
 10
32.173333
 20
538.480000
 30
0.0
 10
33.584444
 20
544.688889
 30
0.0
 10
32.173333
 20
544.688889
 30
0.0
 10
32.173333
 20
546.382222
 30
0.0
 10
27.657778
 20
546.382222
 30
0.0
 10
27.657778
 20
548.075556
 30
0.0
 10
30.480000
 20
548.075556
 30
0.0
 10
27.657778
 20
557.388889
 30
0.0
 10
30.480000
 20
557.388889
 30
0.0
 10
32.173333
 20
557.388889
 30
0.0
 10
43.180000
 20
557.388889
 30
0.0
 10
42.968333
 20
560.105278
 30
0.0
 10
41.486667
 20
560.493333
 30
0.0
 10
42.333333
 20
563.597778
 30
0.0
 10
45.085000
 20
561.728056
 30
0.0
 10
52.493333
 20
560.493333
 30
0.0
 10
52.493333
 20
557.388889
 30
0.0
 10
55.597778
 20
557.388889
 30
0.0
 10
55.597778
 20
554.284444
 30
0.0
 10
60.395556
 20
554.284444
 30
0.0
 10
60.395556
 20
560.493333
 30
0.0
 10
61.806667
 20
560.493333
 30
0.0
 10
61.806667
 20
557.388889
 30
0.0
 10
68.333056
 20
558.835278
 30
0.0
 10
74.224444
 20
562.186667
 30
0.0
 10
77.611111
 20
563.597778
 30
0.0
 10
82.126667
 20
562.186667
 30
0.0
 10
83.820000
 20
562.186667
 30
0.0
 10
88.335556
 20
563.597778
 30
0.0
 10
88.335556
 20
568.113333
 30
0.0
 10
91.722222
 20
568.113333
 30
0.0
 10
91.722222
 20
574.604444
 30
0.0
 10
90.028889
 20
574.604444
 30
0.0
 10
88.335556
 20
576.015556
 30
0.0
 10
85.231111
 20
577.708889
 30
0.0
 10
82.126667
 20
579.120000
 30
0.0
 10
82.126667
 20
582.224444
 30
0.0
 10
86.924444
 20
582.224444
 30
0.0
 10
88.053333
 20
585.893333
 30
0.0
 10
95.108889
 20
588.151111
 30
0.0
 10
96.237778
 20
591.820000
 30
0.0
 10
101.035556
 20
594.924444
 30
0.0
 10
104.140000
 20
594.924444
 30
0.0
 10
104.140000
 20
598.028889
 30
0.0
 10
108.937778
 20
598.028889
 30
0.0
 10
108.937778
 20
599.440000
 30
0.0
 10
114.158889
 20
601.768333
 30
0.0
 10
123.613333
 20
602.826667
 30
0.0
 10
124.460000
 20
601.980000
 30
0.0
 10
127.564444
 20
601.133333
 30
0.0
 10
127.564444
 20
603.391111
 30
0.0
 10
128.411111
 20
604.237778
 30
0.0
 10
132.362222
 20
604.237778
 30
0.0
 10
132.362222
 20
607.342222
 30
0.0
 10
136.877778
 20
607.342222
 30
0.0
 10
136.877778
 20
610.446667
 30
0.0
 10
139.982222
 20
610.446667
 30
0.0
 10
139.982222
 20
612.704444
 30
0.0
 10
140.828889
 20
613.551111
 30
0.0
 10
147.884444
 20
613.551111
 30
0.0
 10
147.884444
 20
617.502222
 30
0.0
 10
148.731111
 20
618.348889
 30
0.0
 10
148.731111
 20
621.453333
 30
0.0
 10
147.884444
 20
622.300000
 30
0.0
 10
147.884444
 20
625.404444
 30
0.0
 10
148.731111
 20
625.968889
 30
0.0
 10
154.940000
 20
622.864444
 30
0.0
 10
155.786667
 20
622.300000
 30
0.0
 10
155.786667
 20
616.655556
 30
0.0
 10
159.455556
 20
616.655556
 30
0.0
 10
160.302222
 20
616.091111
 30
0.0
 10
161.148889
 20
615.244444
 30
0.0
 10
161.995556
 20
614.397778
 30
0.0
 10
170.462222
 20
613.551111
 30
0.0
 10
171.308889
 20
612.704444
 30
0.0
 10
171.732222
 20
606.742500
 30
0.0
 10
169.615556
 20
597.182222
 30
0.0
 10
169.051111
 20
596.335556
 30
0.0
 10
168.204444
 20
591.820000
 30
0.0
 10
174.413333
 20
590.126667
 30
0.0
 10
173.390278
 20
585.646389
 30
0.0
 10
171.308889
 20
583.071111
 30
0.0
 10
170.462222
 20
582.224444
 30
0.0
 10
168.204444
 20
582.224444
 30
0.0
 10
168.204444
 20
576.015556
 30
0.0
 10
172.155556
 20
576.015556
 30
0.0
 10
173.002222
 20
575.451111
 30
0.0
 10
183.726667
 20
576.862222
 30
0.0
 10
184.573333
 20
577.708889
 30
0.0
 10
190.217778
 20
578.273333
 30
0.0
 10
190.782222
 20
579.120000
 30
0.0
 10
191.628889
 20
582.224444
 30
0.0
 10
194.733333
 20
582.224444
 30
0.0
 10
195.862222
 20
585.046667
 30
0.0
 10
199.848611
 20
583.212222
 30
0.0
 10
205.740000
 20
582.224444
 30
0.0
 10
207.997778
 20
586.387222
 30
0.0
 10
211.948889
 20
589.280000
 30
0.0
 10
212.795556
 20
590.126667
 30
0.0
 10
213.642222
 20
593.231111
 30
0.0
 10
209.691111
 20
593.231111
 30
0.0
 10
208.844444
 20
594.077778
 30
0.0
 10
208.844444
 20
595.488889
 30
0.0
 10
209.691111
 20
596.335556
 30
0.0
 10
209.691111
 20
608.753333
 30
0.0
 10
208.844444
 20
609.600000
 30
0.0
 10
207.997778
 20
612.140000
 30
0.0
 10
207.433333
 20
612.704444
 30
0.0
 10
206.586667
 20
613.551111
 30
0.0
 10
205.740000
 20
614.397778
 30
0.0
 10
203.482222
 20
615.244444
 30
0.0
 10
202.635556
 20
616.091111
 30
0.0
 10
200.942222
 20
621.453333
 30
0.0
 10
208.844444
 20
622.300000
 30
0.0
 10
209.691111
 20
622.864444
 30
0.0
 10
211.948889
 20
628.508889
 30
0.0
 10
212.795556
 20
629.355556
 30
0.0
 10
213.642222
 20
628.508889
 30
0.0
 10
214.206667
 20
627.662222
 30
0.0
 10
215.053333
 20
626.815556
 30
0.0
 10
216.746667
 20
626.815556
 30
0.0
 10
217.593333
 20
627.662222
 30
0.0
 10
219.851111
 20
628.508889
 30
0.0
 10
220.697778
 20
629.355556
 30
0.0
 10
222.955556
 20
629.920000
 30
0.0
 10
223.802222
 20
630.766667
 30
0.0
 10
224.648889
 20
629.920000
 30
0.0
 10
226.906667
 20
625.968889
 30
0.0
 10
227.471111
 20
625.404444
 30
0.0
 10
227.471111
 20
623.711111
 30
0.0
 10
226.906667
 20
622.864444
 30
0.0
 10
227.188889
 20
614.962222
 30
0.0
 10
230.857778
 20
614.397778
 30
0.0
 10
231.422222
 20
615.244444
 30
0.0
 10
234.808889
 20
615.244444
 30
0.0
 10
235.373333
 20
614.397778
 30
0.0
 10
243.275556
 20
616.091111
 30
0.0
 10
244.122222
 20
616.655556
 30
0.0
 10
244.686667
 20
617.502222
 30
0.0
 10
245.533333
 20
618.348889
 30
0.0
 10
248.073333
 20
618.348889
 30
0.0
 10
251.177778
 20
625.968889
 30
0.0
 10
257.386667
 20
623.711111
 30
0.0
 10
256.540000
 20
622.864444
 30
0.0
 10
254.282222
 20
612.704444
 30
0.0
 10
253.435556
 20
612.140000
 30
0.0
 10
246.380000
 20
608.753333
 30
0.0
 10
246.380000
 20
603.391111
 30
0.0
 10
245.533333
 20
602.826667
 30
0.0
 10
245.815556
 20
599.157778
 30
0.0
 10
249.484444
 20
598.028889
 30
0.0
 10
248.038056
 20
592.525556
 30
0.0
 10
247.226667
 20
587.022222
 30
0.0
 10
248.073333
 20
586.175556
 30
0.0
 10
248.073333
 20
583.917778
 30
0.0
 10
251.177778
 20
584.764444
 30
0.0
 10
252.024444
 20
585.328889
 30
0.0
 10
257.386667
 20
583.071111
 30
0.0
 10
256.540000
 20
582.224444
 30
0.0
 10
255.693333
 20
579.120000
 30
0.0
 10
258.797778
 20
579.120000
 30
0.0
 10
259.644444
 20
571.500000
 30
0.0
 10
260.491111
 20
570.653333
 30
0.0
 10
260.491111
 20
568.960000
 30
0.0
 10
259.644444
 20
568.113333
 30
0.0
 10
258.797778
 20
563.597778
 30
0.0
 10
263.877778
 20
564.726667
 30
0.0
 10
266.417778
 20
560.599167
 30
0.0
 10
268.957778
 20
558.800000
 30
0.0
 10
269.804444
 20
558.235556
 30
0.0
 10
271.497778
 20
552.591111
 30
0.0
 10
277.706667
 20
550.897778
 30
0.0
 10
277.706667
 20
544.124444
 30
0.0
 10
276.860000
 20
543.277778
 30
0.0
 10
274.037778
 20
542.148889
 30
0.0
 10
273.508611
 20
530.789444
 30
0.0
 10
271.497778
 20
519.006667
 30
0.0
 10
270.651111
 20
518.160000
 30
0.0
 10
268.111111
 20
518.160000
 30
0.0
 10
268.111111
 20
513.644444
 30
0.0
 10
261.902222
 20
511.951111
 30
0.0
 10
261.902222
 20
507.435556
 30
0.0
 10
253.435556
 20
505.742222
 30
0.0
 10
252.588889
 20
506.588889
 30
0.0
 10
252.588889
 20
508.000000
 30
0.0
 10
253.435556
 20
508.846667
 30
0.0
 10
254.282222
 20
511.951111
 30
0.0
 10
238.477778
 20
509.693333
 30
0.0
 10
237.913333
 20
508.846667
 30
0.0
 10
237.913333
 20
507.435556
 30
0.0
 10
238.477778
 20
506.588889
 30
0.0
 10
239.324444
 20
505.742222
 30
0.0
 10
240.171111
 20
504.895556
 30
0.0
 10
241.582222
 20
501.791111
 30
0.0
 10
240.735556
 20
500.944444
 30
0.0
 10
237.066667
 20
498.686667
 30
0.0
 10
236.220000
 20
497.840000
 30
0.0
 10
227.471111
 20
499.533333
 30
0.0
 10
227.471111
 20
496.993333
 30
0.0
 10
226.906667
 20
496.428889
 30
0.0
 10
222.955556
 20
496.993333
 30
0.0
 10
222.108889
 20
496.428889
 30
0.0
 10
219.851111
 20
496.428889
 30
0.0
 10
218.157778
 20
492.477778
 30
0.0
 10
217.593333
 20
491.631111
 30
0.0
 10
216.746667
 20
490.784444
 30
0.0
 10
215.900000
 20
490.220000
 30
0.0
 10
215.053333
 20
487.680000
 30
0.0
 10
214.206667
 20
486.833333
 30
0.0
 10
214.771111
 20
481.753333
 30
0.0
 10
218.157778
 20
481.471111
 30
0.0
 10
219.004444
 20
482.317778
 30
0.0
 10
223.237778
 20
483.446667
 30
0.0
 10
225.072222
 20
478.860556
 30
0.0
 10
226.060000
 20
472.157778
 30
0.0
 10
225.213333
 20
471.311111
 30
0.0
 10
222.955556
 20
470.464444
 30
0.0
 10
222.108889
 20
469.617778
 30
0.0
 10
221.262222
 20
465.102222
 30
0.0
 10
208.844444
 20
465.102222
 30
0.0
 10
209.691111
 20
457.200000
 30
0.0
 10
210.537778
 20
456.353333
 30
0.0
 10
207.080556
 20
452.225833
 30
0.0
 10
205.740000
 20
447.040000
 30
0.0
 10
204.893333
 20
446.193333
 30
0.0
 10
200.977500
 20
443.476944
 30
0.0
 10
198.120000
 20
439.702222
 30
0.0
 10
190.217778
 20
439.137778
 30
0.0
 10
189.371111
 20
438.573333
 30
0.0
 10
188.524444
 20
437.726667
 30
0.0
 10
187.677778
 20
436.880000
 30
0.0
 10
186.831111
 20
436.315556
 30
0.0
 10
186.266667
 20
435.468889
 30
0.0
 10
183.726667
 20
435.468889
 30
0.0
 10
183.726667
 20
432.928889
 30
0.0
 10
183.162222
 20
432.364444
 30
0.0
 10
181.998056
 20
430.424167
 30
0.0
 10
182.315556
 20
423.615556
 30
0.0
 10
181.468889
 20
422.768889
 30
0.0
 10
180.622222
 20
419.664444
 30
0.0
 10
174.413333
 20
419.664444
 30
0.0
 10
173.566667
 20
422.768889
 30
0.0
 10
173.002222
 20
423.615556
 30
0.0
 10
173.002222
 20
425.873333
 30
0.0
 10
170.462222
 20
425.873333
 30
0.0
 10
169.615556
 20
426.720000
 30
0.0
 10
169.615556
 20
436.880000
 30
0.0
 10
164.253333
 20
436.880000
 30
0.0
 10
163.406667
 20
437.726667
 30
0.0
 10
163.406667
 20
439.984444
 30
0.0
 10
160.302222
 20
439.984444
 30
0.0
 10
159.455556
 20
446.193333
 30
0.0
 10
158.891111
 20
447.040000
 30
0.0
 10
155.786667
 20
447.040000
 30
0.0
 10
154.940000
 20
446.193333
 30
0.0
 10
152.682222
 20
446.193333
 30
0.0
 10
151.659167
 20
439.772778
 30
0.0
 10
147.884444
 20
434.622222
 30
0.0
 10
147.037778
 20
433.775556
 30
0.0
 10
142.875000
 20
428.801389
 30
0.0
 10
137.230556
 20
425.943889
 30
0.0
 10
124.460000
 20
422.768889
 30
0.0
 10
122.766667
 20
417.406667
 30
0.0
 10
122.202222
 20
416.560000
 30
0.0
 10
104.140000
 20
409.504444
 30
0.0
 10
103.293333
 20
408.940000
 30
0.0
 10
102.446667
 20
409.504444
 30
0.0
 10
97.719444
 20
409.116389
 30
0.0
 10
91.722222
 20
406.400000
 30
0.0
 10
90.875556
 20
405.553333
 30
0.0
 10
90.028889
 20
402.448889
 30
0.0
 10
86.924444
 20
402.448889
 30
0.0
 10
87.771111
 20
399.344444
 30
0.0
 10
88.335556
 20
398.497778
 30
0.0
 10
86.924444
 20
395.393333
 30
0.0
 10
86.077778
 20
394.828889
 30
0.0
 10
84.666667
 20
394.828889
 30
0.0
 10
83.820000
 20
395.393333
 30
0.0
 10
77.611111
 20
397.933333
 30
0.0
 10
79.022222
 20
389.184444
 30
0.0
 10
78.175556
 20
388.337778
 30
0.0
 10
78.740000
 20
384.951111
 30
0.0
 10
73.660000
 20
382.975556
 30
0.0
 10
66.921944
 20
386.326944
 30
0.0
 10
63.301562
 20
386.428368
 30
0.0
 10
60.395556
 20
384.386667
 30
0.0
 10
59.548889
 20
383.822222
 30
0.0
 10
52.211111
 20
381.000000
 30
0.0
 10
47.695556
 20
385.233333
 30
0.0
 10
47.695556
 20
385.233333
 30
0.0
  0
LWPOLYLINE
  5
10c
100
AcDbEntity
  8
sah
 62
7
100
AcDbPolyline
 90
228
 70
0
 10
459.740000
 20
458.893333
 30
0.0
 10
459.175556
 20
459.740000
 30
0.0
 10
456.353333
 20
460.868889
 30
0.0
 10
445.064444
 20
461.997778
 30
0.0
 10
443.653333
 20
465.666667
 30
0.0
 10
435.539444
 20
466.936667
 30
0.0
 10
427.002222
 20
466.513333
 30
0.0
 10
426.155556
 20
467.360000
 30
0.0
 10
426.155556
 20
477.520000
 30
0.0
 10
423.897778
 20
477.520000
 30
0.0
 10
423.051111
 20
478.366667
 30
0.0
 10
420.334722
 20
479.283889
 30
0.0
 10
419.946667
 20
480.624444
 30
0.0
 10
423.051111
 20
480.624444
 30
0.0
 10
423.051111
 20
482.882222
 30
0.0
 10
423.897778
 20
483.728889
 30
0.0
 10
424.462222
 20
484.575556
 30
0.0
 10
425.308889
 20
485.422222
 30
0.0
 10
423.897778
 20
491.631111
 30
0.0
 10
423.051111
 20
492.477778
 30
0.0
 10
419.946667
 20
499.533333
 30
0.0
 10
409.786667
 20
500.944444
 30
0.0
 10
408.940000
 20
501.791111
 30
0.0
 10
390.313333
 20
504.048889
 30
0.0
 10
387.773333
 20
511.951111
 30
0.0
 10
387.208889
 20
512.797778
 30
0.0
 10
386.362222
 20
516.748889
 30
0.0
 10
385.515556
 20
517.595556
 30
0.0
 10
383.257778
 20
524.368889
 30
0.0
 10
382.411111
 20
525.215556
 30
0.0
 10
378.530556
 20
526.767778
 30
0.0
 10
369.993333
 20
527.473333
 30
0.0
 10
366.042222
 20
538.480000
 30
0.0
 10
365.195556
 20
539.326667
 30
0.0
 10
364.348889
 20
541.584444
 30
0.0
 10
363.784444
 20
542.431111
 30
0.0
 10
361.244444
 20
546.382222
 30
0.0
 10
360.680000
 20
547.228889
 30
0.0
 10
363.784444
 20
553.437778
 30
0.0
 10
364.348889
 20
554.284444
 30
0.0
 10
365.195556
 20
554.848889
 30
0.0
 10
366.042222
 20
555.695556
 30
0.0
 10
366.042222
 20
558.800000
 30
0.0
 10
365.195556
 20
559.646667
 30
0.0
 10
363.784444
 20
561.340000
 30
0.0
 10
364.348889
 20
562.186667
 30
0.0
 10
364.348889
 20
565.008889
 30
0.0
 10
363.784444
 20
565.855556
 30
0.0
 10
362.937778
 20
566.702222
 30
0.0
 10
362.091111
 20
567.548889
 30
0.0
 10
361.244444
 20
568.113333
 30
0.0
 10
360.680000
 20
568.960000
 30
0.0
 10
365.195556
 20
570.653333
 30
0.0
 10
366.042222
 20
571.500000
 30
0.0
 10
383.822222
 20
575.451111
 30
0.0
 10
384.668889
 20
576.015556
 30
0.0
 10
388.620000
 20
576.015556
 30
0.0
 10
387.773333
 20
579.120000
 30
0.0
 10
387.208889
 20
579.966667
 30
0.0
 10
388.620000
 20
581.660000
 30
0.0
 10
389.466667
 20
582.224444
 30
0.0
 10
394.828889
 20
583.917778
 30
0.0
 10
394.828889
 20
590.126667
 30
0.0
 10
392.571111
 20
590.126667
 30
0.0
 10
391.724444
 20
590.973333
 30
0.0
 10
393.417778
 20
594.077778
 30
0.0
 10
394.264444
 20
594.924444
 30
0.0
 10
396.522222
 20
594.924444
 30
0.0
 10
394.052778
 20
601.133333
 30
0.0
 10
391.160000
 20
607.342222
 30
0.0
 10
390.313333
 20
608.188889
 30
0.0
 10
394.828889
 20
608.753333
 30
0.0
 10
394.828889
 20
615.244444
 30
0.0
 10
391.724444
 20
615.244444
 30
0.0
 10
391.724444
 20
618.348889
 30
0.0
 10
389.466667
 20
618.348889
 30
0.0
 10
388.620000
 20
619.195556
 30
0.0
 10
387.208889
 20
625.968889
 30
0.0
 10
390.313333
 20
625.968889
 30
0.0
 10
389.466667
 20
629.355556
 30
0.0
 10
388.620000
 20
629.920000
 30
0.0
 10
387.773333
 20
630.766667
 30
0.0
 10
387.208889
 20
631.613333
 30
0.0
 10
386.362222
 20
632.460000
 30
0.0
 10
385.515556
 20
633.306667
 30
0.0
 10
384.668889
 20
641.773333
 30
0.0
 10
383.822222
 20
642.620000
 30
0.0
 10
381.564444
 20
646.571111
 30
0.0
 10
380.717778
 20
647.135556
 30
0.0
 10
380.153333
 20
647.982222
 30
0.0
 10
379.306667
 20
648.828889
 30
0.0
 10
379.306667
 20
652.780000
 30
0.0
 10
376.202222
 20
652.780000
 30
0.0
 10
373.944444
 20
658.988889
 30
0.0
 10
373.097778
 20
659.835556
 30
0.0
 10
373.097778
 20
666.608889
 30
0.0
 10
385.515556
 20
669.148889
 30
0.0
 10
386.362222
 20
669.995556
 30
0.0
 10
388.620000
 20
669.995556
 30
0.0
 10
388.620000
 20
674.511111
 30
0.0
 10
395.358056
 20
674.334722
 30
0.0
 10
412.044444
 20
672.253333
 30
0.0
 10
412.891111
 20
673.100000
 30
0.0
 10
418.535556
 20
675.357778
 30
0.0
 10
419.100000
 20
676.204444
 30
0.0
 10
421.710556
 20
679.203056
 30
0.0
 10
423.051111
 20
683.260000
 30
0.0
 10
423.897778
 20
684.106667
 30
0.0
 10
427.848889
 20
686.364444
 30
0.0
 10
428.413333
 20
687.211111
 30
0.0
 10
429.260000
 20
687.775556
 30
0.0
 10
430.106667
 20
688.622222
 30
0.0
 10
431.800000
 20
688.622222
 30
0.0
 10
432.364444
 20
687.775556
 30
0.0
 10
436.315556
 20
685.517778
 30
0.0
 10
437.162222
 20
684.671111
 30
0.0
 10
441.113333
 20
684.106667
 30
0.0
 10
441.960000
 20
683.260000
 30
0.0
 10
446.475556
 20
680.720000
 30
0.0
 10
446.475556
 20
676.204444
 30
0.0
 10
450.426667
 20
674.511111
 30
0.0
 10
451.273333
 20
673.946667
 30
0.0
 10
466.795556
 20
673.100000
 30
0.0
 10
466.795556
 20
669.995556
 30
0.0
 10
471.593333
 20
670.560000
 30
0.0
 10
472.440000
 20
671.406667
 30
0.0
 10
475.544444
 20
668.302222
 30
0.0
 10
476.391111
 20
667.455556
 30
0.0
 10
474.274444
 20
656.378333
 30
0.0
 10
474.697778
 20
644.877778
 30
0.0
 10
471.593333
 20
644.877778
 30
0.0
 10
471.593333
 20
636.128889
 30
0.0
 10
470.746667
 20
635.564444
 30
0.0
 10
471.593333
 20
629.355556
 30
0.0
 10
480.589167
 20
626.286389
 30
0.0
 10
481.316771
 20
623.521493
 30
0.0
 10
480.060000
 20
618.348889
 30
0.0
 10
480.906667
 20
617.502222
 30
0.0
 10
479.213333
 20
605.084444
 30
0.0
 10
478.648889
 20
604.237778
 30
0.0
 10
479.213333
 20
597.182222
 30
0.0
 10
478.648889
 20
596.335556
 30
0.0
 10
477.802222
 20
592.384444
 30
0.0
 10
476.955556
 20
591.820000
 30
0.0
 10
476.955556
 20
590.126667
 30
0.0
 10
477.802222
 20
589.280000
 30
0.0
 10
480.906667
 20
582.224444
 30
0.0
 10
484.011111
 20
582.224444
 30
0.0
 10
486.268889
 20
577.708889
 30
0.0
 10
487.115556
 20
576.862222
 30
0.0
 10
489.655556
 20
576.015556
 30
0.0
 10
490.220000
 20
575.451111
 30
0.0
 10
490.220000
 20
572.911111
 30
0.0
 10
495.017778
 20
572.911111
 30
0.0
 10
495.864444
 20
576.015556
 30
0.0
 10
496.428889
 20
575.451111
 30
0.0
 10
496.428889
 20
572.911111
 30
0.0
 10
498.968889
 20
572.911111
 30
0.0
 10
499.815556
 20
572.064444
 30
0.0
 10
499.815556
 20
569.806667
 30
0.0
 10
509.128889
 20
569.806667
 30
0.0
 10
509.128889
 20
572.911111
 30
0.0
 10
513.080000
 20
571.500000
 30
0.0
 10
513.644444
 20
570.653333
 30
0.0
 10
517.595556
 20
568.113333
 30
0.0
 10
518.442222
 20
567.548889
 30
0.0
 10
520.135556
 20
567.548889
 30
0.0
 10
520.982222
 20
568.113333
 30
0.0
 10
522.393333
 20
566.702222
 30
0.0
 10
523.240000
 20
565.855556
 30
0.0
 10
531.918333
 20
561.410556
 30
0.0
 10
541.866667
 20
558.235556
 30
0.0
 10
542.713333
 20
558.800000
 30
0.0
 10
544.477222
 20
551.603333
 30
0.0
 10
546.664444
 20
548.640000
 30
0.0
 10
545.817778
 20
548.075556
 30
0.0
 10
545.817778
 20
544.688889
 30
0.0
 10
546.664444
 20
544.124444
 30
0.0
 10
546.664444
 20
537.633333
 30
0.0
 10
545.817778
 20
537.068889
 30
0.0
 10
543.560000
 20
536.222222
 30
0.0
 10
542.713333
 20
535.375556
 30
0.0
 10
540.455556
 20
534.811111
 30
0.0
 10
539.608889
 20
533.964444
 30
0.0
 10
537.915556
 20
533.964444
 30
0.0
 10
537.068889
 20
534.811111
 30
0.0
 10
534.246667
 20
534.811111
 30
0.0
 10
533.400000
 20
533.964444
 30
0.0
 10
526.344444
 20
533.964444
 30
0.0
 10
526.344444
 20
537.068889
 30
0.0
 10
523.240000
 20
536.222222
 30
0.0
 10
522.393333
 20
535.375556
 30
0.0
 10
520.135556
 20
533.117778
 30
0.0
 10
519.288889
 20
532.271111
 30
0.0
 10
512.233333
 20
533.964444
 30
0.0
 10
512.233333
 20
531.424444
 30
0.0
 10
511.386667
 20
530.860000
 30
0.0
 10
510.540000
 20
530.013333
 30
0.0
 10
509.693333
 20
529.166667
 30
0.0
 10
495.017778
 20
525.215556
 30
0.0
 10
494.171111
 20
524.368889
 30
0.0
 10
487.115556
 20
524.368889
 30
0.0
 10
487.115556
 20
522.111111
 30
0.0
 10
486.268889
 20
521.546667
 30
0.0
 10
481.352049
 20
520.210521
 30
0.0
 10
478.895833
 20
518.054167
 30
0.0
 10
476.391111
 20
509.693333
 30
0.0
 10
475.544444
 20
508.846667
 30
0.0
 10
474.697778
 20
504.048889
 30
0.0
 10
477.520000
 20
502.920000
 30
0.0
 10
477.802222
 20
493.324444
 30
0.0
 10
474.697778
 20
493.324444
 30
0.0
 10
476.955556
 20
485.422222
 30
0.0
 10
477.802222
 20
484.575556
 30
0.0
 10
479.213333
 20
473.568889
 30
0.0
 10
478.648889
 20
473.004444
 30
0.0
 10
477.802222
 20
469.617778
 30
0.0
 10
480.906667
 20
469.617778
 30
0.0
 10
480.906667
 20
466.513333
 30
0.0
 10
484.011111
 20
466.513333
 30
0.0
 10
485.704444
 20
456.353333
 30
0.0
 10
484.857778
 20
455.788889
 30
0.0
 10
481.753333
 20
450.991111
 30
0.0
 10
480.906667
 20
451.837778
 30
0.0
 10
467.924444
 20
451.555556
 30
0.0
 10
463.691111
 20
458.893333
 30
0.0
 10
459.740000
 20
458.893333
 30
0.0
 10
459.740000
 20
458.893333
 30
0.0
  0
LWPOLYLINE
  5
10d
100
AcDbEntity
  8
thu
 62
7
100
AcDbPolyline
 90
195
 70
0
 10
325.966667
 20
401.602222
 30
0.0
 10
325.402222
 20
401.037778
 30
0.0
 10
323.144444
 20
407.246667
 30
0.0
 10
325.966667
 20
407.246667
 30
0.0
 10
323.708889
 20
413.455556
 30
0.0
 10
323.144444
 20
414.302222
 30
0.0
 10
318.346667
 20
414.302222
 30
0.0
 10
317.500000
 20
413.455556
 30
0.0
 10
315.242222
 20
413.455556
 30
0.0
 10
313.831111
 20
409.222222
 30
0.0
 10
310.444444
 20
410.351111
 30
0.0
 10
312.137778
 20
414.302222
 30
0.0
 10
312.702222
 20
415.148889
 30
0.0
 10
313.548889
 20
419.100000
 30
0.0
 10
314.395556
 20
419.664444
 30
0.0
 10
315.242222
 20
428.413333
 30
0.0
 10
316.088889
 20
428.977778
 30
0.0
 10
316.653333
 20
432.364444
 30
0.0
 10
321.451111
 20
432.364444
 30
0.0
 10
323.144444
 20
443.088889
 30
0.0
 10
318.346667
 20
443.088889
 30
0.0
 10
318.346667
 20
444.782222
 30
0.0
 10
323.144444
 20
444.782222
 30
0.0
 10
321.451111
 20
452.402222
 30
0.0
 10
326.813333
 20
452.402222
 30
0.0
 10
327.660000
 20
451.837778
 30
0.0
 10
333.868889
 20
450.991111
 30
0.0
 10
333.868889
 20
458.893333
 30
0.0
 10
329.635556
 20
460.022222
 30
0.0
 10
333.868889
 20
466.583889
 30
0.0
 10
334.715556
 20
474.415556
 30
0.0
 10
333.868889
 20
475.262222
 30
0.0
 10
333.304444
 20
476.108889
 30
0.0
 10
332.457778
 20
476.955556
 30
0.0
 10
324.661389
 20
482.741111
 30
0.0
 10
316.653333
 20
486.833333
 30
0.0
 10
314.395556
 20
493.324444
 30
0.0
 10
313.548889
 20
493.888889
 30
0.0
 10
315.242222
 20
495.582222
 30
0.0
 10
316.088889
 20
496.428889
 30
0.0
 10
320.040000
 20
497.840000
 30
0.0
 10
320.040000
 20
500.944444
 30
0.0
 10
325.402222
 20
502.637778
 30
0.0
 10
325.966667
 20
501.791111
 30
0.0
 10
329.353333
 20
500.944444
 30
0.0
 10
329.353333
 20
504.048889
 30
0.0
 10
332.457778
 20
504.048889
 30
0.0
 10
332.457778
 20
507.435556
 30
0.0
 10
341.771111
 20
508.846667
 30
0.0
 10
341.771111
 20
511.951111
 30
0.0
 10
344.875556
 20
511.951111
 30
0.0
 10
344.875556
 20
514.208889
 30
0.0
 10
345.722222
 20
515.055556
 30
0.0
 10
347.697778
 20
518.724444
 30
0.0
 10
356.799444
 20
518.089444
 30
0.0
 10
361.032778
 20
518.089444
 30
0.0
 10
365.477778
 20
519.571111
 30
0.0
 10
366.606667
 20
525.215556
 30
0.0
 10
367.453333
 20
526.062222
 30
0.0
 10
381.564444
 20
524.368889
 30
0.0
 10
382.411111
 20
523.522222
 30
0.0
 10
384.668889
 20
516.748889
 30
0.0
 10
385.515556
 20
515.902222
 30
0.0
 10
386.362222
 20
511.951111
 30
0.0
 10
387.208889
 20
511.104444
 30
0.0
 10
388.620000
 20
502.637778
 30
0.0
 10
398.391944
 20
501.050278
 30
0.0
 10
408.375556
 20
500.944444
 30
0.0
 10
408.940000
 20
500.380000
 30
0.0
 10
418.535556
 20
497.840000
 30
0.0
 10
419.946667
 20
491.631111
 30
0.0
 10
422.486667
 20
491.631111
 30
0.0
 10
423.051111
 20
490.784444
 30
0.0
 10
424.462222
 20
486.268889
 30
0.0
 10
423.897778
 20
485.422222
 30
0.0
 10
423.051111
 20
484.575556
 30
0.0
 10
422.486667
 20
483.728889
 30
0.0
 10
418.535556
 20
482.317778
 30
0.0
 10
418.535556
 20
477.520000
 30
0.0
 10
422.486667
 20
477.520000
 30
0.0
 10
423.051111
 20
476.955556
 30
0.0
 10
425.026667
 20
472.051944
 30
0.0
 10
425.308889
 20
466.513333
 30
0.0
 10
426.155556
 20
465.666667
 30
0.0
 10
434.093056
 20
465.666667
 30
0.0
 10
442.242222
 20
463.973333
 30
0.0
 10
443.371111
 20
460.304444
 30
0.0
 10
458.328889
 20
458.893333
 30
0.0
 10
459.175556
 20
458.046667
 30
0.0
 10
462.280000
 20
457.200000
 30
0.0
 10
465.102222
 20
449.580000
 30
0.0
 10
480.060000
 20
450.991111
 30
0.0
 10
480.906667
 20
450.144444
 30
0.0
 10
484.293333
 20
450.708889
 30
0.0
 10
485.704444
 20
454.942222
 30
0.0
 10
486.268889
 20
455.788889
 30
0.0
 10
485.704444
 20
465.102222
 30
0.0
 10
489.091111
 20
466.231111
 30
0.0
 10
490.220000
 20
463.408889
 30
0.0
 10
500.097778
 20
462.280000
 30
0.0
 10
502.073333
 20
458.893333
 30
0.0
 10
502.920000
 20
458.046667
 30
0.0
 10
504.331111
 20
454.095556
 30
0.0
 10
510.540000
 20
454.095556
 30
0.0
 10
511.668889
 20
447.604444
 30
0.0
 10
508.282222
 20
444.782222
 30
0.0
 10
507.435556
 20
445.628889
 30
0.0
 10
502.920000
 20
446.193333
 30
0.0
 10
502.920000
 20
443.088889
 30
0.0
 10
499.815556
 20
443.088889
 30
0.0
 10
497.266736
 20
439.450868
 30
0.0
 10
493.183333
 20
437.056389
 30
0.0
 10
484.011111
 20
433.775556
 30
0.0
 10
484.011111
 20
428.977778
 30
0.0
 10
487.115556
 20
428.413333
 30
0.0
 10
486.268889
 20
427.566667
 30
0.0
 10
482.600000
 20
427.566667
 30
0.0
 10
484.469722
 20
421.498889
 30
0.0
 10
488.244444
 20
416.277778
 30
0.0
 10
483.764167
 20
412.891111
 30
0.0
 10
477.802222
 20
411.197778
 30
0.0
 10
476.955556
 20
410.351111
 30
0.0
 10
477.520000
 20
406.964444
 30
0.0
 10
471.593333
 20
405.553333
 30
0.0
 10
471.381667
 20
402.836944
 30
0.0
 10
469.900000
 20
402.448889
 30
0.0
 10
469.053333
 20
408.940000
 30
0.0
 10
468.488889
 20
409.504444
 30
0.0
 10
463.691111
 20
408.093333
 30
0.0
 10
463.126667
 20
407.246667
 30
0.0
 10
460.586667
 20
402.448889
 30
0.0
 10
457.482222
 20
401.602222
 30
0.0
 10
456.635556
 20
401.037778
 30
0.0
 10
456.635556
 20
397.933333
 30
0.0
 10
457.482222
 20
397.086667
 30
0.0
 10
460.868889
 20
397.368889
 30
0.0
 10
463.691111
 20
393.982222
 30
0.0
 10
463.126667
 20
393.135556
 30
0.0
 10
459.175556
 20
391.724444
 30
0.0
 10
459.175556
 20
386.080000
 30
0.0
 10
458.328889
 20
385.233333
 30
0.0
 10
455.506667
 20
384.104444
 30
0.0
 10
454.377778
 20
386.926667
 30
0.0
 10
435.363056
 20
383.575278
 30
0.0
 10
429.260000
 20
383.822222
 30
0.0
 10
429.260000
 20
386.926667
 30
0.0
 10
425.308889
 20
388.337778
 30
0.0
 10
424.462222
 20
389.184444
 30
0.0
 10
424.462222
 20
397.933333
 30
0.0
 10
415.148889
 20
396.240000
 30
0.0
 10
415.148889
 20
393.135556
 30
0.0
 10
410.633333
 20
393.135556
 30
0.0
 10
413.737778
 20
378.177778
 30
0.0
 10
412.891111
 20
377.613333
 30
0.0
 10
411.197778
 20
368.017778
 30
0.0
 10
410.633333
 20
368.864444
 30
0.0
 10
409.786667
 20
369.711111
 30
0.0
 10
408.940000
 20
370.557778
 30
0.0
 10
407.528889
 20
370.557778
 30
0.0
 10
406.682222
 20
369.711111
 30
0.0
 10
403.577778
 20
379.024444
 30
0.0
 10
402.731111
 20
379.871111
 30
0.0
 10
399.626667
 20
380.717778
 30
0.0
 10
399.626667
 20
378.177778
 30
0.0
 10
398.780000
 20
377.613333
 30
0.0
 10
386.362222
 20
382.128889
 30
0.0
 10
385.515556
 20
382.975556
 30
0.0
 10
380.215069
 20
382.340556
 30
0.0
 10
376.131667
 20
380.435556
 30
0.0
 10
373.212431
 20
377.260556
 30
0.0
 10
371.404444
 20
372.815556
 30
0.0
 10
373.944444
 20
372.815556
 30
0.0
 10
374.508889
 20
371.968889
 30
0.0
 10
374.508889
 20
369.711111
 30
0.0
 10
380.153333
 20
368.017778
 30
0.0
 10
380.717778
 20
367.171111
 30
0.0
 10
380.717778
 20
364.913333
 30
0.0
 10
371.404444
 20
364.913333
 30
0.0
 10
370.557778
 20
361.808889
 30
0.0
 10
369.993333
 20
362.655556
 30
0.0
 10
366.324444
 20
362.373333
 30
0.0
 10
364.525278
 20
365.971667
 30
0.0
 10
363.784444
 20
375.920000
 30
0.0
 10
358.034167
 20
378.812778
 30
0.0
 10
354.188889
 20
383.822222
 30
0.0
 10
349.673333
 20
383.822222
 30
0.0
 10
349.673333
 20
386.926667
 30
0.0
 10
346.568889
 20
386.926667
 30
0.0
 10
344.875556
 20
393.135556
 30
0.0
 10
339.054722
 20
396.134167
 30
0.0
 10
335.562222
 20
401.037778
 30
0.0
 10
330.482222
 20
399.908889
 30
0.0
 10
329.353333
 20
402.448889
 30
0.0
 10
325.966667
 20
401.602222
 30
0.0
 10
325.966667
 20
401.602222
 30
0.0
  0
LWPOLYLINE
  5
10e
100
AcDbEntity
  8
sac
 62
7
100
AcDbPolyline
 90
211
 70
0
 10
488.808889
 20
364.913333
 30
0.0
 10
487.115556
 20
371.122222
 30
0.0
 10
484.011111
 20
371.122222
 30
0.0
 10
482.882222
 20
374.791111
 30
0.0
 10
472.933889
 20
376.660833
 30
0.0
 10
469.309097
 20
379.117049
 30
0.0
 10
466.795556
 20
383.822222
 30
0.0
 10
463.691111
 20
383.822222
 30
0.0
 10
463.691111
 20
386.926667
 30
0.0
 10
460.586667
 20
386.926667
 30
0.0
 10
460.586667
 20
390.031111
 30
0.0
 10
463.691111
 20
390.031111
 30
0.0
 10
463.691111
 20
392.288889
 30
0.0
 10
464.537778
 20
393.135556
 30
0.0
 10
463.691111
 20
399.344444
 30
0.0
 10
458.328889
 20
397.933333
 30
0.0
 10
457.482222
 20
398.497778
 30
0.0
 10
457.482222
 20
400.191111
 30
0.0
 10
458.328889
 20
401.037778
 30
0.0
 10
462.562222
 20
402.166667
 30
0.0
 10
463.691111
 20
406.400000
 30
0.0
 10
464.537778
 20
407.246667
 30
0.0
 10
467.642222
 20
408.940000
 30
0.0
 10
468.488889
 20
408.093333
 30
0.0
 10
468.488889
 20
401.037778
 30
0.0
 10
473.004444
 20
401.037778
 30
0.0
 10
473.004444
 20
404.142222
 30
0.0
 10
479.213333
 20
404.142222
 30
0.0
 10
477.802222
 20
409.504444
 30
0.0
 10
478.648889
 20
410.351111
 30
0.0
 10
485.386944
 20
411.374167
 30
0.0
 10
490.220000
 20
413.455556
 30
0.0
 10
488.209167
 20
419.523333
 30
0.0
 10
484.293333
 20
424.744444
 30
0.0
 10
487.115556
 20
426.720000
 30
0.0
 10
487.962222
 20
427.566667
 30
0.0
 10
488.808889
 20
430.671111
 30
0.0
 10
486.092500
 20
430.882778
 30
0.0
 10
485.704444
 20
432.364444
 30
0.0
 10
500.097778
 20
438.008889
 30
0.0
 10
501.226667
 20
441.677778
 30
0.0
 10
504.331111
 20
441.677778
 30
0.0
 10
504.331111
 20
444.782222
 30
0.0
 10
506.871111
 20
444.782222
 30
0.0
 10
507.435556
 20
443.935556
 30
0.0
 10
513.644444
 20
444.782222
 30
0.0
 10
512.233333
 20
455.788889
 30
0.0
 10
506.024444
 20
455.788889
 30
0.0
 10
506.024444
 20
458.893333
 30
0.0
 10
503.766667
 20
458.893333
 30
0.0
 10
502.920000
 20
459.740000
 30
0.0
 10
501.508889
 20
463.973333
 30
0.0
 10
491.913333
 20
465.102222
 30
0.0
 10
491.913333
 20
468.206667
 30
0.0
 10
482.600000
 20
468.206667
 30
0.0
 10
482.600000
 20
471.311111
 30
0.0
 10
479.213333
 20
472.157778
 30
0.0
 10
480.060000
 20
473.004444
 30
0.0
 10
478.648889
 20
485.422222
 30
0.0
 10
477.802222
 20
486.268889
 30
0.0
 10
476.673333
 20
490.502222
 30
0.0
 10
479.213333
 20
491.631111
 30
0.0
 10
479.213333
 20
505.742222
 30
0.0
 10
476.391111
 20
505.742222
 30
0.0
 10
476.391111
 20
508.000000
 30
0.0
 10
476.955556
 20
508.846667
 30
0.0
 10
480.553889
 20
516.678333
 30
0.0
 10
487.115556
 20
520.700000
 30
0.0
 10
487.962222
 20
521.546667
 30
0.0
 10
495.017778
 20
523.522222
 30
0.0
 10
495.864444
 20
524.368889
 30
0.0
 10
510.540000
 20
528.320000
 30
0.0
 10
511.386667
 20
529.166667
 30
0.0
 10
512.233333
 20
530.013333
 30
0.0
 10
513.080000
 20
530.860000
 30
0.0
 10
520.135556
 20
531.424444
 30
0.0
 10
520.982222
 20
532.271111
 30
0.0
 10
523.240000
 20
532.271111
 30
0.0
 10
523.240000
 20
534.811111
 30
0.0
 10
523.804444
 20
535.375556
 30
0.0
 10
524.651111
 20
532.271111
 30
0.0
 10
534.246667
 20
533.117778
 30
0.0
 10
534.811111
 20
533.964444
 30
0.0
 10
536.504444
 20
533.964444
 30
0.0
 10
537.068889
 20
533.117778
 30
0.0
 10
539.608889
 20
530.860000
 30
0.0
 10
540.455556
 20
530.013333
 30
0.0
 10
544.618333
 20
526.415000
 30
0.0
 10
546.664444
 20
521.546667
 30
0.0
 10
549.768889
 20
521.546667
 30
0.0
 10
551.180000
 20
517.595556
 30
0.0
 10
550.333333
 20
516.748889
 30
0.0
 10
550.333333
 20
505.742222
 30
0.0
 10
551.180000
 20
504.895556
 30
0.0
 10
551.180000
 20
502.637778
 30
0.0
 10
559.082222
 20
504.895556
 30
0.0
 10
559.928889
 20
505.742222
 30
0.0
 10
566.137778
 20
508.846667
 30
0.0
 10
566.984444
 20
508.000000
 30
0.0
 10
574.886667
 20
504.048889
 30
0.0
 10
574.886667
 20
500.944444
 30
0.0
 10
577.708889
 20
501.791111
 30
0.0
 10
578.555556
 20
502.637778
 30
0.0
 10
589.138889
 20
501.967500
 30
0.0
 10
594.113056
 20
502.359965
 30
0.0
 10
598.875556
 20
504.048889
 30
0.0
 10
599.722222
 20
503.484444
 30
0.0
 10
602.826667
 20
503.484444
 30
0.0
 10
603.673333
 20
504.048889
 30
0.0
 10
610.728889
 20
504.048889
 30
0.0
 10
610.728889
 20
507.435556
 30
0.0
 10
613.833333
 20
507.435556
 30
0.0
 10
612.986667
 20
515.055556
 30
0.0
 10
612.140000
 20
515.902222
 30
0.0
 10
612.986667
 20
516.748889
 30
0.0
 10
616.937778
 20
516.748889
 30
0.0
 10
616.937778
 20
520.700000
 30
0.0
 10
617.784444
 20
521.546667
 30
0.0
 10
630.202222
 20
522.957778
 30
0.0
 10
631.048889
 20
522.111111
 30
0.0
 10
639.021667
 20
523.769167
 30
0.0
 10
648.264444
 20
526.062222
 30
0.0
 10
648.264444
 20
529.166667
 30
0.0
 10
651.368889
 20
529.166667
 30
0.0
 10
651.368889
 20
526.062222
 30
0.0
 10
659.271111
 20
526.062222
 30
0.0
 10
659.271111
 20
528.320000
 30
0.0
 10
660.117778
 20
529.166667
 30
0.0
 10
661.811111
 20
524.086667
 30
0.0
 10
669.995556
 20
521.546667
 30
0.0
 10
669.995556
 20
519.853333
 30
0.0
 10
677.897778
 20
519.853333
 30
0.0
 10
681.002222
 20
500.944444
 30
0.0
 10
684.106667
 20
500.944444
 30
0.0
 10
684.565278
 20
492.689444
 30
0.0
 10
682.695556
 20
480.624444
 30
0.0
 10
684.106667
 20
480.624444
 30
0.0
 10
684.106667
 20
479.213333
 30
0.0
 10
682.025278
 20
474.239167
 30
0.0
 10
681.002222
 20
468.206667
 30
0.0
 10
678.709167
 20
464.326111
 30
0.0
 10
676.204444
 20
455.788889
 30
0.0
 10
674.793333
 20
452.402222
 30
0.0
 10
671.688889
 20
452.402222
 30
0.0
 10
670.842222
 20
444.782222
 30
0.0
 10
668.584444
 20
443.088889
 30
0.0
 10
667.455556
 20
445.064444
 30
0.0
 10
659.271111
 20
446.193333
 30
0.0
 10
660.682222
 20
455.788889
 30
0.0
 10
657.965833
 20
455.577222
 30
0.0
 10
657.577778
 20
454.095556
 30
0.0
 10
654.473333
 20
454.095556
 30
0.0
 10
656.554722
 20
457.411667
 30
0.0
 10
657.577778
 20
461.997778
 30
0.0
 10
654.473333
 20
461.997778
 30
0.0
 10
654.473333
 20
465.102222
 30
0.0
 10
648.264444
 20
465.102222
 30
0.0
 10
648.264444
 20
468.206667
 30
0.0
 10
643.466667
 20
468.206667
 30
0.0
 10
643.466667
 20
465.102222
 30
0.0
 10
640.362222
 20
465.102222
 30
0.0
 10
640.362222
 20
468.206667
 30
0.0
 10
631.048889
 20
468.206667
 30
0.0
 10
631.048889
 20
458.893333
 30
0.0
 10
640.362222
 20
454.095556
 30
0.0
 10
640.362222
 20
450.991111
 30
0.0
 10
631.225278
 20
448.733333
 30
0.0
 10
624.840000
 20
443.088889
 30
0.0
 10
618.736944
 20
441.536667
 30
0.0
 10
609.035556
 20
439.984444
 30
0.0
 10
609.035556
 20
436.880000
 30
0.0
 10
606.319167
 20
436.703611
 30
0.0
 10
605.931111
 20
435.468889
 30
0.0
 10
604.696389
 20
435.080833
 30
0.0
 10
604.520000
 20
432.364444
 30
0.0
 10
605.931111
 20
432.364444
 30
0.0
 10
599.722222
 20
428.977778
 30
0.0
 10
599.722222
 20
430.671111
 30
0.0
 10
594.924444
 20
430.671111
 30
0.0
 10
594.924444
 20
428.977778
 30
0.0
 10
593.513333
 20
427.566667
 30
0.0
 10
590.408889
 20
427.566667
 30
0.0
 10
586.704722
 20
427.990000
 30
0.0
 10
579.402222
 20
425.873333
 30
0.0
 10
576.580000
 20
416.277778
 30
0.0
 10
571.500000
 20
415.148889
 30
0.0
 10
565.291111
 20
415.148889
 30
0.0
 10
564.162222
 20
410.633333
 30
0.0
 10
558.800000
 20
410.633333
 30
0.0
 10
555.977778
 20
401.037778
 30
0.0
 10
548.075556
 20
402.448889
 30
0.0
 10
548.075556
 20
399.344444
 30
0.0
 10
543.560000
 20
399.344444
 30
0.0
 10
541.866667
 20
391.724444
 30
0.0
 10
534.246667
 20
390.031111
 30
0.0
 10
532.553333
 20
391.724444
 30
0.0
 10
524.651111
 20
392.288889
 30
0.0
 10
523.240000
 20
390.031111
 30
0.0
 10
521.546667
 20
388.337778
 30
0.0
 10
518.442222
 20
386.926667
 30
0.0
 10
506.024444
 20
386.926667
 30
0.0
 10
506.024444
 20
383.822222
 30
0.0
 10
502.920000
 20
383.822222
 30
0.0
 10
502.920000
 20
380.717778
 30
0.0
 10
499.815556
 20
380.717778
 30
0.0
 10
499.815556
 20
377.613333
 30
0.0
 10
496.428889
 20
377.613333
 30
0.0
 10
494.700278
 20
371.404444
 30
0.0
 10
491.066667
 20
361.808889
 30
0.0
 10
488.808889
 20
364.913333
 30
0.0
 10
488.808889
 20
364.913333
 30
0.0
  0
LWPOLYLINE
  5
10f
100
AcDbEntity
  8
ber
 62
7
100
AcDbPolyline
 90
58
 70
0
 10
561.622222
 20
618.348889
 30
0.0
 10
560.775556
 20
619.195556
 30
0.0
 10
560.775556
 20
621.453333
 30
0.0
 10
558.235556
 20
621.453333
 30
0.0
 10
557.671111
 20
622.300000
 30
0.0
 10
555.977778
 20
622.300000
 30
0.0
 10
555.131111
 20
621.453333
 30
0.0
 10
551.180000
 20
621.453333
 30
0.0
 10
551.180000
 20
624.557778
 30
0.0
 10
544.971111
 20
622.300000
 30
0.0
 10
544.406667
 20
621.453333
 30
0.0
 10
541.866667
 20
620.606667
 30
0.0
 10
541.020000
 20
620.042222
 30
0.0
 10
540.455556
 20
620.606667
 30
0.0
 10
539.608889
 20
621.453333
 30
0.0
 10
538.762222
 20
622.300000
 30
0.0
 10
541.866667
 20
622.864444
 30
0.0
 10
541.020000
 20
625.968889
 30
0.0
 10
540.455556
 20
626.815556
 30
0.0
 10
540.455556
 20
628.508889
 30
0.0
 10
541.020000
 20
629.355556
 30
0.0
 10
541.866667
 20
629.920000
 30
0.0
 10
542.713333
 20
630.766667
 30
0.0
 10
543.560000
 20
640.926667
 30
0.0
 10
544.406667
 20
641.773333
 30
0.0
 10
546.664444
 20
641.773333
 30
0.0
 10
546.664444
 20
645.724444
 30
0.0
 10
547.511111
 20
646.571111
 30
0.0
 10
551.180000
 20
646.571111
 30
0.0
 10
551.391667
 20
649.040556
 30
0.0
 10
552.873333
 20
649.393333
 30
0.0
 10
552.873333
 20
646.571111
 30
0.0
 10
560.034722
 20
649.075833
 30
0.0
 10
563.549271
 20
649.865174
 30
0.0
 10
566.984444
 20
648.828889
 30
0.0
 10
566.137778
 20
647.982222
 30
0.0
 10
565.291111
 20
643.466667
 30
0.0
 10
567.548889
 20
643.466667
 30
0.0
 10
568.395556
 20
642.620000
 30
0.0
 10
571.500000
 20
641.773333
 30
0.0
 10
571.500000
 20
638.668889
 30
0.0
 10
575.451111
 20
636.975556
 30
0.0
 10
576.297778
 20
636.128889
 30
0.0
 10
576.297778
 20
629.355556
 30
0.0
 10
584.200000
 20
627.662222
 30
0.0
 10
582.506667
 20
622.300000
 30
0.0
 10
581.660000
 20
621.453333
 30
0.0
 10
579.684444
 20
618.913333
 30
0.0
 10
577.285556
 20
620.500833
 30
0.0
 10
572.346667
 20
621.453333
 30
0.0
 10
571.500000
 20
622.300000
 30
0.0
 10
568.395556
 20
622.300000
 30
0.0
 10
567.548889
 20
621.453333
 30
0.0
 10
566.984444
 20
624.557778
 30
0.0
 10
563.880000
 20
623.711111
 30
0.0
 10
563.033333
 20
622.864444
 30
0.0
 10
561.622222
 20
618.348889
 30
0.0
 10
561.622222
 20
618.348889
 30
0.0
  0
LWPOLYLINE
  5
110
100
AcDbEntity
  8
mvp
 62
7
100
AcDbPolyline
 90
219
 70
0
 10
406.682222
 20
702.733333
 30
0.0
 10
405.835556
 20
703.580000
 30
0.0
 10
403.577778
 20
704.426667
 30
0.0
 10
402.731111
 20
704.991111
 30
0.0
 10
402.731111
 20
708.942222
 30
0.0
 10
394.264444
 20
713.740000
 30
0.0
 10
393.417778
 20
714.586667
 30
0.0
 10
388.620000
 20
726.157778
 30
0.0
 10
384.668889
 20
726.157778
 30
0.0
 10
383.822222
 20
727.004444
 30
0.0
 10
380.717778
 20
727.851111
 30
0.0
 10
379.588889
 20
724.182222
 30
0.0
 10
375.355556
 20
723.053333
 30
0.0
 10
374.508889
 20
723.900000
 30
0.0
 10
370.557778
 20
726.157778
 30
0.0
 10
369.993333
 20
727.004444
 30
0.0
 10
369.993333
 20
729.262222
 30
0.0
 10
363.784444
 20
729.262222
 30
0.0
 10
362.091111
 20
734.624444
 30
0.0
 10
362.937778
 20
735.471111
 30
0.0
 10
363.784444
 20
738.575556
 30
0.0
 10
366.606667
 20
739.422222
 30
0.0
 10
367.453333
 20
740.268889
 30
0.0
 10
373.097778
 20
741.962222
 30
0.0
 10
373.097778
 20
745.066667
 30
0.0
 10
376.202222
 20
745.066667
 30
0.0
 10
376.202222
 20
751.275556
 30
0.0
 10
382.411111
 20
751.840000
 30
0.0
 10
383.257778
 20
752.686667
 30
0.0
 10
382.411111
 20
756.637778
 30
0.0
 10
383.257778
 20
757.484444
 30
0.0
 10
383.822222
 20
759.742222
 30
0.0
 10
384.668889
 20
760.588889
 30
0.0
 10
384.179410
 20
764.760486
 30
0.0
 10
382.658056
 20
766.868333
 30
0.0
 10
376.202222
 20
768.491111
 30
0.0
 10
376.202222
 20
773.006667
 30
0.0
 10
373.097778
 20
773.006667
 30
0.0
 10
371.404444
 20
786.553333
 30
0.0
 10
372.251111
 20
787.117778
 30
0.0
 10
378.142500
 20
789.410833
 30
0.0
 10
385.515556
 20
790.222222
 30
0.0
 10
385.515556
 20
793.326667
 30
0.0
 10
380.717778
 20
794.173333
 30
0.0
 10
383.822222
 20
798.124444
 30
0.0
 10
387.208889
 20
801.228889
 30
0.0
 10
390.313333
 20
802.922222
 30
0.0
 10
397.933333
 20
804.333333
 30
0.0
 10
404.424444
 20
798.124444
 30
0.0
 10
402.942778
 20
797.736389
 30
0.0
 10
402.731111
 20
795.020000
 30
0.0
 10
405.835556
 20
795.020000
 30
0.0
 10
407.528889
 20
795.020000
 30
0.0
 10
415.148889
 20
793.326667
 30
0.0
 10
416.842222
 20
791.915556
 30
0.0
 10
417.230278
 20
790.433889
 30
0.0
 10
419.946667
 20
790.222222
 30
0.0
 10
420.228889
 20
798.688889
 30
0.0
 10
423.051111
 20
799.817778
 30
0.0
 10
423.051111
 20
804.333333
 30
0.0
 10
427.108056
 20
807.226111
 30
0.0
 10
429.260000
 20
812.235556
 30
0.0
 10
430.953333
 20
812.235556
 30
0.0
 10
429.260000
 20
817.033333
 30
0.0
 10
430.953333
 20
819.855556
 30
0.0
 10
449.580000
 20
821.548889
 30
0.0
 10
460.586667
 20
823.242222
 30
0.0
 10
462.280000
 20
813.646667
 30
0.0
 10
466.795556
 20
813.646667
 30
0.0
 10
466.407500
 20
815.128333
 30
0.0
 10
463.691111
 20
815.340000
 30
0.0
 10
463.691111
 20
826.346667
 30
0.0
 10
465.102222
 20
827.757778
 30
0.0
 10
466.795556
 20
830.862222
 30
0.0
 10
468.488889
 20
832.555556
 30
0.0
 10
471.593333
 20
833.966667
 30
0.0
 10
473.004444
 20
835.660000
 30
0.0
 10
476.391111
 20
837.071111
 30
0.0
 10
477.802222
 20
838.764444
 30
0.0
 10
478.648889
 20
838.764444
 30
0.0
 10
479.213333
 20
837.917778
 30
0.0
 10
480.342222
 20
833.684444
 30
0.0
 10
485.704444
 20
832.555556
 30
0.0
 10
484.011111
 20
835.660000
 30
0.0
 10
484.011111
 20
838.764444
 30
0.0
 10
488.808889
 20
838.764444
 30
0.0
 10
488.597222
 20
841.480833
 30
0.0
 10
487.115556
 20
841.868889
 30
0.0
 10
487.115556
 20
843.562222
 30
0.0
 10
495.017778
 20
844.973333
 30
0.0
 10
495.017778
 20
848.077778
 30
0.0
 10
509.128889
 20
848.077778
 30
0.0
 10
509.128889
 20
844.973333
 30
0.0
 10
513.644444
 20
844.973333
 30
0.0
 10
515.337778
 20
851.182222
 30
0.0
 10
518.653889
 20
853.475278
 30
0.0
 10
523.240000
 20
854.286667
 30
0.0
 10
524.368889
 20
850.900000
 30
0.0
 10
527.755556
 20
849.771111
 30
0.0
 10
528.778611
 20
842.468611
 30
0.0
 10
530.860000
 20
838.764444
 30
0.0
 10
532.553333
 20
837.071111
 30
0.0
 10
537.315833
 20
834.989722
 30
0.0
 10
543.560000
 20
833.966667
 30
0.0
 10
544.406667
 20
829.451111
 30
0.0
 10
549.768889
 20
826.346667
 30
0.0
 10
554.284444
 20
819.855556
 30
0.0
 10
554.707778
 20
818.620833
 30
0.0
 10
557.671111
 20
818.444444
 30
0.0
 10
557.671111
 20
821.548889
 30
0.0
 10
566.984444
 20
824.653333
 30
0.0
 10
570.371111
 20
827.475556
 30
0.0
 10
573.193333
 20
824.653333
 30
0.0
 10
576.403611
 20
821.795833
 30
0.0
 10
578.555556
 20
817.033333
 30
0.0
 10
579.402222
 20
816.186667
 30
0.0
 10
579.402222
 20
812.235556
 30
0.0
 10
577.708889
 20
810.542222
 30
0.0
 10
577.708889
 20
809.131111
 30
0.0
 10
582.506667
 20
806.026667
 30
0.0
 10
583.754618
 20
801.493472
 30
0.0
 10
583.388611
 20
798.124444
 30
0.0
 10
581.095556
 20
790.222222
 30
0.0
 10
584.200000
 20
790.222222
 30
0.0
 10
586.060903
 20
786.531285
 30
0.0
 10
588.927222
 20
784.401389
 30
0.0
 10
596.617778
 20
782.602222
 30
0.0
 10
597.746667
 20
780.626667
 30
0.0
 10
609.035556
 20
780.908889
 30
0.0
 10
612.140000
 20
782.602222
 30
0.0
 10
610.728889
 20
777.804444
 30
0.0
 10
609.247222
 20
777.416389
 30
0.0
 10
609.035556
 20
774.700000
 30
0.0
 10
612.140000
 20
774.700000
 30
0.0
 10
615.526667
 20
766.797778
 30
0.0
 10
616.937778
 20
757.484444
 30
0.0
 10
618.631111
 20
754.380000
 30
0.0
 10
623.146667
 20
740.268889
 30
0.0
 10
623.146667
 20
733.213333
 30
0.0
 10
622.300000
 20
732.366667
 30
0.0
 10
618.631111
 20
730.955556
 30
0.0
 10
618.631111
 20
728.415556
 30
0.0
 10
617.784444
 20
727.851111
 30
0.0
 10
615.526667
 20
727.851111
 30
0.0
 10
615.526667
 20
724.746667
 30
0.0
 10
607.624444
 20
725.311111
 30
0.0
 10
606.777778
 20
724.746667
 30
0.0
 10
604.520000
 20
725.311111
 30
0.0
 10
605.366667
 20
726.157778
 30
0.0
 10
605.931111
 20
727.004444
 30
0.0
 10
606.777778
 20
727.851111
 30
0.0
 10
607.624444
 20
728.415556
 30
0.0
 10
608.188889
 20
729.262222
 30
0.0
 10
609.035556
 20
730.108889
 30
0.0
 10
609.882222
 20
730.955556
 30
0.0
 10
612.140000
 20
734.624444
 30
0.0
 10
612.986667
 20
735.471111
 30
0.0
 10
613.833333
 20
745.066667
 30
0.0
 10
608.188889
 20
745.066667
 30
0.0
 10
607.624444
 20
745.913333
 30
0.0
 10
604.520000
 20
745.913333
 30
0.0
 10
603.673333
 20
745.066667
 30
0.0
 10
592.948889
 20
743.937778
 30
0.0
 10
591.255556
 20
746.477778
 30
0.0
 10
590.408889
 20
747.324444
 30
0.0
 10
589.562222
 20
747.888889
 30
0.0
 10
588.715556
 20
748.735556
 30
0.0
 10
588.715556
 20
752.686667
 30
0.0
 10
581.095556
 20
754.380000
 30
0.0
 10
581.095556
 20
749.582222
 30
0.0
 10
574.886667
 20
749.582222
 30
0.0
 10
574.886667
 20
746.477778
 30
0.0
 10
571.500000
 20
746.477778
 30
0.0
 10
570.088889
 20
740.268889
 30
0.0
 10
565.291111
 20
740.268889
 30
0.0
 10
562.186667
 20
727.004444
 30
0.0
 10
561.622222
 20
726.157778
 30
0.0
 10
560.775556
 20
727.004444
 30
0.0
 10
557.671111
 20
727.851111
 30
0.0
 10
555.131111
 20
719.948889
 30
0.0
 10
554.284444
 20
720.795556
 30
0.0
 10
554.284444
 20
724.746667
 30
0.0
 10
546.664444
 20
724.746667
 30
0.0
 10
544.971111
 20
719.102222
 30
0.0
 10
544.406667
 20
718.537778
 30
0.0
 10
542.713333
 20
716.844444
 30
0.0
 10
541.866667
 20
717.691111
 30
0.0
 10
541.866667
 20
719.948889
 30
0.0
 10
534.387778
 20
717.585278
 30
0.0
 10
529.448889
 20
711.200000
 30
0.0
 10
528.602222
 20
710.635556
 30
0.0
 10
527.755556
 20
713.740000
 30
0.0
 10
510.540000
 20
712.046667
 30
0.0
 10
510.540000
 20
715.151111
 30
0.0
 10
499.991944
 20
718.643611
 30
0.0
 10
488.808889
 20
718.537778
 30
0.0
 10
486.268889
 20
723.053333
 30
0.0
 10
485.704444
 20
723.900000
 30
0.0
 10
481.118333
 20
726.616389
 30
0.0
 10
477.802222
 20
727.004444
 30
0.0
 10
476.955556
 20
726.157778
 30
0.0
 10
475.544444
 20
727.851111
 30
0.0
 10
474.697778
 20
728.415556
 30
0.0
 10
474.697778
 20
730.955556
 30
0.0
 10
471.593333
 20
730.108889
 30
0.0
 10
470.746667
 20
729.262222
 30
0.0
 10
464.537778
 20
729.262222
 30
0.0
 10
463.691111
 20
730.108889
 30
0.0
 10
460.586667
 20
730.955556
 30
0.0
 10
459.175556
 20
723.053333
 30
0.0
 10
448.261493
 20
718.648021
 30
0.0
 10
438.538056
 20
715.750833
 30
0.0
 10
430.878368
 20
711.424896
 30
0.0
 10
428.095282
 20
707.808372
 30
0.0
 10
426.155556
 20
702.733333
 30
0.0
 10
415.148889
 20
702.733333
 30
0.0
 10
414.020000
 20
700.193333
 30
0.0
 10
406.682222
 20
702.733333
 30
0.0
 10
406.682222
 20
702.733333
 30
0.0
  0
LWPOLYLINE
  5
111
100
AcDbEntity
  8
bre
 62
7
100
AcDbPolyline
 90
28
 70
0
 10
242.428889
 20
687.211111
 30
0.0
 10
241.582222
 20
687.775556
 30
0.0
 10
240.735556
 20
690.315556
 30
0.0
 10
240.171111
 20
690.880000
 30
0.0
 10
238.477778
 20
690.880000
 30
0.0
 10
237.913333
 20
690.315556
 30
0.0
 10
234.808889
 20
690.315556
 30
0.0
 10
233.962222
 20
690.880000
 30
0.0
 10
230.293333
 20
690.597778
 30
0.0
 10
229.164444
 20
696.524444
 30
0.0
 10
226.060000
 20
696.524444
 30
0.0
 10
225.213333
 20
699.628889
 30
0.0
 10
224.648889
 20
700.475556
 30
0.0
 10
223.802222
 20
702.733333
 30
0.0
 10
222.955556
 20
703.580000
 30
0.0
 10
222.108889
 20
705.837778
 30
0.0
 10
221.262222
 20
706.684444
 30
0.0
 10
237.066667
 20
704.426667
 30
0.0
 10
237.066667
 20
701.322222
 30
0.0
 10
243.275556
 20
701.886667
 30
0.0
 10
244.122222
 20
702.733333
 30
0.0
 10
245.533333
 20
701.322222
 30
0.0
 10
246.380000
 20
700.475556
 30
0.0
 10
246.380000
 20
690.315556
 30
0.0
 10
243.275556
 20
690.315556
 30
0.0
 10
243.275556
 20
687.775556
 30
0.0
 10
242.428889
 20
687.211111
 30
0.0
 10
242.428889
 20
687.211111
 30
0.0
  0
LWPOLYLINE
  5
112
100
AcDbEntity
  8
sh
 62
7
100
AcDbPolyline
 90
187
 70
0
 10
358.140000
 20
727.851111
 30
0.0
 10
357.293333
 20
728.415556
 30
0.0
 10
348.826667
 20
732.366667
 30
0.0
 10
347.980000
 20
733.213333
 30
0.0
 10
345.722222
 20
734.060000
 30
0.0
 10
344.875556
 20
734.624444
 30
0.0
 10
336.408889
 20
741.962222
 30
0.0
 10
335.562222
 20
742.526667
 30
0.0
 10
335.562222
 20
746.477778
 30
0.0
 10
330.764444
 20
746.477778
 30
0.0
 10
329.353333
 20
751.840000
 30
0.0
 10
329.917778
 20
752.686667
 30
0.0
 10
332.457778
 20
752.686667
 30
0.0
 10
332.457778
 20
756.637778
 30
0.0
 10
333.304444
 20
757.484444
 30
0.0
 10
332.810556
 20
760.871111
 30
0.0
 10
329.353333
 20
765.951111
 30
0.0
 10
329.917778
 20
766.797778
 30
0.0
 10
332.457778
 20
766.797778
 30
0.0
 10
332.457778
 20
771.595556
 30
0.0
 10
325.084722
 20
768.702778
 30
0.0
 10
318.346667
 20
764.540000
 30
0.0
 10
317.500000
 20
763.693333
 30
0.0
 10
312.420000
 20
761.118056
 30
0.0
 10
309.033333
 20
756.637778
 30
0.0
 10
308.186667
 20
755.791111
 30
0.0
 10
307.340000
 20
755.226667
 30
0.0
 10
306.493333
 20
754.380000
 30
0.0
 10
305.928889
 20
753.533333
 30
0.0
 10
305.082222
 20
752.686667
 30
0.0
 10
300.319722
 20
750.711111
 30
0.0
 10
294.922222
 20
751.275556
 30
0.0
 10
294.922222
 20
755.791111
 30
0.0
 10
290.124444
 20
757.484444
 30
0.0
 10
288.713333
 20
759.177778
 30
0.0
 10
285.326667
 20
771.595556
 30
0.0
 10
280.811111
 20
771.595556
 30
0.0
 10
277.706667
 20
777.804444
 30
0.0
 10
276.013333
 20
782.602222
 30
0.0
 10
274.602222
 20
784.013333
 30
0.0
 10
271.497778
 20
785.706667
 30
0.0
 10
268.675556
 20
789.093333
 30
0.0
 10
255.693333
 20
790.222222
 30
0.0
 10
255.693333
 20
791.915556
 30
0.0
 10
248.073333
 20
790.222222
 30
0.0
 10
246.380000
 20
791.915556
 30
0.0
 10
243.275556
 20
798.124444
 30
0.0
 10
241.582222
 20
801.228889
 30
0.0
 10
240.171111
 20
807.437778
 30
0.0
 10
243.275556
 20
807.437778
 30
0.0
 10
243.275556
 20
806.026667
 30
0.0
 10
249.484444
 20
806.026667
 30
0.0
 10
246.380000
 20
815.340000
 30
0.0
 10
246.380000
 20
818.444444
 30
0.0
 10
238.477778
 20
818.444444
 30
0.0
 10
240.171111
 20
832.555556
 30
0.0
 10
246.380000
 20
832.555556
 30
0.0
 10
248.073333
 20
838.764444
 30
0.0
 10
238.724722
 20
836.753611
 30
0.0
 10
229.164444
 20
837.071111
 30
0.0
 10
227.471111
 20
833.966667
 30
0.0
 10
226.060000
 20
835.660000
 30
0.0
 10
224.648889
 20
838.764444
 30
0.0
 10
224.648889
 20
841.868889
 30
0.0
 10
227.471111
 20
841.868889
 30
0.0
 10
227.471111
 20
846.666667
 30
0.0
 10
225.001667
 20
846.843056
 30
0.0
 10
224.648889
 20
848.077778
 30
0.0
 10
241.582222
 20
849.771111
 30
0.0
 10
244.510278
 20
850.582500
 30
0.0
 10
246.380000
 20
852.875556
 30
0.0
 10
249.484444
 20
855.980000
 30
0.0
 10
251.283611
 20
857.602778
 30
0.0
 10
252.024444
 20
862.188889
 30
0.0
 10
246.380000
 20
868.397778
 30
0.0
 10
244.686667
 20
870.091111
 30
0.0
 10
243.275556
 20
874.606667
 30
0.0
 10
240.171111
 20
877.711111
 30
0.0
 10
240.171111
 20
881.097778
 30
0.0
 10
235.373333
 20
881.097778
 30
0.0
 10
233.962222
 20
887.306667
 30
0.0
 10
230.857778
 20
893.515556
 30
0.0
 10
227.471111
 20
899.724444
 30
0.0
 10
226.060000
 20
901.417778
 30
0.0
 10
226.060000
 20
907.626667
 30
0.0
 10
232.268889
 20
909.037778
 30
0.0
 10
252.588889
 20
905.933333
 30
0.0
 10
261.902222
 20
904.522222
 30
0.0
 10
263.595556
 20
902.828889
 30
0.0
 10
268.111111
 20
898.313333
 30
0.0
 10
272.908889
 20
896.620000
 30
0.0
 10
273.296944
 20
895.138333
 30
0.0
 10
276.013333
 20
894.926667
 30
0.0
 10
276.013333
 20
898.313333
 30
0.0
 10
279.117778
 20
899.724444
 30
0.0
 10
279.117778
 20
896.620000
 30
0.0
 10
281.834167
 20
896.831667
 30
0.0
 10
282.222222
 20
898.313333
 30
0.0
 10
287.020000
 20
898.313333
 30
0.0
 10
287.020000
 20
901.417778
 30
0.0
 10
291.817778
 20
899.724444
 30
0.0
 10
298.026667
 20
898.313333
 30
0.0
 10
301.660278
 20
894.432778
 30
0.0
 10
305.928889
 20
891.822222
 30
0.0
 10
307.340000
 20
890.411111
 30
0.0
 10
307.728056
 20
888.929444
 30
0.0
 10
310.444444
 20
888.717778
 30
0.0
 10
310.444444
 20
891.822222
 30
0.0
 10
315.242222
 20
893.515556
 30
0.0
 10
316.653333
 20
890.411111
 30
0.0
 10
318.346667
 20
885.613333
 30
0.0
 10
318.346667
 20
884.202222
 30
0.0
 10
315.242222
 20
884.202222
 30
0.0
 10
311.661528
 20
878.249097
 30
0.0
 10
307.128333
 20
873.618889
 30
0.0
 10
302.700972
 20
869.200347
 30
0.0
 10
299.437778
 20
863.882222
 30
0.0
 10
309.139167
 20
870.479167
 30
0.0
 10
312.891840
 20
874.320035
 30
0.0
 10
315.242222
 20
879.404444
 30
0.0
 10
320.040000
 20
879.404444
 30
0.0
 10
318.346667
 20
862.188889
 30
0.0
 10
315.242222
 20
860.495556
 30
0.0
 10
307.340000
 20
859.084444
 30
0.0
 10
307.340000
 20
854.286667
 30
0.0
 10
329.353333
 20
857.673333
 30
0.0
 10
330.764444
 20
855.980000
 30
0.0
 10
330.764444
 20
852.875556
 30
0.0
 10
330.764444
 20
851.182222
 30
0.0
 10
328.683056
 20
846.243333
 30
0.0
 10
327.660000
 20
838.764444
 30
0.0
 10
331.046667
 20
839.893333
 30
0.0
 10
333.868889
 20
849.771111
 30
0.0
 10
338.243333
 20
850.582500
 30
0.0
 10
340.077778
 20
852.875556
 30
0.0
 10
343.182222
 20
852.875556
 30
0.0
 10
347.980000
 20
849.771111
 30
0.0
 10
351.296111
 20
847.478056
 30
0.0
 10
355.882222
 20
846.666667
 30
0.0
 10
365.195556
 20
837.917778
 30
0.0
 10
371.404444
 20
838.764444
 30
0.0
 10
374.508889
 20
840.457778
 30
0.0
 10
377.895556
 20
843.562222
 30
0.0
 10
383.892778
 20
845.537778
 30
0.0
 10
390.313333
 20
844.973333
 30
0.0
 10
390.313333
 20
837.071111
 30
0.0
 10
391.724444
 20
837.071111
 30
0.0
 10
390.313333
 20
823.242222
 30
0.0
 10
387.208889
 20
823.242222
 30
0.0
 10
387.208889
 20
819.855556
 30
0.0
 10
382.799167
 20
819.079444
 30
0.0
 10
380.717778
 20
817.033333
 30
0.0
 10
379.306667
 20
813.646667
 30
0.0
 10
376.202222
 20
813.646667
 30
0.0
 10
375.814167
 20
815.128333
 30
0.0
 10
373.097778
 20
815.340000
 30
0.0
 10
373.097778
 20
812.235556
 30
0.0
 10
369.428889
 20
809.413333
 30
0.0
 10
369.993333
 20
806.026667
 30
0.0
 10
371.404444
 20
804.333333
 30
0.0
 10
371.404444
 20
801.228889
 30
0.0
 10
377.895556
 20
801.228889
 30
0.0
 10
376.202222
 20
790.222222
 30
0.0
 10
371.404444
 20
787.964444
 30
0.0
 10
370.557778
 20
787.117778
 30
0.0
 10
371.404444
 20
771.595556
 30
0.0
 10
374.508889
 20
771.595556
 30
0.0
 10
374.508889
 20
766.797778
 30
0.0
 10
380.717778
 20
765.951111
 30
0.0
 10
383.822222
 20
761.435556
 30
0.0
 10
383.257778
 20
760.588889
 30
0.0
 10
382.411111
 20
758.331111
 30
0.0
 10
381.564444
 20
757.484444
 30
0.0
 10
382.411111
 20
753.533333
 30
0.0
 10
381.564444
 20
752.686667
 30
0.0
 10
374.508889
 20
752.686667
 30
0.0
 10
374.508889
 20
746.477778
 30
0.0
 10
371.404444
 20
746.477778
 30
0.0
 10
371.404444
 20
743.373333
 30
0.0
 10
366.606667
 20
741.115556
 30
0.0
 10
366.042222
 20
740.268889
 30
0.0
 10
362.091111
 20
740.268889
 30
0.0
 10
362.091111
 20
736.317778
 30
0.0
 10
361.244444
 20
735.471111
 30
0.0
 10
362.091111
 20
729.262222
 30
0.0
 10
358.140000
 20
727.851111
 30
0.0
 10
358.140000
 20
727.851111
 30
0.0
  0
LWPOLYLINE
  5
113
100
AcDbEntity
  8
ham
 62
7
100
AcDbPolyline
 90
45
 70
0
 10
331.611111
 20
732.366667
 30
0.0
 10
330.764444
 20
733.213333
 30
0.0
 10
326.813333
 20
735.471111
 30
0.0
 10
325.966667
 20
736.317778
 30
0.0
 10
325.966667
 20
740.268889
 30
0.0
 10
321.345278
 20
739.034167
 30
0.0
 10
316.088889
 20
735.471111
 30
0.0
 10
315.242222
 20
736.317778
 30
0.0
 10
312.702222
 20
738.575556
 30
0.0
 10
312.137778
 20
739.422222
 30
0.0
 10
310.444444
 20
739.422222
 30
0.0
 10
309.880000
 20
738.575556
 30
0.0
 10
308.186667
 20
737.164444
 30
0.0
 10
307.340000
 20
738.011111
 30
0.0
 10
305.470278
 20
744.713889
 30
0.0
 10
305.928889
 20
751.840000
 30
0.0
 10
306.493333
 20
752.686667
 30
0.0
 10
307.340000
 20
753.533333
 30
0.0
 10
308.186667
 20
754.380000
 30
0.0
 10
309.033333
 20
755.226667
 30
0.0
 10
309.880000
 20
755.791111
 30
0.0
 10
313.584167
 20
759.248333
 30
0.0
 10
318.346667
 20
760.588889
 30
0.0
 10
318.346667
 20
762.846667
 30
0.0
 10
319.193333
 20
763.693333
 30
0.0
 10
323.320833
 20
764.928056
 30
0.0
 10
328.506667
 20
768.491111
 30
0.0
 10
329.353333
 20
767.644444
 30
0.0
 10
328.506667
 20
766.797778
 30
0.0
 10
329.000556
 20
763.411111
 30
0.0
 10
332.457778
 20
758.331111
 30
0.0
 10
331.611111
 20
757.484444
 30
0.0
 10
329.353333
 20
753.533333
 30
0.0
 10
328.506667
 20
752.686667
 30
0.0
 10
329.353333
 20
745.066667
 30
0.0
 10
333.868889
 20
745.066667
 30
0.0
 10
334.715556
 20
741.962222
 30
0.0
 10
335.562222
 20
741.115556
 30
0.0
 10
338.666667
 20
736.317778
 30
0.0
 10
337.820000
 20
735.471111
 30
0.0
 10
335.562222
 20
735.471111
 30
0.0
 10
335.562222
 20
733.213333
 30
0.0
 10
334.715556
 20
732.366667
 30
0.0
 10
331.611111
 20
732.366667
 30
0.0
 10
331.611111
 20
732.366667
 30
0.0
  0
ENDSEC
  0
SECTION
  2
OBJECTS
  0
DICTIONARY
  5
C
330
0
100
AcDbDictionary
  3
ACAD_GROUP
350
D
  3
ACAD_MLINESTYLE
350
17
  0
DICTIONARY
  5
D
330
C
100
AcDbDictionary
  0
DICTIONARY
  5
1A
330
C
100
AcDbDictionary
  0
DICTIONARY
  5
17
330
C
100
AcDbDictionary
  3
STANDARD
350
18
  0
DICTIONARY
  5
19
330
C
100
AcDbDictionary
  0
ENDSEC
  0
EOF
